<svg class="img-fluid" id="outputsvg" xmlns="http://www.w3.org/2000/svg" style="transform: none; transform-origin: 50% 50%; cursor: move;" width="2000" height="2000" viewBox="0 0 20000 20000"><g id="l1irVVjtPu3X5djpQQ216ZR" fill="rgb(123,46,1)" style="transform: none;"><g><path id="p6ih9c3M3" d="M5625 19330 c-238 -9 -555 -32 -755 -56 -69 -8 -179 -19 -245 -25 -66 -5 -169 -18 -230 -29 -60 -11 -182 -29 -270 -40 -273 -34 -634 -102 -785 -147 -47 -14 -116 -34 -155 -44 -167 -46 -206 -59 -310 -103 -60 -26 -128 -59 -150 -74 -114 -76 -211 -156 -307 -253 -90 -89 -113 -119 -141 -181 -84 -184 -168 -632 -168 -898 0 -159 23 -282 74 -391 14 -30 40 -89 57 -131 18 -43 36 -80 41 -84 5 -3 9 -13 9 -23 0 -22 78 -128 169 -231 161 -182 387 -387 482 -436 16 -8 69 -43 118 -79 50 -36 93 -65 95 -65 3 0 67 -38 143 -83 76 -46 163 -98 193 -114 62 -35 351 -188 378 -201 9 -5 37 -19 62 -32 212 -108 499 -247 560 -272 180 -70 659 -303 720 -349 31 -24 394 -185 460 -204 48 -15 250 -109 510 -240 503 -253 523 -263 879 -475 101 -61 188 -110 193 -110 6 0 22 -9 36 -21 15 -11 109 -73 209 -137 101 -65 191 -124 200 -132 31 -27 184 -130 193 -130 9 0 221 -147 235 -164 16 -18 324 -246 333 -246 4 0 33 -22 63 -48 29 -26 90 -77 134 -112 295 -237 685 -573 740 -638 15 -18 40 -39 56 -47 38 -20 714 -695 768 -767 24 -32 47 -58 51 -58 8 0 176 -185 294 -325 37 -44 85 -100 106 -125 21 -25 96 -117 167 -205 70 -88 139 -173 153 -188 14 -16 34 -43 45 -62 16 -27 218 -313 247 -350 33 -41 115 -178 151 -252 39 -79 80 -147 98 -163 5 -4 165 -280 224 -385 29 -52 125 -281 125 -298 0 -8 23 -61 51 -118 28 -57 80 -172 115 -256 35 -84 82 -192 105 -240 77 -163 90 -201 185 -523 46 -158 57 -192 80 -245 28 -65 58 -146 104 -280 27 -77 76 -212 110 -300 34 -88 69 -182 77 -210 9 -27 19 -54 23 -60 4 -5 27 -55 50 -110 45 -107 135 -290 151 -309 22 -26 197 -327 203 -349 3 -13 26 -54 51 -91 25 -36 81 -133 124 -214 42 -81 99 -178 126 -217 26 -38 61 -89 77 -111 15 -23 28 -54 28 -68 0 -87 -115 -536 -160 -624 -16 -33 -30 -62 -30 -66 0 -3 -18 -34 -39 -69 -55 -90 -181 -340 -181 -359 0 -18 -99 -172 -166 -260 -24 -31 -85 -100 -136 -153 -51 -53 -99 -107 -107 -119 -8 -11 -40 -51 -71 -87 -30 -36 -80 -96 -110 -133 -30 -38 -63 -78 -74 -90 -10 -11 -34 -41 -54 -66 -20 -25 -48 -58 -63 -75 -30 -33 -121 -203 -150 -280 -17 -45 -18 -64 -10 -176 8 -109 15 -144 55 -263 25 -76 46 -142 46 -147 0 -46 214 -282 362 -399 128 -102 180 -133 365 -215 269 -118 458 -165 671 -165 149 0 239 15 367 60 153 55 291 137 343 204 93 119 146 192 198 271 32 49 67 99 77 110 29 31 68 114 61 128 -4 7 -4 9 1 5 10 -9 40 37 53 84 6 18 27 71 47 118 20 47 70 168 111 270 42 102 84 203 94 225 50 112 136 442 170 655 5 30 22 111 39 180 70 290 131 667 147 902 l6 88 76 41 c43 23 97 56 122 74 60 42 216 135 226 135 26 0 213 162 343 298 135 140 291 330 291 353 0 5 36 64 80 131 84 128 269 491 313 613 172 482 293 966 356 1420 100 719 103 1385 12 2240 -10 99 -19 189 -19 200 1 40 -23 293 -38 405 -15 111 -48 302 -81 460 -17 81 -124 450 -173 594 -16 49 -30 96 -30 105 0 74 -327 856 -506 1211 -86 172 -108 211 -239 437 -44 76 -94 166 -111 200 -17 34 -41 74 -53 90 -13 15 -78 113 -147 217 -68 105 -127 192 -132 195 -14 11 -62 80 -62 89 0 12 -210 291 -325 432 -48 58 -90 114 -95 125 -10 22 -71 92 -255 297 -66 73 -141 158 -167 188 -73 86 -511 523 -654 652 -71 64 -160 146 -198 183 -38 37 -95 85 -125 108 -31 23 -107 84 -169 136 -154 131 -355 291 -365 291 -9 0 -126 86 -142 105 -5 6 -68 53 -140 104 -172 123 -377 258 -782 515 -42 26 -133 78 -202 113 -69 36 -128 69 -131 73 -11 16 -629 340 -649 340 -6 0 -64 25 -129 56 -273 132 -798 354 -836 354 -10 0 -36 8 -59 19 -218 97 -1080 365 -1307 406 -41 7 -142 30 -225 50 -973 234 -2103 351 -3050 315z m575 -300 c324 -12 627 -35 900 -66 118 -14 265 -29 325 -34 135 -10 529 -77 810 -136 693 -146 1461 -381 2054 -628 74 -31 152 -61 174 -67 22 -6 79 -29 126 -51 47 -22 131 -60 186 -85 55 -25 207 -98 337 -164 131 -65 242 -119 248 -119 5 0 31 -13 57 -29 27 -15 134 -77 238 -136 105 -59 233 -134 285 -167 52 -32 115 -69 140 -80 51 -24 97 -54 385 -248 116 -78 214 -148 218 -156 4 -8 14 -14 21 -14 15 0 371 -261 396 -290 20 -23 157 -130 167 -130 11 -1 172 -139 338 -290 76 -69 143 -127 150 -130 24 -9 529 -513 616 -615 47 -55 126 -143 175 -195 103 -111 180 -200 214 -250 28 -41 137 -177 163 -203 28 -28 257 -337 257 -347 0 -4 16 -27 36 -51 45 -54 384 -563 384 -577 0 -10 139 -253 150 -262 9 -7 126 -223 198 -365 185 -366 482 -1045 482 -1102 0 -14 36 -118 185 -533 40 -113 87 -259 105 -325 17 -66 35 -137 41 -158 21 -78 89 -440 89 -472 0 -18 11 -86 25 -151 56 -275 99 -664 116 -1054 23 -538 -13 -1059 -111 -1590 -17 -91 -35 -194 -41 -230 -38 -221 -224 -744 -363 -1020 -24 -47 -56 -112 -72 -145 -35 -74 -125 -224 -169 -285 -19 -25 -76 -103 -129 -173 -53 -70 -96 -131 -96 -136 0 -9 -288 -295 -396 -392 -38 -35 -95 -80 -125 -100 -113 -75 -168 -108 -226 -137 -32 -17 -65 -37 -71 -45 -7 -8 -16 -68 -22 -133 -19 -245 -51 -525 -81 -699 -43 -251 -135 -610 -223 -870 -41 -121 -82 -242 -92 -270 -40 -118 -144 -352 -222 -500 -88 -167 -166 -295 -179 -295 -5 0 -26 34 -47 75 -46 88 -211 313 -247 336 -13 9 -50 42 -81 74 l-58 58 23 31 c13 17 26 39 30 48 3 10 36 63 72 118 103 157 330 602 349 682 4 16 26 74 50 130 90 210 309 857 347 1023 6 28 35 140 65 250 29 110 74 288 99 395 25 107 52 222 62 255 30 111 54 200 64 235 29 110 78 356 84 420 3 41 13 109 20 150 23 123 35 267 35 399 0 69 5 175 10 235 6 61 15 226 21 366 5 140 14 305 20 365 20 214 -11 917 -62 1400 -47 459 -223 1264 -370 1695 -21 63 -39 124 -39 135 0 50 -180 514 -319 823 -50 111 -91 206 -91 211 0 16 -247 487 -334 634 -47 82 -86 154 -87 160 0 7 -17 37 -37 68 -20 31 -53 80 -72 110 -101 157 -233 354 -251 372 -11 12 -36 49 -56 82 -39 67 -197 278 -304 405 -39 47 -84 105 -101 130 -38 54 -127 160 -183 216 -22 22 -85 91 -140 153 -103 117 -654 670 -668 671 -7 0 -249 210 -277 241 -26 29 -183 154 -240 192 -30 20 -84 61 -120 92 -87 73 -405 305 -419 305 -5 0 -25 13 -43 29 -18 16 -94 68 -168 116 -74 48 -186 122 -249 163 -63 41 -146 91 -185 110 -39 20 -125 68 -191 107 -66 40 -160 94 -210 120 -49 26 -143 77 -208 113 -65 35 -146 74 -180 87 -34 12 -141 61 -237 108 -192 93 -563 254 -650 282 -30 10 -115 40 -188 67 -348 130 -903 307 -1097 351 -38 9 -101 23 -140 32 -38 8 -158 36 -265 61 -679 157 -1369 258 -2165 315 -88 7 -470 15 -850 18 l-690 6 -3 35 c-12 153 -67 290 -155 386 l-48 53 73 47 c40 26 129 73 198 104 105 48 153 63 300 94 96 20 191 41 211 46 20 6 60 10 88 10 29 0 125 9 214 20 588 71 1328 102 1917 80z m-2375 -1115 c918 -36 1654 -108 2213 -215 57 -11 119 -20 138 -20 135 0 1188 -263 1558 -389 50 -17 99 -31 111 -31 42 0 426 -139 778 -281 139 -56 280 -112 313 -125 196 -73 926 -435 1150 -570 187 -112 234 -141 337 -206 60 -37 114 -68 120 -68 7 0 23 -10 37 -21 14 -11 104 -73 200 -139 96 -65 207 -144 245 -175 39 -30 88 -66 110 -78 44 -25 261 -189 285 -216 8 -9 69 -60 135 -114 66 -53 140 -113 165 -133 25 -20 115 -103 201 -185 86 -82 176 -164 200 -183 24 -18 91 -85 149 -147 58 -63 169 -180 247 -262 79 -81 151 -160 160 -175 21 -32 174 -216 212 -254 36 -35 187 -229 204 -259 15 -30 96 -140 111 -154 25 -21 278 -389 317 -460 9 -16 66 -111 127 -210 115 -186 282 -484 282 -502 0 -5 37 -84 83 -174 150 -297 306 -652 342 -779 7 -25 47 -142 89 -260 42 -118 105 -312 141 -430 72 -240 175 -649 175 -695 0 -16 13 -100 29 -185 54 -287 93 -574 126 -945 24 -261 40 -1283 24 -1506 -6 -97 -9 -195 -6 -216 12 -72 -43 -491 -109 -833 -25 -129 -50 -269 -56 -310 -39 -286 -187 -855 -333 -1281 -47 -136 -85 -251 -85 -257 0 -39 -180 -444 -372 -842 -80 -165 -241 -457 -258 -470 -4 -3 -15 -19 -24 -37 -9 -17 -20 -34 -25 -37 -5 -4 -40 12 -79 34 -38 22 -76 40 -85 40 -9 0 -41 9 -70 20 -94 35 -477 115 -599 125 l-78 7 25 31 c13 18 67 77 121 132 103 107 223 265 268 355 16 30 39 69 52 87 29 38 293 546 321 618 11 28 31 77 43 110 13 33 43 102 67 154 43 91 59 139 130 390 31 112 34 134 31 227 -3 97 -5 104 -35 146 -50 68 -197 307 -226 368 -15 30 -43 80 -63 110 -20 30 -66 116 -101 190 -36 74 -103 213 -149 308 -46 95 -84 178 -84 186 0 12 -35 103 -70 181 -48 106 -109 262 -250 635 -96 253 -97 257 -132 355 -15 44 -67 190 -114 325 -48 135 -106 286 -129 335 -54 113 -145 340 -145 361 0 9 -13 43 -30 75 -16 33 -59 128 -96 212 -72 167 -75 175 -164 362 -34 72 -84 184 -112 250 -64 155 -151 327 -196 390 -19 27 -65 111 -100 185 -36 74 -71 142 -79 151 -8 9 -26 39 -41 68 -30 56 -228 331 -307 426 -90 108 -125 153 -125 161 0 9 -186 239 -227 280 -37 37 -151 170 -206 241 -108 137 -990 1023 -1019 1023 -9 0 -143 117 -234 205 -27 26 -103 87 -169 135 -165 122 -184 137 -225 170 -92 76 -272 211 -318 240 -29 17 -55 37 -59 44 -7 11 -94 74 -269 195 -67 46 -166 122 -179 136 -15 17 -162 114 -187 124 -24 9 -145 82 -258 156 -36 23 -139 84 -230 135 -91 52 -176 102 -189 112 -13 10 -30 18 -37 18 -15 0 -294 147 -363 192 -102 65 -1210 605 -1326 645 -82 29 -320 129 -400 168 -100 49 -232 105 -248 105 -10 0 -131 58 -492 235 -104 52 -248 122 -320 157 -71 35 -165 82 -210 105 -44 23 -96 47 -116 52 -39 12 -178 94 -237 140 -20 16 -104 70 -187 119 -82 50 -168 107 -190 127 -22 19 -77 65 -122 100 -46 36 -138 127 -205 203 -67 75 -142 157 -165 182 -24 24 -43 48 -43 52 0 4 19 22 42 38 50 37 212 187 350 325 181 180 311 378 349 528 10 41 15 47 38 47 14 0 197 -7 406 -15z"></path></g></g><g id="l75XPiKOeBYZk6szIecEBwU" fill="rgb(246,168,0)" style="transform: none;"><g><path id="pLLdTL7TS" d="M5400 19063 c-362 -11 -845 -46 -1147 -83 -89 -11 -185 -20 -214 -20 -28 0 -68 -4 -88 -10 -20 -5 -115 -26 -211 -46 -148 -31 -195 -46 -301 -94 -69 -32 -165 -83 -213 -115 -99 -65 -99 -46 -5 -151 85 -96 140 -234 151 -384 l3 -35 690 -6 c380 -3 762 -11 850 -18 796 -57 1486 -158 2165 -315 107 -25 227 -53 265 -61 39 -9 102 -23 140 -32 194 -44 749 -221 1097 -351 73 -27 158 -57 188 -67 87 -28 458 -189 650 -282 96 -47 203 -96 237 -108 34 -13 115 -52 180 -87 65 -36 159 -87 208 -113 50 -26 144 -80 210 -120 66 -39 152 -87 191 -107 39 -19 122 -69 185 -110 63 -41 175 -115 249 -163 74 -48 150 -100 168 -116 18 -16 38 -29 43 -29 14 0 332 -232 419 -305 36 -31 90 -72 120 -92 57 -38 214 -163 240 -192 28 -31 270 -241 277 -241 14 -1 565 -554 668 -671 55 -62 118 -131 140 -153 56 -56 145 -162 183 -216 17 -25 62 -83 101 -130 107 -127 265 -338 304 -405 20 -33 45 -70 56 -82 18 -18 150 -215 251 -372 19 -30 52 -79 72 -110 20 -31 37 -61 37 -68 1 -6 40 -78 87 -160 87 -147 334 -618 334 -634 0 -5 41 -100 91 -211 139 -309 319 -773 319 -823 0 -11 18 -72 39 -135 147 -431 323 -1236 370 -1695 49 -470 80 -1147 61 -1345 -5 -58 -14 -220 -19 -360 -6 -140 -15 -305 -21 -366 -5 -60 -10 -171 -10 -245 0 -73 -5 -163 -11 -199 -6 -36 -11 -79 -10 -97 1 -17 -3 -51 -9 -75 -10 -44 -29 -171 -35 -243 -4 -39 -63 -313 -70 -325 -2 -4 -6 -17 -9 -31 -5 -23 -24 -97 -59 -224 -10 -33 -37 -148 -62 -255 -25 -107 -70 -285 -99 -395 -30 -110 -59 -222 -65 -250 -38 -166 -257 -813 -347 -1023 -24 -56 -46 -114 -50 -130 -19 -80 -246 -525 -349 -682 -36 -55 -69 -108 -72 -118 -3 -9 -21 -36 -40 -59 -18 -23 -33 -45 -33 -49 0 -11 80 -96 138 -144 29 -25 89 -93 133 -152 70 -93 107 -152 183 -291 l16 -29 30 29 c86 79 326 549 414 808 10 28 51 149 92 270 88 260 180 619 223 870 30 174 62 454 81 699 6 65 15 125 22 133 6 8 39 28 71 45 58 29 113 62 226 137 30 20 87 65 125 100 108 97 396 383 396 392 0 5 43 66 96 136 53 70 110 148 129 173 44 61 134 211 169 285 16 33 48 98 72 145 139 276 325 799 363 1020 6 36 24 139 41 230 70 381 106 733 116 1135 13 512 -37 1158 -121 1569 -14 65 -25 133 -25 151 0 32 -68 394 -89 472 -6 21 -24 92 -41 158 -18 66 -65 212 -105 325 -149 415 -185 519 -185 533 0 57 -297 736 -482 1102 -72 142 -189 358 -198 365 -11 9 -150 252 -150 262 0 14 -339 523 -384 577 -20 24 -36 47 -36 51 0 10 -229 319 -257 347 -26 26 -135 162 -163 203 -34 50 -111 139 -214 250 -49 52 -128 140 -175 195 -87 102 -592 606 -616 615 -7 3 -74 61 -150 130 -166 151 -327 289 -338 290 -10 0 -147 107 -167 130 -25 29 -381 290 -396 290 -7 0 -17 6 -21 14 -4 8 -102 78 -218 156 -288 194 -334 224 -385 248 -25 11 -88 48 -140 80 -52 33 -180 108 -285 167 -104 59 -211 121 -238 136 -26 16 -52 29 -57 29 -6 0 -117 54 -248 119 -130 66 -282 139 -337 164 -55 25 -139 63 -186 85 -47 22 -104 45 -126 51 -22 6 -100 36 -174 67 -593 247 -1361 482 -2054 628 -281 59 -675 126 -810 136 -60 5 -207 20 -325 34 -524 60 -1184 87 -1730 69z"></path></g></g><g id="l1Nw6qS4enl2ON9l0eucwF3" fill="rgb(255,219,1)" style="transform: none;"><g><path id="p15rXrX4RL" d="M3372 17961 c-6 -3 -15 -26 -22 -51 -40 -152 -169 -346 -347 -525 -94 -94 -286 -271 -380 -351 l-43 -36 31 -39 c17 -22 43 -52 58 -67 15 -15 82 -89 149 -164 67 -76 159 -167 205 -203 45 -35 100 -81 122 -100 22 -20 108 -77 190 -127 83 -49 167 -103 187 -119 59 -46 198 -128 237 -140 20 -5 72 -29 116 -52 45 -23 139 -70 210 -105 72 -35 216 -105 320 -157 361 -177 482 -235 492 -235 16 0 148 -56 248 -105 80 -39 318 -139 400 -168 116 -40 1224 -580 1326 -645 69 -45 348 -192 363 -192 7 0 24 -8 37 -18 13 -10 98 -60 189 -112 91 -51 194 -112 230 -135 113 -74 234 -147 258 -156 25 -10 172 -107 187 -124 13 -14 112 -90 179 -136 175 -121 262 -184 269 -195 4 -7 30 -27 59 -44 46 -29 226 -164 318 -240 41 -33 60 -48 225 -170 66 -48 142 -109 169 -135 91 -88 225 -205 234 -205 29 0 911 -886 1019 -1023 55 -71 169 -204 206 -241 41 -41 227 -271 227 -280 0 -8 35 -53 125 -161 79 -95 277 -370 307 -426 15 -29 33 -59 41 -68 8 -9 43 -77 79 -151 35 -74 81 -158 100 -185 45 -63 132 -235 196 -390 28 -66 78 -178 112 -250 89 -187 92 -195 164 -362 37 -84 80 -179 96 -212 17 -32 30 -66 30 -75 0 -21 91 -248 145 -361 23 -49 81 -200 129 -335 47 -135 99 -281 114 -325 35 -98 36 -102 132 -355 141 -373 202 -529 250 -635 35 -78 70 -169 70 -181 0 -8 38 -91 84 -186 46 -95 113 -234 149 -308 35 -74 81 -160 101 -190 20 -30 48 -80 63 -110 29 -61 176 -300 226 -368 27 -38 32 -53 35 -116 3 -59 -2 -94 -31 -196 -71 -252 -87 -300 -130 -391 -24 -52 -54 -121 -67 -154 -12 -33 -32 -82 -43 -110 -28 -72 -292 -580 -321 -618 -13 -18 -36 -57 -52 -87 -45 -90 -165 -248 -269 -355 -94 -98 -156 -173 -168 -206 -5 -15 8 -18 96 -24 56 -4 140 -16 187 -26 258 -54 368 -81 417 -99 29 -11 61 -20 71 -20 9 0 59 -25 111 -55 52 -31 95 -54 96 -53 1 2 15 26 31 53 15 28 31 52 34 55 18 15 180 310 258 470 192 398 372 803 372 842 0 6 38 121 85 257 146 426 294 995 333 1281 6 41 31 181 56 310 69 359 122 773 111 875 -3 33 -1 110 4 170 6 61 10 191 11 290 0 167 -1 275 -15 875 -9 409 -63 914 -146 1350 -16 85 -29 169 -29 185 0 46 -103 455 -175 695 -36 118 -99 312 -141 430 -42 118 -82 235 -89 260 -36 127 -192 482 -342 779 -46 90 -83 169 -83 174 0 18 -167 316 -282 502 -61 99 -118 194 -127 210 -39 71 -292 439 -317 460 -15 14 -96 124 -111 154 -17 30 -168 224 -204 259 -38 38 -191 222 -212 254 -9 15 -81 94 -160 175 -78 82 -189 199 -247 262 -58 62 -125 129 -149 147 -24 19 -114 101 -200 183 -86 82 -176 165 -201 185 -25 20 -99 80 -165 133 -66 54 -127 105 -135 114 -24 27 -241 191 -285 216 -22 12 -71 48 -110 78 -38 31 -149 110 -245 175 -96 66 -186 128 -200 139 -14 11 -30 21 -37 21 -6 0 -60 31 -120 68 -103 65 -150 94 -337 206 -224 135 -954 497 -1150 570 -33 13 -174 69 -313 125 -352 142 -736 281 -778 281 -12 0 -61 14 -111 31 -370 126 -1423 389 -1558 389 -19 0 -81 9 -138 20 -167 32 -546 87 -788 114 -468 53 -816 77 -1445 101 -225 8 -420 17 -432 19 -12 1 -26 0 -31 -3z m1313 -815 c195 -35 382 -130 503 -257 75 -79 116 -146 137 -223 16 -60 16 -67 0 -121 -14 -49 -28 -70 -85 -127 -140 -140 -327 -178 -571 -117 -151 39 -227 77 -394 200 -78 57 -162 188 -183 285 -24 107 67 244 204 310 128 61 241 76 389 50z m9327 -9330 c76 -27 174 -93 247 -166 94 -96 198 -346 221 -533 19 -152 -20 -327 -106 -470 -59 -99 -119 -150 -205 -177 -81 -24 -134 -25 -208 -4 -78 23 -113 42 -179 95 -83 67 -204 232 -218 299 -3 14 -12 40 -20 57 -30 66 -56 191 -61 293 -6 117 10 217 51 323 13 34 27 71 30 83 10 32 130 151 178 175 109 54 170 60 270 25z"></path></g></g><g id="l1iwuQoHN08YZ4g9uoREBT7" fill="rgb(253,238,77)" style="transform: none;"><g><path id="pjbChumkQ" d="M4402 17175 c-169 -37 -294 -137 -333 -267 -19 -63 -21 -78 -11 -131 15 -78 59 -170 113 -233 45 -51 53 -59 169 -141 174 -125 461 -189 668 -150 120 23 182 55 262 135 54 54 71 79 84 122 21 71 20 125 -4 201 -23 76 -57 129 -133 209 -193 202 -547 313 -815 255z"></path><path id="pqFbQ6i1V" d="M13795 7855 c-22 -7 -59 -23 -83 -34 -48 -24 -168 -143 -178 -175 -3 -12 -17 -49 -30 -83 -13 -34 -31 -97 -40 -140 -31 -148 -6 -410 50 -536 8 -17 17 -43 20 -57 7 -32 65 -129 119 -199 138 -179 345 -253 542 -192 91 28 149 78 209 178 154 258 150 576 -11 900 -61 124 -109 180 -218 259 -119 84 -270 116 -380 79z"></path></g></g></svg>