<?xml version="1.0" encoding="utf-8"?>
<!-- Generator: Adobe Illustrator 16.0.0, SVG Export Plug-In . SVG Version: 6.00 Build 0)  -->
<!DOCTYPE svg PUBLIC "-//W3C//DTD SVG 1.1//EN" "http://www.w3.org/Graphics/SVG/1.1/DTD/svg11.dtd">
<svg version="1.1" id="blender" xmlns="http://www.w3.org/2000/svg" xmlns:xlink="http://www.w3.org/1999/xlink" x="0px" y="0px"
	 width="207px" height="217.667px" viewBox="0 0 207 217.667" enable-background="new 0 0 207 217.667" xml:space="preserve">
<g id="blender_group">
	<path fill="#ECEFF9" d="M29.728,52.423l3.183,23.638c5.454-2.724,11.364-4.093,17.272-4.093c8.181,0,16.364,2.728,22.728,7.728
		c11.366-8.631,26.818-10.001,39.543-3.635l5.003-45.455H14.273c0.908,2.273,2.728,4.095,4.546,4.999l0.455,0.455
		C25.182,39.697,29.272,45.605,29.728,52.423"/>
	<path fill="#C5E3F9" d="M112.001,75.608l5.455-45H95.182l-4.998,41.36C97.455,71.063,105.183,71.968,112.001,75.608"/>
	<path fill="#014463" d="M136.091,21.518h-13.636H8.818c-2.726,0-4.546,1.818-4.546,4.545c0,7.269,4.093,14.087,10.001,17.727
		l0.455,0.455c3.181,1.818,5.453,4.996,5.453,9.091l4.093,30.904c0,1.822,1.363,3.187,2.726,3.638
		c1.365,0.457,3.183,0.457,4.545-0.906c10.911-9.091,27.273-8.186,37.274,1.363c0.91,0.91,1.817,1.365,3.183,1.365
		c1.362,0,2.272-0.455,3.18-1.365c9.999-9.548,26.365-10.454,37.271-1.822c1.367,0.915,3.184,1.365,4.546,0.459
		c1.367-0.459,2.729-1.818,2.729-3.64l6.818-52.723h9.544c2.729,0,4.546,1.818,4.546,4.545v47.728
		c0,8.176-4.546,15.909-11.364,19.54l-18.182,10.456c-2.272,1.367-2.726,4.093-1.815,6.365c0.905,1.362,2.272,2.272,4.088,2.272
		c0.91,0,1.363,0,2.273-0.453l18.182-10.457c10.001-5.451,15.909-16.36,15.909-27.724V35.154
		C149.728,27.421,143.819,21.518,136.091,21.518 M112.001,75.608c-12.727-6.363-28.183-5.005-39.546,3.636
		c-6.363-5.003-14.544-7.726-22.727-7.726c-5.908,0-11.816,1.358-17.272,4.09l-3.183-23.637c0-6.368-4.09-12.271-9.543-15.909
		l-0.91-0.457c-1.818-0.906-3.636-2.723-4.546-4.996h103.183L112.001,75.608z"/>
	<path fill="#E88315" d="M35.181,96.063l5.001,39.089h64.544l5.908-49.998c-10.906-7.273-25.905-5.91-34.999,3.181
		C64.727,98.791,48.362,101.514,35.181,96.063"/>
	<rect x="31.545" y="30.606" fill="#F48476" width="81.818" height="4.546"/>
	<path fill="#004463" d="M117.909,44.243H27c-2.728,0-4.545-1.818-4.545-4.545V26.061c0-2.728,1.818-4.546,4.545-4.546h90.909
		c2.726,0,4.546,1.818,4.546,4.546v13.636C122.455,42.425,120.635,44.243,117.909,44.243 M31.545,35.152h81.818v-4.546H31.545
		V35.152z"/>
	<path fill="#F04D4E" d="M40.636,144.243v3.636c0,7.728-4.545,14.999-11.364,18.182l-0.455,0.457
		c-4.09,1.815-6.363,5.908-6.363,10.453v17.272h100v-17.729c0-4.545-2.727-8.633-6.366-10.453
		c-7.271-3.183-11.816-10.454-11.816-18.182v-3.636H40.636z"/>
	<path fill="#C61C31" d="M49.728,180.606c2.508,0,4.545,2.033,4.545,4.546c0,2.512-2.037,4.545-4.545,4.545
		c-2.508,0-4.546-2.033-4.546-4.545C45.182,182.639,47.219,180.606,49.728,180.606"/>
	<path fill="#C61C31" d="M72.455,180.606c2.508,0,4.545,2.033,4.545,4.546c0,2.512-2.038,4.545-4.545,4.545
		c-2.508,0-4.545-2.033-4.545-4.545C67.909,182.639,69.946,180.606,72.455,180.606"/>
	<path fill="#C61C31" d="M95.182,180.606c2.508,0,4.546,2.033,4.546,4.546c0,2.512-2.038,4.545-4.546,4.545
		s-4.545-2.033-4.545-4.545C90.637,182.639,92.674,180.606,95.182,180.606"/>
	<path fill="#EF626A" d="M112.453,21.515c0-2.728-1.819-4.545-4.545-4.545H36.091c-2.728,0-4.545,1.818-4.545,4.545H112.453z"/>
	<path fill="#ECEFF9" d="M72.455,157.878c2.508,0,4.545,2.033,4.545,4.546s-2.038,4.546-4.545,4.546
		c-2.508,0-4.545-2.033-4.545-4.546S69.946,157.878,72.455,157.878"/>
	<path fill="#014463" d="M72.455,176.061c-7.728,0-13.636-5.908-13.636-13.637c0-7.728,5.908-13.636,13.636-13.636
		s13.636,5.908,13.636,13.636C86.091,170.153,80.183,176.061,72.455,176.061 M72.455,157.878c-2.728,0-4.545,1.82-4.545,4.546
		s1.817,4.546,4.545,4.546c2.728,0,4.545-1.82,4.545-4.546S75.182,157.878,72.455,157.878"/>
	<path fill="#014463" d="M107.908,7.879H86.091c0-2.728-1.819-4.545-4.546-4.545H63.364c-2.728,0-4.545,1.818-4.545,4.545H36.091
		c-7.728,0-13.636,5.908-13.636,13.636v4.546c0,2.728,1.818,4.545,4.545,4.545h89.999c2.729,0,4.546-1.817,4.546-4.545v-4.546
		C121.545,13.787,115.184,7.879,107.908,7.879 M31.545,21.515c0-2.728,1.818-4.545,4.545-4.545h71.817
		c2.73,0,4.545,1.818,4.545,4.545H31.545z"/>
	<path fill="#C16F0E" d="M90.637,116.97H54.272c-2.728,0-4.545,1.819-4.545,4.545s1.817,4.546,4.545,4.546h13.637v9.091H77v-9.091
		h13.637c2.725,0,4.545-1.82,4.545-4.546S93.361,116.97,90.637,116.97"/>
	<rect x="95.182" y="30.606" fill="#F04B4D" width="18.182" height="4.546"/>
	<path fill="#DE333F" d="M95.182,21.515h17.271c0-2.728-1.814-4.545-4.545-4.545H95.182V21.515z"/>
	<rect x="40.636" y="30.606" fill="#F49A98" width="9.091" height="4.546"/>
	<path fill="#FFFFFF" d="M45.182,62.424L45.182,62.424c-2.728,0-4.545-1.817-4.545-4.545V44.243h9.091v13.636
		C49.728,60.607,47.91,62.424,45.182,62.424"/>
	<path fill="#FFE27A" d="M72.455,85.152c-11.819,11.363-30.456,12.273-43.182,2.272l-0.455-3.635
		C41.546,72.878,60.636,73.788,72.455,85.152"/>
	<path fill="#014463" d="M49.728,98.788c-8.181,0-16.364-2.728-23.183-8.181c-0.908-0.91-1.363-1.82-1.817-3.183l-0.455-3.635
		c0-1.365,0.455-3.183,1.82-4.093c14.544-11.816,36.364-10.909,49.545,1.82C76.545,82.424,77,83.334,77,84.697
		c0,1.365-0.455,2.272-1.363,3.183C68.364,95.153,59.273,98.788,49.728,98.788 M34.273,85.152c9.546,6.363,21.817,5.908,30.908,0
		C56.09,79.244,43.819,79.244,34.273,85.152"/>
	<path opacity="0.4" fill="#F7C27C" d="M89.273,81.516l-6.818,53.636h22.275l5.908-50C104.272,81.057,96.545,79.699,89.273,81.516"
		/>
	<path fill="#DE333F" d="M115.637,166.06c-7.271-3.183-11.364-11.363-11.364-19.092v-2.726H86.091v2.726
		c0,8.186,4.093,15.909,11.364,19.092c4.092,1.82,6.817,5.908,6.817,10.453v8.639c0,2.726-1.819,4.545-4.545,4.545H33.363
		c-4.091,0-8.181,1.82-10.909,4.546h81.818h18.183v-4.546v-13.184C122.455,172.425,119.729,168.333,115.637,166.06"/>
	<path fill="#014463" d="M122.455,194.243h-100V176.97c0-4.545,2.273-8.181,6.363-10.453l0.455-0.457
		c6.818-3.636,11.364-10.454,11.364-18.182v-3.636h63.636v3.636c0,7.728,4.546,14.999,11.816,18.639
		c4.093,1.815,6.366,5.908,6.366,10.453V194.243z M150.636,179.329c1.739-7.746,10.98-5.938,11.824,1.001
		c0.479,3.94-1.704,6.692-4.556,8.699C152.723,188.504,149.103,186.16,150.636,179.329z M177.6,187.624
		c-2.899-0.07-7.75,0.85-12.569,1.3c1.1-1.64,1.88-3.52,2.27-5.67c0.96-5.189-1.7-11.57-6.85-13.52
		c-13.33-5.051-20.24,15.699-9.38,22.72c-3.061,1.13-6.261,1.91-9.42,2.52c-2.721,0.53-6.811,1.21-10.11,0.53v-18.99
		c0-7.72-4.54-15-11.81-18.18c-4.091-1.82-6.37-5.91-6.37-10.46v-7.72l6.819-56.36c0-1.37-0.449-3.19-1.819-4.1
		c-5.45-4.54-10.9,3.64-7.721,5.46l-5.909,50H40.18l-5-39.09c3.18,1.36,0.91-9.09-2.72-12.27c-1.37-1.37-3.64-1.37-5-0.46
		c-1.82,0.91-2.73,2.73-2.28,4.55l6.37,52.271v8.18c0,4.55-2.28,8.18-6.37,10.46l-0.45,0.45c-6.82,2.729-11.37,10-11.37,17.729
		v21.82c0,2.72,1.82,4.54,4.55,4.54H127c2.08,0,3.63-1.07,4.25-2.79c8.66,1.73,19.83-2.33,26.6-5.64c0.24-0.11,0.471-0.23,0.69-0.36
		c5.05,0.17,10.68-1.229,15.13-1.7c5.9-0.62,9.59,0.65,12.09,4.48c0.54-0.54,1.2-0.96,1.99-1.24c0.95-0.34,1.93-0.45,2.91-0.38
		C188.03,190.883,184.04,187.793,177.6,187.624z"/>
</g>
<path fill="#014463" d="M202.394,208.991c-0.933-1.734-2.159-3.325-3.144-5.039l2.87-1.238c0,0-5.67-6.6-11.46-7.01
	c-0.98-0.07-1.96,0.04-2.91,0.38c-0.79,0.28-1.45,0.7-1.99,1.24c-4.02,3.85-1.88,13.26-1.88,13.26l11.753-5.07
	c1.048,1.86,2.287,3.6,3.308,5.497C200.162,213.283,203.615,211.262,202.394,208.991z"/>
<path fill="#014463" d="M187.75,203.333c-2.579,0-2.579,4,0,4S190.329,203.333,187.75,203.333z"/>
<path fill="#014463" d="M192.323,210.136c-0.602-0.945-1.191-1.896-1.726-2.88c-0.238-0.439-0.446-0.882-0.607-1.354
	c-0.183-0.537-0.123-0.378-0.062-0.537c0.934-2.408-2.936-3.441-3.857-1.063c-0.719,1.854,0.551,4.059,1.433,5.625
	c0.539,0.957,1.144,1.878,1.732,2.805c0.211,0.332,0.417,0.666,0.618,1.004c0.137,0.23,0.199,0.355,0.23,0.417
	c0.34,1.608,2.713,2.523,3.642,0.69C194.581,213.159,193.194,211.506,192.323,210.136z"/>
</svg>
