<svg class="img-fluid" id="outputsvg" xmlns="http://www.w3.org/2000/svg" style="transform: matrix(1.69, 0, 0, 1.69, 0, 0); transform-origin: 50% 50%; cursor: move; transition: transform 200ms ease-in-out 0s;" width="2000" height="2000" viewBox="0 0 20000 20000"><g id="l4naRlVYubUclfbUyZlXSLj" fill="rgb(16,82,98)" style="transform: none;"><g><path id="p161zYTBKp" d="M7960 15293 c-117 -20 -170 -91 -170 -224 0 -30 -3 -71 -6 -91 l-7 -38 -187 0 c-167 0 -194 -2 -237 -20 -26 -12 -52 -26 -58 -33 -5 -7 -32 -29 -58 -50 -50 -40 -91 -108 -102 -168 -13 -71 20 -428 84 -894 16 -115 39 -284 50 -375 83 -625 224 -1369 386 -2027 30 -122 55 -229 55 -239 0 -31 110 -405 185 -629 40 -121 106 -294 145 -385 40 -91 79 -183 87 -204 22 -62 30 -73 96 -136 77 -73 129 -114 189 -152 27 -16 48 -33 48 -37 0 -4 -21 -27 -46 -51 -51 -51 -116 -146 -164 -239 -42 -85 -120 -284 -120 -309 0 -11 -7 -36 -15 -55 -21 -51 -118 -399 -154 -552 -118 -511 -232 -1154 -251 -1421 -5 -67 -11 -132 -14 -145 -16 -68 -83 -746 -106 -1069 -6 -79 -15 -174 -20 -210 -19 -143 -32 -426 -28 -625 l4 -210 37 -95 c29 -76 45 -103 80 -135 24 -22 46 -48 49 -57 4 -9 45 -35 91 -58 83 -41 88 -42 223 -51 77 -4 306 -8 510 -9 l371 0 5 -82 c4 -52 15 -111 31 -158 22 -61 35 -81 73 -115 90 -76 63 -73 676 -74 528 -1 548 -1 601 19 140 52 222 171 234 339 l6 74 476 -6 c527 -6 558 -4 637 52 23 17 47 31 52 31 21 0 120 120 150 181 46 94 62 185 62 345 0 75 -4 165 -10 198 -5 34 -11 178 -12 322 l-4 261 201 56 c517 145 536 151 590 210 127 136 174 224 201 374 15 86 16 113 5 232 -6 75 -23 213 -36 306 -94 655 -135 963 -135 1004 0 59 -23 148 -54 209 -63 122 -223 221 -561 343 -93 33 -194 72 -223 85 -29 13 -69 28 -90 33 -50 13 -288 104 -340 130 -38 19 -43 26 -62 93 -30 104 -136 408 -177 508 -35 85 -134 263 -153 275 -5 3 -10 14 -10 24 0 10 -7 24 -15 31 -8 7 -15 16 -15 20 0 4 30 22 67 40 139 67 205 156 309 413 25 62 52 126 60 144 8 17 14 40 14 51 0 12 11 51 24 89 47 131 135 410 195 618 74 260 201 760 201 795 0 14 15 93 34 176 182 792 354 1865 376 2339 5 110 12 219 16 243 3 23 0 85 -7 138 l-12 95 -64 58 c-35 33 -79 66 -98 75 -46 22 -154 37 -317 43 l-138 5 -1 92 c-1 164 -2 168 -81 223 l-41 28 -317 3 c-218 3 -329 0 -359 -8 -42 -11 -126 -77 -130 -102 -5 -33 -19 -186 -20 -210 l-1 -28 -999 0 -999 0 -7 113 c-8 128 -28 174 -91 217 l-37 25 -301 1 c-166 1 -312 0 -326 -3z m288 -150 c-10 -2 -28 -2 -40 0 -13 2 -5 4 17 4 22 1 32 -1 23 -4z m215 -10 c-13 -2 -33 -2 -45 0 -13 2 -3 4 22 4 25 0 35 -2 23 -4z m2434 -180 c-3 -10 -5 -2 -5 17 0 19 2 27 5 18 2 -10 2 -26 0 -35z m1128 -238 c57 -29 88 -94 86 -183 -5 -256 -102 -1003 -202 -1562 -23 -124 -45 -254 -50 -290 -50 -345 -248 -1196 -385 -1661 -19 -64 -39 -142 -45 -173 -12 -67 -139 -447 -198 -596 -76 -190 -130 -289 -195 -357 -57 -59 -68 -66 -161 -98 l-100 -35 -1098 0 -1098 0 -46 33 c-75 52 -150 131 -208 221 -61 93 -149 281 -165 349 -5 24 -36 122 -69 218 -33 96 -81 246 -107 334 -61 208 -206 783 -229 905 -9 52 -39 205 -66 340 -129 655 -217 1188 -293 1770 -20 151 -45 339 -56 416 -11 78 -20 178 -20 221 0 91 14 119 78 153 36 19 75 19 2312 17 2253 -2 2275 -2 2315 -22z m-3057 -5190 c2 -2 -5 -71 -17 -152 -11 -81 -27 -197 -35 -258 -9 -60 -31 -208 -51 -327 -64 -399 -105 -651 -135 -838 -46 -287 -118 -728 -147 -905 -15 -88 -27 -193 -27 -233 -1 -69 1 -75 27 -98 23 -19 39 -24 85 -24 35 0 66 6 79 15 34 24 31 8 112 515 17 102 48 295 70 430 22 135 44 282 50 328 6 45 16 119 22 165 10 80 33 227 160 1005 l62 382 513 0 c283 0 514 -3 514 -7 0 -12 317 -2187 330 -2263 6 -36 15 -114 20 -175 11 -133 37 -310 52 -348 16 -42 45 -57 111 -57 68 0 101 25 112 83 5 23 -15 185 -55 459 -33 233 -83 576 -111 763 -27 187 -49 358 -49 380 -1 22 -38 292 -83 600 l-82 560 107 3 c60 1 127 -2 149 -8 48 -13 115 -72 175 -153 40 -55 55 -88 99 -212 9 -27 37 -104 61 -170 215 -579 419 -1600 557 -2778 2 -15 1 -27 -2 -27 -3 0 -48 16 -100 35 -92 34 -292 77 -521 112 -165 25 -568 25 -700 0 -169 -31 -431 -107 -595 -172 -88 -34 -178 -68 -200 -75 -53 -16 -94 -30 -335 -115 -206 -73 -272 -88 -440 -100 -158 -12 -487 28 -667 81 -48 14 -104 30 -123 36 -19 5 -61 18 -92 30 -47 16 -58 25 -58 42 0 31 37 388 61 591 59 508 165 1145 250 1510 17 72 35 159 39 195 5 36 28 130 50 210 129 456 231 697 343 812 66 68 131 117 200 149 35 17 55 19 126 14 47 -3 87 -7 89 -10z m2698 -1120 c88 -35 180 -72 205 -83 24 -11 122 -48 217 -82 238 -85 362 -151 400 -213 34 -54 50 -136 112 -582 33 -236 70 -491 81 -565 27 -182 41 -421 30 -521 -14 -122 -93 -264 -170 -303 -21 -11 -225 -71 -612 -180 l-45 -13 -23 236 c-66 701 -188 1444 -351 2137 -28 116 -50 219 -50 228 0 21 -2 22 206 -59z m-837 -2300 c137 -14 356 -50 532 -88 36 -8 106 -31 155 -52 49 -20 103 -42 121 -48 38 -12 37 -9 53 -245 9 -132 14 -541 8 -542 -27 -4 -3953 -38 -3957 -35 -2 3 3 101 12 218 10 116 20 265 24 330 3 65 9 120 14 122 4 3 47 -7 95 -21 308 -90 548 -121 878 -111 110 4 233 13 271 21 72 14 419 135 650 226 266 105 336 130 358 130 12 0 69 13 127 29 163 45 345 78 446 80 34 0 129 -6 213 -14z m861 -1278 c0 -69 -22 -146 -54 -190 -29 -39 -132 -118 -175 -133 -56 -20 -3308 -20 -3414 0 -98 19 -144 39 -191 84 -45 43 -101 156 -111 225 l-7 47 378 1 c209 1 899 7 1534 13 635 7 1354 13 1598 14 l442 2 0 -63z"></path><path id="pIez86cbc" d="M9575 13575 c-127 -15 -164 -27 -266 -85 -93 -52 -163 -106 -226 -173 -50 -53 -153 -198 -153 -216 0 -5 -13 -49 -29 -98 -86 -255 -51 -595 81 -795 110 -166 325 -332 458 -354 19 -3 67 -13 105 -22 50 -12 110 -17 210 -16 162 1 287 24 390 73 159 74 353 278 425 446 56 130 81 335 61 490 -31 234 -140 425 -335 584 -129 105 -229 147 -406 167 -145 16 -168 16 -315 -1z m273 -231 c44 -8 117 -35 170 -60 231 -111 397 -385 378 -622 -7 -83 -44 -204 -86 -278 -45 -77 -194 -224 -265 -261 -54 -28 -175 -73 -197 -73 -4 0 -8 130 -8 289 0 309 -5 346 -47 362 -33 12 -97 11 -126 -2 -49 -22 -52 -41 -51 -351 l0 -290 -35 7 c-127 23 -332 184 -414 325 -39 68 -76 190 -83 272 -8 96 22 222 77 329 31 59 61 97 122 156 127 121 207 166 352 198 81 18 122 18 213 -1z"></path></g></g><g id="l4WrXcnW6Qivz7ZdQicLsIn" fill="rgb(224,18,1)" style="transform: none;"><g><path id="puRvpowO6" d="M7379 14754 c-78 -37 -89 -59 -89 -187 0 -60 9 -173 20 -251 11 -77 36 -265 56 -416 76 -582 164 -1115 293 -1770 27 -135 57 -288 66 -340 23 -122 168 -697 229 -905 26 -88 74 -238 107 -334 33 -96 64 -194 69 -218 16 -68 104 -256 165 -349 58 -90 133 -169 208 -221 l46 -33 1128 0 1128 0 100 35 c93 32 104 39 161 98 65 68 119 167 195 357 59 149 186 529 198 596 6 31 26 109 45 173 137 465 335 1316 385 1661 5 36 27 166 50 290 104 581 197 1307 204 1593 2 76 -2 100 -20 139 -28 62 -57 79 -156 89 -45 5 -1085 10 -2312 12 l-2230 2 -46 -21z m2481 -1208 c177 -20 277 -62 406 -167 193 -157 303 -349 334 -579 18 -131 -7 -312 -60 -435 -72 -168 -266 -372 -425 -446 -143 -68 -390 -93 -540 -57 -38 9 -86 19 -105 22 -19 3 -64 20 -99 36 -189 90 -367 281 -427 458 -76 227 -80 397 -13 595 16 49 29 93 29 98 0 18 103 163 153 216 63 67 133 121 226 173 115 65 145 73 386 99 6 0 66 -6 135 -13z"></path><path id="pqMc6spPO" d="M9620 4904 c-635 -6 -1326 -12 -1534 -13 l-379 -1 6 -74 c10 -135 93 -271 191 -311 108 -45 91 -45 1869 -45 1353 1 1689 3 1718 14 43 15 146 94 175 133 37 50 54 121 54 220 l0 93 -472 -2 c-260 -1 -993 -7 -1628 -14z"></path></g></g><g id="l2Kc4m80rpgS2XIerjIOHA6" fill="rgb(253,140,19)" style="transform: none;"><g><path id="ptTCwybca" d="M8723 9551 c-69 -32 -134 -81 -200 -149 -112 -115 -214 -356 -343 -812 -22 -80 -45 -174 -50 -210 -4 -36 -22 -123 -39 -195 -112 -483 -235 -1288 -296 -1935 -8 -91 -17 -183 -20 -206 -7 -48 -28 -38 278 -128 193 -57 510 -93 712 -81 177 10 249 26 465 103 222 79 269 95 325 112 22 7 112 41 200 75 164 65 426 141 595 172 130 25 476 24 640 0 311 -47 445 -80 639 -157 l54 -21 -7 83 c-26 313 -142 1079 -247 1633 -66 346 -221 933 -313 1180 -24 66 -52 143 -61 170 -44 124 -59 157 -99 212 -58 79 -126 139 -172 152 -22 6 -103 11 -181 11 -130 0 -143 -2 -143 -18 0 -9 38 -278 85 -596 47 -319 85 -595 85 -615 0 -34 26 -219 160 -1136 57 -388 58 -401 42 -435 -29 -59 -104 -67 -139 -14 -20 31 -49 201 -63 368 -6 65 -15 146 -21 180 -11 67 -329 2246 -329 2259 0 4 -245 7 -544 7 l-543 0 -62 -382 c-127 -778 -150 -925 -160 -1005 -6 -46 -16 -120 -22 -165 -6 -46 -28 -193 -50 -328 -22 -135 -53 -328 -70 -430 -64 -398 -70 -436 -80 -467 -20 -64 -86 -82 -136 -39 -35 31 -35 55 0 271 36 214 111 676 147 905 32 202 80 498 135 838 20 119 43 269 51 332 8 63 27 193 41 288 14 95 23 175 21 178 -3 3 -59 7 -124 10 -105 4 -124 3 -161 -15z"></path></g></g><g id="l4ACrwzFMGCke1dyCVQzFa9" fill="rgb(197,228,249)" style="transform: none;"><g><path id="p17Vc0rqK8" d="M10470 6139 c-117 -18 -229 -42 -330 -70 -58 -16 -115 -29 -127 -29 -22 0 -92 -25 -358 -130 -233 -91 -578 -212 -650 -226 -102 -21 -397 -29 -545 -15 -212 20 -356 49 -595 120 -55 16 -102 27 -104 25 -3 -2 -11 -93 -18 -202 -7 -108 -17 -246 -23 -307 -5 -60 -10 -141 -10 -179 l0 -69 453 7 c248 3 999 11 1667 16 668 6 1369 13 1558 16 l342 6 0 224 c0 201 -12 460 -26 570 -4 35 -9 42 -37 51 -18 6 -72 28 -121 48 -49 21 -119 44 -155 52 -393 85 -743 120 -921 92z"></path></g></g><g id="l2Np2KmTIbRfFly7wyAO2Wa" fill="rgb(255,255,255)" style="transform: none;"><g><path id="p8z0AUaaa" d="M9605 13375 c-145 -32 -225 -77 -352 -198 -142 -136 -210 -310 -200 -512 10 -215 96 -373 277 -514 90 -70 136 -94 217 -115 113 -29 102 -59 100 277 -2 319 0 335 53 357 15 6 39 8 55 4 51 -13 55 -42 55 -369 l0 -296 38 6 c63 11 164 45 227 78 71 37 221 184 265 261 78 138 109 332 76 486 -26 123 -91 240 -190 342 -72 74 -99 94 -178 132 -148 71 -301 92 -443 61z"></path></g></g></svg>