<?xml version="1.0"?>
<svg xmlns:rdf="http://www.w3.org/1999/02/22-rdf-syntax-ns#" xmlns="http://www.w3.org/2000/svg" xmlns:cc="http://creativecommons.org/ns#" xmlns:dc="http://purl.org/dc/elements/1.1/" xmlns:svg="http://www.w3.org/2000/svg" id="svg2" viewBox="0 0 303.87 441.04" version="1.1">
  <g id="layer1" transform="translate(-65.053 -245.86)">
    <g id="g3845">
      <path id="path3801" stroke="#526bab" stroke-width="7.8125" fill="none" d="m257.14 668.08-93.71-374.29"/>
      <path id="path2830" opacity=".85" d="m427.29 564.46c0 11.716-47.714 21.213-106.57 21.213-58.858 0-106.57-9.4975-106.57-21.213s47.714-21.213 106.57-21.213c58.858 0 106.57 9.4975 106.57 21.213z" transform="matrix(1.0033 0 0 .65936 -63.683 29.14)" stroke="#526bab" stroke-width="9.6055" fill="none"/>
      <path id="path2830-1" opacity=".35" d="m427.29 564.46c0 11.716-47.714 21.213-106.57 21.213-58.858 0-106.57-9.4975-106.57-21.213s47.714-21.213 106.57-21.213c58.858 0 106.57 9.4975 106.57 21.213z" transform="matrix(.76803 0 0 .66794 11.77 291.8)" stroke="#526bab" stroke-width="10.908" fill="#fb72a1"/>
      <path id="path2830-1-4-2" opacity=".85" fill="#fb72a1" d="m336.74 668.82c0 7.8254-35.132 14.169-78.47 14.169s-78.47-6.3437-78.47-14.169m156.9 0.0132c2.0474-42.286-5.9259-72.749-7.4232-110.81-0.37432-9.5156-0.34388-19.506 0.34906-30.275 0.34649-5.3845 0.85859-10.964 1.5685-16.775 0.35496-2.9058 0.75941-5.8698 1.2173-8.8966 0.45793-3.0268-0.63106 2.7144 0.36571-4.7163 0-7.4307-33.36-13.454-74.512-13.454s-74.512 6.0238-74.512 13.454c1.0366 7.2955-0.1225 1.6897 0.33543 4.7166 0.45793 3.0268 0.86237 5.9908 1.2173 8.8966 0.70995 5.8117 1.2221 11.391 1.5685 16.775 0.69295 10.769 0.72339 20.76 0.34906 30.275-1.4973 38.063-9.4706 68.526-7.4232 110.81"/>
      <path id="path2830-1-4" opacity=".85" d="m459.85 164.41c-75.923 217.63-27.047 273.45-32.584 400.06 0.024 11.706-47.689 21.203-106.55 21.203-58.858 0-106.57-9.4975-106.57-21.213l0.003 0.0101c-5.5579-126.61 43.318-182.42-32.605-400.06" transform="matrix(.76803 0 0 .66794 11.77 291.8)" stroke="#526bab" stroke-width="10.908" fill="none"/>
      <path id="path2830-1-0" opacity=".85" d="m179.69 496.45c0-7.4196 35.087-15.434 78.37-15.434 43.282 0 78.37 8.0147 78.37 15.434" stroke="#526bab" stroke-width="7.8125" fill="none"/>
      <path id="path2830-1-4-9" opacity=".85" d="m427.29 564.46c0 11.716-47.714 21.213-106.57 21.213-58.858 0-106.57-9.4975-106.57-21.213" transform="matrix(.73156 0 0 .63389 23.466 139.56)" stroke="#526bab" stroke-width="11.472" fill="none"/>
      <g id="g3835" transform="translate(-1.7003 2)">
        <path id="path3821" fill="#e829a9" d="m100.5 344.36 59.312-71.062-25.812 16.062-30.5 21.5l-28.425 29.36-3.075 17.64 28.5-13.5z"/>
        <path id="path3823" fill="#ff9ddb" d="m159.31 273.86-59.312 70.5 14 15 22.5-20.5 22.812-65z"/>
        <path id="path3825" d="m135.88 340.36 23.125-67.25 16 55.5-21.5 19-17.5-7.75-0.125 0.5z" fill="#e829a9"/>
        <path id="path3827" fill="#ff9ddb" d="m175.12 329.36-16.375-56.375 54.75 43.5-13.936 21.385-24.439-8.5104z"/>
        <path id="path3833" d="m171.41 275.3 81.671 32.527 20.329-5.4801-10.783-7.6014s-40.482-12.021-42.25-12.198c-1.7678-0.17678-39.244-8.3085-39.244-8.3085l-9.7227 1.0607z" fill="#ff9ddb"/>
        <path id="path3829" fill="#e829a9" d="m159.25 273.36 54.375 44 30.371 1.7249 13.743-15.595-96.49-31.005-2 0.875z"/>
        <path id="path3831" fill="#fad0ec" d="m148.6 278.83s4.7484 3.0907 7.4246 3.8891c3.805 1.1351 6.9246-0.0747 10.076-2.1213 2.454-1.5935 4.9498-6.7175 4.9498-6.7175l-9.5459-8.3085-8.4853-18.915-3.8891 3.7123 3.182 24.572-3.7123 3.8891z"/>
        <path id="path3803" stroke="#526bab" stroke-width="7.8125" fill="none" d="m72.629 355.58c10.143 7.3581 20.275-16.095 30.019-10.802 4.9184 2.6721 4.7859 12.766 10.366 13.211 7.3974 0.59053 8.1405-7.526 16.347-15.113 8.2066-7.587 18.951 0.21581 24.854 6.417 5.9035 6.2012 7.8782-13.595 14.126-17.944 3.3222-2.3126 5.9598-5.703 11.556-3.731 5.5964 1.972 21.37 17.028 22.125 7.7962 0.75529-9.2314 7.513-20.451 18.539-19.12l21.051 2.5407c7.7428 0.93451 12.847-11.632 18.772-13.966 5.9249-2.3344 16.262 6.554 14.721-1.6404-1.5409-8.1944-40.744-17.428-62.267-21.939l-49.172-10.306-3.6294-12.398c-0.68326-2.334-1.9668-4.5135-3.4987-6.4024-1.2841-1.5834-3.7063-5.7872-4.6457-3.9779 0 0-3.105 4.0272-3.3391 6.4313-0.62594 6.4289 5.4441 18.597 5.4441 18.597-24.161 16.899-56.441 44.972-67.656 57.437s-19.679 16.39-13.712 24.908z"/>
      </g>
    </g>
  </g>
  <metadata>
    <rdf:RDF>
      <cc:Work>
        <dc:format>image/svg+xml</dc:format>
        <dc:type rdf:resource="http://purl.org/dc/dcmitype/StillImage"/>
        <cc:license rdf:resource="http://creativecommons.org/licenses/publicdomain/"/>
        <dc:publisher>
          <cc:Agent rdf:about="http://openclipart.org/">
            <dc:title>Openclipart</dc:title>
          </cc:Agent>
        </dc:publisher>
        <dc:title>Pink cocktail</dc:title>
        <dc:date>2010-06-08T07:00:36</dc:date>
        <dc:description>A pink cocktail with an umbrella.</dc:description>
        <dc:source>http://openclipart.org/detail/64981/pink-cocktail-by-laobc</dc:source>
        <dc:creator>
          <cc:Agent>
            <dc:title>laobc</dc:title>
          </cc:Agent>
        </dc:creator>
        <dc:subject>
          <rdf:Bag>
            <rdf:li>beverage</rdf:li>
            <rdf:li>clip art</rdf:li>
            <rdf:li>clipart</rdf:li>
            <rdf:li>cocktail</rdf:li>
            <rdf:li>drink</rdf:li>
            <rdf:li>pink</rdf:li>
            <rdf:li>summer</rdf:li>
            <rdf:li>summer2010</rdf:li>
            <rdf:li>umbrella</rdf:li>
          </rdf:Bag>
        </dc:subject>
      </cc:Work>
      <cc:License rdf:about="http://creativecommons.org/licenses/publicdomain/">
        <cc:permits rdf:resource="http://creativecommons.org/ns#Reproduction"/>
        <cc:permits rdf:resource="http://creativecommons.org/ns#Distribution"/>
        <cc:permits rdf:resource="http://creativecommons.org/ns#DerivativeWorks"/>
      </cc:License>
    </rdf:RDF>
  </metadata>
</svg>
