<svg class="img-fluid" id="outputsvg" xmlns="http://www.w3.org/2000/svg" style="transform: none; transform-origin: 50% 50%; cursor: move;" width="2000" height="2000" viewBox="0 0 20000 20000"><g id="l7ZMqjFFb58pLglsI0GWok0" fill="rgb(255,255,255)" style="transform: none;"><g><path id="p1A9SCeIDa" d="M10071 14928 c-89 -39 -91 -41 -91 -74 0 -31 3 -34 29 -34 17 0 66 14 110 32 61 23 81 36 81 50 0 10 -7 18 -17 18 -17 1 -17 1 0 11 9 5 17 14 17 18 0 23 -47 15 -129 -21z"></path><path id="p2PWIuCDq" d="M12530 14920 c0 -16 7 -20 35 -20 40 0 49 24 13 34 -38 10 -48 7 -48 -14z"></path><path id="p1Ddkk447K" d="M12970 14850 c0 -16 7 -20 35 -20 40 0 49 24 13 34 -38 10 -48 7 -48 -14z"></path><path id="pCWKvZ282" d="M10268 14793 c-33 -8 -20 -33 17 -33 28 0 35 4 35 20 0 20 -14 23 -52 13z"></path><path id="pmxCtIYmT" d="M10188 14783 c-33 -8 -20 -33 17 -33 28 0 35 4 35 20 0 20 -14 23 -52 13z"></path><path id="p16zu0OWf" d="M9810 14695 c0 -33 2 -35 35 -35 28 0 35 4 35 19 0 11 -6 22 -12 24 -10 4 -10 6 0 6 29 2 9 21 -23 21 -33 0 -35 -2 -35 -35z"></path><path id="pJm17hIxO" d="M14530 14275 c0 -22 4 -25 35 -25 43 0 44 10 6 33 -38 22 -41 22 -41 -8z"></path><path id="pF7ptKIZx" d="M8373 14155 c-43 -18 -42 -35 2 -35 31 0 35 3 35 25 0 14 -1 25 -2 25 -2 -1 -18 -7 -35 -15z"></path><path id="potgii2ZC" d="M6980 13420 c0 -5 -6 -10 -13 -10 -7 0 -44 -21 -82 -46 -77 -50 -304 -191 -347 -214 -58 -32 -488 -348 -521 -384 -12 -12 -29 -26 -37 -29 -49 -23 -76 -47 -245 -214 -163 -162 -219 -233 -184 -233 8 0 8 -5 -1 -15 -11 -13 -7 -15 23 -15 29 0 45 9 91 54 30 30 124 112 208 181 84 70 166 139 183 154 16 14 38 31 47 36 24 14 381 287 393 300 15 17 147 110 166 117 16 6 240 157 249 168 3 4 28 22 55 40 28 19 52 37 53 42 2 4 10 8 18 8 9 0 14 11 14 35 0 33 -2 35 -35 35 -19 0 -35 -4 -35 -10z"></path><path id="pIkWbSxAm" d="M6346 11990 c-147 -10 -356 -35 -466 -56 -41 -8 -107 -19 -147 -24 -83 -11 -334 -91 -446 -143 -105 -49 -258 -140 -346 -206 -41 -31 -84 -62 -96 -68 -22 -13 -41 -34 -125 -136 -91 -110 -184 -273 -223 -390 -52 -154 -62 -232 -62 -482 0 -199 3 -246 23 -345 48 -241 123 -461 241 -705 32 -66 61 -128 65 -138 17 -50 173 -302 287 -465 71 -101 129 -186 129 -189 0 -9 80 -115 100 -133 9 -8 36 -40 60 -70 246 -307 576 -653 895 -940 77 -69 162 -147 190 -174 27 -27 61 -56 75 -65 28 -18 298 -237 345 -280 48 -44 162 -131 171 -131 5 -1 65 -43 134 -95 171 -129 405 -295 448 -316 19 -10 62 -38 94 -61 32 -24 136 -92 231 -153 96 -60 193 -123 218 -139 24 -16 89 -53 144 -81 55 -29 139 -76 185 -105 85 -52 414 -234 500 -276 25 -12 146 -71 270 -132 295 -145 628 -298 679 -312 23 -6 103 -37 179 -69 152 -65 253 -104 387 -151 50 -17 104 -37 120 -44 17 -8 91 -33 165 -56 74 -23 173 -55 220 -71 47 -16 98 -29 113 -29 15 0 119 -25 230 -55 111 -31 234 -60 272 -66 39 -6 151 -28 250 -49 682 -146 1267 -204 1795 -180 537 24 929 114 1260 289 63 34 119 61 123 61 5 0 43 23 84 52 81 56 230 202 294 289 22 30 49 65 60 79 52 64 118 217 157 364 26 98 27 110 26 361 0 242 -2 268 -27 385 -51 244 -138 478 -269 728 -45 86 -96 184 -113 217 -46 92 -303 477 -340 510 -21 18 -85 102 -85 110 0 14 -186 238 -275 330 -48 50 -104 113 -125 140 -21 28 -81 91 -132 142 -51 50 -156 153 -234 230 -160 157 -308 293 -319 293 -4 0 -26 17 -49 38 -23 20 -77 69 -121 109 -105 95 -314 263 -341 273 -11 5 -34 21 -50 38 -16 16 -101 82 -189 147 -88 65 -192 142 -231 171 -39 30 -74 54 -78 54 -3 0 -88 55 -188 123 -237 160 -450 297 -463 297 -6 0 -42 21 -80 46 -66 43 -345 207 -547 321 -51 29 -99 53 -107 53 -8 0 -75 33 -150 74 -184 100 -616 311 -688 335 -57 19 -181 71 -215 91 -39 22 -564 231 -698 278 -655 227 -1457 438 -1795 472 -44 4 -152 18 -240 29 -366 49 -861 71 -1159 51z m1169 -1335 c66 -8 156 -22 200 -30 44 -9 115 -20 157 -25 110 -13 426 -99 678 -185 282 -96 297 -102 490 -179 91 -36 171 -66 178 -66 23 0 167 -67 530 -246 193 -96 355 -174 358 -174 8 0 457 -251 474 -265 26 -22 203 -127 245 -145 35 -15 519 -333 593 -390 15 -11 59 -41 97 -67 83 -54 297 -216 410 -308 44 -37 89 -70 100 -75 25 -11 152 -118 322 -270 70 -63 145 -128 166 -144 54 -40 522 -515 571 -579 23 -30 79 -100 126 -156 119 -143 256 -328 282 -381 12 -25 39 -72 61 -105 145 -221 267 -564 267 -752 0 -78 -28 -200 -64 -277 -29 -64 -110 -171 -141 -188 -12 -7 -47 -32 -77 -54 -100 -77 -230 -128 -423 -166 -91 -18 -144 -22 -305 -22 -243 0 -439 24 -740 90 -166 37 -558 147 -748 210 -160 54 -523 196 -652 257 -162 75 -214 97 -227 97 -28 0 -492 238 -723 370 -47 27 -92 50 -100 50 -8 1 -61 29 -117 63 -57 34 -172 104 -257 155 -86 51 -191 116 -235 145 -44 29 -115 74 -158 100 -76 47 -149 97 -405 279 -68 48 -154 108 -193 135 -38 26 -99 75 -135 108 -63 57 -224 198 -277 240 -44 36 -475 446 -572 544 -286 291 -349 358 -381 401 -42 57 -184 234 -244 305 -55 65 -138 188 -168 251 -13 27 -52 99 -86 159 -108 195 -188 433 -199 595 -6 96 14 187 69 300 54 113 171 231 286 289 100 50 317 105 492 125 68 8 357 -3 475 -19z"></path><path id="p1Ev38xdQy" d="M4749 11533 c-61 -60 -120 -120 -131 -135 l-19 -28 30 0 c28 0 31 3 31 29 0 26 4 30 33 33 29 3 32 6 35 40 3 35 5 37 40 40 34 3 37 6 40 36 3 28 7 32 33 32 26 0 29 3 29 30 0 17 -2 30 -5 30 -3 0 -55 -48 -116 -107z"></path><path id="p1CR5WI3jP" d="M4567 11328 c-65 -89 -68 -98 -32 -98 21 0 25 5 25 30 0 23 4 30 20 30 16 0 20 7 20 35 0 19 -2 35 -4 35 -3 0 -16 -15 -29 -32z"></path><path id="p17eiIacu3" d="M4326 10588 c-10 -38 -7 -48 14 -48 16 0 20 7 20 35 0 40 -24 49 -34 13z"></path><path id="pnInjJI2e" d="M4320 10463 c0 -34 12 -63 26 -63 10 0 14 13 14 40 0 33 -3 40 -20 40 -12 0 -20 -7 -20 -17z"></path><path id="pUbcwjONO" d="M4330 10328 c0 -30 13 -58 26 -58 9 0 14 12 14 35 0 28 -4 35 -20 35 -11 0 -20 -6 -20 -12z"></path><path id="p9afOAwy8" d="M4340 10250 c0 -37 24 -110 36 -110 15 0 17 23 8 83 -5 27 -11 37 -25 37 -11 0 -19 -4 -19 -10z"></path><path id="p17JTrT6Os" d="M4740 9164 c0 -12 34 -64 42 -64 4 0 8 16 8 35 0 31 -3 35 -25 35 -14 0 -25 -3 -25 -6z"></path><path id="pUO4scIGs" d="M4820 9011 c0 -6 11 -23 25 -38 l24 -28 1 38 c0 33 -3 37 -25 37 -14 0 -25 -4 -25 -9z"></path><path id="pOWbueNNO" d="M5120 8580 c31 -44 40 -45 40 -6 0 33 -2 36 -31 36 l-30 0 21 -30z"></path><path id="psCiM7gbf" d="M5192 8495 c29 -44 38 -44 38 0 0 32 -2 35 -30 35 l-30 0 22 -35z"></path><path id="pZ2Lepk8o" d="M5410 8220 c31 -44 40 -45 40 -6 0 33 -2 36 -31 36 l-30 0 21 -30z"></path><path id="p17GirKLRk" d="M5578 8042 c12 -16 28 -35 37 -42 15 -12 16 -10 13 26 -3 36 -5 39 -37 42 l-33 3 20 -29z"></path><path id="p3Gky6XK6" d="M6565 7110 c3 -5 19 -19 35 -30 l30 -21 0 30 c0 29 -3 31 -36 31 -20 0 -33 -4 -29 -10z"></path><path id="p170wAkmiO" d="M6880 6865 c0 -2 37 -32 83 -66 45 -34 88 -67 95 -72 9 -7 12 -2 12 22 0 24 -4 31 -20 31 -11 0 -20 7 -20 15 0 8 -9 15 -20 15 -11 0 -20 7 -20 15 0 8 -9 15 -20 15 -11 0 -20 7 -20 15 0 10 -11 15 -35 15 -19 0 -35 -2 -35 -5z"></path><path id="p1HhUK4YHW" d="M7115 6690 c3 -5 19 -19 35 -30 l30 -21 0 30 c0 29 -3 31 -36 31 -20 0 -33 -4 -29 -10z"></path><path id="pOwH4anZ8" d="M7345 6520 c3 -5 19 -19 35 -30 l30 -21 0 30 c0 29 -3 31 -36 31 -20 0 -33 -4 -29 -10z"></path><path id="py6FpiaQn" d="M7713 6275 c36 -32 47 -31 47 0 0 22 -4 25 -37 25 l-38 -1 28 -24z"></path><path id="p1Has6r4Hg" d="M8220 5972 c0 -8 52 -42 64 -42 3 0 6 11 6 25 0 22 -4 25 -35 25 -19 0 -35 -4 -35 -8z"></path><path id="ps3U8t21N" d="M8810 5648 c1 -7 21 -22 45 -34 l45 -21 0 27 c0 30 -15 40 -61 40 -17 0 -29 -5 -29 -12z"></path><path id="pcYn1JYLD" d="M8930 5582 c0 -7 17 -18 63 -40 4 -2 7 8 7 22 0 23 -4 26 -35 26 -19 0 -35 -4 -35 -8z"></path><path id="pAM7IvruE" d="M9420 5330 c0 -8 51 -40 65 -40 3 0 5 11 5 25 0 22 -4 25 -35 25 -19 0 -35 -4 -35 -10z"></path><path id="p9FYZDbFU" d="M15640 5280 c0 -11 -4 -20 -10 -20 -5 0 -10 -17 -10 -37 0 -37 0 -37 20 -18 10 11 26 37 35 58 l15 37 -25 0 c-18 0 -25 -5 -25 -20z"></path><path id="p170GCM8Qj" d="M15580 5145 c0 -43 10 -44 33 -6 22 38 22 41 -8 41 -22 0 -25 -4 -25 -35z"></path><path id="pWSjkwfct" d="M15520 5070 c0 -11 -7 -20 -15 -20 -9 0 -15 -9 -15 -25 0 -18 -5 -25 -20 -25 -17 0 -20 -7 -20 -37 l1 -38 34 40 c19 22 49 59 65 83 l31 42 -30 0 c-24 0 -31 -4 -31 -20z"></path><path id="p2aumPYxm" d="M15160 4730 c0 -5 -7 -10 -15 -10 -8 0 -15 -4 -15 -10 0 -5 -7 -10 -15 -10 -9 0 -15 -9 -15 -25 0 -14 3 -25 8 -25 11 0 84 50 105 72 17 17 17 18 -18 18 -19 0 -35 -4 -35 -10z"></path><path id="pHQGif4fH" d="M11810 4486 c0 -13 28 -26 58 -26 6 0 12 9 12 20 0 16 -7 20 -35 20 -23 0 -35 -5 -35 -14z"></path></g></g><g id="l26lcBuU8wt4x1LhqCCRrEu" fill="rgb(104,59,17)" style="transform: none;"><g style="transform: none;"><path id="pZqeaWpRW" d="M11570 14970 c-392 -18 -698 -58 -1250 -165 -47 -9 -164 -35 -260 -58 -186 -45 -213 -50 -192 -41 6 3 12 10 12 15 0 13 -54 11 -68 -3 -9 -9 -12 -4 -12 25 0 34 -2 37 -30 37 -53 0 -80 -19 -80 -57 0 -31 2 -33 33 -33 27 -1 17 -8 -75 -56 -60 -31 -108 -62 -108 -69 0 -8 -16 -17 -37 -21 -21 -3 -72 -27 -113 -52 -41 -25 -113 -65 -160 -89 -47 -25 -92 -50 -100 -58 -8 -7 -27 -18 -43 -24 -23 -9 -27 -16 -27 -52 l0 -41 88 6 c82 6 85 6 49 -8 -20 -7 -43 -19 -51 -25 -11 -9 -16 -9 -21 0 -16 24 -195 -11 -195 -38 0 -8 -13 -13 -35 -13 -48 0 -139 -38 -216 -91 -35 -24 -84 -55 -110 -69 -25 -14 -67 -41 -94 -60 -26 -19 -125 -89 -219 -155 -145 -102 -172 -125 -176 -150 -5 -26 -18 -36 -118 -87 -117 -60 -202 -123 -354 -262 -69 -62 -88 -86 -88 -106 0 -24 -8 -30 -64 -54 -50 -21 -80 -44 -137 -104 -97 -101 -268 -294 -348 -393 -35 -43 -66 -77 -69 -74 -5 5 39 64 167 220 77 93 91 115 91 146 0 34 3 38 58 62 32 15 65 35 73 44 21 27 39 61 39 76 0 7 24 27 53 44 30 18 85 61 123 96 140 129 298 267 306 267 5 0 53 34 108 77 93 71 100 79 100 111 l0 35 -42 -6 c-27 -3 -94 -33 -182 -81 -77 -42 -141 -76 -143 -76 -2 0 -3 14 -3 30 0 24 -4 30 -22 31 -15 0 -18 2 -8 6 8 3 27 14 42 24 34 24 48 24 48 -1 0 -16 7 -20 35 -20 28 0 35 4 35 20 0 16 7 20 35 20 33 0 35 2 35 34 0 28 -4 35 -22 38 -20 3 -19 5 10 15 31 11 32 11 32 -13 0 -21 5 -24 35 -24 33 0 35 2 35 34 0 28 -4 35 -22 38 -19 2 -15 6 19 20 l43 16 0 -24 c0 -20 5 -24 29 -24 49 0 61 9 61 46 0 28 -4 34 -22 34 -20 1 -18 4 12 19 62 33 80 35 80 12 0 -17 6 -21 29 -21 50 0 61 9 61 49 0 35 2 37 87 81 48 25 91 47 95 48 4 2 8 -8 8 -22 0 -23 4 -26 33 -26 48 0 60 12 55 55 -3 28 0 39 14 46 15 8 18 6 18 -16 0 -22 4 -25 35 -25 33 0 35 2 35 34 0 19 -6 36 -12 39 -7 2 1 8 17 12 17 4 36 12 43 18 9 7 12 4 12 -12 0 -17 6 -21 35 -21 32 0 35 2 35 30 0 36 33 54 93 51 28 -2 37 1 37 13 0 9 9 16 21 16 11 0 54 23 96 50 42 28 84 50 94 50 12 0 19 7 19 19 0 19 25 31 68 31 12 0 22 4 22 9 0 5 10 12 23 15 41 11 69 40 65 68 l-3 26 -109 -40 c-61 -22 -116 -47 -124 -54 -7 -8 -26 -14 -42 -14 -16 0 -32 -4 -35 -10 -3 -5 -17 -10 -30 -10 -13 0 -61 -16 -107 -36 -46 -20 -130 -55 -188 -79 -58 -24 -124 -53 -147 -64 -23 -11 -83 -39 -135 -62 -211 -93 -634 -299 -690 -336 -26 -18 -50 -33 -54 -33 -5 0 -154 -80 -284 -153 -30 -17 -81 -44 -114 -61 -32 -17 -70 -37 -85 -45 -42 -23 -260 -161 -274 -175 -18 -18 -238 -167 -256 -174 -19 -7 -152 -100 -166 -117 -5 -6 -36 -30 -67 -54 -32 -24 -58 -45 -58 -48 0 -4 100 66 184 128 27 21 61 43 75 50 34 17 277 166 316 194 37 27 67 42 40 21 -11 -9 -27 -22 -35 -29 -30 -25 -244 -169 -259 -175 -19 -7 -151 -100 -166 -117 -12 -13 -369 -286 -393 -300 -9 -5 -31 -22 -47 -36 -17 -15 -100 -85 -185 -155 -85 -71 -173 -147 -195 -169 -73 -73 -81 -71 -15 4 35 41 105 111 155 156 160 146 172 158 80 84 -186 -150 -325 -278 -325 -298 0 -5 4 -11 10 -13 5 -1 -30 -39 -78 -82 -48 -43 -189 -177 -313 -297 -124 -120 -243 -231 -265 -247 -22 -16 -68 -56 -102 -90 -56 -54 -63 -64 -60 -94 3 -31 5 -33 40 -33 34 0 50 12 201 157 90 86 181 167 203 179 70 41 108 59 121 59 7 0 46 13 87 30 460 182 1062 252 1721 199 269 -21 778 -96 980 -144 80 -19 355 -80 430 -95 86 -18 370 -99 575 -163 179 -57 634 -218 669 -237 11 -5 27 -10 36 -10 37 0 574 -226 829 -349 71 -34 150 -69 175 -78 52 -17 166 -74 223 -109 21 -13 53 -24 72 -24 24 0 35 -5 39 -17 2 -11 63 -49 143 -91 77 -41 173 -93 214 -117 41 -25 81 -44 88 -45 21 0 605 -350 670 -400 13 -11 29 -20 34 -20 13 0 359 -232 493 -331 61 -44 119 -84 130 -89 23 -9 129 -86 195 -141 47 -39 309 -243 346 -269 38 -26 264 -220 444 -381 344 -307 720 -701 966 -1014 193 -245 285 -371 313 -425 17 -34 106 -177 177 -287 41 -62 244 -472 244 -492 0 -7 25 -87 55 -177 30 -91 67 -222 82 -292 26 -119 28 -142 28 -367 0 -132 -4 -264 -9 -292 -8 -49 -7 -53 11 -53 11 0 25 11 33 28 8 15 19 34 25 42 6 8 37 73 70 145 32 72 80 176 107 233 26 56 48 107 48 112 0 10 103 261 143 350 25 55 177 461 177 472 0 4 -6 8 -14 8 -10 0 -1 39 31 148 69 228 103 354 103 388 0 28 3 30 28 27 27 -4 27 -4 69 149 116 418 233 1042 260 1381 l6 77 -30 0 c-38 0 -48 -22 -64 -134 -12 -83 -13 -86 -39 -86 -23 0 -30 -9 -60 -77 -19 -43 -58 -130 -88 -193 -110 -231 -142 -303 -142 -316 0 -7 -85 -185 -188 -396 -187 -381 -213 -439 -249 -552 -21 -68 -52 -121 -72 -121 -8 0 -22 11 -32 25 -18 24 -18 28 -2 90 9 36 26 88 39 115 12 28 25 61 29 75 4 14 30 72 58 130 46 98 57 131 74 235 3 22 10 43 15 46 8 5 115 412 128 489 4 25 37 178 73 340 36 162 79 356 94 430 16 77 29 123 31 107 4 -33 -23 -178 -84 -451 -55 -247 -55 -246 -9 -246 28 0 35 4 35 20 0 10 10 29 23 42 28 30 88 121 113 173 23 50 44 74 44 51 0 -12 10 -16 35 -16 19 0 35 5 35 11 0 6 7 17 15 25 8 9 15 31 15 50 0 27 -4 34 -20 34 -11 0 -20 5 -20 10 0 6 3 10 8 10 4 0 16 17 27 38 11 20 22 39 26 42 3 3 36 57 74 120 38 63 75 121 82 128 7 7 13 18 13 23 0 5 9 9 19 9 21 0 31 19 31 60 0 16 6 33 14 37 34 19 109 243 81 243 -20 0 -77 -90 -96 -150 -4 -14 -5 29 -2 95 10 235 -22 739 -67 1055 -56 386 -175 848 -299 1164 -28 71 -51 136 -51 143 0 52 -245 541 -351 698 -26 39 -56 90 -68 115 -30 62 -155 233 -286 391 -60 72 -114 139 -120 148 -19 31 -101 117 -215 226 -63 60 -114 113 -113 117 2 4 -4 8 -12 8 -9 0 -15 9 -15 24 0 29 -17 44 -22 19 -2 -14 -11 -9 -43 23 -52 52 -143 128 -174 144 -20 10 -194 136 -241 174 -112 90 -446 274 -705 388 -49 22 -110 49 -135 60 -115 53 -531 195 -594 204 -23 3 -89 17 -149 31 -94 22 -106 27 -95 41 12 13 7 14 -39 8 -30 -4 -80 -2 -118 5 -55 11 -63 15 -52 27 10 13 5 14 -43 7 -65 -9 -54 -9 -160 9 -131 23 -375 45 -600 56 -224 10 -294 10 -540 0z m737 -240 c4 -15 14 -20 37 -20 30 0 32 -2 28 -28 -3 -25 -7 -27 -38 -24 -31 4 -34 7 -34 38 l0 34 -50 0 c-28 0 -67 -7 -87 -15 -19 -8 -45 -15 -58 -15 -12 0 -32 -9 -45 -20 -13 -11 -37 -20 -55 -20 -66 0 -95 -11 -95 -35 0 -13 -7 -25 -15 -29 -8 -3 -15 -1 -15 4 0 32 -169 -8 -632 -149 -92 -28 -174 -51 -182 -51 -8 0 -117 -34 -242 -75 -212 -69 -231 -77 -271 -117 -24 -23 -43 -37 -43 -30 0 25 -88 12 -207 -29 -65 -23 -125 -47 -133 -54 -24 -19 -174 -111 -191 -117 -20 -8 -184 -115 -229 -150 -49 -38 -379 -268 -385 -268 -3 0 -5 11 -5 25 0 21 5 25 30 25 21 0 57 20 122 68 51 38 135 97 186 131 87 58 92 63 92 97 l0 36 -50 -4 c-35 -2 -50 1 -50 10 0 7 13 12 30 12 16 0 53 11 82 24 29 13 132 54 228 90 207 79 185 68 385 178 89 48 167 88 175 88 8 0 29 9 45 21 32 21 141 79 150 79 3 0 5 -16 5 -35 0 -34 1 -35 38 -35 21 0 105 23 188 51 424 143 1115 327 1237 328 41 1 50 -2 54 -19z m-77 -120 c0 -5 -5 -10 -11 -10 -6 0 -72 -39 -147 -87 -75 -47 -158 -98 -184 -111 -26 -14 -61 -38 -78 -54 -17 -15 -35 -28 -41 -28 -5 0 -9 -4 -9 -10 0 -5 -7 -10 -15 -10 -11 0 -15 -11 -15 -38 0 -26 -7 -45 -20 -57 -18 -16 -20 -16 -20 -2 0 13 -9 17 -35 17 -19 0 -35 -4 -35 -10 0 -5 -7 -10 -15 -10 -8 0 -15 -4 -15 -10 0 -5 -7 -10 -15 -10 -9 0 -15 -9 -15 -25 0 -22 -4 -25 -35 -25 -19 0 -35 -4 -35 -10 0 -5 -7 -10 -15 -10 -19 0 -21 -70 -2 -70 6 -1 1 -10 -13 -21 -22 -19 -25 -19 -28 -5 -5 22 -72 23 -72 1 0 -8 -9 -15 -20 -15 -11 0 -20 -4 -20 -10 0 -5 -9 -10 -20 -10 -11 0 -20 -4 -20 -10 0 -5 -9 -10 -20 -10 -11 0 -23 -7 -26 -15 -4 -8 -13 -15 -20 -15 -8 0 -17 -7 -20 -15 -4 -8 -11 -15 -16 -15 -6 0 -48 -28 -94 -62 -76 -56 -84 -65 -84 -95 0 -33 0 -33 49 -33 56 0 81 7 81 24 0 6 16 24 35 39 34 27 35 27 35 6 0 -20 4 -21 47 -16 26 3 49 10 51 16 2 6 13 11 25 11 12 0 76 18 142 39 115 37 232 70 375 105 200 49 466 121 470 126 3 4 25 10 50 14 34 5 69 23 130 67 l85 60 3 -30 c3 -29 6 -31 41 -31 20 0 61 6 91 14 103 27 521 107 743 142 269 43 533 57 582 31 43 -22 67 -52 63 -79 -3 -20 -9 -23 -48 -26 -78 -5 -270 -32 -400 -57 -190 -37 -482 -115 -509 -136 -13 -11 -39 -19 -57 -19 -33 0 -34 1 -34 40 0 37 -2 40 -28 40 -30 0 -230 -41 -414 -85 -59 -14 -118 -25 -130 -25 -13 0 -76 -12 -141 -27 -116 -26 -118 -27 -197 -92 -74 -61 -80 -69 -80 -103 0 -36 2 -38 33 -38 30 0 155 40 232 74 50 23 376 128 381 124 2 -3 -94 -39 -214 -80 -269 -94 -628 -234 -664 -259 -14 -11 -29 -19 -33 -19 -9 0 -314 -279 -377 -345 -37 -38 -48 -57 -48 -82 0 -32 1 -33 45 -33 25 0 53 5 63 10 17 10 127 53 287 112 44 16 76 25 70 20 -14 -13 -174 -82 -212 -92 -61 -15 -538 -261 -545 -281 -4 -10 -14 -19 -23 -19 -8 0 -15 -8 -15 -17 -1 -18 -33 -63 -45 -63 -15 0 -35 -30 -35 -54 0 -16 -6 -26 -15 -26 -11 0 -15 11 -15 36 l0 36 -47 -5 c-62 -6 -112 -25 -215 -83 -46 -26 -175 -98 -287 -160 -111 -62 -208 -118 -215 -123 -20 -17 -138 -81 -149 -82 -7 0 -67 -32 -134 -72 -67 -40 -186 -110 -265 -156 -79 -46 -178 -106 -221 -133 -43 -26 -81 -48 -84 -48 -20 0 -105 -67 -122 -96 -24 -40 -43 -43 -76 -9 -34 33 -32 46 17 94 66 66 522 360 560 361 7 1 38 16 68 35 30 19 120 69 200 111 80 42 188 100 240 129 130 72 277 145 292 145 7 0 63 25 123 56 61 31 171 84 245 119 315 146 274 118 498 341 177 176 202 205 202 233 0 28 -3 31 -33 31 -19 0 -62 -14 -96 -31 -35 -16 -114 -53 -175 -80 -61 -28 -171 -82 -244 -120 -74 -39 -135 -69 -138 -67 -12 13 650 348 688 348 6 0 47 14 90 32 67 28 78 35 78 56 0 14 15 41 35 63 34 38 35 38 35 14 0 -22 4 -25 35 -25 31 0 35 3 35 25 0 20 5 25 25 25 20 0 25 5 25 25 0 21 5 25 30 25 23 0 30 4 30 20 0 15 7 20 25 20 22 0 25 4 25 35 0 33 -2 35 -35 35 -28 0 -35 -4 -35 -20 0 -15 -7 -20 -25 -20 -20 0 -25 -5 -25 -25 0 -20 -5 -25 -25 -25 -21 0 -25 5 -25 30 0 27 -3 30 -31 30 -37 0 -177 -35 -560 -140 -160 -44 -297 -80 -304 -80 -8 0 -20 -6 -27 -13 -7 -7 -49 -18 -92 -24 -43 -6 -82 -16 -85 -21 -3 -5 -27 -12 -53 -16 -37 -6 -58 -18 -110 -64 -34 -32 -94 -84 -133 -116 -38 -33 -85 -76 -103 -97 -18 -21 -41 -41 -52 -44 -11 -4 -20 -12 -20 -19 0 -7 -27 -38 -60 -70 -33 -32 -60 -63 -60 -69 0 -7 -24 -38 -53 -69 -40 -43 -60 -58 -80 -58 -24 0 -27 -4 -27 -32 0 -45 -55 -108 -93 -108 -23 0 -27 -4 -27 -28 0 -16 -9 -40 -21 -53 -11 -13 -24 -30 -28 -38 -5 -7 -15 -11 -25 -10 -14 4 -14 9 8 49 47 88 197 268 370 445 165 168 176 182 176 217 0 36 -2 38 -33 38 -26 0 -224 -69 -359 -125 -10 -4 -18 -5 -18 -2 0 2 48 26 108 52 59 26 134 60 167 75 86 38 239 95 314 116 35 10 66 25 69 33 9 24 43 51 64 51 11 0 18 7 18 20 0 15 7 20 25 20 18 0 25 5 25 20 0 15 7 20 25 20 16 0 25 6 25 15 0 8 9 15 20 15 16 0 20 7 20 34 0 27 8 41 42 72 24 22 43 33 46 26 6 -18 72 -15 72 3 0 8 9 15 20 15 15 0 20 7 20 25 0 21 5 25 30 25 23 0 30 4 30 20 0 16 7 20 35 20 33 0 35 2 35 35 0 33 -2 35 -35 35 -28 0 -35 -4 -35 -20 0 -15 -7 -20 -25 -20 -41 0 -30 28 18 41 25 8 74 39 120 77 72 59 77 66 77 102 0 35 -3 39 -27 42 l-28 4 30 13 c17 8 40 17 53 22 43 17 77 31 92 39 9 4 31 11 50 15 19 4 41 12 48 18 7 5 15 8 17 5 3 -2 -14 -19 -38 -36 -23 -17 -73 -61 -112 -97 -38 -36 -73 -65 -77 -65 -4 0 -8 -11 -8 -25 0 -21 -5 -25 -30 -25 -28 0 -30 -3 -30 -35 0 -33 2 -35 35 -35 31 0 35 3 35 25 0 21 5 25 33 25 22 1 51 15 92 45 87 63 305 200 343 215 28 11 32 17 32 51 0 39 0 39 -40 39 -22 0 -57 -7 -77 -15 -19 -8 -38 -15 -41 -15 -8 0 101 69 110 70 4 0 24 11 44 25 44 30 54 31 54 5 0 -11 -4 -20 -10 -20 -5 0 -10 -16 -10 -35 0 -33 2 -35 35 -35 24 0 35 5 35 15 0 8 9 15 20 15 13 0 20 7 20 20 0 16 7 20 34 20 25 0 35 5 39 20 3 13 14 20 30 20 14 0 60 20 103 45 89 50 84 48 84 35z m165 -370 c-38 -38 -71 -67 -74 -64 -5 5 128 133 139 134 2 0 -27 -31 -65 -70z m-1235 -34 c0 -2 -15 -9 -32 -15 -30 -10 -31 -9 -14 4 18 14 46 20 46 11z m-107 -51 c-11 -8 -71 -38 -132 -66 -61 -29 -111 -56 -111 -60 0 -5 -9 -9 -20 -9 -16 0 -20 -7 -20 -33 0 -31 -3 -33 -67 -55 -38 -13 -81 -30 -98 -37 -16 -8 -105 -46 -197 -84 -170 -72 -189 -82 -313 -155 -38 -22 -81 -47 -95 -54 -65 -33 -119 -77 -120 -97 -1 -12 -46 -65 -57 -65 -4 0 -2 5 5 12 7 7 12 27 12 45 0 29 -3 33 -27 33 -16 0 -107 -41 -203 -91 -96 -51 -193 -101 -215 -112 -22 -11 -47 -26 -55 -33 -8 -6 -44 -27 -80 -46 -36 -19 -74 -39 -85 -46 -11 -7 -49 -26 -85 -42 -74 -34 -126 -63 -188 -103 -66 -43 -70 -43 -74 -6 -3 28 5 40 67 100 46 45 71 63 73 54 3 -11 17 -15 50 -15 50 0 84 16 485 223 92 48 176 87 185 87 9 0 67 24 127 54 61 30 130 64 155 75 26 12 80 55 127 103 l83 83 0 -32 c0 -31 2 -33 34 -33 19 0 38 5 41 11 4 5 17 14 28 19 12 5 45 23 72 39 48 29 399 205 555 279 41 20 91 44 110 54 42 21 62 24 33 3z m1244 -10 c-7 -14 -18 -25 -26 -25 -10 0 -7 8 9 25 29 31 31 31 17 0z m2378 -110 c29 -13 28 -13 -40 -15 -38 0 -106 -7 -150 -15 -44 -8 -110 -19 -146 -25 -68 -10 -341 -85 -439 -121 -39 -14 -67 -33 -97 -67 -37 -41 -43 -44 -43 -24 0 18 -6 22 -33 22 -30 0 -182 -46 -232 -69 -45 -22 -403 -153 -442 -162 -23 -6 -57 -20 -75 -33 -28 -18 -33 -28 -33 -61 0 -33 4 -40 24 -45 22 -5 20 -7 -18 -19 -24 -7 -50 -15 -60 -18 -14 -4 -14 -3 2 10 9 8 17 28 17 46 0 30 -2 31 -42 31 -52 0 -128 -28 -128 -46 0 -9 -11 -14 -30 -14 -16 0 -30 -4 -30 -10 0 -5 -13 -10 -30 -10 -28 0 -30 -3 -30 -35 0 -33 2 -35 35 -35 19 0 35 5 35 10 0 6 14 10 31 10 l32 0 -26 -20 c-14 -11 -38 -20 -54 -20 -61 0 -73 -9 -73 -54 0 -23 -4 -46 -9 -51 -12 -12 -37 -385 -28 -408 7 -19 51 -22 91 -7 52 19 24 -2 -39 -31 l-65 -29 0 -150 0 -150 38 0 c39 0 41 2 170 179 14 18 56 68 94 110 58 65 68 81 68 113 0 37 -1 38 -35 38 -20 0 -65 -13 -102 -30 -36 -16 -68 -30 -72 -30 -18 0 53 35 194 95 138 59 166 74 202 114 23 25 42 51 43 57 0 5 14 20 30 32 l30 23 0 -35 c0 -33 2 -35 37 -38 36 -3 32 -5 -60 -42 l-98 -38 -102 -124 c-224 -274 -317 -389 -317 -397 0 -5 -9 -20 -20 -34 -11 -14 -20 -34 -20 -44 0 -12 -7 -19 -20 -19 -16 0 -20 -7 -20 -35 0 -33 2 -35 35 -35 28 0 35 4 35 20 0 16 7 20 30 20 16 0 53 11 82 24 52 23 121 46 246 82 35 9 65 21 68 26 3 4 18 8 33 8 15 0 32 5 39 12 9 9 12 7 12 -10 0 -17 -6 -22 -28 -22 -24 0 -96 -24 -177 -60 -18 -7 -108 -38 -209 -70 -22 -7 -77 -30 -123 -52 l-83 -39 0 -94 c0 -93 0 -95 26 -101 14 -4 59 1 100 10 41 9 92 16 112 16 21 0 43 5 50 12 9 9 12 8 12 -5 0 -11 -8 -17 -25 -17 -22 0 -25 -4 -25 -34 0 -35 -8 -48 -56 -85 -22 -17 -26 -27 -22 -61 2 -22 0 -40 -4 -40 -5 0 -8 7 -8 15 0 9 -9 15 -25 15 -14 0 -25 5 -25 11 0 6 -17 9 -42 7 -42 -3 -43 -4 -46 -40 -3 -37 -3 -38 32 -38 46 0 46 -12 1 -33 -35 -17 -35 -17 -35 -82 0 -134 59 -589 90 -695 5 -19 10 -47 10 -63 0 -40 26 -87 67 -123 29 -26 32 -32 20 -42 -12 -10 -18 -7 -36 20 -11 18 -36 53 -56 78 -44 57 -92 179 -116 295 -25 122 -50 341 -50 442 0 58 -4 83 -12 83 -9 0 -11 36 -9 141 l3 142 -58 -7 c-32 -4 -79 -8 -104 -9 l-47 -2 19 27 c10 14 19 35 19 45 0 10 9 25 20 33 11 8 20 20 20 27 0 7 5 13 10 13 6 0 10 16 10 35 0 31 3 35 25 35 18 0 25 5 25 20 0 11 7 20 15 20 8 0 15 9 15 20 0 11 7 20 15 20 20 0 23 18 35 217 14 243 17 223 -27 223 l-38 1 38 20 c21 11 40 25 42 32 6 15 35 309 35 348 0 27 -3 29 -41 29 -35 0 -48 -7 -97 -54 -45 -43 -59 -51 -69 -41 -9 10 2 27 53 80 52 56 64 74 64 102 0 31 -2 33 -35 33 -28 0 -35 4 -35 20 0 16 -7 20 -32 21 -27 1 -10 12 100 65 89 42 136 70 139 83 4 15 16 20 59 23 39 3 59 11 73 26 10 13 30 22 45 22 26 0 27 3 25 40 -2 21 0 42 4 46 4 4 7 -7 7 -24 0 -30 3 -32 33 -32 28 0 179 59 332 129 22 11 112 47 200 80 88 34 173 68 188 75 36 17 363 124 399 131 15 3 43 19 63 36 19 17 35 26 35 20 0 -17 53 -13 141 9 210 54 413 73 474 45z m-5055 -95 c0 -5 15 -10 33 -11 26 0 15 -7 -58 -35 -60 -23 -100 -45 -120 -67 -27 -28 -37 -32 -82 -32 l-52 0 30 28 c21 18 41 27 65 27 27 0 34 4 34 20 0 20 29 39 98 64 48 18 52 18 52 6z m-300 -160 c-19 -13 -30 -13 -30 0 0 6 10 10 23 10 18 0 19 -2 7 -10z m5329 -51 c-29 -34 -86 -95 -126 -135 -63 -63 -73 -79 -73 -109 0 -19 5 -35 10 -35 6 0 10 -13 10 -30 0 -16 -4 -30 -10 -30 -5 0 -10 9 -10 20 0 15 -7 20 -29 20 -60 0 -110 -33 -111 -72 0 -11 -8 -18 -20 -18 -16 0 -20 -7 -20 -34 0 -30 4 -35 26 -38 24 -3 22 -6 -39 -55 -35 -29 -68 -53 -72 -53 -4 0 -25 -16 -48 -35 -23 -20 -43 -31 -45 -25 -5 15 -68 12 -81 -4 -7 -8 -11 -30 -9 -48 2 -27 -3 -38 -31 -60 -22 -18 -46 -28 -67 -28 -32 0 -34 -2 -34 -34 0 -42 -40 -76 -89 -76 -27 0 -31 -3 -31 -29 0 -33 -34 -61 -75 -61 -17 0 -25 -5 -25 -17 0 -26 -31 -53 -62 -53 -25 0 -28 -4 -28 -31 0 -19 8 -39 20 -49 20 -18 20 -18 -5 -22 -17 -4 -25 -1 -25 8 0 9 -12 14 -35 14 -31 0 -35 -3 -35 -25 0 -26 -25 -45 -59 -45 -14 0 -21 -6 -21 -19 0 -22 -35 -51 -62 -51 -10 0 -18 -9 -20 -22 -2 -16 -13 -26 -35 -32 -21 -7 -33 -17 -35 -30 -2 -14 -14 -24 -35 -30 -17 -6 -34 -18 -36 -28 -3 -11 -14 -18 -30 -18 -19 0 -26 -6 -29 -22 -2 -15 -11 -24 -25 -26 -17 -3 -23 -10 -23 -28 0 -20 -5 -24 -30 -24 -27 0 -30 -3 -30 -31 0 -28 29 -68 49 -69 16 -1 378 43 391 48 8 2 35 6 60 7 25 1 70 5 100 8 200 22 428 32 439 21 10 -10 -17 -14 -224 -34 -121 -12 -249 -25 -285 -30 -36 -5 -95 -10 -132 -10 -60 0 -68 -2 -68 -19 0 -10 -7 -21 -15 -25 -8 -3 -15 0 -15 6 0 12 -140 6 -226 -11 -121 -24 -114 -25 -114 14 0 33 -2 35 -35 35 -28 0 -35 -4 -35 -20 0 -14 -7 -20 -22 -20 -19 1 -12 11 42 61 36 33 88 77 115 98 83 64 145 131 145 156 0 19 6 24 33 27 29 3 32 6 35 39 3 37 18 49 65 49 11 0 26 8 35 19 10 10 51 49 92 87 41 37 154 143 250 235 96 92 198 186 225 210 28 24 83 75 123 113 65 62 72 73 72 107 0 31 -4 38 -22 41 -12 2 19 14 68 27 103 29 101 27 364 275 96 91 177 166 178 166 2 0 -20 -28 -49 -61z m-5961 1 c10 0 1 -11 -21 -26 -21 -14 -40 -24 -42 -22 -2 2 6 19 18 37 11 19 23 29 25 23 2 -7 11 -12 20 -12z m3162 -5 c0 -8 -7 -15 -16 -15 -14 0 -14 3 -4 15 7 8 14 15 16 15 2 0 4 -7 4 -15z m3251 -283 l13 -102 29 0 c28 0 29 -1 22 -37 -10 -53 -141 -530 -171 -621 -13 -41 -24 -85 -24 -98 0 -13 -4 -24 -10 -24 -5 0 -10 -15 -10 -34 0 -19 -5 -36 -11 -38 -5 -2 -13 -24 -16 -48 -3 -25 -9 -47 -13 -50 -11 -9 -40 -94 -40 -119 0 -12 7 -30 16 -39 15 -14 15 -16 -5 -24 -20 -7 -21 -14 -21 -152 0 -79 -7 -258 -15 -397 -9 -138 -13 -260 -10 -270 4 -11 2 -19 -4 -19 -6 0 -11 -16 -11 -35 0 -33 2 -35 35 -35 19 0 35 3 35 8 0 4 9 12 19 17 37 19 207 163 313 266 106 104 106 104 118 169 6 36 22 126 36 200 13 74 24 149 24 167 0 18 4 33 8 33 25 0 56 805 32 820 -10 6 -11 12 -3 22 6 7 13 66 15 135 2 100 6 126 21 140 16 17 18 16 38 -4 12 -11 25 -41 29 -65 19 -97 33 -346 33 -563 0 -470 -68 -870 -298 -1755 -37 -140 -76 -293 -87 -340 -37 -158 -78 -314 -139 -530 -91 -320 -129 -471 -129 -512 0 -37 1 -38 36 -38 28 0 47 10 87 45 29 25 53 41 55 35 2 -5 19 -10 38 -10 32 0 34 2 34 34 0 19 -6 37 -12 39 -7 3 4 6 25 6 33 1 37 4 37 26 0 14 5 25 10 25 6 0 10 11 10 25 0 16 7 28 20 33 11 4 75 98 150 219 l131 213 45 207 c25 115 50 237 56 273 6 36 46 247 89 470 69 355 98 518 163 930 l15 95 -5 -85 c-10 -167 -104 -796 -181 -1210 -25 -135 -47 -266 -50 -292 l-6 -48 42 0 41 0 -36 -72 c-20 -40 -56 -108 -80 -150 -24 -43 -44 -90 -44 -105 0 -15 -7 -53 -15 -83 -8 -30 -15 -67 -15 -82 0 -24 4 -28 30 -28 l30 0 -22 -35 c-14 -22 -34 -38 -50 -42 -16 -3 -28 -12 -28 -19 0 -7 -32 -118 -71 -246 -39 -128 -75 -248 -80 -265 -10 -34 -29 -45 -29 -17 0 9 16 80 36 157 22 85 34 150 30 168 -5 24 -2 29 14 29 16 0 20 7 20 35 0 33 -2 35 -35 35 -31 0 -35 -3 -35 -25 0 -18 -5 -25 -20 -25 -16 0 -20 -7 -20 -33 0 -24 -9 -41 -31 -63 -25 -24 -129 -190 -129 -206 0 -9 -224 -380 -267 -444 -60 -88 -153 -243 -153 -255 0 -6 -14 -30 -31 -55 -16 -24 -37 -61 -46 -82 -27 -62 -26 -18 1 62 27 80 146 322 227 464 49 85 65 152 36 152 -9 0 -11 12 -9 40 4 35 2 40 -17 40 -12 0 -21 6 -21 15 0 10 11 15 35 15 33 0 35 2 35 35 0 33 -2 35 -35 35 -19 0 -35 2 -35 5 0 14 123 674 140 750 11 50 20 109 20 133 0 41 -1 42 -34 42 -26 0 -36 -5 -41 -20 -3 -11 -10 -20 -14 -20 -5 0 -16 -20 -25 -45 -10 -25 -21 -45 -26 -45 -4 0 -13 -13 -20 -30 -7 -16 -15 -30 -19 -30 -3 0 -15 -19 -26 -41 -10 -23 -21 -36 -23 -30 -3 10 46 111 60 121 8 7 139 272 161 328 14 35 21 42 45 42 28 0 29 1 46 98 10 53 22 102 26 107 5 6 11 33 15 60 7 56 41 253 86 490 39 209 39 205 -10 205 -32 0 -44 -6 -63 -31 -13 -17 -42 -49 -65 -72 -23 -23 -104 -111 -181 -194 l-140 -152 -7 -63 c-4 -35 -15 -123 -26 -196 -10 -73 -19 -146 -19 -163 0 -50 -79 -373 -132 -537 -58 -181 -139 -405 -144 -399 -2 2 18 71 45 153 27 82 64 195 81 251 63 207 150 654 150 772 l0 51 -37 -1 c-36 -1 -48 -11 -188 -160 -183 -194 -1082 -1083 -1099 -1087 -7 -1 -20 6 -30 17 -22 24 -15 40 63 134 31 38 69 85 84 105 44 59 467 482 633 633 148 135 151 139 180 214 16 41 30 71 32 65 2 -5 17 -10 33 -10 23 0 53 19 125 80 52 43 100 83 108 87 7 4 15 16 19 26 3 9 13 17 21 17 9 0 18 11 22 24 3 15 14 26 27 28 17 2 23 11 25 36 2 17 7 32 12 32 15 0 21 49 30 258 5 114 13 262 16 330 l7 123 -39 -3 c-30 -2 -40 -8 -42 -23 -10 -59 -210 -580 -219 -572 -1 2 13 50 31 108 77 234 136 440 136 473 0 24 5 36 13 36 15 0 37 62 37 104 0 14 5 26 10 26 6 0 10 16 10 35 0 33 -2 35 -35 35 -33 0 -35 -2 -35 -35 0 -19 -4 -35 -8 -35 -11 0 -32 -69 -32 -104 0 -14 -5 -26 -11 -26 -13 0 -77 -65 -146 -147 -24 -27 -53 -61 -65 -75 -69 -76 -85 -95 -89 -106 -5 -16 -376 -401 -523 -545 -88 -85 -112 -103 -114 -88 -2 14 -13 21 -37 23 l-34 3 74 180 c41 99 82 195 91 213 31 58 24 28 -11 -57 -19 -45 -35 -98 -35 -117 0 -33 1 -34 38 -34 34 0 44 7 94 63 31 34 66 72 77 84 12 12 21 25 21 29 0 4 24 30 53 59 28 28 88 91 132 140 44 49 91 100 104 114 86 94 215 234 262 286 152 163 149 159 149 194 l0 33 -104 -4 c-67 -2 -109 -8 -120 -17 -12 -11 -16 -11 -16 -1 0 10 -26 12 -120 6 -68 -4 -120 -3 -120 2 0 9 41 13 276 29 121 8 244 -4 244 -23 0 -9 11 -14 35 -14 31 0 35 3 35 28 0 15 10 56 21 92 18 53 21 89 21 198 l0 132 39 0 c21 0 39 1 39 3 0 1 27 109 60 238 33 130 66 276 75 324 17 99 21 340 5 350 -6 4 -8 11 -4 16 14 23 33 -33 45 -129z m-1521 115 c0 -2 -13 -16 -30 -32 l-30 -29 0 32 c0 29 3 32 30 32 17 0 30 -1 30 -3z m-5961 -10 c-2 -1 -12 -9 -21 -16 -15 -12 -18 -11 -18 3 0 10 8 16 22 16 12 0 19 -1 17 -3z m1711 -11 c0 -2 -7 -9 -15 -16 -12 -10 -15 -10 -15 4 0 9 7 16 15 16 8 0 15 -2 15 -4z m-1842 -48 c23 -3 10 -13 -83 -65 l-110 -62 -6 27 c-8 38 17 61 135 124 29 15 31 15 34 -2 2 -12 13 -20 30 -22z m1282 22 c-24 -19 -40 -25 -40 -15 0 5 51 34 60 34 3 0 -6 -8 -20 -19z m510 -15 c0 -2 -9 -9 -20 -15 -16 -9 -20 -8 -20 5 0 8 9 15 20 15 11 0 20 -2 20 -5z m1540 -18 c0 -2 -12 -14 -27 -28 l-26 -24 19 27 c16 23 34 36 34 25z m-2180 -37 c0 -17 -2 -19 -14 -8 -10 9 -11 15 -2 20 16 11 16 10 16 -12z m569 1 c-26 -21 -35 -20 -26 4 4 8 16 15 28 15 21 0 21 0 -2 -19z m609 -30 c-5 -13 -148 -173 -148 -165 0 4 15 23 33 43 41 47 91 111 95 122 2 5 8 9 14 9 5 0 8 -4 6 -9z m-2575 -71 c17 0 11 -7 -25 -30 -27 -17 -50 -30 -53 -30 -3 0 -5 12 -5 28 0 32 52 74 58 46 2 -7 13 -14 25 -14z m-133 -82 c12 -4 10 -7 -8 -17 -20 -11 -22 -10 -22 16 0 15 4 23 8 17 4 -6 14 -13 22 -16z m5206 -64 c-7 -19 -26 -18 -26 1 0 10 -10 15 -27 15 -27 0 -26 1 12 23 l40 23 3 -24 c2 -13 1 -30 -2 -38z m-2669 18 c-10 -10 -17 -34 -17 -54 0 -32 -5 -38 -72 -80 -93 -57 -98 -60 -98 -54 0 3 43 50 95 103 52 54 95 102 95 107 0 5 3 6 7 3 3 -4 -1 -15 -10 -25z m-2646 -22 c5 0 9 -4 9 -9 0 -9 -60 -24 -68 -16 -9 9 21 36 35 30 8 -3 19 -5 24 -5z m5217 -11 c-2 -17 -28 -30 -138 -70 -145 -52 -165 -57 -134 -34 10 8 28 15 39 15 11 0 65 25 120 54 55 30 104 55 108 55 5 1 7 -8 5 -20z m1062 18 c0 -2 -15 -16 -32 -33 l-33 -29 29 33 c28 30 36 37 36 29z m-6420 -112 c-7 -8 -23 -15 -36 -15 -16 0 -24 -7 -26 -22 -2 -12 -9 -23 -16 -26 -30 -10 -6 41 28 59 44 24 68 26 50 4z m1948 -80 c1 -1 -2 -14 -7 -29 -9 -21 -17 -26 -43 -26 -18 0 -50 -9 -71 -20 -44 -24 -47 -24 -47 -6 0 8 -5 16 -12 18 -6 2 17 20 53 40 49 28 71 35 94 31 17 -3 31 -7 33 -8z m2944 -12 c-7 -3 -18 -10 -25 -16 -6 -7 -37 -24 -69 -39 -47 -22 -57 -24 -62 -12 -5 14 1 18 69 44 11 4 36 15 55 23 19 9 37 13 40 10 3 -3 -1 -8 -8 -10z m-5057 -31 c-6 -4 -27 -20 -47 -36 -35 -25 -38 -25 -38 -8 0 24 36 51 70 51 13 1 20 -3 15 -7z m5559 -79 c-26 -32 -51 -60 -56 -62 -5 -2 -14 -14 -19 -28 -5 -14 -18 -27 -29 -30 -11 -3 -20 -10 -20 -17 0 -6 -27 -40 -60 -76 -47 -50 -58 -59 -50 -37 5 16 25 43 43 60 18 18 51 55 74 82 23 28 53 64 68 80 14 17 36 42 48 57 12 15 28 28 35 28 7 0 -9 -26 -34 -57z m-3728 -52 c-75 -50 -146 -91 -157 -91 -5 0 -22 -8 -37 -19 -15 -10 -49 -32 -77 -49 -128 -78 -216 -147 -222 -174 -4 -23 -11 -28 -34 -28 -16 0 -29 4 -29 9 0 14 48 62 129 126 75 61 84 67 207 143 38 23 78 48 88 55 171 108 170 107 177 82 4 -16 -5 -27 -45 -54z m3004 60 c0 -23 -83 -61 -132 -61 l-33 1 40 24 c22 14 47 25 56 25 9 0 22 7 29 15 17 21 40 19 40 -4z m-4930 6 c0 -10 -92 -68 -98 -62 -10 10 58 65 80 65 10 0 18 -1 18 -3z m4760 -77 c0 -5 -9 -10 -19 -10 -11 0 -22 -4 -25 -9 -5 -8 -56 -22 -56 -15 0 6 75 43 88 44 6 0 12 -4 12 -10z m-350 -145 c0 -2 -9 -9 -20 -15 -16 -9 -20 -8 -20 5 0 8 9 15 20 15 11 0 20 -2 20 -5z m4170 -7 c0 -7 -11 -26 -25 -43 -35 -42 -38 -46 -59 -80 -11 -16 -24 -35 -30 -41 -6 -7 -19 -23 -30 -38 -10 -14 -24 -33 -30 -41 -9 -13 -11 -8 -8 24 2 23 8 41 13 41 5 0 9 11 9 25 0 14 6 25 13 25 8 0 42 32 76 70 35 39 65 70 67 70 2 0 4 -6 4 -12z m-4280 -23 c0 -8 -7 -15 -16 -15 -14 0 -14 3 -4 15 7 8 14 15 16 15 2 0 4 -7 4 -15z m1080 -75 c-6 -11 -18 -20 -27 -20 -14 0 -14 2 2 20 10 11 22 20 27 20 5 0 4 -9 -2 -20z m-2250 -60 c-7 -16 -16 -30 -21 -30 -5 0 -9 -7 -9 -15 0 -8 -4 -15 -10 -15 -5 0 -10 -7 -10 -15 0 -8 -4 -15 -10 -15 -5 0 -10 -8 -11 -17 0 -11 -2 -13 -6 -5 -3 7 14 44 37 83 42 70 64 87 40 29z m1029 -6 c-15 -14 -35 -24 -45 -22 -15 3 -12 7 16 25 47 30 60 29 29 -3z m1102 -70 c-11 -15 -21 -21 -21 -14 0 15 31 52 38 46 2 -3 -5 -17 -17 -32z m2319 -189 c0 -16 -6 -25 -15 -25 -18 0 -19 4 -3 30 16 26 18 25 18 -5z m-2571 -75 c-19 -23 -35 -37 -37 -31 -4 11 58 84 66 77 2 -3 -11 -23 -29 -46z m2531 33 c0 -10 -4 -24 -9 -32 -6 -9 -10 -4 -13 18 -3 21 0 31 9 31 7 0 13 -8 13 -17z m-1790 -33 c0 -15 -7 -20 -25 -20 -14 0 -25 -5 -25 -11 0 -20 -27 -37 -126 -84 -54 -26 -144 -68 -199 -95 -55 -26 -111 -51 -125 -55 -51 -16 -391 -193 -449 -234 -39 -28 -41 -27 -41 14 0 30 3 35 24 35 13 0 46 16 72 35 27 19 56 38 64 42 8 3 26 15 39 25 13 10 33 18 44 18 11 0 28 6 36 14 20 17 303 158 456 227 46 21 64 28 135 57 14 5 45 19 70 31 54 25 50 25 50 1z m1760 -42 c0 -7 -5 -20 -10 -28 -8 -12 -10 -9 -10 13 0 15 5 27 10 27 6 0 10 -6 10 -12z m-2586 -60 c-4 -7 -25 -36 -46 -64 -33 -44 -42 -50 -65 -46 -26 5 -26 5 25 54 29 27 52 54 52 59 0 5 9 9 21 9 13 0 18 -4 13 -12z m2489 -291 c13 -2 5 -5 -17 -6 -33 -1 -37 1 -31 17 4 9 10 28 14 42 5 22 6 20 9 -12 2 -29 8 -38 25 -41z m-113 -172 c-17 -42 -39 -94 -50 -114 l-19 -36 -1 33 c0 17 -5 32 -12 32 -6 0 -1 11 12 25 13 14 29 25 35 25 7 0 22 27 34 61 13 33 25 59 27 56 3 -2 -9 -39 -26 -82z m-1504 55 c8 0 14 -10 14 -25 0 -22 -4 -25 -39 -25 -23 0 -57 -10 -85 -26 -32 -18 -46 -22 -46 -12 1 17 134 112 138 99 2 -6 10 -11 18 -11z m-1121 -59 c-6 -5 -27 -19 -47 -30 -21 -12 -54 -30 -73 -41 -57 -32 -39 -8 27 38 34 23 71 42 82 42 12 0 16 -3 11 -9z m4900 -581 c-9 -74 -19 -166 -22 -205 -3 -38 -10 -72 -14 -75 -5 -3 -12 -39 -15 -80 -4 -41 -10 -77 -13 -80 -4 -3 -22 -84 -40 -180 -19 -96 -38 -184 -43 -195 -6 -15 -7 -13 -3 10 3 17 8 63 11 103 l7 72 -33 0 c-33 0 -42 -7 -98 -79 -15 -18 -45 -52 -67 -76 -22 -23 -58 -63 -80 -89 -22 -26 -49 -58 -60 -70 -12 -12 -31 -35 -43 -51 -27 -35 -35 -29 -22 16 6 18 10 45 10 60 0 18 17 42 61 84 33 32 110 112 172 177 103 110 113 118 148 118 41 0 37 -9 58 125 5 33 20 134 35 225 26 167 54 397 58 480 1 25 4 0 6 -55 1 -55 -4 -161 -13 -235z m-4640 124 c-26 -20 -55 -36 -55 -30 0 5 63 46 70 46 3 -1 -4 -8 -15 -16z m2095 -194 c0 -11 -7 -20 -15 -20 -27 0 -18 30 13 39 1 1 2 -8 2 -19z m-34 -88 c-11 -10 -15 4 -8 28 l7 25 3 -23 c2 -13 1 -26 -2 -30z m-26 -21 c0 -4 -16 -5 -35 -3 -19 2 -35 7 -35 11 0 4 16 5 35 3 19 -2 35 -7 35 -11z m-98 -71 c-12 -42 -25 -63 -54 -85 -21 -17 -70 -56 -109 -88 -76 -62 -149 -104 -149 -86 0 13 80 88 95 89 6 0 60 52 119 115 60 64 110 114 112 113 1 -2 -5 -28 -14 -58z m2764 -35 c-9 -9 -16 -21 -16 -26 0 -5 -4 -9 -10 -9 -19 0 -10 35 13 46 29 13 34 9 13 -11z m-227 -636 c-15 -95 -90 -412 -96 -405 -3 2 4 40 15 83 11 43 34 151 52 241 35 169 49 209 29 81z m485 -358 c-4 -28 -9 -50 -11 -47 -3 3 -2 28 2 56 4 28 9 49 12 47 2 -3 1 -28 -3 -56z m-2044 -42 c-11 -24 -17 -33 -14 -19 11 42 24 73 29 68 3 -3 -4 -25 -15 -49z m1456 -259 c37 0 43 -12 19 -36 -13 -14 -15 -13 -15 5 0 17 -6 21 -31 21 -28 0 -31 3 -25 23 3 12 7 29 7 37 1 8 4 0 6 -17 4 -30 7 -33 39 -33z m-27 -96 c-6 -8 -22 -14 -34 -14 -17 0 -22 5 -18 18 3 14 12 17 34 14 24 -4 27 -7 18 -18z m-1019 -9 c0 -9 -9 -15 -21 -15 -18 0 -19 2 -9 15 7 8 16 15 21 15 5 0 9 -7 9 -15z m-50 -59 c0 -40 -3 -45 -32 -55 -23 -8 -38 -8 -58 1 -72 31 -54 89 24 81 26 -3 46 -1 50 6 12 19 16 12 16 -33z m956 -122 c-14 -43 -26 -84 -26 -91 0 -8 -13 -13 -35 -13 -24 0 -35 -5 -35 -15 0 -8 -4 -15 -10 -15 -5 0 -10 -6 -10 -13 0 -7 -9 -19 -20 -27 -11 -8 -20 -20 -20 -27 0 -7 -4 -13 -9 -13 -5 0 -12 -13 -16 -30 -4 -16 -11 -30 -16 -30 -5 0 -9 -7 -9 -15 0 -8 -4 -15 -10 -15 -5 0 -10 -7 -10 -15 0 -8 -4 -15 -10 -15 -5 0 -10 -7 -10 -15 0 -8 -4 -15 -10 -15 -5 0 -10 -7 -10 -15 0 -8 -4 -15 -10 -15 -5 0 -10 -7 -10 -15 0 -8 -4 -15 -10 -15 -5 0 -10 -7 -10 -15 0 -8 -4 -15 -10 -15 -5 0 -10 -7 -10 -15 0 -8 -4 -15 -10 -15 -5 0 -10 -5 -10 -11 0 -13 -69 -112 -82 -117 -4 -2 -8 -10 -8 -18 0 -8 -4 -14 -10 -14 -5 0 -10 -7 -10 -15 0 -8 -4 -15 -10 -15 -5 0 -10 -7 -10 -15 0 -8 -3 -15 -7 -15 -5 0 -17 -18 -27 -40 -11 -22 -23 -40 -28 -40 -4 0 -8 -7 -8 -15 0 -8 -3 -15 -7 -15 -9 0 -33 -49 -33 -67 0 -7 -4 -13 -10 -13 -5 0 -10 -15 -10 -33 0 -46 -31 -73 -77 -68 -7 0 -13 8 -13 16 0 15 29 82 43 100 20 25 127 197 127 204 0 4 9 19 20 32 12 12 31 39 43 59 11 19 27 41 33 47 7 7 22 29 35 50 13 21 26 40 29 43 3 3 28 37 55 75 42 60 79 110 185 245 11 14 20 29 20 34 0 11 123 177 127 172 2 -2 -7 -39 -21 -82z m295 -1030 c-17 -59 -31 -115 -31 -125 0 -11 -4 -19 -10 -19 -5 0 -10 -8 -10 -18 0 -18 -67 -124 -82 -130 -4 -2 -8 -8 -8 -13 0 -13 -10 -25 -96 -116 -58 -63 -74 -74 -92 -69 -12 4 -26 15 -31 25 -9 16 7 43 67 117 5 5 22 30 38 55 16 24 34 49 40 56 6 6 26 35 45 65 19 29 39 60 46 68 49 60 118 161 130 189 27 64 24 22 -6 -85z"></path><path id="pLfsOPb8Q" d="M12480 13315 c0 -10 -11 -15 -35 -15 -33 0 -35 -2 -35 -35 0 -33 2 -35 35 -35 24 0 35 5 35 15 0 8 7 15 15 15 8 0 15 -7 15 -15 0 -10 11 -15 35 -15 33 0 35 2 35 35 0 24 -5 35 -15 35 -8 0 -15 7 -15 15 0 10 -11 15 -35 15 -24 0 -35 -5 -35 -15z"></path><path id="pQWzc5f61" d="M12372 12068 c-21 -28 -32 -53 -32 -75 0 -31 2 -33 34 -33 18 0 50 7 70 15 36 15 36 16 36 75 l0 60 -38 0 c-33 0 -42 -6 -70 -42z"></path><path id="pOBJJrmsr" d="M12578 11983 c-20 -5 -31 -38 -26 -74 2 -20 10 -25 40 -27 54 -5 87 22 88 71 l0 37 -42 -1 c-24 -1 -51 -3 -60 -6z"></path><path id="pAiQ5wSmB" d="M13720 11165 c0 -24 -5 -35 -15 -35 -10 0 -15 -11 -15 -35 0 -33 2 -35 35 -35 33 0 35 2 35 35 0 24 5 35 15 35 10 0 15 11 15 35 0 33 -2 35 -35 35 -33 0 -35 -2 -35 -35z"></path><path id="p146E9e6TV" d="M15020 9455 c0 -16 -6 -25 -15 -25 -10 0 -15 -11 -15 -35 0 -33 2 -35 35 -35 31 0 35 3 35 25 0 16 6 25 15 25 10 0 15 11 15 35 0 33 -2 35 -35 35 -31 0 -35 -3 -35 -25z"></path><path id="pVGBjsF8y" d="M9880 14805 c0 -33 2 -35 35 -35 33 0 35 2 35 35 0 33 -2 35 -35 35 -33 0 -35 -2 -35 -35z"></path><path id="p11uX4qQjV" d="M9378 14567 c-66 -49 -73 -67 -23 -67 19 0 35 4 35 8 0 4 14 16 30 25 23 14 30 25 30 48 0 16 -3 29 -7 29 -5 -1 -34 -20 -65 -43z"></path><path id="pDkBCVABc" d="M6015 12729 c-4 -6 -5 -13 -2 -16 7 -7 27 6 27 18 0 12 -17 12 -25 -2z"></path><path id="pqtc3V8IO" d="M16402 8675 c-7 -14 -12 -39 -12 -55 0 -27 3 -30 33 -30 38 0 57 27 57 80 0 27 -3 30 -33 30 -26 0 -36 -6 -45 -25z"></path><path id="p8iXWQhM8" d="M16257 8538 c-25 -107 -24 -118 16 -118 33 0 33 0 50 73 25 106 24 117 -16 117 -33 0 -33 0 -50 -72z"></path><path id="p8PH4QBsG" d="M16212 8349 c-7 -28 -12 -61 -12 -75 0 -21 4 -24 39 -24 46 0 51 9 51 91 l0 59 -33 0 c-32 0 -34 -2 -45 -51z"></path></g></g><g id="l1PARPVSXWLALGtqSLuZta8" fill="rgb(229,229,229)" style="transform: none;"><g style="transform: none;"><path id="pfDmjlTd8" d="M12858 14913 c-10 -2 -18 -11 -18 -19 0 -23 64 -14 68 9 3 17 -12 20 -50 10z"></path><path id="p16iwQDWG" d="M9930 14835 c0 -33 2 -35 35 -35 33 0 35 2 35 35 0 33 -2 35 -35 35 -33 0 -35 -2 -35 -35z"></path><path id="p1AmTTJtBl" d="M9930 14765 c0 -24 1 -25 32 -12 46 19 48 37 4 37 -32 0 -36 -3 -36 -25z"></path><path id="ppUbXd5Lt" d="M7803 13894 c-43 -21 -42 -34 2 -34 31 0 35 3 35 25 0 14 -1 25 -2 25 -2 0 -18 -8 -35 -16z"></path><path id="pebz43RRq" d="M7498 13732 c-37 -22 -35 -32 7 -32 31 0 35 3 35 25 0 29 -6 30 -42 7z"></path><path id="pe4UyNypI" d="M7348 13652 c-37 -22 -35 -32 7 -32 31 0 35 3 35 25 0 29 -6 30 -42 7z"></path><path id="pgbkP9qzJ" d="M6918 13412 c-37 -22 -35 -32 7 -32 31 0 35 3 35 25 0 29 -6 30 -42 7z"></path><path id="pWodXdYeE" d="M6480 11979 c0 -14 5 -19 14 -16 8 3 17 1 20 -6 3 -9 5 -9 5 1 1 6 8 12 16 12 8 0 15 7 15 15 0 10 -11 15 -35 15 -29 0 -35 -4 -35 -21z"></path><path id="pXmepWPps" d="M4865 11640 c-10 -11 -13 -20 -7 -20 6 0 16 9 22 20 6 11 9 20 7 20 -2 0 -12 -9 -22 -20z"></path><path id="p7W7vUNjI" d="M7010 10704 c-175 -20 -392 -75 -492 -125 -115 -58 -232 -176 -286 -289 -59 -123 -75 -201 -69 -335 9 -186 85 -419 204 -630 32 -55 68 -122 81 -149 30 -63 113 -186 168 -251 60 -71 202 -248 244 -305 32 -43 95 -110 381 -401 97 -98 528 -508 572 -544 53 -42 214 -183 277 -240 36 -33 97 -82 135 -108 39 -27 125 -87 193 -135 256 -182 329 -232 405 -279 43 -26 114 -71 158 -100 44 -29 149 -94 235 -145 85 -51 200 -121 257 -155 56 -34 109 -62 117 -63 8 0 53 -23 100 -50 231 -132 695 -370 723 -370 13 0 65 -22 227 -97 129 -61 492 -203 652 -257 190 -63 582 -173 748 -210 313 -68 504 -91 775 -91 186 1 237 4 330 23 193 38 323 89 423 166 30 22 65 47 77 54 31 17 112 124 141 188 91 196 84 447 -20 717 -51 132 -128 288 -183 372 -22 33 -49 80 -61 105 -26 53 -163 238 -282 381 -47 56 -103 126 -126 156 -49 64 -517 539 -571 579 -21 16 -96 81 -166 144 -170 152 -297 259 -322 270 -11 5 -56 38 -100 75 -113 92 -327 254 -410 308 -38 26 -82 56 -97 67 -74 57 -558 375 -593 390 -42 18 -219 123 -245 145 -17 14 -466 265 -474 265 -3 0 -165 78 -358 174 -363 179 -507 246 -530 246 -7 0 -87 30 -178 66 -193 77 -208 83 -490 179 -252 86 -568 172 -678 185 -42 5 -115 16 -161 25 -160 31 -307 45 -501 49 -107 2 -211 2 -230 0z m520 -68 c143 -19 359 -54 450 -73 221 -46 674 -191 980 -314 139 -57 143 -59 85 -51 -33 4 -177 7 -320 6 -288 -1 -433 -17 -675 -75 -128 -31 -357 -96 -375 -107 -5 -4 -61 -27 -124 -52 -76 -30 -120 -53 -133 -70 -35 -47 -69 -167 -80 -286 -32 -325 72 -706 310 -1134 5 -8 22 -40 37 -70 50 -97 146 -241 265 -400 65 -85 124 -169 133 -185 19 -35 67 -92 232 -281 66 -75 151 -174 189 -220 37 -46 71 -84 76 -84 4 0 65 -62 136 -137 l129 -136 -135 91 c-74 51 -187 130 -250 177 -63 47 -118 85 -122 85 -13 0 -167 117 -221 169 -29 27 -93 83 -144 124 -50 42 -94 81 -98 87 -4 6 -25 25 -48 41 -100 73 -823 788 -909 900 -85 111 -269 339 -278 344 -14 9 -150 212 -150 223 0 5 -28 58 -62 118 -165 291 -245 587 -209 776 7 35 31 101 53 148 54 114 176 237 290 293 42 20 85 37 96 37 11 0 38 7 62 15 43 15 223 51 295 59 74 8 409 -4 515 -18z"></path><path id="pPnOe0eFd" d="M5820 7781 c0 -5 14 -19 30 -31 l30 -21 0 30 c0 28 -3 31 -30 31 -16 0 -30 -4 -30 -9z"></path><path id="p0DOuiXig" d="M6460 7201 c0 -5 14 -19 30 -31 l30 -21 0 30 c0 28 -3 31 -30 31 -16 0 -30 -4 -30 -9z"></path><path id="pRWQUfAtZ" d="M6765 6950 c3 -5 19 -19 35 -30 l30 -21 0 30 c0 29 -3 31 -36 31 -20 0 -33 -4 -29 -10z"></path><path id="pBP1TACtw" d="M8150 6012 c0 -8 52 -42 64 -42 3 0 6 11 6 25 0 22 -4 25 -35 25 -19 0 -35 -4 -35 -8z"></path><path id="pLtuWKAyn" d="M9100 5490 c0 -8 51 -40 65 -40 3 0 5 11 5 25 0 22 -4 25 -35 25 -19 0 -35 -4 -35 -10z"></path><path id="p5KgtfjVa" d="M14520 4420 c0 -21 10 -24 48 -14 36 10 27 34 -13 34 -28 0 -35 -4 -35 -20z"></path><path id="pPNdDf5HL" d="M14190 4350 c0 -21 10 -24 48 -14 36 10 27 34 -13 34 -28 0 -35 -4 -35 -20z"></path><path id="pahzHqEbs" d="M12620 4346 c0 -13 28 -26 58 -26 6 0 12 9 12 20 0 16 -7 20 -35 20 -23 0 -35 -5 -35 -14z"></path></g></g><g id="l1gzAOsvj8PNqD1b18Mbtb5" fill="rgb(87,53,18)" style="transform: none;"><g><path id="pvWRJZYHZ" d="M10771 15069 c-168 -16 -436 -87 -635 -169 -55 -22 -101 -38 -103 -36 -2 2 32 19 76 37 79 33 99 49 62 49 -23 0 -316 -117 -431 -173 -107 -51 -298 -164 -326 -191 -27 -27 -64 -57 -64 -51 0 10 -92 -38 -117 -61 -14 -13 -37 -27 -50 -30 -13 -4 -23 -10 -23 -15 0 -5 -5 -9 -11 -9 -5 0 -8 4 -5 9 4 5 -3 7 -14 4 -11 -3 -23 -10 -26 -15 -3 -5 -12 -4 -20 3 -9 8 -22 8 -41 1 -72 -25 -110 -47 -120 -68 -13 -27 -8 -29 27 -9 29 17 40 18 40 6 0 -17 -105 -78 -135 -78 -16 0 -46 -7 -65 -15 -19 -8 -39 -16 -45 -17 -5 -1 -23 -13 -40 -25 -16 -12 -75 -45 -130 -72 -55 -28 -109 -55 -120 -61 -11 -6 -60 -28 -110 -51 -49 -22 -106 -47 -125 -56 -50 -24 -185 -99 -201 -112 -8 -6 -39 -23 -69 -38 -30 -14 -77 -39 -105 -55 -27 -16 -63 -36 -80 -45 -16 -9 -39 -21 -49 -28 -59 -39 -134 -84 -156 -95 -14 -7 -32 -17 -40 -22 -8 -5 -28 -15 -45 -22 -54 -24 -213 -120 -231 -140 -9 -10 -21 -19 -27 -19 -5 0 -36 -18 -69 -40 -33 -22 -63 -40 -66 -40 -3 0 -19 -11 -37 -24 -17 -14 -49 -34 -71 -46 -21 -12 -68 -45 -102 -74 -35 -28 -67 -51 -72 -51 -18 0 -339 -251 -335 -262 2 -7 -5 -17 -15 -23 -11 -6 -20 -8 -20 -4 0 4 -9 -1 -20 -11 -11 -10 -17 -22 -14 -26 3 -5 1 -9 -5 -9 -5 0 -16 -6 -23 -13 -25 -24 -96 -77 -103 -77 -4 0 -56 -39 -116 -87 -61 -49 -145 -114 -187 -147 -42 -32 -78 -62 -80 -67 -11 -30 39 3 305 196 137 99 189 133 178 115 -9 -14 26 -12 51 3 12 6 82 55 155 107 74 53 172 122 219 155 47 32 90 64 95 70 6 6 27 22 47 35 20 14 32 27 26 31 -5 3 4 11 20 17 17 6 33 7 37 4 3 -4 14 3 23 14 15 18 114 84 127 84 3 0 42 24 88 53 78 51 419 247 429 247 2 0 65 33 140 73 74 41 144 77 154 81 17 6 17 5 4 -7 -34 -31 -189 -147 -197 -147 -9 0 -175 -145 -302 -263 -72 -66 -126 -103 -251 -170 -196 -104 -365 -198 -375 -208 -25 -25 113 43 348 173 48 26 89 48 91 48 8 0 -24 -58 -39 -70 -8 -7 -79 -42 -157 -79 -79 -37 -217 -107 -306 -155 -90 -47 -193 -100 -228 -116 -35 -16 -83 -42 -106 -58 -24 -16 -92 -60 -151 -96 -128 -79 -232 -152 -303 -213 -28 -23 -55 -43 -59 -43 -5 0 -32 -19 -62 -41 -50 -39 -66 -70 -43 -84 5 -3 83 46 173 110 276 193 662 434 699 436 7 0 51 22 98 50 123 71 300 161 311 157 5 -2 -8 -24 -28 -49 -21 -25 -74 -90 -118 -143 -44 -53 -91 -117 -105 -141 -14 -25 -44 -76 -68 -114 -54 -89 -61 -122 -33 -150 40 -40 97 -19 73 26 -8 14 -6 25 9 43 10 14 19 30 19 35 1 25 299 378 475 563 78 82 105 99 232 142 48 16 126 43 173 61 100 37 292 91 299 84 2 -3 -29 -35 -70 -72 -138 -125 -161 -152 -154 -182 12 -48 22 -47 112 16 49 33 108 71 133 85 25 14 90 53 144 87 55 33 101 59 104 57 2 -2 -1 -14 -8 -25 -13 -26 -4 -26 37 -1 20 12 31 25 27 34 -3 8 8 24 28 39 41 31 138 80 145 73 3 -2 -27 -26 -66 -52 -39 -26 -70 -49 -68 -51 4 -3 167 77 177 87 3 3 21 14 40 24 162 88 250 144 250 157 0 5 7 6 16 2 10 -4 23 2 33 15 9 12 105 59 231 113 260 110 249 106 233 88 -7 -7 -13 -18 -13 -25 0 -21 59 7 110 53 34 30 78 54 154 84 59 22 110 39 113 36 2 -3 -37 -33 -89 -68 -51 -34 -135 -93 -186 -131 -50 -37 -94 -68 -97 -68 -8 0 -6 28 3 32 4 2 18 16 32 32 l25 30 -41 -32 c-23 -18 -45 -32 -49 -32 -4 0 -30 -21 -57 -47 -124 -119 -168 -167 -168 -184 0 -11 -4 -19 -10 -19 -5 0 -20 -10 -33 -22 -13 -13 -96 -94 -185 -180 -103 -100 -183 -168 -220 -188 -71 -40 -112 -93 -112 -148 0 -27 5 -42 16 -46 22 -8 34 1 28 22 -5 14 -4 14 4 3 15 -20 43 0 180 128 62 58 118 108 125 110 6 2 37 27 67 55 30 28 71 64 90 80 l35 28 -38 -21 c-21 -11 -47 -21 -59 -21 -14 0 13 26 83 83 119 95 264 207 287 222 43 27 361 249 392 273 45 35 209 142 229 150 17 6 167 98 191 117 19 15 245 95 268 95 12 0 9 -7 -13 -24 l-30 -24 47 12 c27 7 53 17 60 24 7 7 17 12 23 12 6 0 24 13 40 30 23 24 70 43 257 105 126 41 236 75 244 75 8 0 90 23 182 51 246 75 542 159 561 159 9 0 -8 -11 -36 -25 -29 -13 -53 -26 -53 -28 0 -7 145 30 166 41 10 6 53 25 94 43 41 17 78 36 81 42 4 5 21 11 38 13 18 2 39 8 49 12 9 5 23 7 30 5 6 -3 12 -1 12 4 0 4 11 9 25 9 29 2 34 -12 8 -20 -10 -3 -62 -30 -115 -60 -54 -29 -99 -50 -100 -46 -2 4 -14 3 -28 -3 -14 -5 -34 -11 -45 -12 -36 -6 -98 -37 -120 -61 -5 -6 -31 -19 -57 -29 -27 -10 -48 -23 -48 -31 0 -7 -21 -20 -47 -30 -25 -10 -41 -20 -34 -22 6 -2 30 3 52 12 45 18 59 20 59 7 0 -5 -18 -16 -39 -24 -44 -18 -237 -139 -314 -197 -28 -22 -53 -37 -56 -34 -3 2 27 34 65 70 68 65 53 64 -33 -2 -25 -19 -50 -34 -58 -34 -7 0 -15 -7 -19 -15 -3 -8 -12 -15 -19 -15 -8 0 -20 -7 -28 -16 -12 -15 -103 -78 -195 -136 -23 -14 -67 -46 -97 -70 -30 -24 -81 -61 -113 -83 -66 -46 -279 -250 -279 -267 0 -7 -29 -20 -65 -31 -81 -24 -235 -81 -315 -117 -33 -15 -94 -42 -135 -60 -110 -48 -270 -129 -305 -155 -50 -37 -105 -67 -105 -58 0 4 11 21 25 36 28 29 21 36 -11 12 -10 -8 -25 -15 -32 -15 -13 0 -53 -27 -150 -104 -59 -47 -62 -51 -62 -92 0 -37 3 -44 20 -44 11 0 20 6 20 13 0 8 28 31 63 52 109 66 179 105 187 105 5 0 40 15 77 34 114 57 532 220 542 211 5 -5 -103 -120 -239 -255 -137 -135 -301 -349 -328 -427 -6 -17 -20 -41 -32 -53 -37 -37 -14 -120 33 -120 16 0 18 3 9 12 -14 14 -16 32 -3 24 4 -3 30 20 57 50 27 31 68 76 91 101 23 25 57 64 76 87 49 58 70 81 140 160 34 37 62 74 63 80 1 7 29 39 63 71 33 31 58 61 56 66 -3 4 4 10 15 14 11 3 34 23 52 44 18 21 77 76 131 122 54 46 115 98 135 116 21 17 55 34 77 39 l40 7 -19 -22 -19 -21 32 6 c18 4 49 15 69 25 20 11 47 19 60 19 26 0 75 33 65 44 -3 3 -2 6 3 7 16 1 32 6 330 88 160 44 338 92 395 106 57 14 113 29 124 32 18 5 18 3 -4 -20 l-24 -26 33 9 c19 5 35 8 37 6 6 -6 -100 -90 -139 -110 -35 -17 -43 -33 -26 -47 8 -5 -139 -69 -160 -69 -27 0 -473 -219 -632 -310 -69 -40 -145 -81 -170 -93 -51 -23 -60 -28 -270 -170 -145 -99 -196 -124 -150 -75 21 22 19 41 -2 20 -7 -7 -18 -12 -26 -12 -8 0 -24 -8 -36 -18 -19 -15 -21 -20 -10 -30 21 -19 17 -27 -26 -57 -39 -27 -51 -57 -30 -70 6 -4 52 20 103 53 51 32 139 86 197 120 58 33 141 82 186 109 44 26 114 64 155 84 40 20 142 70 224 112 83 41 195 95 250 120 55 25 129 59 164 76 36 17 67 31 69 31 3 0 -87 -91 -199 -203 -225 -224 -184 -196 -499 -342 -74 -35 -184 -88 -245 -119 -60 -31 -116 -56 -123 -56 -15 0 -162 -73 -292 -145 -52 -29 -160 -87 -240 -129 -80 -42 -170 -92 -200 -111 -30 -19 -61 -34 -68 -35 -38 -1 -494 -295 -560 -361 -49 -49 -59 -78 -42 -120 15 -35 41 -54 87 -64 27 -5 36 -2 55 19 55 63 80 85 115 103 38 19 276 158 408 239 127 77 315 184 324 184 10 0 128 65 147 81 7 5 104 61 215 123 112 62 241 134 287 160 75 42 128 65 187 83 15 5 11 -3 -16 -34 -20 -22 -44 -53 -53 -69 -10 -16 -37 -41 -59 -55 -31 -19 -50 -42 -71 -85 -16 -32 -37 -71 -48 -86 -10 -14 -18 -41 -18 -59 0 -30 1 -31 13 -14 10 12 16 14 21 7 12 -20 36 -13 46 12 8 21 127 184 156 213 6 7 14 10 17 7 14 -14 93 54 185 161 17 19 17 19 -10 2 -15 -9 -35 -17 -43 -17 -15 0 -15 2 -1 15 8 8 17 15 21 15 9 0 57 57 76 91 13 23 71 56 276 159 143 71 266 130 275 130 14 0 102 37 213 90 57 27 252 101 370 140 107 36 131 48 118 61 -14 14 -360 -64 -472 -106 -20 -7 -124 -46 -231 -86 -107 -39 -199 -76 -205 -81 -5 -4 -17 -8 -28 -8 -16 0 -13 6 15 38 40 47 375 355 392 361 6 2 22 12 36 21 22 15 261 111 510 205 167 62 536 184 605 199 39 8 81 18 95 22 l25 6 -22 -16 c-13 -10 -23 -21 -23 -26 0 -16 69 13 106 45 31 27 64 39 218 78 99 26 225 56 278 67 223 45 588 85 588 63 0 -5 -28 -30 -62 -55 -35 -26 -99 -76 -142 -112 -44 -37 -91 -69 -105 -71 -35 -7 -363 -114 -398 -131 -15 -7 -100 -41 -188 -75 -88 -33 -178 -69 -200 -80 -112 -51 -299 -128 -303 -124 -2 2 3 12 12 21 21 21 14 29 -12 15 -12 -6 -30 -11 -41 -11 -11 0 -36 -8 -56 -17 -30 -15 -36 -23 -35 -48 1 -12 -29 -34 -55 -41 l-26 -7 5 69 c15 185 16 243 7 248 -17 11 -25 -17 -48 -173 -12 -85 -25 -161 -28 -168 -2 -8 -49 -35 -102 -60 -54 -25 -187 -92 -296 -150 -108 -58 -203 -103 -211 -100 -8 3 -20 -1 -26 -9 -7 -7 -31 -19 -54 -24 -22 -6 -47 -13 -54 -15 -7 -3 -16 -5 -20 -6 -4 0 -16 -6 -27 -12 -11 -6 -25 -12 -31 -13 -5 -1 -52 -26 -103 -55 -51 -30 -114 -65 -139 -79 -26 -14 -67 -39 -92 -56 -25 -16 -53 -33 -62 -37 -11 -4 -18 -17 -18 -33 0 -22 2 -25 15 -14 10 9 15 9 15 1 0 -21 28 -11 199 74 94 47 176 85 181 85 6 0 10 4 10 9 0 10 27 21 44 20 5 0 12 5 16 12 7 11 17 13 63 18 5 1 6 4 4 9 -3 4 5 8 16 8 26 2 42 7 82 23 17 7 35 14 40 15 12 4 38 14 90 36 22 9 53 20 68 24 15 3 83 33 150 65 67 32 139 66 160 75 l39 16 -7 -33 c-4 -17 -15 -39 -26 -47 -11 -8 -36 -28 -57 -43 -76 -58 -220 -204 -322 -327 -25 -30 -64 -74 -87 -98 -24 -24 -41 -47 -38 -52 2 -4 -2 -16 -10 -26 -15 -18 -15 -18 -9 1 8 23 4 20 -52 -44 -21 -25 -34 -42 -27 -38 7 5 6 -4 -3 -23 -9 -17 -19 -28 -23 -26 -4 3 -23 -12 -42 -32 -54 -59 -75 -86 -61 -78 11 7 11 4 0 -13 -7 -12 -14 -17 -16 -11 -8 24 -311 -303 -312 -336 0 -5 -25 -40 -54 -79 -30 -38 -52 -72 -50 -74 2 -2 19 8 39 23 44 34 45 21 2 -30 -58 -69 -127 -174 -127 -194 0 -10 -5 -22 -12 -26 -19 -12 22 -34 64 -34 42 0 78 27 78 58 0 10 4 22 8 27 5 6 14 23 20 38 11 26 11 27 -7 17 -53 -28 -49 -20 74 156 103 147 316 400 327 389 5 -5 59 51 123 127 27 32 101 115 207 232 21 23 38 46 38 52 0 7 9 14 20 17 11 3 23 13 27 23 8 23 38 57 168 192 93 96 131 129 140 120 5 -4 -23 -297 -30 -316 -2 -7 -46 -32 -97 -57 -104 -50 -280 -158 -363 -223 -93 -73 -104 -126 -33 -151 26 -9 35 -9 47 4 15 15 14 18 -4 31 -19 14 -19 15 10 38 82 66 417 257 429 245 6 -5 -12 -321 -20 -357 -3 -16 -10 -22 -19 -18 -8 3 -17 1 -20 -5 -4 -5 -10 -7 -15 -4 -5 3 -35 -31 -66 -76 -31 -44 -63 -83 -70 -86 -8 -3 -14 -14 -14 -25 0 -14 5 -18 15 -14 32 12 13 -36 -52 -136 -80 -121 -118 -200 -109 -223 11 -31 37 -10 119 100 70 93 87 110 107 107 20 -2 31 7 55 43 17 24 34 45 38 45 5 0 6 -19 2 -42 -6 -35 -5 -40 9 -35 14 5 16 -3 16 -58 l0 -65 -122 -91 c-68 -50 -122 -97 -120 -104 3 -16 -28 -35 -198 -122 -146 -75 -478 -270 -575 -338 -33 -23 -100 -66 -148 -95 -48 -29 -112 -75 -143 -102 -46 -43 -57 -48 -70 -37 -13 11 -15 7 -12 -32 l3 -44 50 -3 c59 -3 91 12 62 29 -15 9 1 22 107 89 69 43 136 84 150 92 25 13 205 124 376 231 140 88 310 187 320 187 10 0 109 55 180 100 68 43 81 35 25 -16 l-50 -46 53 31 c29 17 58 31 65 31 7 0 22 7 34 15 21 15 22 14 27 -17 3 -18 10 -89 16 -158 25 -269 76 -460 151 -562 21 -29 48 -67 60 -85 26 -40 53 -49 84 -29 37 25 35 78 -5 106 -36 26 -70 88 -70 127 0 16 -5 44 -10 63 -27 91 -90 557 -90 664 0 34 3 36 105 91 57 31 130 67 162 80 32 13 81 33 109 44 28 11 80 34 115 50 93 42 314 131 327 131 7 0 12 5 12 10 0 6 14 10 30 10 25 0 30 4 30 25 0 23 -4 25 -45 25 -24 0 -79 -11 -121 -25 -42 -14 -84 -25 -94 -25 -10 0 -20 -7 -24 -15 -3 -8 -13 -15 -23 -15 -15 0 -15 -2 -4 -9 9 -6 22 -6 34 1 10 5 21 7 24 4 9 -9 -7 -24 -33 -30 -15 -4 -111 -40 -213 -80 -102 -41 -198 -76 -213 -80 -30 -7 -39 8 -12 18 9 4 14 9 11 12 -3 4 61 60 143 125 83 66 149 123 148 127 -3 10 86 99 147 147 28 21 95 78 150 126 55 47 120 96 144 108 40 19 106 83 106 103 0 8 80 78 90 78 14 0 184 145 305 260 69 65 177 167 240 226 63 60 121 117 129 129 13 21 73 52 143 75 21 6 44 19 50 29 14 19 74 35 82 23 5 -8 -53 -138 -208 -470 -42 -90 -76 -169 -76 -176 0 -7 -29 -75 -65 -150 -36 -75 -76 -163 -90 -196 -62 -147 -97 -210 -116 -210 -12 0 -24 -12 -33 -35 -8 -19 -20 -35 -25 -35 -6 0 -11 -7 -11 -15 0 -8 7 -15 15 -15 24 0 19 -20 -39 -157 -83 -198 -143 -346 -151 -371 -3 -12 -10 -20 -15 -17 -10 6 -60 -51 -60 -69 0 -8 -9 -24 -19 -37 -10 -14 -26 -42 -35 -64 l-17 -40 43 40 c23 22 37 33 31 25 -11 -16 -163 -382 -180 -435 -5 -16 -14 -29 -19 -28 -27 5 -57 -53 -83 -162 -7 -27 -20 -68 -31 -90 -10 -22 -26 -58 -35 -80 l-16 -40 31 30 c34 33 36 30 14 -24 -16 -41 -16 -80 1 -84 12 -3 57 68 74 117 7 21 25 64 39 95 14 31 25 59 24 64 -1 4 4 7 11 7 28 0 68 60 122 180 31 69 65 143 75 165 10 22 21 53 25 70 6 29 6 29 -14 11 -12 -11 -23 -17 -26 -14 -3 3 16 54 41 114 26 60 63 149 84 197 20 49 52 105 71 125 34 37 56 76 77 141 l11 34 -24 -23 c-14 -13 -27 -21 -30 -19 -2 3 28 81 68 174 65 151 76 170 98 173 19 2 29 12 38 38 11 31 11 37 -5 48 -17 13 -16 15 3 57 21 46 132 322 151 374 15 44 170 415 188 450 8 17 43 102 78 190 l63 160 99 23 c54 12 128 23 164 25 l65 2 3 -95 c2 -52 -2 -126 -8 -165 -20 -130 -137 -595 -150 -595 -4 0 -11 35 -15 78 -16 187 -39 322 -96 562 -10 43 -24 68 -33 59 -2 -2 4 -40 15 -84 23 -94 57 -460 61 -662 3 -124 1 -143 -13 -146 -9 -3 -18 -18 -21 -37 l-5 -32 18 23 19 24 0 -26 c0 -38 -30 -132 -47 -144 -8 -6 -32 -71 -54 -145 -22 -74 -46 -144 -53 -155 -7 -11 -16 -32 -19 -47 -4 -14 -10 -34 -14 -45 -4 -11 4 -6 20 12 15 17 27 26 27 21 0 -5 -18 -68 -40 -140 -127 -411 -175 -561 -207 -646 -20 -52 -48 -131 -64 -175 -55 -160 -56 -161 -215 -306 -163 -149 -587 -572 -631 -631 -15 -20 -54 -68 -85 -106 -74 -88 -94 -133 -76 -170 16 -32 59 -55 90 -47 21 6 864 834 1153 1133 65 67 121 120 123 117 18 -18 -89 -563 -148 -759 -50 -162 -132 -410 -140 -421 -11 -17 -50 -130 -59 -176 -5 -24 -21 -91 -36 -147 -19 -72 -24 -107 -17 -114 21 -21 38 1 71 88 18 49 68 179 111 289 43 110 105 284 138 386 60 186 142 513 142 568 0 17 9 90 19 163 11 73 22 161 26 196 l7 63 140 152 c77 83 157 170 179 192 21 22 52 56 68 75 16 19 31 33 34 30 3 -3 -8 -72 -24 -155 -63 -333 -83 -441 -84 -465 -2 -14 -4 -27 -5 -30 -1 -3 -2 -12 -1 -22 1 -9 -6 -22 -16 -30 -10 -7 -20 -22 -21 -33 -2 -11 -9 -23 -15 -27 -7 -4 -9 -8 -6 -8 3 0 0 -24 -8 -52 -8 -29 -25 -106 -38 -171 -14 -64 -29 -125 -33 -135 -14 -27 -23 -102 -13 -102 5 0 13 9 16 21 4 11 9 18 12 16 2 -3 -9 -72 -26 -154 -53 -258 -131 -701 -133 -758 -2 -42 -6 -55 -18 -55 -12 0 -16 -16 -18 -80 -4 -91 5 -103 59 -76 18 9 34 15 36 13 2 -2 -19 -42 -46 -89 -138 -239 -267 -534 -259 -591 2 -17 11 -23 40 -25 34 -3 38 0 52 32 8 20 29 56 45 80 17 25 31 49 31 55 0 12 93 167 153 255 43 64 267 435 267 444 0 2 22 43 49 91 49 85 130 179 117 136 -28 -97 -66 -279 -61 -295 9 -28 40 -43 64 -31 20 11 24 23 124 352 43 143 58 181 83 205 23 23 36 52 57 130 15 55 27 117 27 137 0 20 10 53 22 74 l21 38 -41 -40 c-23 -21 -42 -36 -42 -32 0 4 22 47 49 95 27 48 111 212 187 365 99 199 135 280 127 288 -8 8 -47 -44 -140 -184 -117 -180 -153 -226 -139 -179 8 27 92 489 120 667 51 316 105 724 121 910 22 241 16 524 -11 634 -23 91 -49 112 -37 29 4 -29 8 -138 7 -243 0 -151 -6 -229 -28 -380 -49 -347 -95 -616 -175 -1025 -43 -223 -83 -434 -89 -470 -6 -36 -31 -158 -56 -273 l-45 -207 -131 -213 c-72 -116 -137 -214 -144 -217 -26 -10 -93 -98 -165 -218 -81 -134 -109 -168 -97 -117 4 17 10 46 13 65 5 31 4 33 -11 21 -9 -8 -19 -12 -22 -9 -6 7 43 200 125 488 61 216 102 372 139 530 11 47 50 200 87 340 77 297 134 530 175 720 34 159 90 480 90 517 0 15 8 35 17 45 13 15 14 21 5 27 -10 6 -10 30 -1 112 24 210 11 788 -21 958 -9 48 -46 91 -79 91 -11 0 -29 -9 -42 -19 -22 -18 -24 -27 -27 -138 -2 -76 -8 -129 -18 -150 -7 -17 -14 -51 -14 -75 1 -43 1 -43 16 -18 14 23 15 2 10 -220 -3 -135 -11 -290 -17 -345 -7 -55 -12 -117 -13 -137 -1 -23 -6 -38 -13 -38 -7 0 -13 5 -13 11 0 5 -4 7 -10 4 -15 -10 -12 -35 5 -35 20 0 19 -22 -9 -180 -14 -74 -30 -164 -36 -200 -12 -65 -12 -65 -118 -169 -59 -57 -127 -120 -152 -139 -25 -20 -71 -59 -103 -86 -32 -27 -60 -46 -63 -44 -2 3 22 32 54 66 32 33 64 68 72 79 13 16 12 16 -10 -2 -14 -11 -37 -30 -52 -44 -15 -13 -31 -22 -34 -18 -4 4 -13 2 -21 -5 -7 -6 -15 -9 -17 -7 -2 2 2 101 10 219 7 118 13 286 13 373 1 147 2 159 20 164 22 6 34 52 19 70 -7 9 -2 20 15 37 14 14 28 33 31 43 2 10 18 63 34 118 17 55 32 113 35 128 4 27 4 27 -14 11 -11 -10 -21 -15 -24 -12 -3 3 6 39 19 80 45 137 166 591 176 657 5 36 20 104 32 151 l23 85 48 3 c56 4 64 22 9 22 -21 0 -41 3 -44 6 -7 7 20 126 30 134 5 3 9 14 9 25 1 11 16 94 33 185 49 264 51 446 4 464 -13 5 -14 2 -9 -11 27 -63 11 -225 -46 -461 -28 -119 -33 -131 -48 -120 -14 11 -14 11 -3 -4 11 -14 10 -29 -8 -95 -32 -119 -34 -123 -74 -123 -27 0 -39 7 -56 31 -28 39 -61 36 -74 -6 l-9 -30 -126 -18 c-69 -9 -132 -17 -138 -17 -25 0 -12 43 22 74 19 18 35 40 35 49 0 21 -19 22 -26 2 -4 -8 -12 -15 -20 -15 -8 0 -14 -7 -14 -15 0 -8 -8 -15 -18 -15 -11 0 -27 -9 -38 -21 -10 -11 -38 -29 -62 -40 -23 -11 -51 -28 -61 -38 -19 -19 -91 -38 -91 -24 0 4 22 28 49 53 27 25 92 93 145 152 94 105 113 142 81 154 -41 16 -74 -10 -369 -287 -135 -127 -173 -158 -204 -164 -37 -7 -577 -187 -727 -242 -107 -40 -209 -72 -213 -68 -2 2 61 78 140 170 78 92 150 179 159 194 30 48 121 126 144 123 14 -2 34 10 58 34 20 21 34 40 32 43 -3 2 -10 0 -16 -6 -6 -6 -18 -9 -25 -6 -9 3 12 32 63 88 64 69 87 88 133 104 98 36 371 111 439 121 36 6 102 17 146 25 44 8 121 14 172 15 56 0 94 4 99 11 9 15 -23 43 -74 63 -84 32 -318 13 -540 -43 -42 -11 -79 -18 -82 -14 -5 5 65 71 162 151 37 30 54 50 48 56 -6 6 -45 12 -87 16 l-77 5 -2 33 c-2 37 -25 67 -68 89 -25 13 -62 15 -225 10 -170 -4 -236 -11 -419 -43 -31 -5 -33 -3 -27 15 9 30 -18 27 -42 -3 -12 -15 -34 -26 -63 -31 -92 -14 -508 -97 -589 -116 -46 -11 -86 -18 -89 -15 -3 4 -3 7 -1 9 2 1 36 28 74 58 89 71 171 129 180 129 3 0 57 31 119 68 61 37 147 86 189 107 42 22 77 44 77 49 0 13 -57 -1 -114 -28 -28 -13 -77 -35 -108 -49 -31 -14 -103 -52 -160 -84 -57 -33 -111 -63 -122 -66 -10 -4 -30 -16 -45 -28 -82 -64 -320 -223 -345 -230 -36 -10 -43 -5 -25 17 12 15 10 16 -21 11 -98 -15 -180 -51 -180 -81 0 -10 -99 -38 -320 -92 -145 -36 -222 -57 -358 -100 -79 -25 -146 -43 -149 -40 -3 3 0 13 8 22 12 15 10 16 -23 12 -20 -2 -34 0 -32 4 3 4 12 8 20 8 8 0 14 4 14 9 0 5 24 21 53 36 51 27 122 77 142 100 6 6 75 56 155 110 80 55 147 103 148 107 2 4 10 8 18 8 8 0 14 5 14 10 0 6 4 10 9 10 6 0 24 13 41 29 18 16 44 35 58 42 34 16 202 121 202 125 0 9 -220 -103 -253 -128 -21 -16 -42 -28 -48 -26 -10 3 72 68 86 68 4 0 67 37 139 83 72 46 147 92 166 103 19 10 38 23 41 27 3 4 19 10 35 13 62 11 111 27 149 50 22 13 33 24 25 24 -9 0 -20 -4 -25 -9 -6 -5 -19 -5 -30 -1 -16 6 -2 16 75 55 52 27 122 58 155 71 33 12 93 36 134 53 40 17 81 31 90 31 20 0 58 37 48 46 -3 4 -29 1 -57 -6 -28 -7 -60 -10 -70 -7 -12 3 -20 0 -20 -8 0 -7 -35 -24 -82 -39 -44 -15 -108 -37 -142 -49 -190 -72 -202 -74 -209 -48 -5 19 -13 21 -76 21 -149 0 -720 -146 -1234 -316 -271 -90 -280 -73 -29 55 168 85 294 138 432 181 101 31 129 44 119 54 -8 9 -219 -43 -328 -80 -58 -20 -147 -56 -198 -80 -50 -24 -94 -44 -97 -44 -13 0 -277 -130 -312 -154 -21 -14 -45 -26 -53 -26 -9 0 -87 -40 -176 -88 -200 -110 -178 -99 -385 -178 -96 -36 -199 -77 -229 -90 -59 -27 -74 -25 -45 7 18 20 18 20 -11 14 -17 -4 -63 -22 -103 -41 -40 -19 -77 -34 -83 -34 -20 0 -213 -109 -194 -110 16 -1 -28 -24 -49 -25 -10 -1 -23 -9 -28 -18 -5 -10 -17 -17 -26 -17 -9 0 -136 -59 -282 -130 -146 -72 -288 -142 -316 -156 -28 -14 -75 -41 -105 -59 -60 -39 -69 -42 -69 -20 0 8 5 15 10 15 6 0 10 5 10 10 0 7 -6 7 -19 0 -28 -14 -36 -12 -21 5 7 8 21 15 31 15 11 0 19 4 19 8 0 5 10 19 22 32 12 12 22 32 23 43 1 15 32 40 101 84 208 132 518 311 541 312 6 1 106 48 222 106 115 58 212 105 215 105 2 0 69 31 148 69 79 38 154 72 168 76 l25 7 -29 -31 -30 -31 45 17 c24 9 66 35 93 57 54 45 142 85 491 223 253 101 631 233 664 233 11 0 78 16 148 35 140 39 347 79 461 90 39 4 72 12 72 18 0 14 -191 1 -338 -23 -173 -29 -512 -114 -717 -180 -181 -59 -434 -151 -468 -171 -26 -15 -35 -2 -11 15 60 44 62 47 16 31 -53 -18 -104 -53 -97 -66 4 -5 0 -9 -9 -9 -8 0 -16 -4 -18 -8 -4 -10 -258 -117 -338 -143 -82 -26 -440 -193 -650 -304 -102 -53 -207 -108 -235 -121 -27 -13 -107 -60 -177 -103 -74 -47 -128 -75 -128 -67 0 8 7 19 15 26 24 20 12 22 -27 5 -41 -17 -111 -93 -104 -112 3 -7 1 -13 -5 -13 -5 0 -20 -10 -32 -21 -29 -28 -164 -129 -173 -129 -8 0 -70 -48 -179 -140 l-90 -76 -140 -33 c-77 -18 -200 -55 -274 -82 -74 -27 -137 -46 -140 -43 -3 3 28 37 69 75 149 138 258 219 372 277 62 32 131 70 153 84 22 14 118 70 213 124 96 55 214 123 264 152 50 28 95 52 99 52 14 0 11 -12 -8 -32 -9 -10 -11 -18 -5 -18 6 0 14 5 17 10 3 6 13 10 22 10 19 0 125 89 118 99 -2 5 16 19 40 32 24 13 107 59 183 101 77 42 157 79 178 83 68 11 198 36 217 41 9 3 17 12 17 20 0 10 -14 14 -55 14 -30 0 -55 3 -55 8 0 4 28 23 63 42 41 23 56 35 45 38 -10 2 -57 -19 -105 -46 l-88 -50 -107 -4 c-108 -4 -132 3 -81 23 16 6 35 17 43 24 8 8 53 33 100 58 47 24 119 64 160 89 53 33 94 49 143 58 72 13 110 38 41 27 -48 -8 -40 -2 88 63 53 27 99 54 103 60 3 5 15 10 26 10 10 0 19 4 19 9 0 8 192 101 211 101 5 0 67 24 137 54 258 111 500 179 700 198 67 6 122 14 122 18 0 21 -88 24 -239 9z m-1676 -899 c3 -5 -12 -18 -34 -30 -24 -12 -42 -16 -46 -10 -3 6 0 10 7 11 10 0 10 2 1 6 -7 2 -13 9 -13 14 0 6 4 8 8 5 7 -4 49 4 69 13 1 1 4 -3 8 -9z m-206 -77 c-55 -60 -69 -77 -69 -85 0 -4 -39 -26 -87 -49 -49 -23 -131 -68 -183 -99 -171 -103 -433 -251 -437 -246 -6 5 60 54 264 195 89 62 167 118 173 126 7 8 18 15 25 15 7 0 55 28 106 62 139 91 260 138 208 81z m4131 -41 c0 -4 -78 -29 -172 -55 -181 -50 -501 -150 -553 -173 -62 -27 -199 -74 -204 -69 -5 6 33 41 114 104 42 33 68 43 163 65 62 14 123 26 137 26 14 0 91 15 172 34 157 36 323 73 336 75 4 1 7 -3 7 -7z m-1814 -191 c-3 -5 -28 -26 -56 -47 -27 -21 -50 -44 -50 -51 0 -13 -41 -28 -60 -21 -6 2 27 31 72 65 78 58 107 75 94 54z m2524 -109 c0 -5 -36 -43 -80 -86 -59 -58 -84 -76 -98 -72 -11 4 -28 -2 -42 -14 -13 -11 -28 -20 -34 -20 -6 0 -16 -11 -22 -23 -10 -21 -8 -23 13 -19 13 2 23 0 23 -5 0 -5 -37 -50 -81 -99 -45 -49 -122 -135 -171 -191 -50 -56 -97 -104 -104 -107 -8 -3 -14 -11 -14 -18 -1 -7 -20 -34 -43 -59 -35 -39 -63 -55 -167 -99 -69 -29 -165 -72 -215 -96 -52 -26 -93 -40 -98 -35 -5 5 -4 79 3 177 l12 169 63 60 c109 103 124 117 134 111 18 -12 79 21 158 84 44 36 79 67 78 69 -2 1 -17 -4 -34 -12 -17 -9 -33 -12 -36 -7 -8 13 44 49 89 61 22 7 69 23 104 36 35 13 125 47 200 74 75 27 146 54 157 59 22 11 185 68 198 69 4 1 7 -3 7 -7z m1460 -230 c0 -18 -24 -111 -37 -142 -4 -8 -11 21 -18 65 -6 44 -9 83 -7 88 2 4 16 7 33 7 21 0 29 -5 29 -18z m-6740 -28 c0 -3 -16 -33 -35 -65 -19 -33 -35 -64 -35 -68 0 -13 -19 -18 -93 -26 -37 -4 -67 -3 -67 1 1 12 202 162 218 163 6 1 12 -2 12 -5z m4403 -78 c-15 -13 -32 -21 -38 -18 -5 4 -19 6 -30 4 -11 -1 -2 7 20 17 22 11 48 20 58 20 14 1 12 -4 -10 -23z m1547 -29 c0 -2 -13 -16 -30 -32 -33 -32 -42 -21 -10 13 18 19 40 29 40 19z m-6100 -75 c0 -4 -24 -22 -53 -39 -29 -17 -88 -58 -132 -90 -44 -32 -91 -64 -105 -70 -14 -7 -53 -33 -87 -58 -35 -25 -63 -42 -63 -36 0 12 70 79 125 119 22 16 72 59 111 95 64 60 76 66 130 75 32 5 62 10 67 11 4 0 7 -2 7 -7z m5780 -31 c0 -9 -110 -116 -195 -190 -27 -24 -129 -118 -225 -210 -96 -92 -209 -198 -250 -235 -41 -38 -83 -78 -92 -88 -11 -12 -25 -18 -34 -14 -9 3 -21 3 -27 -1 -7 -4 -15 -8 -18 -8 -15 0 -149 -128 -149 -141 0 -12 4 -12 25 2 14 9 28 14 31 12 6 -6 -78 -91 -126 -126 -19 -15 -78 -66 -131 -114 -71 -64 -99 -84 -110 -77 -24 15 -34 10 -90 -46 -30 -30 -57 -55 -61 -55 -5 0 -8 16 -8 35 0 19 -3 34 -7 34 -29 -5 -33 4 -33 67 0 57 3 67 20 71 12 3 20 14 20 27 0 11 16 39 36 61 19 22 39 48 45 57 8 14 5 16 -18 12 -26 -5 -26 -4 -9 18 9 13 20 32 25 43 9 19 87 117 318 399 l102 124 183 71 c101 40 202 81 226 91 23 11 49 20 57 20 14 0 333 112 370 130 19 10 102 37 118 39 4 1 7 -3 7 -8z m-1190 -459 c0 -4 -31 -41 -68 -83 -38 -42 -80 -92 -94 -110 -86 -118 -134 -179 -140 -179 -5 0 -8 54 -8 119 l0 119 123 59 c185 89 187 90 187 75z m-440 -772 c0 -25 -6 -32 -37 -45 -20 -8 -38 -14 -39 -12 -6 5 59 87 68 87 4 0 8 -13 8 -30z m200 -97 c-1 -13 -50 -44 -60 -38 -13 8 -1 33 18 38 28 8 42 7 42 0z m2139 -269 c-13 -283 -24 -415 -35 -423 -13 -8 -71 -84 -73 -93 0 -5 -1 -12 -1 -18 0 -5 -7 -10 -16 -10 -9 0 -18 -9 -21 -19 -3 -11 -10 -22 -17 -24 -7 -3 -56 -42 -109 -86 -100 -85 -113 -86 -78 -8 94 206 341 842 341 878 0 16 10 32 17 26 1 -2 -2 -102 -8 -223z m-3502 -40 c-7 -7 -37 7 -37 17 0 6 9 5 21 -1 11 -7 19 -14 16 -16z"></path><path id="pm7RPto4W" d="M9525 14380 c-3 -5 1 -10 9 -10 8 0 18 5 21 10 3 6 -1 10 -9 10 -8 0 -18 -4 -21 -10z"></path><path id="p1xrsGNO6" d="M16175 11571 c-4 -7 -13 -94 -21 -194 -22 -284 -83 -721 -105 -761 -7 -13 -7 -16 0 -11 14 8 14 -5 1 -25 -8 -13 -10 -13 -10 0 0 10 -3 11 -11 3 -6 -6 -15 -46 -20 -88 -4 -42 -12 -82 -17 -89 -5 -6 -12 -28 -15 -49 l-6 -39 19 23 c16 17 20 18 20 6 0 -31 -155 -739 -219 -1002 -12 -49 -11 -42 -11 -60 0 -8 -7 -15 -15 -15 -19 0 -29 -21 -50 -110 -10 -41 -23 -88 -30 -105 -17 -38 -35 -95 -35 -107 0 -5 7 -3 15 6 8 8 15 19 15 25 0 6 5 11 11 11 6 0 9 -6 6 -12 -2 -7 -21 -74 -41 -148 -38 -138 -63 -225 -73 -247 -2 -7 2 -13 10 -13 8 0 20 21 29 53 9 28 45 133 81 232 77 211 118 333 120 357 1 9 3 15 5 13 2 -2 15 6 28 18 25 24 84 187 84 234 0 26 -1 26 -14 7 -8 -10 -17 -16 -20 -13 -3 3 23 125 59 270 35 145 71 300 79 344 32 182 92 460 98 463 5 2 8 8 8 14 0 5 9 17 21 27 14 11 25 40 35 91 19 100 19 116 -1 100 -9 -7 -18 -10 -21 -7 -3 3 1 59 11 124 23 168 30 375 16 533 -12 129 -21 165 -36 141z"></path><path id="pOUpOduZ8" d="M16617 10923 c-7 -238 -35 -446 -132 -998 -20 -110 -43 -240 -51 -290 -26 -152 -192 -931 -235 -1098 -11 -43 -18 -81 -15 -85 3 -5 1 -14 -5 -22 -8 -13 -9 -13 -9 0 0 38 -30 -34 -53 -130 -31 -129 -71 -268 -97 -338 -11 -29 -20 -65 -20 -80 l0 -27 19 29 20 29 -6 -44 c-4 -24 -30 -93 -58 -154 -29 -60 -56 -121 -60 -135 -4 -14 -17 -47 -30 -75 -26 -59 -55 -171 -55 -213 0 -16 10 -41 21 -56 18 -23 28 -27 62 -24 49 4 72 32 100 124 36 113 62 171 249 552 103 211 188 389 188 396 0 13 32 85 142 316 30 63 69 150 88 193 36 83 55 100 44 40 -71 -411 -159 -833 -296 -1418 -39 -168 -133 -463 -154 -486 -9 -10 -13 -23 -9 -28 9 -16 41 -13 55 4 7 8 18 15 24 15 11 0 117 298 116 328 0 7 19 74 42 149 29 95 38 138 30 141 -17 5 -15 22 2 22 8 0 16 7 19 14 4 10 1 13 -9 9 -7 -3 -14 0 -14 6 0 6 6 11 14 11 8 0 16 7 19 14 4 10 1 13 -9 9 -18 -7 -18 -7 5 85 51 201 149 746 201 1112 31 222 43 270 66 270 7 0 16 16 19 38 4 20 12 53 19 72 7 19 23 67 36 105 13 39 26 75 30 80 12 15 99 268 131 380 16 54 35 144 43 200 23 157 23 169 5 173 -12 2 -18 -7 -23 -32 -22 -119 -183 -541 -222 -584 -32 -35 -39 -46 -53 -80 -8 -19 -21 -41 -30 -49 -8 -9 -62 -106 -119 -217 -58 -110 -133 -255 -168 -321 -35 -66 -64 -127 -64 -135 0 -8 -19 -46 -41 -85 -23 -38 -38 -59 -35 -45 22 93 29 140 22 147 -4 4 -11 1 -16 -7 -24 -38 -18 14 18 182 54 247 62 285 71 365 5 37 31 197 59 355 109 615 151 1019 144 1386 -2 70 -5 92 -16 92 -10 0 -14 -39 -19 -187z"></path></g></g><g id="l7IPDR1oW1JgNJejlGj0TlC" fill="rgb(95,43,21)" style="transform: none;"><g style="transform: none;"><path id="pVYgNdPqG" d="M6360 12110 c-373 -27 -735 -103 -1006 -210 -41 -17 -80 -30 -87 -30 -13 0 -51 -18 -121 -59 -22 -12 -113 -93 -203 -179 -91 -86 -167 -156 -171 -155 -18 5 -7 25 49 91 34 40 59 75 56 78 -10 11 -273 -263 -321 -334 -84 -128 -162 -293 -176 -376 -5 -28 -16 -83 -24 -121 -28 -128 -38 -291 -26 -429 12 -152 42 -337 76 -464 39 -149 149 -413 247 -597 50 -93 107 -201 127 -240 59 -113 306 -469 385 -555 18 -19 39 -47 46 -62 21 -40 181 -229 289 -343 53 -55 110 -118 127 -140 18 -22 85 -92 149 -155 65 -63 168 -164 229 -225 128 -126 339 -315 351 -315 5 0 41 -30 79 -66 84 -79 358 -298 556 -445 79 -59 179 -133 223 -165 135 -101 211 -154 219 -154 5 0 97 -60 205 -133 221 -149 414 -271 458 -287 16 -6 31 -15 34 -19 3 -4 95 -59 205 -122 110 -62 205 -118 211 -124 6 -5 74 -41 150 -79 77 -38 150 -75 164 -82 14 -7 72 -38 130 -70 118 -65 214 -114 310 -160 36 -17 97 -48 135 -69 64 -35 230 -105 247 -105 4 0 36 -14 70 -31 35 -17 137 -60 228 -96 91 -36 183 -74 205 -84 88 -39 182 -77 220 -89 22 -7 92 -34 155 -60 63 -26 131 -51 150 -55 58 -12 255 -72 426 -131 89 -30 199 -66 245 -79 46 -13 116 -33 154 -45 39 -12 108 -30 155 -40 47 -10 141 -32 210 -48 184 -45 466 -91 835 -137 559 -69 1138 -55 1565 35 52 12 120 25 151 30 65 12 265 74 329 103 186 84 260 123 337 172 48 32 90 60 93 64 11 14 89 71 97 71 30 0 263 273 308 360 10 19 23 44 28 55 45 85 69 146 97 236 17 57 38 117 46 133 8 16 11 32 7 35 -4 3 -6 103 -3 221 8 310 -16 465 -116 766 -30 89 -54 168 -54 175 0 20 -203 430 -244 492 -71 110 -160 253 -177 287 -28 54 -120 180 -313 425 -246 313 -622 707 -966 1014 -180 161 -406 355 -444 381 -37 26 -299 230 -346 269 -66 55 -172 132 -195 141 -11 5 -69 45 -130 89 -134 99 -480 331 -493 331 -5 0 -21 9 -34 20 -65 50 -649 400 -670 400 -7 1 -47 20 -88 45 -41 24 -139 78 -217 119 -115 62 -147 75 -171 70 -26 -5 -32 -2 -43 22 -15 29 -170 118 -252 145 -23 7 -103 42 -177 77 -267 128 -798 352 -835 352 -9 0 -25 5 -36 10 -35 19 -490 180 -669 237 -205 64 -489 145 -575 163 -75 15 -350 76 -430 95 -199 47 -700 121 -980 145 -178 15 -623 21 -775 10z m790 -165 c91 -8 237 -24 325 -36 88 -11 196 -25 240 -29 338 -34 1140 -245 1795 -472 134 -47 659 -256 698 -278 34 -20 158 -72 215 -91 72 -24 504 -235 688 -335 75 -41 142 -74 150 -74 8 0 56 -24 107 -53 202 -114 481 -278 547 -321 38 -25 74 -46 80 -46 13 0 226 -137 463 -297 100 -68 185 -123 188 -123 4 0 39 -24 78 -54 39 -29 143 -106 231 -171 88 -65 173 -131 189 -147 16 -17 39 -33 50 -38 27 -10 236 -178 341 -273 44 -40 98 -89 121 -109 23 -21 45 -38 49 -38 11 0 159 -136 319 -293 78 -77 183 -180 234 -230 51 -51 111 -114 132 -142 21 -27 77 -90 125 -140 89 -92 275 -316 275 -330 0 -8 64 -92 85 -110 37 -33 294 -418 340 -510 17 -33 68 -131 113 -217 132 -252 219 -488 269 -728 23 -112 26 -149 27 -355 1 -220 0 -235 -26 -331 -39 -147 -105 -300 -157 -364 -11 -14 -38 -49 -60 -79 -64 -87 -213 -233 -294 -289 -41 -29 -79 -52 -84 -52 -5 0 -64 -29 -131 -64 -326 -172 -718 -262 -1241 -286 -498 -22 -1081 38 -1746 180 -99 21 -211 43 -250 49 -38 6 -161 35 -272 66 -111 30 -215 55 -230 55 -15 0 -66 13 -113 29 -47 16 -146 48 -220 71 -74 23 -148 48 -165 56 -16 7 -70 27 -120 44 -134 47 -235 86 -387 151 -76 32 -156 63 -179 69 -51 14 -384 167 -679 312 -124 61 -245 120 -270 132 -86 42 -415 224 -500 276 -46 29 -130 76 -185 105 -55 28 -120 65 -144 81 -25 16 -122 79 -218 139 -95 61 -199 129 -231 153 -32 23 -75 51 -94 61 -43 21 -277 187 -448 316 -69 52 -129 94 -134 95 -9 0 -123 87 -171 131 -47 43 -317 262 -345 280 -14 9 -48 38 -75 65 -28 27 -113 105 -190 174 -319 287 -649 633 -895 940 -24 30 -51 62 -60 70 -20 18 -100 124 -100 133 0 3 -58 88 -129 189 -114 163 -270 415 -287 465 -4 10 -33 72 -65 138 -118 244 -193 465 -241 705 -30 152 -33 466 -5 602 41 202 131 390 267 555 84 102 103 123 125 136 12 6 55 37 96 68 88 66 241 157 346 206 112 52 363 132 446 143 40 5 106 16 147 24 110 21 319 46 466 56 169 11 567 4 774 -15z"></path></g></g><g id="l33J4Lejy4YDBMTEaVVYi9N" fill="rgb(134,89,47)" style="transform: none;"><g><path id="pkChvI9j1" d="M10903 15073 c15 -2 39 -2 55 0 15 2 2 4 -28 4 -30 0 -43 -2 -27 -4z"></path><path id="pQlymLHUM" d="M10350 15025 c-163 -45 -384 -133 -583 -232 -124 -61 -347 -193 -347 -204 0 -8 217 94 362 171 31 16 64 30 73 30 16 0 93 33 175 75 73 37 228 101 330 135 153 51 146 68 -10 25z"></path><path id="p1Bi67MZXv" d="M13209 14991 c-31 -25 -76 -65 -100 -88 -24 -24 -49 -43 -56 -43 -7 0 -13 -5 -13 -10 0 -6 -21 -25 -46 -43 -46 -31 -169 -134 -392 -327 -61 -52 -130 -110 -155 -127 -24 -18 -93 -80 -153 -137 -60 -57 -122 -115 -139 -129 -36 -32 -25 -33 73 -8 57 15 84 29 122 63 112 99 285 258 430 397 85 82 184 174 220 207 199 178 365 375 209 245z"></path><path id="pUD7m4vyS" d="M11933 14973 c9 -2 25 -2 35 0 9 3 1 5 -18 5 -19 0 -27 -2 -17 -5z"></path><path id="p18AwfjREy" d="M10450 14675 c-212 -144 -206 -139 -186 -143 10 -2 39 11 65 29 25 18 88 62 139 97 81 57 109 84 85 81 -5 0 -51 -29 -103 -64z"></path><path id="pHKeP3o5o" d="M12505 14673 c-22 -2 -47 -6 -55 -9 -8 -3 -32 -7 -52 -8 -21 -1 -45 -9 -55 -18 -10 -8 -26 -18 -35 -21 -10 -4 -18 -10 -18 -15 0 -5 35 -1 78 9 42 11 82 17 89 14 7 -2 15 0 17 4 3 5 42 14 87 21 52 8 76 16 67 21 -13 9 -46 9 -123 2z"></path><path id="pdHbQxAvY" d="M12055 14653 c-11 -3 -31 -10 -45 -16 -14 -5 -29 -11 -35 -12 -5 -1 -12 -3 -15 -4 -3 -1 -18 -4 -33 -6 -16 -2 -34 -9 -42 -15 -7 -6 -39 -24 -71 -40 -33 -17 -66 -34 -74 -39 -83 -52 -201 -121 -207 -121 -5 0 -21 -5 -38 -11 -16 -7 -34 -11 -39 -10 -4 1 -14 -4 -22 -10 -8 -6 -14 -8 -14 -4 0 4 -11 0 -25 -9 -14 -9 -25 -14 -25 -10 0 3 -11 -1 -25 -10 -14 -9 -25 -14 -25 -11 0 4 -12 0 -27 -8 -31 -17 -85 -39 -93 -39 -3 0 -21 -8 -40 -17 -19 -10 -75 -37 -125 -60 -230 -107 -635 -308 -710 -352 -27 -16 -57 -32 -65 -36 -8 -3 -23 -13 -32 -21 -16 -14 -18 -13 -18 3 0 11 85 101 205 218 113 110 204 201 202 203 -2 2 -27 -4 -56 -13 -52 -17 -61 -25 -321 -266 -19 -18 -84 -83 -144 -144 -73 -76 -124 -119 -155 -133 -25 -12 -93 -45 -150 -73 -58 -29 -110 -51 -117 -49 -7 1 -93 -39 -191 -89 -336 -174 -448 -229 -468 -229 -12 0 -41 -20 -65 -45 -24 -25 -49 -45 -55 -45 -13 0 -234 -215 -262 -255 l-21 -30 -7 26 c-7 29 -2 37 84 131 24 26 40 48 36 48 -3 0 -36 -17 -72 -37 -35 -21 -73 -43 -84 -49 -10 -6 -27 -18 -37 -27 -10 -10 -21 -17 -25 -17 -3 0 -32 -17 -64 -37 -69 -45 -78 -50 -167 -105 -39 -24 -84 -52 -102 -63 -61 -38 -211 -166 -224 -190 -7 -14 -17 -25 -22 -25 -16 0 -8 -40 13 -59 17 -16 26 -17 55 -9 19 5 38 7 43 4 4 -3 16 3 25 13 10 11 13 20 7 22 -6 2 -7 9 -3 15 9 14 158 121 213 154 23 14 57 35 76 48 19 12 39 22 46 23 7 0 38 17 70 37 225 144 263 165 302 167 34 2 42 7 53 31 8 18 36 42 74 64 33 19 81 47 106 63 26 15 76 41 112 57 36 17 74 35 85 42 11 7 49 27 85 46 36 19 72 40 80 46 8 7 33 22 55 33 22 11 117 61 211 110 161 83 186 90 139 38 -5 -6 -23 -29 -40 -50 -58 -75 -125 -149 -272 -303 -46 -48 -83 -91 -83 -97 0 -5 -15 -26 -33 -45 -28 -31 -88 -101 -152 -179 -11 -14 -35 -41 -53 -60 -49 -53 -165 -221 -158 -229 7 -6 18 5 91 94 59 72 225 239 225 226 0 -8 -75 -97 -120 -142 -3 -3 -20 -24 -39 -48 -40 -53 -31 -71 11 -22 17 19 60 67 97 106 95 101 131 142 131 151 0 5 20 31 45 58 47 53 56 75 28 75 -21 0 29 47 131 124 39 30 84 69 100 87 16 19 63 71 104 117 41 45 72 85 69 88 -3 4 7 20 23 38 17 17 30 36 30 41 1 20 55 64 120 97 14 7 57 32 95 54 39 23 87 51 107 62 37 21 244 112 263 116 6 1 21 8 35 16 14 7 26 13 27 12 2 -1 27 9 55 22 93 42 288 108 302 103 8 -3 17 -3 21 1 4 4 10 7 13 8 4 0 20 6 36 13 42 17 43 6 2 -21 -84 -57 -420 -378 -396 -378 5 0 43 27 83 61 84 71 365 285 410 314 95 58 213 146 301 223 128 113 232 191 265 198 45 10 211 75 224 88 6 7 46 32 87 56 85 49 85 49 79 54 -2 2 -15 -1 -29 -6 -14 -6 -35 -12 -48 -14 -12 -1 -36 -9 -52 -18 -23 -11 -30 -12 -30 -2 0 7 47 35 105 62 111 52 138 74 70 57z m-795 -452 c0 -5 -35 -38 -77 -73 -61 -50 -92 -68 -143 -83 -36 -10 -70 -22 -76 -27 -6 -4 -13 -6 -15 -3 -3 2 -27 -2 -54 -10 -42 -13 -68 -13 -54 -1 4 3 411 204 417 206 1 0 2 -4 2 -9z"></path><path id="pZRrsl0f" d="M9565 14541 c-35 -9 -76 -30 -58 -31 24 0 118 22 128 31 11 11 -26 10 -70 0z"></path><path id="p2XdZ5bQb" d="M12007 14400 c-65 -31 -128 -67 -140 -79 -13 -11 -27 -21 -31 -21 -4 0 -19 -8 -34 -18 -15 -10 -74 -50 -132 -88 -109 -72 -185 -125 -210 -147 -48 -42 -108 -87 -116 -87 -5 0 -61 -41 -124 -91 -109 -86 -144 -120 -106 -106 9 4 49 16 88 28 60 19 89 36 172 104 56 45 187 146 291 224 105 78 199 150 210 159 34 28 146 102 155 102 5 0 34 15 65 34 93 56 38 47 -88 -14z"></path><path id="pAyOGoYJp" d="M9118 14426 c-15 -8 -28 -12 -31 -10 -2 2 -29 -5 -60 -15 -31 -11 -71 -21 -89 -23 -18 -2 -35 -6 -38 -10 -3 -4 -18 -9 -34 -12 -15 -3 -33 -9 -39 -15 -7 -5 -14 -9 -17 -9 -12 -1 -217 -80 -275 -107 -27 -13 -118 -53 -202 -89 -83 -36 -198 -89 -255 -117 -57 -29 -116 -56 -132 -60 -30 -9 -530 -268 -620 -322 -105 -63 -168 -97 -178 -97 -17 0 -256 -145 -529 -322 -75 -48 -141 -88 -147 -88 -5 0 -12 -3 -14 -8 -1 -4 -50 -41 -108 -82 -123 -88 -276 -209 -340 -270 -25 -23 -61 -52 -80 -65 -38 -24 -279 -261 -348 -342 -23 -28 -42 -55 -42 -61 0 -29 32 -5 111 80 83 90 330 314 359 326 8 3 25 16 37 28 33 36 463 352 521 384 45 25 232 140 317 195 44 29 100 63 125 77 39 21 119 68 170 99 8 4 40 21 70 37 30 16 80 42 110 59 130 73 279 153 284 153 4 0 28 15 54 33 55 37 475 242 687 335 50 22 124 55 165 74 87 41 254 109 272 112 7 1 18 4 23 8 22 13 196 78 210 78 16 0 95 46 95 55 0 7 -2 6 -32 -9z"></path><path id="p13xNDeVtp" d="M10787 14414 c-27 -14 -47 -28 -44 -30 10 -10 56 9 78 32 28 29 26 29 -34 -2z"></path><path id="pW5byJ4Qq" d="M13387 14378 c-48 -54 -51 -64 -19 -54 17 6 82 85 82 100 0 17 -22 1 -63 -46z"></path><path id="p1AUYX2vZj" d="M10009 14340 c-40 -24 -125 -97 -215 -184 -118 -114 -162 -150 -209 -171 -146 -66 -273 -134 -248 -135 7 0 61 23 120 51 59 28 119 53 133 55 14 2 39 7 55 10 21 4 67 44 160 138 72 73 166 165 210 204 44 39 76 72 70 72 -5 0 -40 -18 -76 -40z"></path><path id="pdIp9d6D1" d="M8830 14273 c-8 -3 -30 -12 -48 -19 -18 -7 -34 -12 -36 -11 -1 1 -10 -4 -19 -12 -10 -7 -17 -10 -17 -6 0 4 -11 0 -25 -9 -14 -9 -25 -14 -25 -10 0 3 -11 -1 -25 -10 -14 -9 -25 -14 -25 -11 0 5 -49 -18 -327 -159 -84 -43 -153 -75 -153 -73 0 7 -160 -75 -325 -168 -27 -15 -62 -34 -77 -42 -15 -8 -30 -19 -34 -24 -3 -6 -16 -14 -27 -19 -12 -6 -40 -21 -62 -35 -22 -14 -49 -29 -60 -35 -11 -6 -33 -19 -50 -30 -16 -11 -50 -30 -75 -43 -58 -30 -108 -60 -144 -89 -25 -20 -72 -53 -231 -162 -47 -33 -105 -76 -172 -129 -34 -27 -63 -48 -65 -46 -2 3 -298 -217 -347 -258 -2 -1 -2 -6 1 -9 4 -3 39 19 80 48 114 85 296 205 508 338 107 67 206 130 220 141 41 30 223 137 252 148 14 5 93 50 175 99 81 49 184 108 228 132 44 24 139 76 211 116 72 41 136 74 142 74 6 0 91 39 189 86 177 86 393 210 393 226 0 9 -7 9 -30 1z"></path><path id="p51XxvHoE" d="M8975 14152 c-3 -3 -16 -7 -28 -9 -12 -2 -27 -11 -34 -19 -7 -9 -25 -31 -40 -48 -61 -68 -60 -71 12 -31 39 21 74 45 78 52 5 8 23 23 40 34 18 10 28 19 22 20 -5 0 -18 2 -27 4 -9 2 -19 0 -23 -3z"></path><path id="pQcd0xZqp" d="M13134 14007 c-37 -15 -63 -40 -144 -142 -36 -44 -67 -82 -70 -85 -3 -3 -32 -39 -65 -80 -79 -100 -96 -120 -121 -146 -31 -32 -39 -58 -17 -51 109 31 130 47 193 137 13 19 30 41 37 48 7 7 20 26 30 42 9 17 21 30 25 30 4 0 8 5 8 10 0 6 5 16 10 23 47 55 61 74 66 90 3 9 10 17 15 17 5 0 9 7 9 15 0 8 5 15 10 15 6 0 10 6 10 14 0 8 11 24 25 37 40 39 34 47 -21 26z"></path><path id="p1EwkM7hBJ" d="M8803 13969 c-42 -19 -74 -55 -177 -202 -27 -37 -46 -70 -43 -73 11 -12 96 57 133 108 55 75 73 97 123 151 39 41 29 46 -36 16z"></path><path id="pJbT1y2zN" d="M11931 13825 c-76 -20 -90 -28 -130 -72 -122 -130 -142 -160 -98 -149 54 13 95 38 152 91 33 31 86 77 118 102 31 25 57 48 57 49 0 6 -10 4 -99 -21z"></path><path id="pYJdy2E3Z" d="M9470 13809 c-50 -22 -90 -56 -90 -75 0 -7 -3 -14 -7 -16 -5 -1 -39 -39 -78 -83 -38 -44 -75 -83 -81 -87 -19 -12 -87 -99 -81 -104 2 -3 32 18 65 46 33 27 64 50 69 50 11 0 113 101 113 112 0 5 17 27 38 50 20 22 42 46 47 52 6 7 23 26 39 44 34 37 29 38 -34 11z"></path><path id="pYz69uScg" d="M14848 13717 c-60 -56 -94 -107 -70 -107 12 0 152 146 152 159 0 20 -14 11 -82 -52z"></path><path id="pTYlglbFr" d="M14327 13723 c-4 -3 -31 -5 -61 -4 -30 1 -57 -3 -61 -9 -3 -6 -11 -8 -16 -4 -14 8 -208 -16 -215 -27 -3 -5 -10 -7 -15 -4 -8 6 -118 -11 -149 -22 -8 -4 -22 -5 -32 -4 -9 1 -19 -3 -22 -8 -4 -6 -13 -8 -21 -5 -13 6 -64 -41 -65 -59 0 -8 54 -4 80 6 26 10 98 28 107 26 4 -1 15 0 23 4 46 17 265 58 503 93 20 3 37 10 37 15 0 10 -83 12 -93 2z"></path><path id="p9nMFLI8H" d="M14670 13575 c-25 -19 -49 -35 -55 -35 -5 0 -21 -9 -35 -20 l-25 -19 60 14 c33 8 66 14 73 15 12 0 52 56 52 73 0 15 -27 4 -70 -28z"></path><path id="psTEFj9WJ" d="M13520 13593 c-8 -2 -22 -7 -30 -10 -8 -3 -19 -7 -25 -8 -5 -1 -12 -3 -15 -4 -3 -2 -14 -4 -25 -5 -36 -5 -160 -28 -175 -34 -8 -3 -19 -6 -25 -7 -5 -1 -12 -3 -15 -4 -3 -1 -20 -4 -38 -7 -18 -2 -43 -9 -55 -16 -12 -7 -26 -11 -31 -10 -4 2 -14 -2 -20 -8 -7 -5 -15 -7 -18 -5 -3 3 -18 0 -34 -6 -16 -7 -37 -13 -46 -14 -9 -1 -38 -19 -64 -41 -26 -21 -58 -49 -73 -61 -14 -11 -24 -24 -21 -27 3 -3 47 8 98 23 51 16 92 27 92 24 0 -3 6 -1 13 4 12 10 225 80 262 86 11 2 33 9 48 15 15 7 31 11 35 10 4 -1 14 2 22 5 8 3 47 15 85 27 47 13 76 28 87 44 16 21 16 25 2 30 -9 3 -16 6 -17 5 -1 0 -9 -3 -17 -6z"></path><path id="p1GOOuUDYh" d="M8904 13555 c-17 -13 -17 -14 -2 -15 9 0 20 5 23 11 11 17 0 20 -21 4z"></path><path id="p139o3liUA" d="M8499 13545 c-23 -12 -125 -172 -116 -181 7 -8 77 48 77 61 0 8 3 15 8 15 4 0 16 17 27 38 11 20 26 43 32 50 14 15 17 32 6 32 -5 -1 -20 -7 -34 -15z"></path><path id="pQ5luopeh" d="M10920 13548 c-14 -6 -37 -10 -52 -9 -14 1 -29 -3 -33 -9 -3 -5 -11 -8 -16 -4 -13 8 -161 -141 -404 -407 -86 -94 -128 -150 -172 -229 -17 -29 -18 -38 -7 -48 20 -19 29 -15 60 24 87 109 164 193 359 389 105 105 218 214 252 242 34 28 59 54 56 57 -8 8 -13 7 -43 -6z"></path><path id="pXxXWfoKd" d="M8840 13536 c-58 -20 -203 -101 -276 -154 -113 -81 -184 -125 -191 -119 -3 4 0 13 7 22 7 8 8 15 3 15 -19 0 -60 -39 -72 -67 -11 -28 -107 -105 -134 -109 -8 -1 -43 -24 -78 -51 -35 -27 -86 -65 -114 -83 -114 -76 -255 -178 -307 -221 -23 -20 -60 -46 -81 -58 -63 -35 -396 -292 -491 -379 -33 -30 -36 -36 -22 -44 12 -7 27 -3 54 13 57 35 135 89 158 111 12 10 73 56 137 101 404 287 641 458 702 506 106 83 99 79 90 51 -4 -14 -12 -28 -17 -31 -5 -3 -9 -9 -8 -13 3 -10 -62 -170 -71 -176 -5 -3 -4 -12 2 -20 8 -13 10 -13 18 0 5 8 7 18 5 22 -3 4 -2 8 3 8 9 0 49 91 45 103 -1 4 3 7 9 7 5 0 8 4 5 9 -4 5 -3 11 1 13 5 1 21 31 37 65 19 41 41 69 65 85 116 78 207 142 216 152 6 6 39 31 75 55 113 76 255 174 264 182 17 15 2 17 -34 5z"></path><path id="pJTwwDKG3" d="M14555 13440 c-4 -6 -11 -8 -16 -5 -5 4 -14 3 -21 -1 -7 -4 -25 -9 -42 -11 -16 -2 -49 -20 -74 -41 -24 -20 -61 -50 -82 -67 -49 -39 -268 -243 -345 -321 -84 -85 -303 -284 -313 -284 -5 0 -42 -32 -83 -72 -105 -102 -367 -329 -411 -356 -21 -13 -38 -27 -38 -31 0 -4 -30 -32 -67 -62 -38 -30 -95 -76 -128 -104 -33 -28 -94 -76 -135 -107 -96 -72 -207 -174 -199 -182 3 -3 28 3 55 15 47 21 108 68 202 154 24 22 51 40 61 41 9 0 25 3 37 7 11 4 42 9 70 12 27 3 68 9 91 15 23 5 52 10 65 9 36 0 118 17 185 40 69 23 90 26 95 11 3 -11 32 -12 98 -4 115 15 285 32 392 40 82 6 133 19 131 32 -2 7 1 12 6 12 5 0 11 8 14 18 2 9 8 26 13 36 7 17 4 18 -27 11 -19 -5 -68 -9 -109 -11 -119 -3 -254 -12 -400 -27 -30 -3 -74 -6 -98 -6 -23 0 -48 -3 -55 -8 -11 -7 -58 -11 -135 -12 -18 0 -38 -4 -45 -8 -6 -4 -26 -6 -43 -4 -18 1 -35 -3 -39 -9 -4 -6 -15 -8 -25 -5 -11 3 -27 2 -37 -3 -10 -5 -23 -7 -30 -5 -14 5 65 87 142 148 28 21 97 80 154 129 80 69 118 94 168 113 36 13 68 21 71 18 3 -2 10 -1 16 4 9 7 241 64 396 96 30 7 32 9 15 16 -24 9 -89 11 -98 3 -6 -6 -67 -12 -130 -13 -16 0 -33 -4 -39 -7 -6 -4 -25 -8 -42 -9 -17 -1 -51 -5 -76 -9 l-45 -8 45 41 c25 22 49 40 53 41 10 0 208 161 247 200 41 40 259 220 267 220 5 0 44 31 88 70 44 38 124 107 178 152 53 45 97 86 97 90 0 11 -18 10 -25 -2z"></path><path id="pmqh4heLH" d="M12785 13402 c-11 -2 -31 -9 -45 -15 -14 -6 -29 -9 -33 -8 -4 0 -18 -4 -30 -11 -12 -7 -26 -12 -32 -13 -5 0 -11 -21 -13 -47 -4 -62 11 -63 76 -5 26 23 63 54 82 68 34 26 32 39 -5 31z"></path><path id="pxKIQMMYq" d="M12533 13305 c-13 -9 -23 -14 -23 -10 0 3 -13 -1 -30 -10 -16 -8 -33 -16 -37 -16 -5 -1 -26 -11 -48 -22 -22 -11 -46 -22 -53 -23 -8 -1 -31 -14 -53 -28 -21 -15 -39 -24 -39 -21 0 3 -22 -6 -50 -20 -27 -14 -55 -25 -62 -24 -17 1 -287 -134 -288 -143 0 -4 20 1 45 12 25 11 46 19 48 19 1 0 16 5 32 11 17 7 35 13 40 14 6 1 15 4 20 7 10 6 85 33 95 34 3 0 10 3 15 6 22 14 117 41 122 35 3 -3 11 -2 17 3 6 5 42 21 80 35 80 30 80 33 -21 -73 -29 -30 -53 -59 -53 -65 0 -6 -17 -29 -38 -52 -35 -38 -77 -87 -154 -179 -18 -22 -52 -59 -76 -84 -23 -24 -40 -46 -38 -49 8 -8 104 80 256 234 129 130 212 206 280 254 16 12 22 27 23 65 1 28 6 53 10 56 5 4 7 16 5 28 -3 20 -4 21 -25 6z"></path><path id="pUU7QikIu" d="M10374 13208 l-29 -33 33 29 c30 28 37 36 29 36 -2 0 -16 -15 -33 -32z"></path><path id="p1DwOf3sZG" d="M10228 13078 c-157 -161 -341 -371 -382 -436 -34 -54 -25 -69 12 -23 15 19 46 54 69 79 23 24 57 63 76 86 49 58 70 81 140 160 34 38 62 73 62 79 0 5 29 38 65 73 36 35 59 64 52 64 -8 0 -50 -37 -94 -82z"></path><path id="pX0GQdXNK" d="M6920 13095 c-7 -8 -17 -15 -22 -15 -5 0 -21 -11 -36 -25 -15 -14 -31 -25 -36 -25 -5 0 -24 -11 -42 -25 -18 -14 -35 -25 -39 -25 -8 0 -270 -176 -297 -200 -13 -11 -39 -34 -58 -50 -29 -24 -32 -29 -15 -30 26 0 40 8 196 120 74 53 171 122 217 154 46 32 91 64 100 73 9 8 32 26 51 39 29 20 31 24 14 24 -11 0 -26 -7 -33 -15z"></path><path id="p1DXmoHGCP" d="M11850 13083 c-37 -12 -45 -14 -45 -12 0 1 -11 -4 -25 -11 -14 -8 -29 -15 -35 -16 -5 -1 -23 -7 -40 -14 -16 -6 -30 -10 -30 -9 0 2 -13 -4 -30 -13 -35 -19 -90 -41 -90 -37 0 3 -49 -22 -85 -42 -8 -5 -22 -12 -30 -15 -8 -3 -34 -14 -57 -26 -23 -11 -44 -20 -47 -20 -3 1 -76 -35 -162 -78 -86 -44 -164 -80 -174 -80 -18 0 -137 -136 -127 -146 3 -3 63 24 134 60 71 37 158 77 193 90 121 44 135 51 246 116 61 36 183 106 272 155 89 50 162 93 162 98 0 8 -7 8 -30 0z"></path><path id="peYyS6koe" d="M15395 13016 c-16 -21 -38 -48 -48 -60 -96 -113 -137 -164 -137 -171 0 -4 -26 -35 -59 -69 -148 -155 -147 -153 -181 -271 -18 -60 -41 -132 -51 -158 -11 -26 -19 -61 -19 -77 l0 -29 148 -5 c214 -7 326 -6 336 5 6 6 4 9 -7 9 -9 0 -17 4 -17 8 0 11 -180 29 -348 36 -94 3 -104 14 -61 60 38 39 42 44 84 101 17 22 35 45 40 52 6 7 15 18 21 25 6 8 19 27 30 43 21 34 24 38 59 80 14 17 25 38 25 48 0 9 5 17 10 17 6 0 10 5 10 11 0 7 10 21 23 33 26 25 77 101 77 116 0 5 5 10 10 10 6 0 10 7 10 15 0 8 4 15 10 15 5 0 12 11 16 25 3 14 9 25 14 25 14 0 41 77 38 110 l-3 34 -30 -38z"></path><path id="pZpwkM16f" d="M11063 12797 c-46 -56 -51 -80 -6 -27 39 47 56 71 51 75 -2 2 -22 -19 -45 -48z"></path><path id="pR49GE0xn" d="M6405 12820 c-10 -11 -13 -20 -8 -20 13 0 38 29 31 35 -3 3 -13 -4 -23 -15z"></path><path id="pG6mQ0Pif" d="M8103 12745 c-13 -41 2 -49 17 -9 12 31 13 44 2 44 -5 0 -13 -16 -19 -35z"></path><path id="px8umLEYl" d="M12185 12750 c-10 -11 -13 -20 -8 -20 13 0 38 29 31 35 -3 3 -13 -4 -23 -15z"></path><path id="ph9KdPKQx" d="M12143 12714 c-13 -6 -236 -256 -306 -344 -92 -116 -29 -66 78 62 27 32 101 115 207 232 31 34 47 59 36 55 -2 0 -8 -3 -15 -5z"></path><path id="pKwDFBYtI" d="M11921 12599 c-26 -30 -36 -47 -24 -40 33 17 90 91 71 91 -2 0 -23 -23 -47 -51z"></path><path id="pSgz675zA" d="M9689 12558 c-29 -45 -57 -95 -63 -110 -6 -15 -14 -28 -18 -28 -10 0 10 -53 23 -61 17 -10 59 2 59 17 0 8 5 14 10 14 6 0 10 7 10 15 0 8 5 15 10 15 6 0 10 5 10 10 0 6 5 16 10 23 51 60 49 56 32 90 -9 18 -16 47 -16 65 0 17 -3 32 -7 32 -4 0 -31 -37 -60 -82z"></path><path id="pfR2N71K0" d="M10710 12542 c-41 -25 -77 -49 -80 -52 -3 -3 -27 -21 -55 -40 -178 -122 -115 -135 70 -14 l30 19 -20 -27 c-11 -15 -24 -28 -28 -28 -5 0 -6 -4 -3 -9 3 -4 -82 -97 -189 -205 -107 -108 -195 -199 -195 -201 0 -14 25 2 101 66 117 99 329 308 329 325 0 8 4 14 9 14 5 0 12 12 15 26 4 14 11 31 17 37 16 19 80 130 76 133 -1 2 -36 -18 -77 -44z"></path><path id="p1AIlmqY0q" d="M13255 12540 c-4 -6 -10 -8 -15 -5 -5 3 -21 0 -37 -7 -15 -6 -32 -10 -36 -9 -4 0 -18 -4 -30 -11 -12 -7 -25 -11 -29 -10 -4 1 -20 -3 -35 -10 -15 -6 -31 -12 -35 -13 -5 -2 -10 -4 -13 -5 -3 -1 -9 -4 -15 -5 -5 -1 -12 -4 -15 -5 -3 -1 -9 -4 -15 -5 -5 -1 -11 -3 -12 -5 -2 -1 -11 -3 -20 -5 -35 -7 -183 -58 -195 -68 -7 -5 -13 -6 -13 -2 0 4 -6 2 -14 -4 -8 -7 -27 -14 -42 -17 -42 -8 -93 -71 -94 -116 0 -21 4 -38 8 -38 5 0 40 15 78 34 38 18 87 39 109 46 100 32 193 63 220 75 26 11 69 26 85 30 45 11 205 139 194 156 -7 12 -21 11 -29 -1z"></path><path id="pXEdytDTI" d="M11820 12472 c-58 -63 -73 -82 -65 -82 10 0 105 102 105 112 0 13 -4 10 -40 -30z"></path><path id="prEh3PWpl" d="M14705 12399 c-146 -130 -156 -134 -271 -144 -54 -4 -128 -9 -164 -11 l-65 -2 -17 -41 -17 -41 47 -2 c51 -1 49 -1 141 8 l65 7 -30 -35 c-38 -46 -280 -268 -286 -263 -12 13 -99 -97 -122 -154 -14 -36 -26 -66 -26 -69 0 -6 320 299 434 415 91 91 106 102 146 108 25 3 62 5 82 3 l37 -3 -46 -50 c-25 -27 -71 -77 -102 -110 -47 -52 -176 -192 -262 -286 -13 -14 -60 -65 -104 -114 -44 -49 -104 -112 -132 -140 -29 -29 -53 -55 -53 -59 0 -4 -6 -13 -12 -20 -7 -7 -47 -50 -88 -95 -70 -77 -80 -95 -158 -269 -45 -102 -81 -189 -80 -193 6 -15 746 730 757 763 4 11 20 30 89 106 12 14 41 48 65 76 23 27 58 66 77 86 63 64 91 103 86 116 -3 8 -1 14 5 14 6 0 9 7 5 15 -3 8 -1 15 5 15 6 0 9 6 6 14 -3 8 -2 16 4 18 5 2 10 18 12 36 1 17 5 32 8 32 6 0 22 59 23 85 1 6 4 12 7 15 4 3 10 20 14 39 8 36 1 36 -40 0 -16 -14 -31 -17 -83 -12 -51 5 -60 8 -51 19 6 8 17 14 23 14 14 0 186 167 186 180 0 23 -30 4 -115 -71z"></path><path id="ptdBcaqo" d="M11598 12241 c-76 -75 -138 -140 -138 -143 0 -9 -106 -109 -167 -157 -37 -30 -52 -37 -55 -27 -2 10 -14 5 -42 -19 -22 -18 -36 -37 -32 -44 11 -17 63 -13 106 9 22 11 45 20 51 20 21 0 114 76 129 106 14 28 78 124 90 134 3 3 28 34 55 70 28 35 71 87 98 114 26 27 47 55 47 63 0 7 -1 13 -2 13 -2 -1 -65 -63 -140 -139z"></path><path id="pC9a7qjKF" d="M12412 12258 c-7 -7 -12 -8 -12 -4 0 5 -11 1 -25 -8 -14 -9 -25 -14 -25 -12 0 3 -21 -6 -47 -19 -27 -13 -52 -24 -58 -25 -5 -1 -21 -7 -35 -14 -14 -7 -41 -20 -60 -28 -146 -61 -515 -241 -541 -264 -9 -8 -18 -11 -21 -8 -8 7 -58 -21 -155 -87 -21 -14 -50 -33 -65 -43 -16 -9 -28 -25 -28 -37 0 -19 -44 -69 -61 -69 -4 0 -14 7 -23 15 -9 9 -17 11 -21 5 -3 -5 -40 -33 -81 -62 -76 -53 -101 -91 -73 -109 23 -15 67 -10 104 11 86 49 103 59 151 88 28 18 55 32 59 32 4 0 20 9 36 21 58 41 398 218 449 234 14 4 70 29 125 55 55 27 145 69 199 95 99 47 126 64 126 84 0 6 4 11 8 11 4 0 16 15 27 33 10 17 23 37 27 42 5 6 17 21 28 34 11 13 17 28 14 32 -7 11 -8 11 -22 -3z"></path><path id="pT3Sl1Vrp" d="M12735 12090 c-4 -6 -10 -8 -15 -5 -5 3 -11 1 -14 -4 -3 -5 -15 -7 -25 -4 -10 3 -22 0 -25 -6 -4 -5 -13 -8 -20 -5 -8 3 -17 0 -21 -5 -3 -6 -11 -9 -16 -6 -5 4 -9 -18 -9 -50 l0 -56 38 7 c44 8 170 123 149 136 -17 11 -35 10 -42 -2z"></path><path id="p1E1EWa29N" d="M12405 12003 c-49 -19 -106 -89 -81 -99 16 -6 95 2 122 13 15 5 21 104 7 102 -5 0 -26 -7 -48 -16z"></path><path id="pqPbYgtCg" d="M15105 11658 c-49 -51 -122 -127 -162 -169 -44 -46 -73 -85 -73 -98 0 -11 3 -21 7 -21 14 0 333 359 333 374 0 18 -25 -3 -105 -86z"></path><path id="pTGfXflSD" d="M12342 11540 c-46 -44 -90 -80 -98 -80 -14 0 -19 -21 -8 -33 8 -7 54 13 54 25 0 4 8 8 18 8 22 0 162 126 162 146 0 35 -48 10 -128 -66z"></path><path id="p15xyqdGHJ" d="M13704 11490 c-72 -65 -145 -136 -162 -158 -18 -22 -117 -120 -222 -218 -104 -98 -190 -182 -190 -187 0 -4 -6 -14 -12 -21 -7 -8 -93 -94 -190 -194 -169 -171 -205 -219 -181 -243 6 -6 28 -3 59 7 59 20 77 34 44 34 -22 0 -18 6 35 60 33 33 63 60 66 60 4 0 45 39 91 86 46 48 234 239 419 425 185 187 334 339 330 339 -3 0 -1 4 4 8 15 10 55 111 47 116 -4 2 -66 -49 -138 -114z"></path><path id="p1D8GF96oX" d="M14755 11266 c-36 -40 -75 -96 -68 -96 4 1 25 16 46 34 27 22 38 39 35 53 -2 15 -6 18 -13 9z"></path><path id="pHF89Ao0L" d="M16491 11158 c-8 -12 -25 -42 -38 -67 -13 -25 -27 -48 -32 -51 -4 -3 -46 -52 -92 -110 -46 -58 -98 -120 -114 -138 -23 -26 -34 -53 -47 -120 -9 -47 -15 -88 -12 -91 5 -5 57 51 84 89 8 13 21 28 28 36 6 7 12 15 12 19 0 4 6 13 13 20 29 33 37 45 37 55 0 5 5 10 10 10 6 0 10 7 10 15 0 8 4 15 10 15 5 0 12 11 16 25 3 14 10 25 15 25 5 0 9 7 9 15 0 8 5 15 11 15 5 0 7 5 4 10 -3 6 -2 10 4 10 6 0 13 11 17 25 3 14 10 25 15 25 5 0 9 9 9 21 0 11 7 27 15 36 8 8 13 19 10 24 -4 5 -1 9 5 9 6 0 8 5 5 10 -3 6 -2 10 2 10 8 0 33 56 33 73 0 16 -26 5 -39 -15z"></path><path id="pt0hig8r8" d="M13534 10953 c-21 -26 -47 -56 -59 -68 -172 -185 -241 -255 -250 -255 -19 0 -105 -89 -105 -109 0 -55 40 -67 110 -31 67 34 273 207 264 221 -3 5 0 9 6 9 7 0 10 7 6 15 -3 8 -1 15 5 15 6 0 9 7 5 15 -3 8 -1 15 5 15 6 0 9 6 6 14 -3 8 -2 16 3 18 5 2 10 20 12 41 1 20 6 37 11 37 5 0 7 7 3 15 -3 8 -1 15 5 15 6 0 9 7 5 15 -3 8 -2 15 3 15 12 0 21 39 11 45 -4 3 -25 -16 -46 -42z"></path><path id="pAG1AEuLs" d="M15115 10832 c-5 -4 -12 -16 -13 -27 -2 -11 -7 -22 -10 -25 -4 -3 -9 -14 -10 -25 -2 -11 -7 -22 -10 -25 -4 -3 -8 -12 -10 -20 -2 -8 -19 -48 -38 -88 -19 -40 -34 -77 -34 -82 0 -6 -5 -10 -11 -10 -5 0 -7 -4 -4 -10 3 -5 1 -10 -6 -10 -7 0 -10 -3 -6 -6 6 -6 -98 -223 -112 -234 -3 -3 -35 -63 -71 -134 -36 -71 -70 -135 -76 -141 -15 -15 -69 -128 -66 -137 1 -5 -3 -8 -9 -8 -5 0 -7 -4 -4 -10 3 -5 1 -10 -4 -10 -6 0 -10 -3 -9 -7 4 -14 -13 -53 -22 -53 -5 0 -7 -7 -4 -15 4 -8 1 -15 -5 -15 -17 0 -13 -46 5 -61 18 -15 48 -1 50 22 1 21 37 89 46 89 5 0 6 5 3 10 -3 6 -1 10 4 10 6 0 11 7 11 15 0 8 5 15 10 15 6 0 10 7 10 15 0 8 5 15 10 15 6 0 10 7 10 15 0 8 5 15 10 15 6 0 10 7 10 15 0 8 5 15 11 15 5 0 7 5 4 10 -3 6 -1 10 5 10 7 0 10 7 6 15 -3 8 -1 15 5 15 6 0 7 5 4 10 -3 6 1 13 9 16 9 3 13 10 10 15 -3 5 0 9 5 9 6 0 11 7 11 15 0 8 5 15 11 15 5 0 7 5 4 10 -3 6 -2 10 3 10 5 0 17 18 28 40 10 22 22 40 25 40 4 0 12 14 19 30 7 17 16 30 21 30 4 0 13 16 20 35 7 19 17 35 22 35 4 0 5 5 2 10 -3 6 -2 10 2 10 19 0 55 98 78 209 13 64 21 119 19 123 -3 5 0 8 7 8 7 0 9 10 7 25 -3 14 -1 25 5 25 5 0 7 11 5 25 -3 14 -1 25 5 25 5 0 7 11 5 25 -3 13 -1 26 5 28 5 1 8 10 6 20 -2 9 -8 13 -14 9z"></path><path id="pxyMCLZf5" d="M16006 10557 c-51 -59 -280 -300 -328 -345 -33 -31 -48 -53 -48 -71 0 -14 -16 -84 -35 -156 -19 -71 -35 -134 -35 -139 0 -11 40 31 71 76 13 18 35 47 50 63 52 58 74 83 114 131 22 26 58 66 80 89 22 24 53 58 68 78 15 19 41 50 57 68 30 35 47 97 38 144 -3 14 -1 25 3 25 11 0 11 41 1 57 -6 9 -16 3 -36 -20z"></path><path id="pYnjqjDHC" d="M16284 9958 c-48 -68 -104 -141 -124 -163 -57 -64 -106 -128 -123 -160 -8 -16 -24 -39 -34 -50 -47 -51 -104 -138 -117 -177 -17 -53 -46 -154 -46 -162 0 -21 25 2 57 52 21 31 46 64 55 73 10 9 18 21 18 28 0 6 5 11 10 11 6 0 10 7 10 15 0 8 4 15 8 15 5 0 17 17 28 37 20 40 65 114 74 123 3 3 30 43 60 89 30 46 59 89 65 95 18 18 85 133 85 145 0 6 4 11 8 11 5 0 17 19 28 43 10 23 23 45 29 49 6 5 6 8 0 8 -5 0 -3 5 5 10 11 7 12 12 4 20 -8 8 -36 -23 -100 -112z"></path><path id="pvYMjUEsy" d="M16873 9895 c0 -27 2 -38 4 -22 2 15 2 37 0 50 -2 12 -4 0 -4 -28z"></path><path id="pGPZUxfc4" d="M15083 9614 c-79 -78 -143 -149 -143 -158 0 -21 -51 -199 -60 -209 -11 -13 -40 4 -40 24 0 10 5 19 10 19 6 0 10 20 10 45 0 39 -3 45 -21 45 -11 0 -36 -12 -55 -26 -19 -15 -34 -22 -34 -18 0 16 -68 9 -88 -9 -24 -22 -34 -94 -14 -102 7 -3 10 -9 7 -15 -3 -5 3 -10 15 -10 11 0 23 -7 26 -15 8 -19 67 -11 139 18 73 30 110 60 144 120 17 29 39 64 51 77 11 12 20 29 20 36 0 7 4 14 8 16 10 4 72 105 72 118 0 6 3 10 8 10 4 0 16 17 27 38 11 20 26 43 33 51 7 7 11 20 8 27 -3 8 -2 14 3 14 4 0 13 11 19 25 6 14 8 24 4 23 -4 -1 -71 -65 -149 -144z"></path><path id="p4gsFxYOw" d="M15382 9718 c-6 -13 -25 -48 -42 -78 l-32 -55 40 41 c26 26 43 54 47 77 8 42 3 47 -13 15z"></path><path id="pNADRrPNE" d="M16848 9505 c-6 -14 -14 -25 -18 -25 -3 0 -12 -16 -19 -35 -7 -19 -18 -40 -25 -47 -6 -7 -43 -65 -81 -128 -38 -63 -71 -117 -74 -120 -4 -3 -15 -22 -26 -42 -11 -21 -23 -38 -27 -38 -5 0 -8 -5 -8 -11 0 -11 -50 -88 -73 -111 -7 -7 -21 -31 -31 -53 -21 -44 -82 -140 -107 -168 -9 -9 -26 -61 -38 -115 -12 -53 -33 -141 -45 -195 -13 -54 -20 -97 -14 -95 5 2 44 71 86 153 42 83 80 152 85 153 4 2 5 8 1 13 -3 5 0 9 6 9 6 0 8 5 5 10 -3 6 -1 10 4 10 6 0 11 7 11 15 0 18 112 249 123 253 4 2 7 10 7 18 0 8 5 14 11 14 5 0 8 4 5 9 -4 5 -2 11 2 13 11 4 228 430 224 441 -1 4 3 7 9 7 5 0 7 5 4 10 -3 6 -2 10 3 10 5 0 12 8 15 18 2 9 8 25 12 35 11 27 -14 20 -27 -8z"></path><path id="pctbSWZFM" d="M15692 9186 c-34 -46 -62 -87 -62 -92 0 -5 -9 -20 -20 -34 -106 -135 -143 -185 -185 -245 -27 -38 -52 -72 -55 -75 -3 -3 -16 -22 -29 -43 -13 -21 -28 -43 -35 -50 -6 -6 -22 -28 -33 -47 -12 -20 -31 -47 -43 -59 -11 -13 -20 -28 -20 -32 0 -7 -107 -179 -127 -204 -14 -18 -43 -85 -43 -100 0 -8 -4 -15 -9 -15 -19 0 14 -61 36 -66 64 -16 140 31 131 80 -3 15 -1 26 3 26 5 0 9 6 9 13 0 18 24 67 33 67 4 0 7 7 7 15 0 8 4 15 8 15 5 0 17 18 28 40 10 22 22 40 27 40 4 0 7 7 7 15 0 8 5 15 10 15 6 0 10 7 10 15 0 8 5 15 10 15 6 0 10 6 10 14 0 8 4 16 8 18 13 5 82 104 82 117 0 6 5 11 10 11 6 0 10 7 10 15 0 8 5 15 10 15 6 0 10 7 10 15 0 8 5 15 10 15 6 0 10 7 10 15 0 8 5 15 10 15 6 0 10 7 10 15 0 8 5 15 10 15 6 0 10 7 10 15 0 8 5 15 10 15 6 0 10 7 10 15 0 8 5 15 10 15 6 0 10 7 10 15 0 8 5 15 10 15 6 0 10 7 10 15 0 8 5 15 11 15 6 0 9 7 5 15 -3 8 -1 15 4 15 6 0 10 6 10 13 0 7 9 19 20 27 11 8 20 20 20 27 0 7 5 13 10 13 6 0 10 7 10 15 0 8 4 15 9 15 5 0 21 48 35 108 15 59 29 115 32 125 13 42 -26 11 -84 -67z"></path><path id="pxjqDQPRE" d="M16105 8348 c-33 -50 -65 -103 -71 -117 -10 -22 -84 -128 -127 -181 -7 -8 -27 -39 -46 -68 -19 -30 -39 -59 -45 -65 -6 -7 -24 -32 -40 -56 -16 -25 -33 -50 -38 -55 -28 -35 -71 -93 -79 -108 -13 -24 9 -76 40 -92 50 -26 81 -13 156 67 85 91 95 103 95 116 0 5 4 11 8 13 13 5 82 111 82 126 0 7 7 20 16 29 8 9 13 22 10 29 -3 8 -1 14 5 14 6 0 8 9 4 20 -4 12 -2 20 5 20 7 0 9 8 5 20 -4 12 -2 20 5 20 7 0 10 7 6 15 -3 8 -1 15 5 15 6 0 9 7 5 15 -3 8 0 15 5 15 6 0 9 9 6 20 -3 11 -1 20 5 20 6 0 8 9 5 20 -3 11 -1 20 5 20 6 0 8 9 5 20 -3 11 -1 20 5 20 6 0 8 9 5 20 -3 11 -1 20 5 20 6 0 8 11 6 25 -3 14 -1 25 5 25 5 0 7 9 4 20 -3 10 0 21 6 23 8 2 9 10 2 25 -9 19 -16 13 -70 -70z"></path></g></g><g id="l1QEC3qMiKMNgaRyHHyHcsU" fill="rgb(212,212,212)" style="transform: none;"><g><path id="p4JOuZqrQ" d="M6985 10684 c-72 -8 -252 -44 -295 -59 -24 -8 -51 -15 -62 -15 -11 0 -54 -17 -96 -37 -114 -56 -236 -179 -290 -293 -54 -112 -66 -181 -59 -333 8 -196 80 -413 215 -651 34 -60 62 -113 62 -118 0 -11 136 -214 150 -223 9 -5 193 -233 278 -344 28 -36 300 -319 433 -451 157 -155 443 -425 476 -449 23 -16 44 -35 48 -41 4 -6 48 -45 98 -87 51 -41 115 -97 144 -124 54 -52 208 -169 221 -169 4 0 59 -38 122 -85 125 -92 466 -325 476 -325 3 0 40 -23 81 -50 84 -56 106 -63 71 -22 -37 42 -303 318 -397 412 -48 46 -111 114 -141 151 -30 36 -109 128 -175 203 -166 189 -213 246 -232 281 -9 16 -68 100 -133 185 -119 159 -215 303 -265 400 -15 30 -32 62 -37 70 -280 503 -379 960 -273 1264 37 105 47 115 176 166 63 25 119 48 124 52 18 11 247 76 375 107 204 49 383 72 610 78 271 7 436 -14 735 -93 33 -9 69 -19 80 -21 26 -7 -82 47 -165 82 -36 15 -73 31 -82 36 -10 5 -24 9 -31 9 -7 0 -96 33 -198 74 -353 141 -789 282 -1019 329 -89 19 -303 53 -450 73 -103 14 -496 26 -575 18z"></path></g></g></svg>