<?xml version="1.0" encoding="UTF-8" standalone="no"?>
<svg
   xmlns:dc="http://purl.org/dc/elements/1.1/"
   xmlns:cc="http://creativecommons.org/ns#"
   xmlns:rdf="http://www.w3.org/1999/02/22-rdf-syntax-ns#"
   xmlns:svg="http://www.w3.org/2000/svg"
   xmlns="http://www.w3.org/2000/svg"
   xmlns:sodipodi="http://sodipodi.sourceforge.net/DTD/sodipodi-0.dtd"
   xmlns:inkscape="http://www.inkscape.org/namespaces/inkscape"
   width="152.79723mm"
   height="94.872635mm"
   viewBox="0 0 152.79722 94.872632"
   version="1.1"
   id="svg8"
   inkscape:version="1.0.2 (e86c8708, 2021-01-15)"
   sodipodi:docname="tapir.svg">
  <defs
     id="defs2" />
  <sodipodi:namedview
     id="base"
     pagecolor="#ffffff"
     bordercolor="#666666"
     borderopacity="1.0"
     inkscape:pageopacity="0.0"
     inkscape:pageshadow="2"
     inkscape:zoom="0.60207725"
     inkscape:cx="-21.338647"
     inkscape:cy="158.37843"
     inkscape:document-units="mm"
     inkscape:current-layer="layer1"
     inkscape:document-rotation="0"
     showgrid="false"
     fit-margin-top="0"
     fit-margin-left="0"
     fit-margin-right="0"
     fit-margin-bottom="0"
     inkscape:window-width="1440"
     inkscape:window-height="900"
     inkscape:window-x="0"
     inkscape:window-y="0"
     inkscape:window-maximized="0" />
  <metadata
     id="metadata5">
    <rdf:RDF>
      <cc:Work
         rdf:about="">
        <dc:format>image/svg+xml</dc:format>
        <dc:type
           rdf:resource="http://purl.org/dc/dcmitype/StillImage" />
        <dc:title></dc:title>
      </cc:Work>
    </rdf:RDF>
  </metadata>
  <g
     inkscape:label="Layer 1"
     inkscape:groupmode="layer"
     id="layer1"
     transform="translate(-36.471686,-111.29687)">
    <g
       id="g3257"
       transform="translate(239.97649,-15.476605)">
      <path
         style="fill:#d2d2d2;stroke-width:0.264583"
         d="m -187.99713,221.18226 c -0.65005,-0.73525 -4.69453,-9.97167 -6.34315,-14.48593 -0.58459,-1.60073 -1.70298,-4.59923 -2.4853,-6.66333 -0.78233,-2.06409 -1.70964,-4.86206 -2.06069,-6.2177 -0.35106,-1.35564 -1.11838,-4.25074 -1.70517,-6.43356 -1.59548,-5.93505 -2.47507,-10.88414 -2.60982,-14.68437 -0.0645,-1.81901 -0.18069,-4.22004 -0.25819,-5.33561 -0.54619,-7.86185 3.87776,-17.71412 11.27419,-25.10798 4.64955,-4.64794 9.76026,-7.7772 16.95306,-10.38027 5.66118,-2.04879 10.34513,-3.0363 21.16451,-4.4621 6.42883,-0.84721 22.29928,-0.85159 27.11979,-0.007 0.87313,0.15289 3.61157,0.5931 6.08542,0.97825 12.45716,1.93943 22.59889,5.42809 32.70722,11.25098 2.83317,1.63204 3.8767,2.11102 4.18644,1.92157 0.22692,-0.1388 1.69105,-1.78333 3.25361,-3.65452 1.56256,-1.87119 2.94263,-3.50377 3.06682,-3.62796 0.28658,-0.28659 1.74575,1.18212 2.58306,2.59996 0.8383,1.41947 1.25555,3.69019 0.93789,5.10401 -0.13443,0.59831 -0.19415,1.08783 -0.13271,1.08783 0.43373,0 3.67532,-1.87537 5.08114,-2.9396 0.93994,-0.71156 1.80029,-1.29374 1.91188,-1.29374 0.36348,0 1.9021,2.13186 2.25816,3.12881 0.80299,2.24841 0.17777,5.87276 -1.36114,7.89038 -0.68905,0.90338 -2.97189,2.84379 -3.61908,3.0762 -0.20116,0.0722 0.8639,1.34009 2.6321,3.13328 10.31485,10.46065 15.27397,21.27066 16.47371,35.90978 0.26709,3.25904 0.25187,3.593 -0.19883,4.36472 -0.77099,1.32011 -1.94411,1.95076 -4.01576,2.15881 -3.2373,0.32511 -4.4023,-0.48944 -6.63617,-4.63986 -1.00479,-1.86685 -1.35629,-2.26578 -2.88421,-3.27343 -3.50928,-2.31435 -4.0482,-2.45955 -10.42796,-2.80958 -7.51949,-0.41256 -9.4211,-0.88885 -13.13121,-3.28892 -1.67437,-1.08316 -2.50854,-1.15776 -4.05436,-0.36261 -0.74379,0.3826 -1.77332,0.61256 -3.09831,0.69205 -1.94601,0.11674 -1.99611,0.13765 -2.59136,1.08108 -0.33384,0.52913 -1.19146,1.37856 -1.90583,1.88765 l -1.29886,0.9256 -0.0126,2.64583 c -0.007,1.45521 -0.12337,3.89599 -0.25874,5.42396 -0.13537,1.52797 -0.32671,4.42733 -0.4252,6.44304 -0.17284,3.53733 -0.16135,3.65928 0.32997,3.50334 1.66004,-0.52687 5.68835,1.35143 6.53405,3.04666 0.39342,0.78864 0.39183,0.88962 -0.0211,1.34596 -1.1388,1.25836 -7.577,4.18183 -9.2094,4.18183 -1.74281,0 -2.29827,-0.32329 -3.47359,-2.02171 -1.27089,-1.83655 -4.37173,-7.42703 -5.00564,-9.02464 -0.2454,-0.61846 -0.49734,-1.12448 -0.55986,-1.12448 -0.0625,0 -1.36694,0.98227 -2.89869,2.18281 -4.35719,3.41507 -4.68783,3.66604 -7.21327,5.47526 l -2.37988,1.70494 0.45741,0.67631 c 1.07709,1.59254 1.409,3.42806 0.81918,4.53016 -0.57298,1.07061 -3.57329,0.49935 -7.92714,-1.50934 -2.21735,-1.02299 -3.44128,-2.0397 -3.43935,-2.85704 7.9e-4,-0.30019 0.42461,-1.6769 0.94201,-3.05935 0.5174,-1.38245 1.63572,-4.5376 2.48516,-7.01146 0.84944,-2.47385 1.97335,-5.49073 2.49757,-6.70417 0.52423,-1.21344 0.95314,-2.2618 0.95314,-2.32968 0,-0.17339 -5.98724,0.0784 -6.28828,0.26446 -0.61909,0.38262 -6.75522,0.73369 -11.43963,0.65451 l -5.15855,-0.0872 -1.29145,3.175 c -2.13656,5.25267 -4.66167,11.77973 -4.66167,12.04976 0,0.13935 0.22825,0.25336 0.50723,0.25336 0.91086,0 2.81909,0.97963 3.51179,1.80287 0.68711,0.81658 1.16456,2.77312 0.86635,3.55023 -0.32589,0.84926 -8.7223,0.949 -10.41447,0.12371 -0.55539,-0.27087 -0.78176,-0.81796 -1.54334,-3.72999 -0.49086,-1.8769 -1.58179,-5.32972 -2.42428,-7.67291 -0.84249,-2.3432 -1.74137,-5.15333 -1.99751,-6.24474 -0.78449,-3.34271 -1.48014,-5.55625 -1.74614,-5.55625 -0.13936,0 -0.25338,0.1611 -0.25338,0.35799 0,0.19689 -1.31793,2.93694 -2.92872,6.089 -1.6108,3.15206 -3.46761,6.94979 -4.12624,8.43941 -1.42826,3.23025 -3.52837,8.17269 -3.52837,8.30373 0,0.0513 0.20835,0.0958 0.46302,0.099 0.25466,0.003 0.97305,0.2373 1.59643,0.52024 0.86526,0.39271 1.25512,0.78257 1.64784,1.64783 0.5859,1.29092 0.67488,2.59853 0.20854,3.06487 -0.22296,0.22296 -1.70774,0.3175 -4.98608,0.3175 -4.11392,0 -4.71721,-0.055 -5.07795,-0.46302 z"
         id="path3228" />
      <path
         style="fill:#acacac;stroke-width:0.264583"
         d="m -187.87102,221.31455 c -0.49094,-0.61029 -1.89773,-3.583 -2.97375,-6.28385 -0.58671,-1.47268 -1.40847,-3.35506 -1.82612,-4.18307 -1.62078,-3.21323 -5.82245,-15.62175 -7.67704,-22.67214 -1.86635,-7.09507 -2.71173,-11.79944 -2.80519,-15.61041 -0.0428,-1.74625 -0.15917,-4.00844 -0.25853,-5.02709 -0.35491,-3.63834 1.00968,-9.5925 3.19127,-13.92457 4.29945,-8.53757 10.12254,-14.53306 18.02768,-18.5614 6.91589,-3.52424 13.01164,-5.3981 21.64272,-6.65308 10.16354,-1.4778 11.10977,-1.53947 21.43125,-1.39657 5.38427,0.0745 10.74208,0.26981 11.90625,0.43393 1.16417,0.16412 3.00964,0.42373 4.10104,0.57691 3.62036,0.50813 11.07925,2.06588 14.4932,3.02684 7.02353,1.97698 14.5742,5.20723 21.15148,9.04882 l 3.20907,1.87431 1.40906,-1.51424 c 1.2377,-1.33007 3.42219,-3.91538 4.91571,-5.81765 l 0.4927,-0.62753 1.08423,1.23175 c 1.76282,2.00267 2.26029,3.33556 2.15014,5.761 -0.0891,1.96165 -0.0677,2.05459 0.43736,1.90308 0.87258,-0.26175 3.0718,-1.57512 4.76434,-2.84524 l 1.5875,-1.1913 0.75183,0.71143 c 1.39735,1.32225 1.88436,2.60368 1.88942,4.97144 0.004,1.93276 -0.0864,2.32136 -0.92146,3.95524 -0.86042,1.68351 -2.49801,3.38658 -4.13986,4.30541 -0.41619,0.23291 -0.0963,0.65642 2.56983,3.40195 9.30887,9.58623 14.41128,19.84631 15.96319,32.09926 0.63738,5.03236 0.63417,7.52566 -0.0108,8.40844 -0.82757,1.13264 -2.12547,1.63409 -4.38053,1.69247 -2.88668,0.0747 -3.76358,-0.58762 -5.90197,-4.4579 -1.24478,-2.25294 -2.38094,-3.32131 -4.86785,-4.57744 -2.28612,-1.15472 -3.2966,-1.35662 -8.09552,-1.61753 -7.6804,-0.41758 -10.42678,-1.09065 -13.57057,-3.3258 -1.4705,-1.04548 -2.39483,-1.11648 -4.20072,-0.32264 -0.80709,0.35478 -1.95154,0.58734 -3.10297,0.63054 -1.46744,0.0551 -1.87545,0.16506 -2.08593,0.56239 -0.42427,0.80085 -1.56548,1.94609 -2.77598,2.78577 -0.62146,0.43108 -1.06889,0.88253 -0.9943,1.00322 0.12199,0.19738 -0.002,3.40794 -0.5483,14.23359 l -0.17701,3.50573 1.42477,0.003 c 2.44579,0.004 5.22607,1.71517 5.66327,3.48465 0.15455,0.62553 0.0398,0.79475 -0.97332,1.43561 -2.59618,1.64223 -6.56837,3.32905 -8.18446,3.47559 l -1.58779,0.14398 -1.16969,-1.25605 c -1.06719,-1.14599 -4.22385,-6.54975 -5.72471,-9.7999 -0.33599,-0.72761 -0.6406,-1.3701 -0.67691,-1.42775 -0.0363,-0.0577 -0.57883,0.35906 -1.20561,0.92604 -1.58563,1.43435 -4.03794,3.3516 -7.07175,5.52879 -1.41943,1.01865 -2.96729,2.1531 -3.43968,2.521 l -0.85891,0.66892 0.67961,1.00146 c 0.82062,1.20925 1.16268,3.11627 0.72949,4.06701 -0.29089,0.63843 -0.39428,0.66892 -1.82761,0.53896 -1.90266,-0.17253 -6.83255,-2.07382 -8.32696,-3.21143 -0.61199,-0.46588 -1.14751,-1.08487 -1.19004,-1.37554 -0.0425,-0.29068 0.53438,-2.19036 1.28204,-4.22152 0.74766,-2.03117 1.93208,-5.3599 2.63205,-7.39719 0.69996,-2.03729 1.56543,-4.35901 1.92326,-5.15938 0.35783,-0.80036 0.73716,-1.73215 0.84295,-2.07064 l 0.19234,-0.61543 -3.13307,0.12711 c -1.72319,0.0699 -3.84744,0.27757 -4.72057,0.46145 -1.0224,0.21531 -4.001,0.34205 -8.36759,0.35602 l -6.7801,0.0217 -1.24972,3.04271 c -1.6082,3.9155 -3.14224,7.79826 -4.10297,10.38489 l -0.76161,2.05052 0.57683,0.003 c 0.31726,0.001 1.19971,0.29258 1.961,0.64702 1.79964,0.83786 2.48985,1.9102 2.39182,3.71602 l -0.0718,1.32291 -2.77813,0.19425 c -3.57866,0.25021 -7.03627,-0.0932 -7.67444,-0.76227 -0.25722,-0.26967 -0.77848,-1.68093 -1.15835,-3.13614 -0.94238,-3.61009 -1.48328,-5.32432 -2.75502,-8.73125 -0.59752,-1.60073 -1.51055,-4.6325 -2.02896,-6.73727 -0.82733,-3.35897 -1.28301,-4.62052 -1.52621,-4.2253 -0.79388,1.29004 -7.53205,15.21504 -8.76148,18.10632 -2.12283,4.9923 -2.17603,5.15937 -1.64278,5.15937 0.82041,0 2.69017,1.07744 3.10484,1.78916 0.23212,0.39841 0.50279,1.21417 0.60147,1.8128 0.30702,1.86245 0.0596,1.95429 -5.26536,1.95429 -3.34485,0 -4.65062,-0.0891 -4.84496,-0.33073 z"
         id="path3226" />
      <path
         style="fill:#9a9a9a;stroke-width:0.264583"
         d="m -187.76853,221.29374 c -0.43255,-0.32892 -2.17874,-3.96199 -3.23856,-6.73802 -0.34973,-0.91608 -0.9985,-2.38393 -1.44169,-3.2619 -0.4432,-0.87797 -1.44273,-3.40266 -2.22118,-5.61044 -0.77845,-2.20777 -1.85227,-5.14523 -2.38627,-6.52768 -0.534,-1.38245 -1.69562,-5.19245 -2.58138,-8.46667 -2.66073,-9.83543 -3.34203,-13.49469 -3.53726,-18.99848 -0.0759,-2.13839 -0.17318,-4.36422 -0.21628,-4.94631 -0.30968,-4.18161 1.62982,-10.69545 4.73282,-15.89524 5.89803,-9.88355 13.489,-15.61501 26.2021,-19.78354 4.28461,-1.40489 10.6381,-2.56333 20.6375,-3.76286 3.08586,-0.37018 5.22786,-0.41863 12.83229,-0.29024 9.50898,0.16054 12.61979,0.42169 19.57917,1.64362 12.19599,2.14137 22.88154,6.00408 32.41145,11.7164 l 2.64584,1.58594 0.75861,-0.70392 c 0.83639,-0.77609 4.15334,-4.61949 5.19451,-6.01897 0.3638,-0.489 0.79795,-0.89214 0.96478,-0.89587 0.50099,-0.0112 1.98043,1.85735 2.67939,3.38409 0.56347,1.23077 0.63744,1.70374 0.52951,3.38551 -0.079,1.23061 -0.0258,1.95488 0.14357,1.95488 0.48638,0 3.53947,-1.79108 5.11634,-3.00147 l 1.54662,-1.18718 0.62049,0.57297 c 1.99297,1.84033 2.61722,4.74551 1.6465,7.66253 -0.74505,2.23887 -1.66609,3.48153 -3.64561,4.91859 l -1.5982,1.16023 1.86226,1.75019 c 2.33286,2.19244 5.94989,6.38496 7.90595,9.1638 5.76096,8.18424 9.18695,18.27726 9.66545,28.47457 0.14673,3.12682 0.12021,3.39603 -0.40748,4.1371 -0.79631,1.11831 -2.30993,1.64658 -4.71789,1.64658 h -2.01929 l -1.3488,-1.38983 c -0.74184,-0.7644 -1.79791,-2.25343 -2.34683,-3.30896 -1.09563,-2.1068 -2.23849,-3.12339 -5.11475,-4.54961 -1.86104,-0.92281 -3.57272,-1.19801 -9.89451,-1.59083 -5.73553,-0.35639 -7.33763,-0.75332 -10.33574,-2.56074 -1.32598,-0.79938 -2.72781,-1.45842 -3.11517,-1.46453 -0.38736,-0.006 -1.29961,0.2551 -2.02721,0.58048 -0.89393,0.39976 -1.89081,0.60237 -3.07418,0.6248 l -1.75125,0.0332 -0.90217,1.19062 c -0.4962,0.65485 -1.44415,1.54782 -2.10657,1.98438 l -1.20439,0.79375 -0.17528,6.08542 c -0.0964,3.34698 -0.25346,7.42487 -0.349,9.06197 l -0.17373,2.97657 h 1.4429 c 2.39046,0 5.22241,1.7443 5.65143,3.48094 0.16057,0.64999 0.0308,0.78624 -1.72728,1.813 -3.16897,1.85078 -5.82075,2.95144 -7.48297,3.10592 l -1.53375,0.14255 -1.11209,-1.19524 c -1.08119,-1.16203 -4.60833,-7.19413 -5.76584,-9.86071 -0.31583,-0.72761 -0.60924,-1.36344 -0.65202,-1.41296 -0.0428,-0.0495 -0.89055,0.58013 -1.88392,1.39923 -0.99338,0.8191 -2.28239,1.88155 -2.86447,2.36101 -0.58209,0.47945 -2.24896,1.72408 -3.70417,2.76584 -1.45521,1.04176 -2.9955,2.17543 -3.42286,2.51927 l -0.77702,0.62515 0.54071,0.6874 c 0.79765,1.01405 1.26911,2.92886 0.9751,3.96035 -0.21262,0.74598 -0.37007,0.86355 -1.25459,0.93681 -1.93183,0.15998 -8.32108,-2.33249 -9.67479,-3.77418 l -0.64887,-0.69105 0.69895,-2.0426 c 2.89693,-8.46591 4.52615,-12.99694 5.38109,-14.96542 0.54712,-1.25971 0.94204,-2.34312 0.8776,-2.40756 -0.23834,-0.23835 -5.94753,-0.18923 -6.58594,0.0567 -1.17115,0.45108 -4.00206,0.62164 -10.35046,0.6236 -5.62538,0.002 -6.21173,0.0437 -6.24378,0.44685 -0.0195,0.24471 -0.59077,1.75462 -1.26957,3.35535 -0.6788,1.60073 -1.98676,4.872 -2.90656,7.2695 l -1.67238,4.35909 1.11708,0.28364 c 2.61372,0.66364 3.93946,2.18279 3.80463,4.35964 l -0.0737,1.19063 -2.64584,0.15386 c -3.39263,0.19729 -7.22489,-0.12161 -7.74804,-0.64476 -0.21579,-0.21579 -0.78904,-1.88393 -1.27388,-3.70697 -0.48485,-1.82304 -1.48733,-4.95806 -2.22774,-6.96671 -0.74041,-2.00865 -1.81308,-5.49028 -2.38372,-7.73695 -0.57064,-2.24667 -1.21915,-4.26648 -1.44113,-4.48847 -0.36176,-0.36175 -0.40361,-0.35835 -0.40361,0.0328 0,0.24001 -1.36071,3.09326 -3.0238,6.34055 -2.5628,5.00402 -7.55953,15.97532 -7.55953,16.59843 0,0.10617 0.55439,0.3652 1.23197,0.57562 1.70199,0.52856 2.71162,1.80422 2.77605,3.5075 0.032,0.84487 -0.0755,1.35334 -0.31761,1.50298 -0.57631,0.35618 -9.12779,0.27123 -9.61001,-0.0955 z"
         id="path3224" />
      <path
         style="fill:#878787;stroke-width:0.264583"
         d="m -187.7726,221.2881 c -0.40445,-0.31063 -1.73029,-3.06975 -3.07043,-6.38969 -0.41119,-1.01865 -1.21829,-2.86412 -1.79356,-4.10104 -0.57528,-1.23693 -1.37739,-3.26099 -1.78249,-4.49792 -0.4051,-1.23693 -1.37948,-3.90944 -2.1653,-5.93892 -1.63819,-4.23086 -4.78742,-15.78347 -5.73781,-21.04858 -0.60771,-3.36665 -0.83862,-6.08164 -0.73755,-8.67165 0.0597,-1.52907 0.71625,-1.78589 3.46394,-1.35489 1.10229,0.1729 2.18275,0.33995 2.40103,0.37122 0.21828,0.0313 0.57547,0.12947 0.79375,0.21823 0.21828,0.0888 0.69453,0.21793 1.05834,0.28705 2.44587,0.46468 7.8991,2.43489 10.45104,3.77588 3.9984,2.10107 7.31547,4.85237 9.61661,7.97639 1.50769,2.04682 2.17212,3.31148 2.80306,5.33527 0.24953,0.80037 0.52285,1.6338 0.60739,1.85208 0.0845,0.21829 0.19906,0.75407 0.25449,1.19063 0.16735,1.31792 0.25385,1.39886 1.849,1.73035 2.08975,0.43426 2.01362,0.41517 2.49337,0.62504 0.2343,0.1025 0.71055,0.2238 1.05833,0.26956 0.34778,0.0458 0.81092,0.14719 1.0292,0.22541 0.86777,0.31093 10.31833,1.45897 12.36927,1.5026 0.92668,0.0197 0.76289,0.93749 -0.84002,4.70701 -0.78943,1.85649 -1.86826,4.50654 -2.39739,5.88899 -0.52912,1.38245 -1.19408,3.09777 -1.47766,3.81182 -0.2836,0.71405 -0.48469,1.31553 -0.44689,1.33661 0.0378,0.0211 0.74885,0.24519 1.58011,0.49803 2.44878,0.74483 3.59569,2.31269 3.33888,4.56436 l -0.0877,0.76939 h -4.98463 c -5.84062,0 -5.62983,0.1022 -6.3944,-3.10042 -0.57171,-2.3948 -2.04047,-7.02452 -3.17132,-9.99646 -0.47066,-1.23693 -1.30453,-4.05801 -1.85305,-6.26907 -0.59182,-2.38565 -1.14432,-4.07653 -1.35893,-4.15888 -0.1989,-0.0763 -0.36163,0.0245 -0.36163,0.22404 0,0.19955 -1.33294,2.96402 -2.96209,6.14326 -1.62915,3.17924 -3.54008,7.09013 -4.2465,8.69086 -2.01585,4.56779 -3.45636,8.07953 -3.34469,8.15378 0.0562,0.0374 0.6947,0.30449 1.41882,0.59355 1.70564,0.68088 2.51988,1.83674 2.51988,3.57709 0,0.97796 -0.10534,1.29662 -0.46302,1.40071 -0.96057,0.27955 -9.02939,0.11552 -9.4294,-0.19169 z m 60.42783,-3.268 c -5.67422,-2.05636 -7.99588,-3.24582 -8.31832,-4.26174 -0.0951,-0.29968 0.23565,-1.60886 0.79011,-3.12729 0.52455,-1.43651 1.70008,-4.75495 2.6123,-7.37433 0.91221,-2.61937 2.03428,-5.61589 2.49349,-6.65893 0.4592,-1.04304 0.83492,-2.0253 0.83492,-2.18281 0,-0.18814 -1.0007,-0.28638 -2.91697,-0.28638 -2.78165,0 -2.92744,-0.0276 -3.14295,-0.59531 -0.25561,-0.67335 -1.82703,-7.84622 -1.98529,-9.06198 -0.0568,-0.43657 -0.28701,-1.80578 -0.51151,-3.04271 -0.37539,-2.06824 -1.17147,-8.82424 -1.68353,-14.2875 -0.308,-3.28609 0.0419,-13.6549 0.57148,-16.93333 0.54482,-3.37305 1.2542,-6.25857 2.14718,-8.73411 0.36821,-1.02079 0.58547,-1.99191 0.48278,-2.15807 -0.10748,-0.17391 -0.0701,-0.23003 0.0881,-0.13228 0.25364,0.15676 0.98369,-1.15919 0.87013,-1.56847 -0.0275,-0.0991 0.0552,-0.25304 0.18374,-0.34208 0.12856,-0.089 0.57595,-0.75718 0.99419,-1.48479 1.8087,-3.14652 5.91104,-7.54062 7.03993,-7.54062 0.2969,0 0.46624,-0.11906 0.3763,-0.26458 -0.24326,-0.39361 0.94216,-0.32661 4.50415,0.25457 13.68479,2.23284 24.13346,5.85326 34.65136,12.00655 l 2.90759,1.70103 0.70647,-0.56493 c 0.71706,-0.57339 4.41686,-4.88807 5.38459,-6.27946 0.29105,-0.41846 0.66933,-0.76239 0.84064,-0.7643 0.46019,-0.005 1.85823,1.78118 2.64278,3.37674 0.60484,1.23007 0.67127,1.63068 0.55943,3.37344 -0.0698,1.08768 -0.0218,1.97761 0.10673,1.97761 0.50827,0 3.08696,-1.45473 4.74633,-2.67755 0.96368,-0.71016 1.87775,-1.2912 2.03126,-1.2912 0.50574,0 1.893,1.94362 2.3332,3.26894 0.87954,2.64802 -0.10691,6.1352 -2.36088,8.34596 -0.76516,0.75049 -1.76012,1.58888 -2.21103,1.8631 l -0.81984,0.49857 2.94851,2.99973 c 9.46593,9.63037 14.50231,19.83531 16.14982,32.72349 0.53751,4.20484 0.53848,6.71322 0.003,7.74872 -0.61753,1.19418 -2.19724,1.80531 -4.68471,1.81234 -2.02623,0.006 -2.0729,-0.009 -3.17717,-1.02725 -0.61641,-0.56818 -1.68924,-2.05401 -2.38406,-3.30183 -1.39003,-2.49631 -2.55497,-3.57452 -5.32676,-4.93018 -2.0525,-1.00387 -3.34371,-1.23095 -8.22225,-1.44603 -6.7948,-0.29957 -8.83139,-0.75966 -12.13294,-2.74097 -1.18501,-0.71114 -2.39984,-1.36947 -2.69962,-1.46296 -0.32721,-0.10204 -1.22509,0.10634 -2.24643,0.52134 -1.25083,0.50826 -2.13958,0.68476 -3.35622,0.6665 -1.64668,-0.0247 -1.65808,-0.0197 -2.30927,1.01185 -0.58775,0.93107 -2.84669,2.92576 -3.31334,2.92576 -0.10168,0 -0.26195,2.64914 -0.35616,5.88698 -0.0942,3.23784 -0.24933,7.3278 -0.34468,9.08881 l -0.17338,3.20184 1.74768,0.14029 c 2.63026,0.21113 5.16344,1.8872 5.28572,3.49729 0.0483,0.63663 -0.16583,0.84957 -1.79719,1.78678 -3.56329,2.0471 -5.94362,2.9781 -7.6283,2.9836 -1.50299,0.005 -1.56934,-0.0258 -2.56572,-1.18559 -1.00737,-1.17264 -4.84527,-7.85671 -5.69699,-9.92188 -0.24006,-0.58208 -0.47679,-1.10124 -0.52607,-1.15368 -0.0493,-0.0524 -0.89996,0.57499 -1.89042,1.39431 -0.99046,0.8193 -2.27708,1.88415 -2.85916,2.36631 -0.58209,0.48216 -2.24896,1.72901 -3.70417,2.77077 -1.45521,1.04176 -2.99433,2.1745 -3.42028,2.5172 l -0.77444,0.6231 0.54865,0.77051 c 1.09489,1.53762 1.37999,4.11211 0.51624,4.66155 -0.35173,0.22374 -1.96133,0.23603 -2.55871,0.0195 z"
         id="path3222" />
      <path
         style="fill:#6b6b6b;stroke-width:0.264583"
         d="m -187.33956,221.4361 c -0.65064,-0.10083 -1.47764,-1.68499 -3.66197,-7.01471 -0.64428,-1.57205 -1.48033,-3.46787 -1.85789,-4.21293 -0.37755,-0.74507 -1.26389,-3.04871 -1.96964,-5.11921 -0.70575,-2.0705 -1.68289,-4.75859 -2.17142,-5.97353 -0.48854,-1.21494 -1.1491,-3.16148 -1.46793,-4.32564 -3.58882,-13.10412 -4.27185,-16.30042 -4.47561,-20.94392 -0.0776,-1.76926 -0.0637,-3.52544 0.031,-3.90261 0.1616,-0.64384 0.27041,-0.68576 1.77976,-0.68576 0.92717,0 3.22272,0.38935 5.42338,0.91987 7.6574,1.846 13.76595,4.86721 17.70032,8.75436 2.21452,2.18793 4.08503,4.68091 4.81186,6.41314 0.58367,1.39104 1.65542,5.10861 1.662,5.765 0.005,0.48871 0.39992,0.64942 3.37899,1.37468 3.0892,0.75207 8.68114,1.65521 12.63385,2.04046 2.91634,0.28425 3.30729,0.38954 3.30729,0.89076 0,0.25835 -0.48491,1.59241 -1.07758,2.96458 -0.59266,1.37217 -1.90778,4.62759 -2.92248,7.23428 -1.91506,4.91962 -1.94451,5.16187 -0.63014,5.18275 0.85978,0.0137 2.58415,1.13008 3.23332,2.09337 0.39198,0.58167 0.60313,1.28732 0.60313,2.01564 0,1.44384 -0.0411,1.45392 -5.61331,1.37627 -3.64356,-0.0508 -4.49716,-0.13617 -4.84545,-0.48476 -0.23252,-0.23272 -0.66057,-1.36382 -0.95121,-2.51354 -0.73217,-2.89632 -1.92991,-6.66618 -3.0347,-9.55166 -0.75407,-1.96948 -1.90655,-6.02027 -2.93446,-10.3142 -0.14243,-0.59494 -0.87712,-1.08104 -0.87712,-0.58033 0,0.25018 -3.58463,7.4979 -5.41447,10.94745 -0.38597,0.7276 -1.75062,3.7637 -3.03258,6.74687 l -2.33082,5.42396 1.27826,0.42262 c 2.11272,0.69852 2.88503,1.71512 2.88503,3.79758 0,0.95727 -0.0948,1.21063 -0.46302,1.23731 -1.18772,0.0861 -8.46787,0.10375 -8.99635,0.0219 z m 58.77245,-3.86437 c -2.7949,-0.90545 -6.3827,-2.72064 -6.88118,-3.48141 -0.41295,-0.63024 -0.39276,-0.77399 0.41699,-2.96981 0.46802,-1.26914 1.66441,-4.62924 2.65866,-7.46689 0.99424,-2.83766 2.17506,-6.01605 2.62404,-7.0631 0.44898,-1.04705 0.81633,-2.02542 0.81633,-2.17415 0,-0.16368 -1.17271,-0.29995 -2.97084,-0.34523 l -2.97083,-0.0748 -0.33176,-1.45521 c -3.93815,-17.27399 -5.03317,-32.83286 -3.08178,-43.78854 0.99023,-5.55947 3.2012,-11.19479 5.8651,-14.94896 1.74494,-2.45911 4.96781,-5.55625 5.78179,-5.55625 0.36594,0 0.57851,-0.11562 0.48644,-0.26458 -0.24989,-0.40434 0.52134,-0.33093 5.61529,0.53451 13.09241,2.22433 22.96798,5.73208 33.54775,11.91598 2.41671,1.41257 2.84187,1.5804 3.21636,1.26961 0.46988,-0.38997 4.31063,-4.99605 5.37789,-6.44953 0.3638,-0.49545 0.80643,-0.90527 0.98362,-0.9107 0.41573,-0.0127 2.31739,2.50426 2.84368,3.76385 0.45671,1.09305 0.52937,3.07579 0.15992,4.36396 -0.13536,0.47198 -0.19192,0.85815 -0.12568,0.85815 0.44893,0 4.10384,-2.079 5.43605,-3.09215 1.8393,-1.3988 2.01497,-1.3761 3.22985,0.41732 0.46365,0.68445 0.86322,1.75299 1.03878,2.77789 0.25524,1.49007 0.22035,1.86757 -0.33107,3.5825 -0.6754,2.10051 -2.35285,4.24066 -4.18886,5.34433 -0.53707,0.32285 -1.01125,0.61101 -1.05374,0.64034 -0.0425,0.0293 1.20768,1.34967 2.77813,2.93407 10.48863,10.58177 15.857,22.47285 16.6529,36.88661 l 0.16878,3.05655 -0.85336,0.97192 c -1.00563,1.14535 -2.11102,1.51043 -4.57938,1.51247 -1.68375,0.001 -1.84597,-0.0534 -2.8551,-0.96513 -0.58846,-0.53164 -1.6306,-1.9757 -2.31587,-3.20902 -1.36277,-2.45267 -2.44712,-3.53529 -4.79362,-4.78596 -2.29803,-1.22484 -4.13805,-1.57931 -9.68149,-1.86509 -5.78559,-0.29826 -8.16551,-0.80134 -10.58333,-2.23712 -0.87312,-0.51849 -2.09062,-1.20685 -2.70555,-1.52968 l -1.11805,-0.58697 -1.73146,0.71106 c -1.301,0.53428 -2.18262,0.71106 -3.5462,0.71106 -1.76755,0 -1.82331,0.0207 -2.14404,0.79497 -0.34806,0.84029 -1.55165,2.01665 -2.84508,2.7807 l -0.77679,0.45886 -0.1731,5.7218 c -0.0952,3.14698 -0.24991,7.22174 -0.34379,9.05501 l -0.17068,3.33321 1.60714,0.14574 c 1.98064,0.17959 4.16534,1.293 5.01047,2.55352 0.33151,0.49447 0.60276,1.03731 0.60276,1.20631 0,0.39183 -3.50306,2.46522 -6.08542,3.60184 -1.47396,0.64876 -2.38376,0.87779 -3.53709,0.89042 -1.51665,0.0166 -1.57503,-0.01 -2.51354,-1.13487 -1.0067,-1.20686 -4.3825,-7.07817 -5.49125,-9.55058 -0.35567,-0.79311 -0.68764,-1.48299 -0.73772,-1.53306 -0.0501,-0.0501 -1.64067,1.14343 -3.53467,2.65222 -1.89399,1.50879 -4.76483,3.67894 -6.37964,4.82255 -2.5829,1.82923 -2.89245,2.12917 -2.57379,2.49397 1.12337,1.28604 1.65683,4.23743 0.90228,4.99197 -0.47049,0.4705 -1.70124,0.36841 -3.81525,-0.31647 z"
         id="path3220" />
      <path
         style="fill:#414141;stroke-width:0.264583"
         d="m -187.07696,221.38569 c -0.96947,-0.15433 -1.40617,-0.92134 -3.69347,-6.48728 -0.65781,-1.60073 -1.52148,-3.56526 -1.91927,-4.36563 -0.3978,-0.80036 -1.23194,-2.94349 -1.85365,-4.7625 -0.62171,-1.81901 -1.65966,-4.67651 -2.30655,-6.35 -1.34898,-3.48976 -4.03231,-13.21025 -5.14918,-18.65312 -0.77381,-3.77102 -1.25174,-9.47784 -0.90833,-10.84609 l 0.18496,-0.73694 2.03624,0.15422 c 3.19068,0.24166 11.07615,2.33041 10.75564,2.84902 -0.0814,0.13165 0.0161,0.17641 0.21657,0.0995 0.98263,-0.37707 7.72366,3.21267 10.55242,5.61939 3.62899,3.08756 5.69557,6.18613 6.80981,10.21046 0.45216,1.63306 0.82199,3.11002 0.82185,3.28211 -2.7e-4,0.36402 0.0506,0.38106 3.7039,1.2394 3.21138,0.75451 8.36276,1.58531 12.63385,2.03755 2.04875,0.21693 2.97657,0.41897 2.97657,0.64817 0,0.18315 -0.54342,1.62624 -1.2076,3.20686 -1.58957,3.78292 -4.61324,11.64266 -4.61324,11.9917 0,0.15118 0.38696,0.27684 0.8599,0.27923 1.04734,0.005 2.73985,0.9341 3.45165,1.89417 0.28867,0.38934 0.58115,1.2939 0.64997,2.01014 l 0.12513,1.30224 -1.41884,0.17038 c -3.39266,0.40738 -8.60428,0.10683 -9.24423,-0.53312 -0.12103,-0.12103 -0.63862,-1.79224 -1.1502,-3.71379 -0.51159,-1.92155 -1.53283,-5.13576 -2.26943,-7.1427 -0.7366,-2.00693 -1.74228,-5.25631 -2.23484,-7.22084 -0.98567,-3.93126 -1.35223,-5.03654 -1.66099,-5.00841 -0.51532,0.047 -11.1852,22.58984 -11.1852,23.63162 0,0.0892 0.32928,0.16221 0.73173,0.16221 1.11605,0 2.52287,0.86799 3.03817,1.87452 0.53782,1.0505 0.61735,2.85503 0.13271,3.01107 -0.53899,0.17355 -7.929,0.29564 -8.86605,0.14648 z m 58.40927,-3.93947 c -3.19316,-1.05836 -5.56993,-2.21694 -6.42679,-3.13281 l -0.73824,-0.78909 0.95492,-2.62024 c 0.52521,-1.44114 1.76953,-4.94197 2.76516,-7.77963 0.99564,-2.83766 2.16927,-5.98863 2.60808,-7.00215 0.43881,-1.01353 0.75232,-1.91644 0.69668,-2.00646 -0.0556,-0.09 -1.40866,-0.11347 -3.0067,-0.0521 l -2.90555,0.1116 -0.30008,-1.11444 c -0.16505,-0.61293 -0.82044,-3.6893 -1.45643,-6.83637 -2.34772,-11.61729 -3.26324,-25.45364 -2.24308,-33.90008 0.63509,-5.25829 2.24799,-11.1299 4.03372,-14.68437 1.8281,-3.63881 6.76316,-9.39271 8.05602,-9.39271 0.35886,0 0.56761,-0.11608 0.47583,-0.26458 -0.23098,-0.37374 0.36532,-0.33336 3.96875,0.26876 14.3614,2.39974 23.12519,5.40806 34.46338,11.83014 3.05226,1.72883 3.5633,1.93986 3.94021,1.62706 0.69853,-0.57973 5.91412,-6.87271 5.91412,-7.13582 0,-0.6547 0.8894,-0.0908 1.83766,1.16521 1.70266,2.25516 2.31015,4.80165 1.59452,6.68391 -0.14959,0.39345 -0.21465,0.77271 -0.14458,0.84278 0.22481,0.22481 3.8696,-1.76067 5.47917,-2.98476 0.85684,-0.65163 1.66532,-1.18478 1.79663,-1.18478 0.471,0 1.90244,2.27646 2.30857,3.6714 0.46989,1.61389 0.36331,2.72898 -0.47496,4.96948 -0.7577,2.02513 -1.97851,3.32954 -4.95755,5.29706 -0.0556,0.0368 1.07545,1.23831 2.51354,2.67013 10.29693,10.25203 15.69839,21.80963 16.81555,35.98052 0.30656,3.88857 0.29878,4.06369 -0.21074,4.74615 -0.96687,1.29501 -1.74398,1.68072 -3.71998,1.84638 -1.03282,0.0866 -2.18636,0.08 -2.56341,-0.0146 -1.1709,-0.29388 -2.50178,-1.71918 -3.75914,-4.02584 -1.42265,-2.60988 -2.59676,-3.70497 -5.53507,-5.16256 -2.30242,-1.14215 -4.64625,-1.54509 -9.04284,-1.55465 -5.25415,-0.0114 -8.49065,-0.84733 -11.85925,-3.06297 -1.93122,-1.27024 -2.46884,-1.33511 -4.46072,-0.53823 -1.19776,0.47918 -2.21999,0.68861 -3.38961,0.69445 l -1.67466,0.008 -0.7221,1.18976 c -0.42867,0.70631 -1.24516,1.51493 -2.00931,1.98995 l -1.28722,0.80018 -0.18142,5.34388 c -0.17727,5.22156 -0.25245,6.68844 -0.55331,10.79544 l -0.14739,2.01199 1.71531,0.16018 c 2.40605,0.22467 4.55476,1.38212 5.32272,2.86717 0.51684,0.99947 0.35107,1.2137 -1.96457,2.53888 -3.90084,2.23236 -6.961,3.21225 -8.43119,2.69974 -0.40895,-0.14256 -1.0746,-0.67411 -1.47924,-1.18123 -0.9049,-1.13407 -3.58485,-5.82462 -5.07334,-8.87957 l -1.10545,-2.26878 -0.90529,0.77137 c -2.17198,1.85068 -5.65384,4.52578 -9.43871,7.25173 -2.20334,1.5869 -2.40929,1.80589 -2.06061,2.19118 0.94319,1.04221 1.65215,4.47775 1.00289,4.85988 -0.77716,0.45741 -1.98779,0.36263 -4.0349,-0.31587 z"
         id="path3218" />
      <path
         style="fill:#050505;stroke-width:0.264583"
         d="m -79.01923,168.68172 c -1.41126,-0.78978 -0.89864,-2.86352 0.70785,-2.86352 1.08976,0 1.50202,0.40504 1.50202,1.47573 0,1.24052 -1.16533,1.97234 -2.20987,1.38779 z"
         id="path3216" />
    </g>
  </g>
</svg>
