<?xml version="1.0" encoding="UTF-8"?>
<svg
        xmlns="http://www.w3.org/2000/svg"
        version="1.1"
        width="187.63228"
        height="247.79089">
    <style
            type="text/css"
            id="style272">
	.st0{fill:#949599;}
	.st1{fill:#FFFFFF;}
	.st2{fill:#1F1C1D;}
	.st3{fill:#E9212E;}
	.st4{fill:#F0BA60;}
	.st5{fill:#594A42;}
	.st6{fill:#FFCD67;}
	.st7{fill:#AFC6D2;}
	.st8{fill:#72A334;}
	.st9{fill:#5F8B2B;}
	.st10{fill:#FFCB1F;}
	.st11{fill:#FFDE17;}
	.st12{fill:#8B5E3C;}
	.st13{fill:#FFEFAE;}
	.st14{fill:#FFC222;}
</style>
    <g
            id="g448"
            transform="translate(-317.33386,-293.12601)">
	<g
            id="g360">
		<g
                id="g298">
			<g
                    id="g294">
				<g
                        id="g282">
					<path
                            class="st4"
                            d="m 127.8,137.4 c -0.8,-8.7 -0.9,-17.6 0.2,-26.3 2.1,-15.6 0.6,-23.1 -6,-27.9 -11.6,-8.5 -41.6,5.2 -44,48.7 -2.4,43.5 42.4,41.6 48.3,25.3 1.9,-5.2 2.1,-13 1.5,-19.8 z"
                            id="path274"/>
                    <path
                            class="st5"
                            d="m 130.9,137.6 c -1.1,-14 2.4,-28 0.9,-41.8 C 131.1,89 127.9,82.4 121.4,79.4 110,74 96.7,82.5 89.4,91 c -18.9,22.2 -24.3,80.4 17.1,80 20.5,-0.2 25.6,-15.2 24.4,-33.4 z m -13.3,24.6 c -5.2,2.9 -11.9,3.3 -17.6,1.9 C 79.9,159.1 79.2,135.6 82.8,119 86,104.9 96,84.9 112.9,84 c 8.8,-0.5 12.6,6.9 13,14.9 0.6,12.9 -2.1,25.5 -1.1,38.5 0.5,8.7 1.6,19.9 -7.2,24.8 z"
                            id="path276"/>
                    <path
                            class="st6"
                            d="m 117.4,85.8 c -6.3,-2.7 -16.5,1.3 -24.4,12.7 -10.1,14.5 -14.4,40.1 -6.4,56.1 8,16 30.4,9.7 28.4,-11.6 -2,-21.3 1,-28.1 2.5,-35.2 1.7,-7.2 4.9,-19.8 -0.1,-22 z"
                            id="path278"/>
                    <path
                            class="st1"
                            d="m 98.1,95.9 c 0,0 -7.7,4.1 -11.5,19.3 -3.8,15.2 -2.1,21.9 4.8,14.8 6.8,-7 21.4,-43.2 6.7,-34.1 z"
                            id="path280"/>
				</g>
                <g
                        id="g292">
					<path
                            class="st4"
                            d="m 184.8,198.9 c 3.2,-8.2 7.1,-16.1 12,-23.4 8.8,-13 10.8,-20.4 7.1,-27.7 -6.5,-12.8 -39.5,-14 -61.1,23.8 -21.6,37.8 19.3,56.1 31.8,44.2 4,-3.7 7.7,-10.6 10.2,-16.9 z"
                            id="path284"/>
                    <path
                            class="st5"
                            d="m 187.5,200.3 c 5.3,-13 14.7,-24 19.5,-37 2.4,-6.4 2.5,-13.7 -1.9,-19.3 -7.8,-10 -23.5,-8.3 -33.8,-4 -26.9,11.4 -57.7,61 -20.5,79.2 18.3,9.1 29.7,-2.1 36.7,-18.9 z m -22.9,16.1 c -5.9,0.2 -12.1,-2.4 -16.6,-6.2 -15.7,-13.4 -5.8,-34.8 4.8,-48 9.1,-11.3 27,-24.7 42.5,-17.9 8,3.5 8.2,11.9 5,19.1 -5.2,11.8 -13.3,21.8 -18.2,33.9 -3.4,8.2 -7.5,18.7 -17.5,19.1 z"
                            id="path286"/>
                    <path
                            class="st6"
                            d="m 198.6,148 c -4.4,-5.3 -15.3,-6.2 -27.5,0.4 -15.6,8.5 -30.9,29.4 -30.8,47.3 0.1,17.9 22.8,22.3 30.6,2.3 7.8,-20 13.5,-24.7 18,-30.3 4.7,-5.7 13.2,-15.5 9.7,-19.7 z"
                            id="path288"/>
                    <path
                            class="st1"
                            d="m 176.8,148.4 c 0,0 -8.7,0.2 -18.9,12.1 -10.2,11.9 -11.7,18.6 -2.4,15.4 9.3,-3.2 38.6,-29.1 21.3,-27.5 z"
                            id="path290"/>
				</g>
			</g>
            <ellipse
                    class="st7"
                    cx="141.89999"
                    cy="240.89999"
                    rx="62.200001"
                    ry="10.3"
                    id="ellipse296"/>
		</g>
        <g
                id="g310">
			<g
                    id="g306">
				<path
                        class="st8"
                        d="m 279,217.2 c 0,0 -32.2,-32 0.7,-70.1 32.9,-38.1 44.7,-78.5 109.7,-102.3 0,0 -16,34.3 -29.1,84.9 -13,50.5 -14.4,101.5 -81.3,87.5 z"
                        id="path300"/>
                <path
                        class="st9"
                        d="m 284.7,218.3 c 5.2,-15.3 16,-43.2 36.1,-80.9 31.6,-59.3 48.9,-75.4 48.9,-75.4 0,0 -16.4,8.1 -57.4,71.9 -20.9,32.5 -32.9,57.9 -39.6,75 3.3,5.3 6.3,8.4 6.3,8.4 2,0.3 3.9,0.7 5.7,1 z"
                        id="path302"/>
                <path
                        class="st5"
                        d="m 354.8,166 c 10.3,-40.7 19.5,-81.6 37.3,-119.9 1.1,-2.4 -1.2,-5.2 -3.8,-4.2 -26.1,9.8 -49,24.5 -67.3,45.6 -16.1,18.6 -29.1,39.7 -44.7,58.8 -17.6,21.6 -19.9,52.2 0.3,72.9 0.1,0.1 0.1,0.2 0.2,0.2 0,0 0.1,0.1 0.1,0.1 0.7,0.7 1.5,0.9 2.2,0.8 18.3,3.5 38.7,4.1 53.4,-9.1 13.1,-11.3 18.2,-29.1 22.3,-45.2 z m -20.4,34.4 c -13,17.4 -34.2,17.7 -53.8,14 -5.3,-5.6 -9.1,-13.2 -11.1,-20.6 -5.7,-21.3 6.6,-36.8 19,-52.6 12.8,-16.2 23.7,-34 37.2,-49.7 16,-18.5 35.5,-31.7 57.8,-41.1 -13.7,31.3 -23.2,64.9 -30.8,98.1 -4,17.5 -7.4,37.2 -18.3,51.9 z"
                        id="path304"/>
			</g>
            <ellipse
                    class="st7"
                    cx="327.39999"
                    cy="240.89999"
                    rx="62.200001"
                    ry="10.3"
                    id="ellipse308"/>
		</g>
        <g
                id="g326">
			<g
                    id="g322">
				<g
                        id="g318">
					<path
                            class="st10"
                            d="m 566.3,79 c 1.5,-3.8 -2.4,-7.6 -6.3,-6.1 -1.4,0.5 -2.9,1.4 -4.7,2.8 -9.7,7.6 -22.8,5.8 -61.1,26.8 -38.3,21 -40.9,60.7 -35,79.1 7.1,22.1 0.3,28.8 7.5,35.3 7.1,6.5 51.2,1.9 76.3,-24.8 35.5,-37.7 24.9,-81.7 24.1,-89.5 C 566.4,96 563.6,85.9 566.3,79 Z"
                            id="path312"/>
                    <path
                            class="st11"
                            d="M 556.3,99.5 C 556.4,85 532.2,91 517,98.5 c -28.9,14.3 -47.6,30 -51.9,57.9 -3.1,19.9 6.5,51.2 32.7,40.9 25.5,-9.9 58,-40.1 58.5,-97.8 z"
                            id="path314"/>
                    <path
                            class="st1"
                            d="m 535.2,103.5 c -3,-4.9 -8,-3.7 -22.7,4.2 -21.2,11.5 -37.8,32.4 -25.7,33.1 12.1,0.7 60.1,-18.4 48.4,-37.3 z"
                            id="path316"/>
				</g>
                <path
                        class="st5"
                        d="m 562.9,168.2 c 6.8,-14.5 9.6,-30.6 9.2,-46.5 -0.4,-12.8 -6.5,-29.3 -3,-41.5 0.1,-0.2 0.2,-0.5 0.2,-0.8 0.6,-4.6 -1.5,-9.1 -6.6,-9.9 -5,-0.7 -9.1,4.1 -13.2,6.2 -10.2,5.3 -22.1,7.6 -32.7,12.2 -18.9,8.1 -38.3,17.7 -50.3,35 -9.1,13.1 -13.5,29.3 -12.7,45.3 0.4,8.4 3.5,15.8 5,24.1 1.2,6.5 0,13.8 1.8,20.1 2.5,9.2 11.5,10.3 19.8,10.1 35.2,-0.8 67.6,-22.6 82.5,-54.3 z m -47.8,39.6 c -12,5.4 -26.7,9.9 -40.1,8.5 -12.2,-1.3 -8.5,-14.1 -9.9,-23.3 -2.2,-14.3 -6.8,-25.7 -4.2,-40.5 3.2,-17.9 13.6,-33.6 28.7,-43.7 14.5,-9.7 31.4,-16.7 47.9,-22.2 3.9,-1.3 7.8,-2.4 11.6,-4 1.3,-0.5 14.6,-7.7 14.2,-4 0,0 0,0.1 0,0.1 -4.3,16.5 3.8,36.6 2.5,53.8 -2.3,32.1 -21,61.9 -50.7,75.3 z"
                        id="path320"/>
			</g>
            <ellipse
                    class="st7"
                    cx="512.90002"
                    cy="240.89999"
                    rx="62.200001"
                    ry="10.3"
                    id="ellipse324"/>
		</g>
        <g
                id="g358">
			<ellipse
                    class="st7"
                    cx="698.40002"
                    cy="240.89999"
                    rx="62.200001"
                    ry="10.3"
                    id="ellipse328"/>
            <g
                    id="g356">
				<g
                        id="g352">
					<g
                            id="g348">
						<path
                                class="st10"
                                d="m 636.6,211.8 c 0,0 -7.3,-6.9 0.6,-9.3 7.9,-2.4 13.5,-10.6 18.5,-30 5,-19.4 11,-33.7 19.3,-26.6 8.2,7.1 33.1,15.6 46.3,18.8 19.5,4.8 -39.6,78.7 -84.7,47.1 z"
                                id="path330"/>
                        <path
                                class="st10"
                                d="m 665.6,134.9 c -0.4,4.2 1.5,8.3 4.7,10.9 5.3,4.2 15.1,11.1 27.3,14.8 26.4,8.1 29.4,8.4 38.3,-2.1 8.9,-10.5 25.1,-40.1 20.4,-48.5 -4.7,-8.4 -46.1,-36.3 -56.8,-32.8 -9.3,3.1 -32.1,37.4 -33.9,57.7 z"
                                id="path332"/>
                        <path
                                class="st10"
                                d="m 733.6,29.7 c -2.6,-2.8 -7.4,-1.6 -8.2,2.2 0,0.1 0,0.1 0,0.2 -1.2,6.3 -25.6,32.6 -23.9,44.9 0,0 19.7,1.1 54,31.8 0,0 14.5,-9.5 5,-35.9 -7.6,-21 -21.5,-37.4 -26.9,-43.2 z"
                                id="path334"/>
                        <path
                                class="st11"
                                d="m 669.8,156.1 c -4.7,3.1 -3.1,5 -8.1,21.1 -5,16.2 -18.1,25.5 -12.9,31.4 5.2,5.9 24.8,8.9 44.2,-6.4 19.4,-15.3 31.3,-25 9.2,-32 -22.1,-7.1 -25.4,-18.6 -32.4,-14.1 z"
                                id="path336"/>
                        <path
                                class="st1"
                                d="m 669.5,157.1 c 0,0 -1.1,-3.1 -5.6,5 -4.5,8.1 -6.2,25.4 -1.3,22.1 5,-3.3 11.3,-25.3 6.9,-27.1 z"
                                id="path338"/>
                        <path
                                class="st11"
                                d="m 672.4,138.4 c 0,0 2.5,7.3 14.3,12.7 11.8,5.4 31.4,11.2 35.6,6.5 4.2,-4.8 20.7,-46.9 7.3,-59.9 -13.4,-13 -24.5,-16.6 -31.4,-12 -6.9,4.6 -29.7,39 -25.8,52.7 z"
                                id="path340"/>
                        <path
                                class="st1"
                                d="m 701,86.9 c 0,0 -0.3,-4.2 -8.6,4.1 -8.3,8.3 -16.6,29 -9.4,26.7 7.2,-2.3 22.7,-27.1 18,-30.8 z"
                                id="path342"/>
                        <path
                                class="st11"
                                d="m 711.7,74.5 c -3,-1.3 -4.2,-4.9 -2.6,-7.7 1,-1.9 2.7,-4.3 5.2,-7.5 9.2,-11.8 12.8,-14.6 22.1,-5.5 9.2,9.1 24.5,29.2 17,41.4 -7.4,11.8 -5.6,-4.8 -41.7,-20.7 z"
                                id="path344"/>
                        <path
                                class="st1"
                                d="m 722.2,51.4 c 0,0 -0.2,-3 -6.1,2.9 -5.9,5.9 -11.7,20.5 -6.6,18.9 5.1,-1.7 16,-19.2 12.7,-21.8 z"
                                id="path346"/>
					</g>
                    <path
                            class="st5"
                            d="m 723,30 c -0.1,0.2 -0.2,0.3 -0.3,0.5 0,0 0,0 0,0 0,0 0,0 0,0 0,0.1 -0.1,0.1 -0.1,0.2 -0.1,0.3 -0.2,0.6 -0.3,0.9 -1.6,7.2 -10.1,15.3 -14,21.2 -4.2,6.4 -9.3,13.8 -9.9,21.7 -10.7,3.7 -18.4,18.2 -23.5,27 -6.4,11.1 -16.9,29.2 -10.2,42.1 -9.1,7.8 -10.7,24.6 -14,35 -2.2,6.8 -4.9,15 -11.1,19.3 -2.7,1.9 -6.9,2 -8.5,5.3 -7.7,15.4 27.5,20 35.5,19.1 18.3,-2.1 35.1,-13.4 47.3,-26.6 5.4,-5.9 15.9,-17.8 14.1,-27.3 11,-4.4 17.9,-18.2 23.1,-28 4.1,-7.8 11.9,-21.4 8.1,-31 12.9,-11.6 6.3,-34 0,-47.2 C 756,55.2 733.7,11.6 723,30 Z m 19.9,16.1 c 5.7,8.1 10.6,16.8 14.1,26.1 3.6,9.6 7.3,26.7 -3.2,33.9 -1.3,0.9 -1.8,2.9 -0.9,4.3 4.8,6.9 -4,21.2 -7.2,27.4 -4.3,8.1 -11.7,23.8 -21.7,25.7 -2.3,0.4 -3.6,2.6 -2.3,4.8 4.2,6.9 -10,21.3 -14,25.4 -10.5,10.8 -24.4,20 -39.5,22.4 -7.7,1.2 -15.7,0.4 -22.8,-2.8 -2.6,-1.2 -8,-3.1 -7.4,-6.4 0.4,-2.1 4.6,-3.3 6.5,-4.7 5.7,-4.5 8.8,-11.8 11.2,-18.5 3.7,-10.5 4.7,-30.4 15,-36.6 1.4,-0.8 1.8,-3 0.9,-4.3 -7.8,-10.4 3.5,-28.9 9,-38.4 4,-6.8 12.3,-23 21.3,-24.3 2,-0.3 3.1,-2.5 2.7,-4.2 -0.2,-16.8 20.3,-27.4 23.8,-42.7 2.6,-4.4 13.4,11.4 14.5,12.9 z"
                            id="path350"/>
				</g>
                <path
                        class="st5"
                        d="M 697.7,74.7 C 689.3,78 683,88.9 678.4,96 c -7.4,11.5 -14.2,24.6 -15.8,38.3 0,0.1 0,0.2 0,0.3 0,0.1 0,0.3 0,0.4 0.2,11.7 11.1,17.7 20.4,22.7 10.8,5.7 25.4,11.1 37.7,11.8 16.8,0.9 26.8,-21 32.8,-33.6 3.3,-6.9 8.7,-17.3 6.4,-25.3 -1.8,-6.4 -9.5,-11.2 -14.4,-14.9 -8.6,-6.4 -17.9,-12.4 -27.6,-17 -5.9,-2.7 -13.7,-6.6 -20.2,-4 z m 28.2,15.4 c 8.4,5 17,10.5 24.1,17.3 7.4,7.1 2.3,16.5 -1.5,24.7 -4.3,9.2 -9.5,18.8 -16.5,26.3 -6.5,6.9 -13.5,5 -22,2.7 -11.7,-3.2 -40.7,-10.5 -41.3,-26.1 1.5,-11.8 7,-22.9 13.1,-33 3.7,-6.1 11,-20 18.8,-21.9 7.5,-1.9 19.2,6.4 25.3,10 z"
                        id="path354"/>
			</g>
		</g>
	</g>
        <g
                id="g446">
		<g
                id="g390">
			<g
                    id="g386">
				<path
                        class="st12"
                        d="m 126.4,352.8 -18.5,-26 c 0,0 10.2,-10.8 23.4,-5.9 l 11.5,22.4 -5.3,9.8 z"
                        id="path362"/>
                <path
                        class="st5"
                        d="m 140.2,354.6 c 2,-3.7 6.3,-8.7 5.2,-12.9 -1.4,-5.6 -6,-11.6 -8.6,-16.7 -3.3,-6.4 -5.5,-8.9 -13.8,-8.4 -6.4,0.4 -12.9,3.5 -17.4,8 -0.9,0.9 -1.2,2.6 -0.5,3.7 6.2,8.7 12.3,17.3 18.5,26 0.1,0.2 0.2,0.3 0.4,0.4 0.5,0.6 1.2,1.1 2.3,1.1 3.7,0.1 7.4,0.2 11.2,0.3 1.1,0.1 2.2,-0.5 2.7,-1.5 z m -20.1,-31.4 c 1.8,-0.4 8.1,-0.9 8.6,-0.6 0.7,0.5 1.3,2.6 1.7,3.3 3,5.8 5.9,11.5 8.9,17.3 -1.2,2.2 -2.4,4.5 -3.6,6.7 -2.6,-0.1 -5.2,-0.2 -7.8,-0.2 -5.3,-7.5 -10.7,-15 -16,-22.5 2.5,-1.8 5.3,-3.3 8.2,-4 z"
                        id="path364"/>
                <g
                        id="g368">
					<polygon
                            class="st8"
                            points="242.8,516.4 143.3,344.2 129.4,344.6 129.3,359.2 115.2,363.2 118.2,377.5 105.2,384.4 111.3,397.7 100.2,407.3 109.1,418.9 100.5,430.7 111.6,440.2 105.4,453.5 118.1,460.8 114.2,474.9 127.8,480.4 125.2,494.1 138.9,496.8 138.5,510.7 152.4,510.9 155,524.6 168.6,521.5 174.6,534 186.8,527.3 196,537.7 206,528 217.5,535.9 225.1,524.2 237.9,529.4 "
                            id="polygon366"/>
				</g>
                <path
                        class="st13"
                        d="m 150.8,357.1 c -2.6,-7.1 -40.2,9.3 -31.5,80.5 2.8,33.4 19.8,55.8 44.5,71.6 21.4,13 48.9,20.9 67.8,5.9 4.2,-3.3 5.3,-9.3 2.9,-14.1 -25.8,-51 -52.1,-96.2 -83.7,-143.9 z"
                        id="path370"/>
                <path
                        class="st5"
                        d="m 240.9,530.2 c 1.4,-3.6 4.7,-8.9 4.8,-12.7 0.1,-3.7 -2.6,-6.7 -4.4,-9.9 -10.5,-18.1 -19.1,-37.4 -29.3,-55.7 -20.6,-37.3 -44.7,-72.3 -66,-109.1 -0.5,-0.9 -1.6,-1.6 -2.6,-1.5 -4.7,0.1 -9.3,0.2 -14,0.4 -1.7,0 -3.1,1.4 -3.1,3.1 0,4.1 0,8.2 0,12.3 -3.9,1.1 -7.9,2.2 -11.8,3.3 -1.7,0.5 -2.5,2.1 -2.2,3.7 0.8,4 1.6,8 2.5,11.9 -3.7,1.9 -7.3,3.9 -11,5.8 -1.6,0.8 -1.8,2.7 -1.1,4.2 1.7,3.7 3.3,7.3 5,11 -3.2,2.8 -6.3,5.5 -9.5,8.3 -0.9,0.8 -1.2,2.7 -0.5,3.7 1.3,1.7 2.6,3.3 3.8,5 0.8,1 2.6,3.9 3.7,5.1 -1.1,1.2 -2.6,3.8 -3,4.4 -1.4,2 -2.9,3.9 -4.3,5.9 -0.7,1 -0.4,2.9 0.5,3.7 3.2,2.7 6.4,5.4 9.6,8.1 -1.7,3.6 -3.4,7.3 -5.1,10.9 -0.7,1.5 -0.4,3.3 1.1,4.2 3.5,2 7.1,4.1 10.6,6.1 -1.1,3.9 -2.2,7.9 -3.3,11.8 -0.5,1.7 0.6,3.2 2.2,3.8 3.6,1.5 7.3,2.9 10.9,4.4 -0.7,3.7 -1.4,7.3 -2.1,11 -0.3,1.5 0.4,3.4 2.2,3.8 3.8,0.8 7.5,1.5 11.3,2.3 -0.1,3.8 -0.2,7.6 -0.3,11.4 0,1.7 1.4,3.1 3.1,3.1 3.8,0 7.6,0.1 11.4,0.1 0.7,3.8 1.4,7.6 2.2,11.4 0.3,1.7 2.2,2.6 3.7,2.2 3.7,-0.9 7.4,-1.7 11.1,-2.6 1.7,3.5 3.4,7 5.1,10.5 0.7,1.5 2.8,1.9 4.2,1.1 3.3,-1.8 6.7,-3.7 10,-5.5 2.6,2.9 5.2,5.8 7.7,8.7 1.1,1.3 3.2,1.1 4.3,0 2.7,-2.6 5.4,-5.3 8.2,-7.9 3.2,2.2 6.4,4.4 9.6,6.6 1.4,1 3.3,0.2 4.2,-1.1 2,-3.1 4.1,-6.3 6.1,-9.4 3.6,1.5 7.3,2.9 10.9,4.4 1.5,0.5 3.1,-0.9 3.6,-2.3 z M 142,347.2 c 1,0 0.8,0.6 0,0 z m 25.8,171.3 c -3.5,0.8 -6.9,1.6 -10.4,2.4 -0.7,-3.6 -1.4,-7.2 -2,-10.7 -0.3,-1.3 -1.7,-2.3 -3,-2.3 -3.6,0 -7.2,-0.1 -10.8,-0.1 0.1,-3.6 0.2,-7.2 0.3,-10.9 0,-1.3 -1,-2.7 -2.3,-3 -3.6,-0.7 -7.3,-1.4 -10.9,-2.2 0.7,-3.5 1.3,-7 2,-10.5 0.3,-1.8 -0.5,-3.1 -2.2,-3.8 -3.6,-1.4 -7.1,-2.9 -10.7,-4.3 1.1,-3.8 2.2,-7.7 3.2,-11.5 0.4,-1.3 -0.3,-2.8 -1.4,-3.5 -3.4,-2 -6.8,-4 -10.2,-5.9 1.6,-3.5 3.3,-7 4.9,-10.5 0.5,-1.2 0.6,-2.8 -0.5,-3.7 -3.1,-2.6 -6.1,-5.2 -9.2,-7.8 2.4,-3.3 4.8,-6.5 7.2,-9.8 0.6,-0.8 0.6,-2.3 0,-3.1 -2.5,-3.2 -4.9,-6.4 -7.4,-9.7 3,-2.6 6.1,-5.3 9.1,-7.9 1.1,-0.9 1,-2.5 0.5,-3.7 -1.6,-3.5 -3.1,-7 -4.7,-10.4 3.5,-1.9 7,-3.7 10.5,-5.6 1.2,-0.7 1.7,-2.1 1.4,-3.4 -0.8,-3.8 -1.6,-7.6 -2.4,-11.4 3.8,-1.1 7.5,-2.1 11.3,-3.2 1.3,-0.4 2.3,-1.6 2.3,-3 0,-3.9 0,-7.8 0,-11.7 1.3,0 2.6,-0.1 3.9,-0.1 1.4,0 3.1,0.3 4.4,-0.1 0.4,-0.1 0.7,-0.1 0.9,-0.2 2.5,3.5 4.2,7.8 6.5,11.5 14.9,24.2 30.7,47.8 45,72.4 14,24.1 26.7,48.8 39.4,73.7 2,3.9 5.8,8.1 7.2,12.2 -0.7,-1.6 -1.3,2.4 -2,4.3 -0.5,1.4 -1,2.8 -1.6,4.2 -3.4,-1.4 -6.9,-2.8 -10.3,-4.2 -1.5,-0.6 -2.7,0.1 -3.3,1.2 -0.1,0.1 -0.1,0.2 -0.2,0.2 -1.9,3 -3.8,5.9 -5.8,8.9 -3,-2.1 -6.1,-4.1 -9.1,-6.2 -1.1,-0.8 -2.8,-0.4 -3.7,0.5 -2.5,2.5 -5.1,4.9 -7.6,7.4 -2.4,-2.7 -4.8,-5.4 -7.2,-8.2 -0.9,-1 -2.6,-1.1 -3.7,-0.5 -3.1,1.7 -6.2,3.4 -9.3,5.1 -1.6,-3.3 -3.1,-6.5 -4.7,-9.8 -0.6,-0.9 -2.2,-1.4 -3.4,-1.1 z"
                        id="path372"/>
                <path
                        class="st11"
                        d="m 167.6,396.1 c -4.6,-10.3 -10.2,-20 -16.7,-29.2 -3,-4.2 -9.2,-4.1 -12.2,0 -5.8,8.1 -12,22.4 -14,41.2 -0.5,5.3 4.3,9.4 9.5,8 10.5,-2.9 20.6,-6.1 29.7,-10.1 3.8,-1.7 5.4,-6.2 3.7,-9.9 z"
                        id="path374"/>
                <path
                        class="st14"
                        d="m 166.9,409.7 c -11.8,2.7 -23.2,5.9 -33.7,9.9 -4.7,1.8 -7.8,6.4 -7.5,11.4 0.1,1.8 0.2,3.6 0.4,5.4 1.5,24.1 10.5,42.1 26.9,55.8 4.2,3.5 10.2,3.5 14.5,0.1 10.6,-8.3 20.6,-18.3 30.6,-29.2 3.3,-3.6 4,-8.8 1.8,-13.2 -6.1,-12.2 -13,-24 -20.6,-35.3 -2.8,-4 -7.7,-6 -12.4,-4.9 z"
                        id="path376"/>
                <path
                        class="st11"
                        d="m 170.4,495.5 c -3.8,3.8 -2.8,10.3 2,12.7 0,0 0.1,0 0.1,0 17,7.9 36.7,10.6 52,4.3 4.2,-1.7 6.2,-6.5 4.4,-10.7 -4.9,-11.2 -10.9,-21.7 -18.1,-31.5 -2.7,-3.7 -7.9,-4.3 -11.5,-1.5 -9.7,7.8 -19.2,17 -28.9,26.7 z"
                        id="path378"/>
                <path
                        class="st1"
                        d="m 142.6,369.5 c -1.7,-0.5 -6,7.5 -8.4,15.7 -3,10.2 -3.8,18.1 3.6,15.8 7.4,-2.3 4,-8.4 4.8,-17.1 0.8,-8.7 1.7,-13.8 0,-14.4 z"
                        id="path380"/>
                <path
                        class="st1"
                        d="m 183.2,495.7 c -3.3,-2.7 -8.3,-1.3 -9.4,2.8 -0.3,1 -0.3,2.2 0,3.4 1.4,5.8 21.8,9.7 24.3,6.9 2.1,-2.4 -6.7,-6.3 -14.9,-13.1 z"
                        id="path382"/>
                <path
                        class="st1"
                        d="m 142.2,424.5 c 0,0 -11.6,-2.6 -11,12.1 0.6,14.7 9.5,38.3 16.2,30.9 4.4,-4.8 4.5,-41.8 -5.2,-43 z"
                        id="path384"/>
			</g>
            <ellipse
                    class="st7"
                    cx="171.39999"
                    cy="559.40002"
                    rx="62.200001"
                    ry="10.3"
                    id="ellipse388"/>
		</g>
            <g
                    id="g424">
			<ellipse
                    class="st7"
                    cx="411.20001"
                    cy="559.40002"
                    rx="77.800003"
                    ry="10.3"
                    id="ellipse392"/>
                <g
                        id="g422">
				<path
                        class="st12"
                        d="m 401.5,328.9 -3,-31.8 c 0,0 14.3,-4.2 23.2,6.6 l -1.2,25.1 -9.5,5.9 z"
                        id="path394"/>
                    <g
                            id="g398">
					<path
                            class="st5"
                            d="m 404.5,328.9 c -1,-10.6 -2,-21.2 -3,-31.8 -0.8,1 -1.5,2 -2.3,3 3.7,-1 7.9,-1 11.6,0.1 1.8,0.5 7.5,3.2 7.7,3.8 0.3,0.8 -0.1,2.9 -0.2,3.7 -0.4,7.1 -0.7,14.1 -1.1,21.2 0.5,-0.9 1,-1.8 1.5,-2.7 -3.2,2 -6.3,3.9 -9.5,5.9 1,0 2.1,0 3.1,0 -3.2,-2 -6.3,-3.9 -9.5,-5.9 -3.4,-2.1 -6.5,3.2 -3.1,5.3 3.2,2 6.3,3.9 9.5,5.9 0.9,0.6 2.2,0.6 3.1,0 3.6,-2.2 9.8,-4.3 11,-8.6 1.6,-5.5 0.6,-13 0.9,-18.8 0.4,-7.2 -0.3,-10.4 -7.8,-14.2 -5.7,-2.9 -12.9,-3.4 -19,-1.7 -1.2,0.3 -2.4,1.6 -2.3,3 1,10.6 2,21.2 3,31.8 0.7,3.9 6.8,4 6.4,0 z"
                            id="path396"/>
				</g>
                    <g
                            id="g402">
					<polygon
                            class="st8"
                            points="391.6,336 377.4,332.4 372.8,346.3 358.1,345.7 356.7,360.3 342.3,363.1 344.2,377.6 330.8,383.5 335.7,397.3 323.7,405.7 331,418.4 320.5,428.6 329.6,440.2 320.5,450.7 331,459.9 323.7,471.8 335.7,478.9 331.1,492 344.4,496.1 343.3,510 357.2,510.3 360,523.9 373.5,520.5 379.5,533.1 391.9,526.7 400.5,537.7 411.2,528.9 422,537.7 430.5,526.7 442.9,533.1 449,520.5 462.5,523.9 465.2,510.3 479.1,510 478.1,496.1 491.4,492 486.8,478.9 498.7,471.8 491.4,459.9 501.9,450.7 492.8,440.2 501.9,428.6 491.4,418.4 498.7,405.7 486.7,397.3 491.6,383.5 478.2,377.6 480.1,363.1 465.7,360.3 464.3,345.7 449.7,346.3 445,332.4 430.9,336 423.5,323.3 411.2,330 398.9,323.4 "
                            id="polygon400"/>
				</g>
                    <path
                            class="st5"
                            d="m 504.1,448.6 c -2.4,-2.8 -4.9,-5.7 -7.3,-8.5 2.4,-3.1 4.9,-6.2 7.3,-9.3 1,-1.3 1.3,-3.1 0,-4.3 -2.9,-2.9 -5.9,-5.7 -8.8,-8.6 2,-3.5 4.1,-7.1 6.1,-10.6 0.9,-1.5 0.3,-3.2 -1.1,-4.2 -3.3,-2.3 -6.6,-4.6 -9.9,-6.9 1.4,-3.9 2.8,-7.9 4.2,-11.8 0.4,-1.1 -0.2,-3 -1.4,-3.5 -1.9,-0.8 -3.9,-1.7 -5.8,-2.5 -1.2,-0.5 -4.1,-2.1 -5.7,-2.6 0.3,-1.6 0.4,-4.6 0.5,-5.3 0.3,-2.4 0.6,-4.8 0.9,-7.3 0.2,-1.2 -1.1,-2.7 -2.3,-3 -4.1,-0.8 -8.3,-1.6 -12.4,-2.4 -0.4,-4 -0.8,-8 -1.2,-12 -0.2,-1.6 -1.3,-3.1 -3.1,-3.1 -4.1,0.2 -8.3,0.3 -12.4,0.5 -1.3,-3.9 -2.6,-7.7 -3.8,-11.6 -0.5,-1.6 -2.1,-2.6 -3.8,-2.1 -4,1 -7.9,2 -11.9,3 -2.1,-3.5 -4.1,-7.1 -6.2,-10.6 -0.9,-1.5 -2.7,-1.9 -4.2,-1.1 -3.6,1.9 -7.1,3.9 -10.7,5.8 -3.6,-1.9 -7.1,-3.9 -10.7,-5.8 -1.5,-0.8 -3.3,-0.4 -4.2,1.1 -2.1,3.5 -4.1,7.1 -6.2,10.6 -4,-1 -7.9,-2 -11.9,-3 -1.7,-0.4 -3.2,0.5 -3.8,2.1 -1.3,3.9 -2.6,7.7 -3.8,11.6 -4.1,-0.2 -8.3,-0.3 -12.4,-0.5 -1.8,-0.1 -2.9,1.5 -3.1,3.1 -0.4,4 -0.8,8 -1.2,12 -4.1,0.8 -8.3,1.6 -12.4,2.4 -1.2,0.2 -2.4,1.7 -2.3,3 0.3,2.1 0.5,4.2 0.8,6.3 0.2,1.2 0.3,4.6 0.7,6.2 -1.5,0.5 -4.1,2 -4.8,2.3 -2.2,1 -4.5,2 -6.7,2.9 -1.2,0.5 -1.8,2.3 -1.4,3.5 1.4,3.9 2.8,7.9 4.2,11.8 -3.3,2.3 -6.6,4.6 -9.9,6.9 -1.4,1 -2,2.7 -1.1,4.2 2,3.5 4.1,7.1 6.1,10.6 -2.9,2.9 -5.9,5.7 -8.8,8.6 -1.3,1.3 -1,3.1 0,4.3 2.4,3.1 4.9,6.2 7.3,9.3 -2.4,2.8 -4.9,5.7 -7.3,8.5 -1,1.2 -1.3,3.2 0,4.3 2.9,2.5 5.8,5.1 8.7,7.6 -2,3.2 -4,6.5 -6,9.7 -0.9,1.4 -0.3,3.4 1.1,4.2 3.3,1.9 6.5,3.9 9.8,5.8 -1.3,3.7 -2.6,7.3 -3.8,11 -0.6,1.6 0.6,3.3 2.1,3.8 3.6,1.1 7.2,2.2 10.9,3.3 -0.3,3.9 -0.6,7.8 -0.9,11.6 -0.1,1.7 1.5,3 3.1,3.1 3.8,0.1 7.6,0.2 11.4,0.2 0.8,3.8 1.5,7.6 2.3,11.4 0.3,1.7 2.3,2.5 3.8,2.1 3.7,-0.9 7.3,-1.8 11,-2.7 1.7,3.5 3.4,7 5.1,10.5 0.7,1.6 2.8,1.8 4.2,1.1 3.3,-1.7 6.7,-3.4 10,-5.1 2.4,3.1 4.8,6.2 7.2,9.3 1.1,1.4 3.2,0.9 4.3,0 2.9,-2.3 5.7,-4.7 8.6,-7 2.9,2.3 5.7,4.7 8.6,7 1.2,0.9 3.2,1.4 4.3,0 2.4,-3.1 4.8,-6.2 7.2,-9.3 3.3,1.7 6.7,3.4 10,5.1 1.4,0.7 3.5,0.5 4.2,-1.1 1.7,-3.5 3.4,-7 5.1,-10.5 3.7,0.9 7.3,1.8 11,2.7 1.5,0.4 3.4,-0.5 3.8,-2.1 0.8,-3.8 1.5,-7.6 2.3,-11.4 3.8,-0.1 7.6,-0.2 11.4,-0.3 1.6,0 3.2,-1.4 3.1,-3.1 -0.3,-3.9 -0.6,-7.8 -0.9,-11.6 3.6,-1.1 7.2,-2.2 10.9,-3.3 1.5,-0.5 2.7,-2.2 2.1,-3.8 -1.3,-3.7 -2.6,-7.3 -3.8,-11 3.3,-1.9 6.5,-3.9 9.8,-5.8 1.4,-0.8 2,-2.8 1.1,-4.2 -2,-3.2 -4,-6.5 -6,-9.7 2.9,-2.5 5.8,-5.1 8.7,-7.6 1.4,-1 1.1,-3 0.1,-4.2 z m -41.8,60.9 c -0.7,3.6 -1.4,7.1 -2.2,10.7 -3.4,-0.9 -6.9,-1.7 -10.3,-2.6 -1.2,-0.3 -2.9,0.2 -3.5,1.4 -1.6,3.3 -3.2,6.6 -4.8,9.9 -3.1,-1.6 -6.3,-3.2 -9.4,-4.8 -1.1,-0.6 -2.9,-0.6 -3.7,0.5 -2.3,2.9 -4.6,5.9 -6.9,8.8 -2.7,-2.2 -5.4,-4.4 -8.1,-6.6 -1.4,-1.1 -3,-1.1 -4.3,0 -2.7,2.2 -5.4,4.4 -8.1,6.6 -2.3,-2.9 -4.6,-5.9 -6.8,-8.8 -0.9,-1.1 -2.6,-1 -3.7,-0.5 -3.2,1.6 -6.3,3.2 -9.5,4.8 -1.6,-3.3 -3.2,-6.6 -4.8,-9.9 -0.6,-1.2 -2.2,-1.7 -3.5,-1.4 -3.4,0.9 -6.9,1.7 -10.3,2.6 -0.7,-3.6 -1.4,-7.1 -2.2,-10.7 -0.3,-1.3 -1.7,-2.2 -3,-2.3 -3.5,-0.1 -7.1,-0.2 -10.6,-0.2 0.3,-3.6 0.6,-7.2 0.8,-10.9 0.1,-1.4 -1,-2.6 -2.3,-3 -3.4,-1 -6.8,-2.1 -10.2,-3.1 1.2,-3.4 2.4,-6.9 3.6,-10.3 0.4,-1.3 -0.3,-2.8 -1.4,-3.5 -3.1,-1.8 -6.2,-3.7 -9.3,-5.5 1.9,-3.1 3.8,-6.2 5.7,-9.3 0.7,-1.1 0.5,-2.8 -0.5,-3.7 -2.8,-2.4 -5.6,-4.9 -8.3,-7.3 2.3,-2.7 4.6,-5.4 7,-8.1 1.2,-1.4 1.1,-3 0,-4.3 -2.4,-3 -4.8,-6 -7.1,-9.1 2.9,-2.8 5.7,-5.6 8.6,-8.3 1,-1 1.2,-2.6 0.5,-3.7 -2,-3.4 -3.9,-6.8 -5.9,-10.3 3.2,-2.2 6.3,-4.4 9.5,-6.6 1.1,-0.7 1.9,-2.1 1.4,-3.5 -1.3,-3.8 -2.7,-7.6 -4,-11.3 3.7,-1.6 7.4,-3.3 11.1,-4.9 0.9,-0.4 1.6,-1.7 1.5,-2.7 -0.5,-4 -1,-8 -1.6,-12.1 3.9,-0.8 7.9,-1.5 11.8,-2.3 1.4,-0.3 2.1,-1.7 2.3,-3 0.4,-3.8 0.8,-7.6 1.1,-11.4 4,0.1 7.9,0.3 11.9,0.4 1.4,0.1 2.5,-1 3,-2.3 1.2,-3.7 2.4,-7.4 3.7,-11 3.8,1 7.6,1.9 11.4,2.9 1.3,0.3 2.8,-0.2 3.5,-1.4 2,-3.4 3.9,-6.7 5.9,-10.1 3.2,1.7 6.4,3.5 9.6,5.2 0.5,0.3 1,0.4 1.5,0.4 0.5,0 1,-0.1 1.6,-0.4 3.2,-1.7 6.4,-3.5 9.6,-5.2 2,3.4 3.9,6.7 5.9,10.1 0.7,1.2 2.2,1.7 3.5,1.4 3.8,-1 7.6,-1.9 11.4,-2.9 1.2,3.7 2.4,7.4 3.7,11 0.4,1.3 1.6,2.3 3,2.3 4,-0.1 7.9,-0.3 11.9,-0.4 0.4,3.8 0.8,7.6 1.1,11.4 0.1,1.3 0.9,2.7 2.3,3 3.9,0.8 7.9,1.5 11.8,2.3 -0.5,4 -1,8 -1.6,12.1 -0.1,0.9 0.7,2.3 1.5,2.7 3.7,1.6 7.4,3.3 11.1,4.9 -1.3,3.8 -2.7,7.6 -4,11.3 -0.5,1.4 0.3,2.7 1.4,3.5 3.2,2.2 6.3,4.4 9.5,6.6 -2,3.4 -3.9,6.8 -5.9,10.3 -0.7,1.2 -0.5,2.8 0.5,3.7 2.9,2.8 5.7,5.6 8.6,8.4 -2.4,3 -4.8,6.1 -7.1,9.1 -1.1,1.4 -1.2,3 0,4.3 2.3,2.7 4.6,5.4 6.9,8.1 -2.8,2.4 -5.6,4.9 -8.3,7.3 -1,0.9 -1.2,2.6 -0.5,3.7 1.9,3.1 3.8,6.2 5.7,9.3 -3.1,1.8 -6.2,3.7 -9.3,5.5 -1.1,0.7 -1.9,2.2 -1.4,3.5 1.2,3.4 2.4,6.9 3.6,10.3 -3.4,1 -6.8,2.1 -10.2,3.1 -1.2,0.4 -2.4,1.6 -2.3,3 0.3,3.6 0.6,7.2 0.8,10.9 -3.5,0.1 -7.1,0.2 -10.6,0.2 -1.6,-0.1 -3.1,0.8 -3.3,2.2 z"
                            id="path404"/>
                    <path
                            class="st13"
                            d="m 411.2,345 c 1.3,-7.5 -39.5,-12.1 -67.5,54 -14.3,30.4 -10.7,58.2 2.7,84.3 12,22 31.9,42.6 55.8,39 5.3,-0.8 9.3,-5.4 9.6,-10.8 3.1,-57.1 2.9,-109.5 -0.6,-166.5 z"
                            id="path406"/>
                    <path
                            class="st11"
                            d="m 406.3,387.1 c 1.1,-11.2 1.2,-22.4 0.1,-33.7 -0.5,-5.1 -5.9,-8.2 -10.5,-6.1 -9.1,4.1 -21.6,13.4 -32.7,28.7 -3.1,4.3 -1,10.3 4.2,11.7 10.5,2.8 20.8,5 30.8,6.1 4,0.4 7.7,-2.6 8.1,-6.7 z"
                            id="path408"/>
                    <path
                            class="st14"
                            d="m 398.9,398.5 c -11.6,-3.6 -23,-6.5 -34.1,-8.3 -5,-0.8 -10,1.6 -12.2,6.1 -0.8,1.6 -1.6,3.2 -2.4,4.8 -10.8,21.6 -11.9,41.7 -4.6,61.8 1.9,5.1 7.1,8.1 12.5,7.4 13.3,-1.9 27,-5.6 41.1,-10 4.6,-1.5 7.9,-5.7 8.1,-10.5 0.8,-13.6 0.7,-27.3 -0.2,-40.9 -0.4,-4.8 -3.6,-9 -8.2,-10.4 z"
                            id="path410"/>
                    <path
                            class="st11"
                            d="m 359,474.6 c -5.2,1.4 -7.6,7.5 -4.6,12 0,0 0,0.1 0.1,0.1 10.8,15.3 26.5,27.5 42.9,29.8 4.5,0.6 8.6,-2.5 9.2,-7 1.4,-12.1 1.4,-24.2 0.1,-36.3 -0.5,-4.5 -4.7,-7.6 -9.2,-7 -12.5,1.6 -25.4,4.8 -38.5,8.4 z"
                            id="path412"/>
                    <path
                            class="st1"
                            d="m 397.9,351.6 c -1.2,-1.3 -8.9,3.5 -15.1,9.4 -7.7,7.3 -12.3,13.8 -4.8,15.5 7.5,1.7 7.7,-5.2 12.7,-12.4 5,-7.2 8.4,-11.2 7.2,-12.5 z"
                            id="path414"/>
                    <path
                            class="st1"
                            d="m 369.9,481.2 c -1.5,-4 -6.6,-5.3 -9.5,-2.3 -0.8,0.8 -1.4,1.7 -1.7,2.9 -1.7,5.7 14,19.3 17.6,18.1 3.1,-1 -2.7,-8.8 -6.4,-18.7 z"
                            id="path416"/>
                    <path
                            class="st1"
                            d="m 370.1,399 c 0,0 -8.7,-8.1 -15.5,5 -6.8,13 -10.9,37.9 -1.5,34.9 6.1,-2.1 24.7,-34 17,-39.9 z"
                            id="path418"/>
                    <path
                            class="st5"
                            d="m 453.7,450.7 c 2.4,-2.7 4.8,-5.4 7.3,-8 0.9,-1 1.4,-2.6 0.5,-3.7 -1.3,-1.7 -2.6,-3.4 -3.9,-5.1 -0.7,-0.9 -2.6,-3.9 -3.9,-5.1 1,-1.3 2.4,-3.8 2.9,-4.5 1.4,-2 2.8,-4.1 4.2,-6.1 0.9,-1.3 0.4,-2.7 -0.5,-3.7 -2.8,-3.1 -5.6,-6.2 -8.3,-9.3 2.1,-3.6 4.1,-7.2 6.2,-10.8 0.7,-1.2 0.6,-2.7 -0.5,-3.7 -1.6,-1.5 -3.2,-3 -4.8,-4.4 -1.1,-1 -3.3,-3.5 -4.6,-4.5 0.8,-1.5 1.8,-4.4 2.1,-5 1,-2.2 1.9,-4.5 2.9,-6.7 0.4,-0.9 0,-2.4 -0.9,-3 -1.8,-1.3 -3.6,-2.5 -5.4,-3.8 -0.9,-0.6 -3.8,-3 -5.5,-3.9 0.4,-1.4 0.7,-4.2 0.9,-5.2 0.5,-2.3 1.1,-4.7 1.6,-7 0.3,-1.2 -0.2,-2.9 -1.6,-3.5 -2,-0.9 -4.1,-1.8 -6.1,-2.7 -1.3,-0.6 -4,-2.2 -5.5,-2.4 -0.2,0 -0.5,-0.2 -0.8,-0.3 -0.1,-1.4 -0.7,-4.3 -0.8,-5.3 -0.3,-2.4 -0.5,-4.8 -0.8,-7.1 -0.2,-1.6 -1.4,-3.1 -3.4,-3.1 -4.6,0.1 -9.2,4.7 -13.8,4.8 v 5.6 c 0,0 7,-4 10.5,-4.2 0,4.3 -0.2,9.9 1.8,12.7 2.2,3 8.8,4.9 13.3,6.5 -0.9,3.8 -1.8,7.6 -2.6,11.4 -0.2,1 -0.1,2.3 0.9,3 1.8,1.3 3.6,2.5 5.4,3.8 1.1,0.8 3.6,3 5.2,3.9 -0.8,1.4 -1.6,4.1 -1.9,4.9 -1,2.2 -1.9,4.5 -2.9,6.7 -0.4,1 0.1,2.3 0.9,3 3.1,2.9 6.2,5.8 9.3,8.6 -2,3.5 -4.1,7.1 -6.1,10.6 -0.8,1.3 -0.5,2.6 0.5,3.7 2.7,3.1 5.5,6.1 8.2,9.2 -2.4,3.5 -4.8,6.9 -7.2,10.4 -0.6,0.9 -0.7,2.2 0,3.1 2.6,3.3 5.2,6.7 7.8,10 -2.4,2.7 -4.8,5.4 -7.3,8.1 -0.9,1 -1.5,2.6 -0.5,3.7 2.3,2.9 4.7,5.8 7,8.8 -2.6,2.5 -5.2,5.1 -7.9,7.6 -1,1 -1.3,2.5 -0.5,3.7 2,3 4,6 6,9 -3,2.3 -5.9,4.7 -8.9,7 -1.2,1 -1.1,2.5 -0.5,3.7 1.5,3.1 3,6.1 4.5,9.2 -3.2,1.8 -6.4,3.6 -9.6,5.4 -1.3,0.8 -1.9,2.1 -1.6,3.5 0.7,3.2 1.5,6.5 2.2,9.7 -3.6,0.8 -7.2,1.7 -10.8,2.5 -1.1,0.3 -2.1,1.1 -2.4,2.1 -0.8,3 -1.6,6 -2.5,9 -3.3,-1.6 -7.5,-7.2 -10.6,-7.4 -0.2,0.1 0,7 0,7 1.2,0.6 11.1,7.5 11.1,7.5 1.9,0.7 4.4,0.3 5,-1.8 0.5,-1.8 1,-3.6 1.5,-5.4 0.2,-0.8 1.3,-3.8 1.5,-5.4 1.4,-0.2 4,-1.1 5,-1.3 2.3,-0.5 4.6,-1.1 6.9,-1.6 1.9,-0.4 2.7,-2.2 2.4,-3.8 -0.8,-3.5 -1.6,-7 -2.4,-10.5 3.4,-1.9 6.7,-3.8 10.1,-5.7 1.7,-0.9 2,-2.6 1.2,-4.2 -1.6,-3.2 -3.1,-6.4 -4.7,-9.5 3,-2.4 6.1,-4.8 9.1,-7.2 1.1,-0.9 1.3,-2.6 0.5,-3.7 -2.1,-3.1 -4.1,-6.1 -6.2,-9.2 2.7,-2.6 5.3,-5.1 8,-7.7 0.9,-0.9 1.4,-2.6 0.5,-3.7 -1.9,-3.3 -4.3,-6.2 -6.7,-9.2 z"
                            id="path420"/>
			</g>
		</g>
            <g
                    id="g444">
			<ellipse
                    class="st7"
                    cx="651"
                    cy="559.40002"
                    rx="77.800003"
                    ry="10.3"
                    id="ellipse426"/>
                <g
                        id="g442">
				<path
                        class="st12"
                        d="m 641.3,328.9 -3,-31.8 c 0,0 14.3,-4.2 23.2,6.6 l -1.2,25.1 -9.5,5.9 z"
                        id="path428"/>
                    <g
                            id="g432">
					<path
                            class="st5"
                            d="m 644.4,328.9 c -1,-10.6 -2,-21.2 -3,-31.8 -0.8,1 -1.5,2 -2.3,3 3.7,-1 7.9,-1 11.6,0.1 1.8,0.5 7.5,3.2 7.7,3.8 0.3,0.8 -0.1,2.9 -0.2,3.7 -0.4,7.1 -0.7,14.1 -1.1,21.2 0.5,-0.9 1,-1.8 1.5,-2.7 -3.2,2 -6.3,3.9 -9.5,5.9 1,0 2.1,0 3.1,0 -3.2,-2 -6.3,-3.9 -9.5,-5.9 -3.4,-2.1 -6.5,3.2 -3.1,5.3 3.2,2 6.3,3.9 9.5,5.9 0.9,0.6 2.2,0.6 3.1,0 3.6,-2.2 9.8,-4.3 11,-8.6 1.6,-5.5 0.6,-13 0.9,-18.8 0.4,-7.2 -0.3,-10.4 -7.8,-14.2 -5.7,-2.9 -12.9,-3.4 -19,-1.7 -1.2,0.3 -2.4,1.6 -2.3,3 1,10.6 2,21.2 3,31.8 0.6,3.9 6.7,4 6.4,0 z"
                            id="path430"/>
				</g>
                    <g
                            id="g436">
					<polygon
                            class="st8"
                            points="631.4,336 617.2,332.4 612.6,346.3 597.9,345.7 596.5,360.3 582.1,363.1 584,377.6 570.6,383.5 575.5,397.3 563.5,405.7 570.8,418.4 560.4,428.6 569.4,440.2 560.3,450.7 570.8,459.9 563.5,471.8 575.5,478.9 570.9,492 584.2,496.1 583.1,510 597,510.3 599.8,523.9 613.3,520.5 619.3,533.1 631.7,526.7 640.3,537.7 651,528.9 661.8,537.7 670.3,526.7 682.7,533.1 688.8,520.5 702.3,523.9 705,510.3 718.9,510 717.9,496.1 731.2,492 726.6,478.9 738.5,471.8 731.3,459.9 741.7,450.7 732.6,440.2 741.7,428.6 731.2,418.4 738.5,405.7 726.5,397.3 731.4,383.5 718,377.6 719.9,363.1 705.6,360.3 704.1,345.7 689.5,346.3 684.9,332.4 670.7,336 663.3,323.3 651,330 638.8,323.4 "
                            id="polygon434"/>
				</g>
                    <path
                            class="st5"
                            d="m 743.9,448.6 c -2.4,-2.8 -4.9,-5.7 -7.3,-8.5 2.4,-3.1 4.9,-6.2 7.3,-9.3 1,-1.3 1.3,-3.1 0,-4.3 -2.9,-2.9 -5.9,-5.7 -8.8,-8.6 2,-3.5 4.1,-7.1 6.1,-10.6 0.9,-1.5 0.3,-3.2 -1.1,-4.2 -3.3,-2.3 -6.6,-4.6 -9.9,-6.9 1.4,-3.9 2.8,-7.9 4.2,-11.8 0.4,-1.1 -0.2,-3 -1.4,-3.5 -1.9,-0.8 -3.9,-1.7 -5.8,-2.5 -1.2,-0.5 -4.1,-2.1 -5.7,-2.6 0.3,-1.6 0.4,-4.6 0.5,-5.3 0.3,-2.4 0.6,-4.8 0.9,-7.3 0.2,-1.2 -1.1,-2.7 -2.3,-3 -4.1,-0.8 -8.3,-1.6 -12.4,-2.4 -0.4,-4 -0.8,-8 -1.2,-12 -0.2,-1.6 -1.3,-3.1 -3.1,-3.1 -4.1,0.2 -8.3,0.3 -12.4,0.5 -1.3,-3.9 -2.6,-7.7 -3.8,-11.6 -0.5,-1.6 -2.1,-2.6 -3.8,-2.1 -4,1 -7.9,2 -11.9,3 -2.1,-3.5 -4.1,-7.1 -6.2,-10.6 -0.9,-1.5 -2.7,-1.9 -4.2,-1.1 -3.6,1.9 -7.1,3.9 -10.7,5.8 -3.6,-1.9 -7.1,-3.9 -10.7,-5.8 -1.5,-0.8 -3.3,-0.4 -4.2,1.1 -2.1,3.5 -4.1,7.1 -6.2,10.6 -4,-1 -7.9,-2 -11.9,-3 -1.7,-0.4 -3.2,0.5 -3.8,2.1 -1.3,3.9 -2.6,7.7 -3.8,11.6 -4.1,-0.2 -8.3,-0.3 -12.4,-0.5 -1.8,-0.1 -2.9,1.5 -3.1,3.1 -0.4,4 -0.8,8 -1.2,12 -4.1,0.8 -8.3,1.6 -12.4,2.4 -1.2,0.2 -2.4,1.7 -2.3,3 0.3,2.1 0.5,4.2 0.8,6.3 0.2,1.2 0.3,4.6 0.7,6.2 -1.5,0.5 -4.1,2 -4.8,2.3 -2.2,1 -4.5,2 -6.7,2.9 -1.2,0.5 -1.8,2.3 -1.4,3.5 1.4,3.9 2.8,7.9 4.2,11.8 -3.3,2.3 -6.6,4.6 -9.9,6.9 -1.4,1 -2,2.7 -1.1,4.2 2,3.5 4.1,7.1 6.1,10.6 -2.9,2.9 -5.9,5.7 -8.8,8.6 -1.3,1.3 -1,3.1 0,4.3 2.4,3.1 4.9,6.2 7.3,9.3 -2.4,2.8 -4.9,5.7 -7.3,8.5 -1,1.2 -1.3,3.2 0,4.3 2.9,2.5 5.8,5.1 8.7,7.6 -2,3.2 -4,6.5 -6,9.7 -0.9,1.4 -0.3,3.4 1.1,4.2 3.3,1.9 6.5,3.9 9.8,5.8 -1.3,3.7 -2.6,7.3 -3.8,11 -0.6,1.6 0.6,3.3 2.1,3.8 3.6,1.1 7.2,2.2 10.9,3.3 -0.3,3.9 -0.6,7.8 -0.9,11.6 -0.1,1.7 1.5,3 3.1,3.1 3.8,0.1 7.6,0.2 11.4,0.2 0.8,3.8 1.5,7.6 2.3,11.4 0.3,1.7 2.3,2.5 3.8,2.1 3.7,-0.9 7.3,-1.8 11,-2.7 1.7,3.5 3.4,7 5.1,10.5 0.7,1.6 2.8,1.8 4.2,1.1 3.3,-1.7 6.7,-3.4 10,-5.1 2.4,3.1 4.8,6.2 7.2,9.3 1.1,1.4 3.2,0.9 4.3,0 2.9,-2.3 5.7,-4.7 8.6,-7 2.9,2.3 5.7,4.7 8.6,7 1.2,0.9 3.2,1.4 4.3,0 2.4,-3.1 4.8,-6.2 7.2,-9.3 3.3,1.7 6.7,3.4 10,5.1 1.4,0.7 3.5,0.5 4.2,-1.1 1.7,-3.5 3.4,-7 5.1,-10.5 3.7,0.9 7.3,1.8 11,2.7 1.5,0.4 3.4,-0.5 3.8,-2.1 0.8,-3.8 1.5,-7.6 2.3,-11.4 3.8,-0.1 7.6,-0.2 11.4,-0.3 1.6,0 3.2,-1.4 3.1,-3.1 -0.3,-3.9 -0.6,-7.8 -0.9,-11.6 3.6,-1.1 7.2,-2.2 10.9,-3.3 1.5,-0.5 2.7,-2.2 2.1,-3.8 -1.3,-3.7 -2.6,-7.3 -3.8,-11 3.3,-1.9 6.5,-3.9 9.8,-5.8 1.4,-0.8 2,-2.8 1.1,-4.2 -2,-3.2 -4,-6.5 -6,-9.7 2.9,-2.5 5.8,-5.1 8.7,-7.6 1.4,-1 1.1,-3 0.1,-4.2 z m -41.8,60.9 c -0.7,3.6 -1.4,7.1 -2.2,10.7 -3.4,-0.9 -6.9,-1.7 -10.3,-2.6 -1.2,-0.3 -2.9,0.2 -3.5,1.4 -1.6,3.3 -3.2,6.6 -4.8,9.9 -3.1,-1.6 -6.3,-3.2 -9.4,-4.8 -1.1,-0.6 -2.9,-0.6 -3.7,0.5 -2.3,2.9 -4.6,5.9 -6.9,8.8 -2.7,-2.2 -5.4,-4.4 -8.1,-6.6 -1.4,-1.1 -3,-1.1 -4.3,0 -2.7,2.2 -5.4,4.4 -8.1,6.6 -2.3,-2.9 -4.6,-5.9 -6.8,-8.8 -0.9,-1.1 -2.6,-1 -3.7,-0.5 -3.2,1.6 -6.3,3.2 -9.5,4.8 -1.6,-3.3 -3.2,-6.6 -4.8,-9.9 -0.6,-1.2 -2.2,-1.7 -3.5,-1.4 -3.4,0.9 -6.9,1.7 -10.3,2.6 -0.7,-3.6 -1.4,-7.1 -2.2,-10.7 -0.3,-1.3 -1.7,-2.2 -3,-2.3 -3.5,-0.1 -7.1,-0.2 -10.6,-0.2 0.3,-3.6 0.6,-7.2 0.8,-10.9 0.1,-1.4 -1,-2.6 -2.3,-3 -3.4,-1 -6.8,-2.1 -10.2,-3.1 1.2,-3.4 2.4,-6.9 3.6,-10.3 0.4,-1.3 -0.3,-2.8 -1.4,-3.5 -3.1,-1.8 -6.2,-3.7 -9.3,-5.5 1.9,-3.1 3.8,-6.2 5.7,-9.3 0.7,-1.1 0.5,-2.8 -0.5,-3.7 -2.8,-2.4 -5.6,-4.9 -8.3,-7.3 2.3,-2.7 4.6,-5.4 7,-8.1 1.2,-1.4 1.1,-3 0,-4.3 -2.4,-3 -4.8,-6 -7.1,-9.1 2.9,-2.8 5.7,-5.6 8.6,-8.3 1,-1 1.2,-2.6 0.5,-3.7 -2,-3.4 -3.9,-6.8 -5.9,-10.3 3.2,-2.2 6.3,-4.4 9.5,-6.6 1.1,-0.7 1.9,-2.1 1.4,-3.5 -1.3,-3.8 -2.7,-7.6 -4,-11.3 3.7,-1.6 7.4,-3.3 11.1,-4.9 0.9,-0.4 1.6,-1.7 1.5,-2.7 -0.5,-4 -1,-8 -1.6,-12.1 3.9,-0.8 7.9,-1.5 11.8,-2.3 1.4,-0.3 2.1,-1.7 2.3,-3 0.4,-3.8 0.8,-7.6 1.1,-11.4 4,0.1 7.9,0.3 11.9,0.4 1.4,0.1 2.5,-1 3,-2.3 1.2,-3.7 2.4,-7.4 3.7,-11 3.8,1 7.6,1.9 11.4,2.9 1.3,0.3 2.8,-0.2 3.5,-1.4 2,-3.4 3.9,-6.7 5.9,-10.1 3.2,1.7 6.4,3.5 9.6,5.2 0.5,0.3 1,0.4 1.5,0.4 0.5,0 1,-0.1 1.6,-0.4 3.2,-1.7 6.4,-3.5 9.6,-5.2 2,3.4 3.9,6.7 5.9,10.1 0.7,1.2 2.2,1.7 3.5,1.4 3.8,-1 7.6,-1.9 11.4,-2.9 1.2,3.7 2.4,7.4 3.7,11 0.4,1.3 1.6,2.3 3,2.3 4,-0.1 7.9,-0.3 11.9,-0.4 0.4,3.8 0.8,7.6 1.1,11.4 0.1,1.3 0.9,2.7 2.3,3 3.9,0.8 7.9,1.5 11.8,2.3 -0.5,4 -1,8 -1.6,12.1 -0.1,0.9 0.7,2.3 1.5,2.7 3.7,1.6 7.4,3.3 11.1,4.9 -1.3,3.8 -2.7,7.6 -4,11.3 -0.5,1.4 0.3,2.7 1.4,3.5 3.2,2.2 6.3,4.4 9.5,6.6 -2,3.4 -3.9,6.8 -5.9,10.3 -0.7,1.2 -0.5,2.8 0.5,3.7 2.9,2.8 5.7,5.6 8.6,8.4 -2.4,3 -4.8,6.1 -7.1,9.1 -1.1,1.4 -1.2,3 0,4.3 2.3,2.7 4.6,5.4 6.9,8.1 -2.8,2.4 -5.6,4.9 -8.3,7.3 -1,0.9 -1.2,2.6 -0.5,3.7 1.9,3.1 3.8,6.2 5.7,9.3 -3.1,1.8 -6.2,3.7 -9.3,5.5 -1.1,0.7 -1.9,2.2 -1.4,3.5 1.2,3.4 2.4,6.9 3.6,10.3 -3.4,1 -6.8,2.1 -10.2,3.1 -1.2,0.4 -2.4,1.6 -2.3,3 0.3,3.6 0.6,7.2 0.8,10.9 -3.5,0.1 -7.1,0.2 -10.6,0.2 -1.6,-0.1 -3.1,0.8 -3.3,2.2 z"
                            id="path438"/>
                    <path
                            class="st5"
                            d="m 692.4,450.7 c 2.4,-2.7 4.8,-5.4 7.3,-8 0.9,-1 1.4,-2.6 0.5,-3.7 -1.3,-1.7 -2.6,-3.4 -3.9,-5.1 -0.7,-0.9 -2.6,-3.9 -3.9,-5.1 1,-1.3 2.4,-3.8 2.9,-4.5 1.4,-2 2.8,-4.1 4.2,-6.1 0.9,-1.3 0.4,-2.7 -0.5,-3.7 -2.8,-3.1 -5.6,-6.2 -8.3,-9.3 2.1,-3.6 4.1,-7.2 6.2,-10.8 0.7,-1.2 0.6,-2.7 -0.5,-3.7 -1.6,-1.5 -3.2,-3 -4.8,-4.4 -1.1,-1 -3.3,-3.5 -4.6,-4.5 0.8,-1.5 1.8,-4.4 2.1,-5 1,-2.2 1.9,-4.5 2.9,-6.7 0.4,-0.9 0,-2.4 -0.9,-3 -1.8,-1.3 -3.6,-2.5 -5.4,-3.8 -0.9,-0.6 -3.8,-3 -5.5,-3.9 0.4,-1.4 0.7,-4.2 0.9,-5.2 0.5,-2.3 1.1,-4.7 1.6,-7 0.3,-1.2 -0.2,-2.9 -1.6,-3.5 -2,-0.9 -4.1,-1.8 -6.1,-2.7 -1.3,-0.6 -4,-2.2 -5.5,-2.4 -0.2,0 -0.5,-0.2 -0.8,-0.3 -0.1,-1.4 -0.7,-4.3 -0.8,-5.3 -0.3,-2.4 -0.5,-4.8 -0.8,-7.1 -0.2,-1.6 -1.4,-3.1 -3.4,-3.1 -4.6,0.1 -9.2,0.3 -13.8,0.4 -4.6,-0.1 -9.2,-0.3 -13.8,-0.4 -2,-0.1 -3.2,1.5 -3.4,3.1 -0.2,2.1 -0.4,4.1 -0.6,6.2 -0.1,1.4 -0.9,4.7 -0.8,6.2 -1.7,0.6 -4.9,2.1 -5.4,2.4 -2.4,1 -4.7,2.1 -7.1,3.1 -1.4,0.6 -1.8,2.2 -1.6,3.5 0.5,2 0.9,4 1.4,6.1 0.3,1.4 0.7,4.7 1.2,6.1 -1.6,0.9 -4.2,3 -4.7,3.3 -2.1,1.5 -4.1,2.9 -6.2,4.4 -0.8,0.6 -1.3,2.1 -0.9,3 0.8,1.9 1.7,3.8 2.5,5.8 0.4,1 1.6,4.3 2.5,5.8 -1.2,1 -3.1,3.3 -3.8,3.9 -1.8,1.7 -3.7,3.4 -5.5,5.1 -1.1,1 -1.2,2.5 -0.5,3.7 2.1,3.6 4.1,7.2 6.2,10.8 -2.8,3.1 -5.6,6.2 -8.3,9.3 -0.9,1 -1.4,2.5 -0.5,3.7 1.2,1.8 2.4,3.5 3.6,5.3 0.8,1.1 2.4,4 3.4,5.3 -1.2,1.3 -2.8,3.8 -3.3,4.4 -1.5,2 -3,3.9 -4.6,5.9 -0.9,1.2 -0.4,2.7 0.5,3.7 2.4,2.7 4.8,5.4 7.3,8 -2.4,3 -4.7,5.9 -7.1,8.9 -0.9,1.1 -0.4,2.8 0.5,3.7 2.7,2.6 5.3,5.2 8,7.7 -2.1,3.1 -4.1,6.1 -6.2,9.2 -0.7,1.1 -0.6,2.8 0.5,3.7 3,2.4 6.1,4.8 9.1,7.2 -1.6,3.2 -3.1,6.4 -4.7,9.5 -0.8,1.5 -0.5,3.3 1.2,4.2 3.4,1.9 6.7,3.8 10.1,5.7 -0.8,3.5 -1.6,7 -2.4,10.5 -0.4,1.6 0.5,3.3 2.4,3.8 2,0.5 3.9,0.9 5.9,1.4 0.9,0.2 4.1,1.2 5.9,1.4 0.2,1.3 1.2,3.7 1.5,4.6 0.6,2.1 1.2,4.2 1.7,6.3 0.6,2.1 3,2.6 5,1.8 1.8,-0.7 3.6,-1.4 5.5,-2.1 0.8,-0.3 4,-1.4 5.5,-2.1 1.2,0.6 3.9,1.4 4.8,1.7 2.1,0.8 4.3,1.7 6.4,2.5 1.9,0.7 4.4,0.3 5,-1.8 0.5,-1.8 1,-3.6 1.5,-5.4 0.2,-0.8 1.3,-3.8 1.5,-5.4 1.4,-0.2 4,-1.1 5,-1.3 2.3,-0.5 4.6,-1.1 6.9,-1.6 1.9,-0.4 2.7,-2.2 2.4,-3.8 -0.8,-3.5 -1.6,-7 -2.4,-10.5 3.4,-1.9 6.7,-3.8 10.1,-5.7 1.7,-0.9 2,-2.6 1.2,-4.2 -1.6,-3.2 -3.1,-6.4 -4.7,-9.5 3,-2.4 6.1,-4.8 9.1,-7.2 1.1,-0.9 1.3,-2.6 0.5,-3.7 -2.1,-3.1 -4.1,-6.1 -6.2,-9.2 2.7,-2.6 5.3,-5.1 8,-7.7 0.9,-0.9 1.4,-2.6 0.5,-3.7 -2.4,-3.2 -4.7,-6.1 -7.1,-9.1 z m -27.1,71.4 c -1.1,0.3 -2.1,1.1 -2.4,2.1 -0.8,3 -1.6,6 -2.5,9 -3.5,-1.7 -7.4,-3.6 -10.6,-3.6 -3.2,0 -7.1,1.9 -10.6,3.6 -0.8,-3 -1.6,-6 -2.5,-9 -0.3,-1 -1.2,-1.9 -2.4,-2.1 -3.6,-0.8 -7.2,-1.7 -10.8,-2.5 0.7,-3.2 1.5,-6.5 2.2,-9.7 0.3,-1.4 -0.2,-2.7 -1.6,-3.5 -3.2,-1.8 -6.4,-3.6 -9.6,-5.4 1.5,-3.1 3,-6.1 4.5,-9.2 0.6,-1.2 0.7,-2.8 -0.5,-3.7 -3,-2.3 -5.9,-4.7 -8.9,-7 2,-3 4,-6 6,-9 0.8,-1.2 0.5,-2.7 -0.5,-3.7 -2.6,-2.5 -5.2,-5.1 -7.9,-7.6 2.3,-2.9 4.7,-5.8 7,-8.7 0.9,-1.2 0.4,-2.7 -0.5,-3.7 -2.4,-2.7 -4.8,-5.4 -7.3,-8 2.6,-3.3 5.2,-6.7 7.8,-10 0.7,-0.9 0.6,-2.2 0,-3.1 -2.4,-3.5 -4.8,-6.9 -7.2,-10.4 2.7,-3.1 5.5,-6.1 8.2,-9.2 1,-1.1 1.3,-2.4 0.5,-3.7 -2,-3.5 -4.1,-7.1 -6.1,-10.6 3.1,-2.9 6.2,-5.8 9.3,-8.6 0.8,-0.7 1.3,-2 0.9,-3 -0.8,-1.9 -1.7,-3.8 -2.5,-5.8 -0.5,-1.2 -1.5,-4.3 -2.3,-5.7 1.5,-0.9 3.7,-2.9 4.4,-3.3 2.1,-1.5 4.1,-2.9 6.2,-4.4 1,-0.7 1.1,-2 0.9,-3 -0.9,-3.8 -1.8,-7.6 -2.6,-11.4 4.5,-1.6 11.1,-3.4 13.3,-6.5 2,-2.8 1.8,-8.4 1.8,-12.7 3.5,0.1 7,0.2 10.6,0.3 3.5,-0.1 7,-0.2 10.5,-0.3 0,4.3 -0.2,9.9 1.8,12.7 2.2,3 8.8,4.9 13.3,6.5 -0.9,3.8 -1.8,7.6 -2.6,11.4 -0.2,1 -0.1,2.3 0.9,3 1.8,1.3 3.6,2.5 5.4,3.8 1.1,0.8 3.6,3 5.2,3.9 -0.8,1.4 -1.6,4.1 -1.9,4.9 -1,2.2 -1.9,4.5 -2.9,6.7 -0.4,1 0.1,2.3 0.9,3 3.1,2.9 6.2,5.8 9.3,8.6 -2,3.5 -4.1,7.1 -6.1,10.6 -0.8,1.3 -0.5,2.6 0.5,3.7 2.7,3.1 5.5,6.1 8.2,9.2 -2.4,3.5 -4.8,6.9 -7.2,10.4 -0.6,0.9 -0.7,2.2 0,3.1 2.6,3.3 5.2,6.7 7.8,10 -2.4,2.7 -4.8,5.4 -7.3,8.1 -0.9,1 -1.5,2.6 -0.5,3.7 2.3,2.9 4.7,5.8 7,8.8 -2.6,2.5 -5.2,5.1 -7.9,7.6 -1,1 -1.3,2.5 -0.5,3.7 2,3 4,6 6,9 -3,2.3 -5.9,4.7 -8.9,7 -1.2,1 -1.1,2.5 -0.5,3.7 1.5,3.1 3,6.1 4.5,9.2 -3.2,1.8 -6.4,3.6 -9.6,5.4 -1.3,0.8 -1.9,2.1 -1.6,3.5 0.7,3.2 1.5,6.5 2.2,9.7 -3.1,0.6 -6.7,1.4 -10.3,2.2 z"
                            id="path440"/>
			</g>
		</g>
	</g>
</g>
</svg>
