<svg class="img-fluid" id="outputsvg" xmlns="http://www.w3.org/2000/svg" style="transform: none; transform-origin: 50% 50%; cursor: move;" width="2000" height="2000" viewBox="0 0 20000 20000"><g id="l30BAid0koMevepK3j4vnT2" fill="rgb(207,209,60)" style="transform: none;"><g><path id="pBQIZDkkB" d="M7135 17411 c-101 -8 -150 -23 -257 -77 -71 -37 -266 -231 -299 -299 l-24 -50 -7 -3645 c-3 -2005 -11 -4257 -17 -5005 -6 -748 -11 -1858 -11 -2467 0 -978 2 -1108 15 -1108 8 0 15 7 15 15 0 13 368 15 3250 15 2882 0 3250 -2 3250 -15 0 -8 6 -15 14 -15 11 0 14 187 20 1143 13 2110 26 4121 37 5692 7 858 12 2399 13 3425 l1 1865 -28 75 c-29 77 -85 177 -121 219 -41 47 -170 134 -250 170 l-81 36 -1215 2 c-668 1 -1674 6 -2235 12 -1732 18 -1967 20 -2070 12z m669 -884 c70 -32 148 -105 175 -162 l21 -45 0 -3810 0 -3809 -21 -58 c-25 -68 -116 -163 -195 -203 -67 -34 -160 -34 -226 -2 -74 37 -143 105 -179 177 l-31 63 8 2861 c4 1574 11 2861 15 2861 5 0 9 18 9 40 0 22 -4 40 -10 40 -7 0 -10 308 -10 905 0 796 2 906 15 911 9 4 15 19 15 35 0 17 6 32 15 35 8 4 15 16 15 28 0 24 64 96 86 96 8 0 14 4 14 9 0 4 26 20 58 35 70 33 143 31 226 -7z m3689 -5556 c72 -28 134 -117 122 -178 -8 -44 -62 -104 -116 -128 -41 -19 -41 -19 -86 5 -52 28 -90 73 -104 125 -15 52 19 118 79 156 49 31 67 34 105 20z m-1532 -830 c83 -52 139 -144 139 -230 0 -86 -105 -207 -206 -237 -50 -14 -58 -14 -105 1 -97 33 -189 129 -204 214 -14 81 43 191 129 249 44 29 55 32 125 32 68 0 83 -4 122 -29z m1482 -764 c49 -52 45 -85 -14 -140 -33 -32 -45 -38 -67 -33 -36 9 -102 82 -102 113 0 54 77 119 125 107 11 -3 37 -24 58 -47z m-1936 -1212 c128 -58 191 -129 228 -257 14 -49 15 -67 5 -114 -22 -105 -112 -224 -207 -272 -134 -69 -225 -60 -349 34 -120 91 -183 220 -163 331 20 106 83 195 176 250 118 69 204 77 310 28z m2259 -901 c63 -21 85 -42 124 -116 39 -73 38 -124 -7 -196 -55 -90 -184 -138 -262 -98 -44 23 -109 83 -127 117 -18 36 -18 130 0 173 21 50 76 99 131 118 65 21 82 21 141 2z m-1553 -1288 c42 -18 92 -71 112 -119 15 -35 14 -41 -3 -80 -24 -51 -78 -104 -118 -116 -45 -13 -100 10 -153 63 -41 41 -45 49 -45 95 0 59 29 107 88 145 45 29 72 32 119 12z"></path></g></g><g id="lZCE918q0nssdPv7RPHO4G" fill="rgb(216,224,226)" style="transform: none;"><g><path id="pzPDJT0UK" d="M7200 17991 c-623 -6 -679 -7 -725 -24 -80 -30 -168 -74 -192 -96 -12 -12 -26 -21 -31 -21 -5 0 -41 -31 -79 -68 -76 -74 -111 -136 -144 -257 -22 -78 -22 -119 -34 -2615 -3 -657 -12 -2194 -20 -3415 -20 -3071 -29 -6880 -20 -8037 l7 -968 294 0 294 0 0 2228 c0 1225 5 2839 11 3587 6 748 14 3000 17 5005 l7 3645 24 50 c16 32 66 91 135 161 97 98 122 117 196 152 47 22 105 46 130 53 60 17 501 17 2055 0 671 -7 1733 -14 2360 -15 l1140 -1 81 -36 c80 -36 209 -123 250 -170 36 -42 92 -142 121 -219 l28 -75 -1 -1800 c0 -990 -6 -2538 -13 -3440 -6 -902 -16 -2238 -21 -2970 -6 -731 -13 -2418 -17 -3747 l-6 -2418 280 0 280 0 6 1528 c4 840 11 2234 16 3097 18 2922 21 3704 27 6975 l6 3265 -22 114 c-55 279 -204 452 -413 481 -110 15 -276 19 -1252 29 -2148 22 -3847 30 -4775 22z"></path></g></g><g id="l3LUxWtk1XWbSrid4kFBwct" fill="rgb(225,223,135)" style="transform: none;"><g><path id="pgHFNhWqc" d="M7550 16565 c-30 -14 -57 -30 -60 -34 -3 -5 -14 -11 -25 -15 -25 -9 -101 -99 -87 -104 6 -2 2 -12 -9 -23 -12 -12 -18 -27 -14 -38 3 -12 0 -21 -10 -25 -13 -5 -15 -110 -15 -940 0 -738 3 -935 13 -939 9 -4 9 -8 1 -14 -8 -6 -13 -787 -18 -2898 l-8 -2890 32 -62 c75 -148 233 -229 386 -197 113 23 235 125 273 227 l21 58 0 3839 0 3840 -21 45 c-27 58 -106 130 -177 163 -44 20 -77 27 -142 29 -75 4 -91 1 -140 -22z"></path><path id="p11p8Atssg" d="M11422 11009 c-54 -11 -108 -54 -132 -104 -28 -57 -23 -136 11 -191 32 -52 102 -94 156 -94 119 0 221 125 192 234 -28 104 -132 175 -227 155z"></path><path id="p5vdhSmsy" d="M9768 10201 c-60 -9 -124 -53 -165 -115 -86 -127 -66 -282 49 -380 117 -101 268 -99 382 5 71 65 96 116 96 200 0 117 -51 210 -143 263 -47 27 -141 38 -219 27z"></path><path id="pTbpw1869" d="M11304 9446 c-32 -14 -66 -55 -78 -93 -12 -38 5 -91 43 -134 33 -38 42 -42 93 -47 52 -4 58 -2 95 32 43 38 65 94 56 139 -3 15 -22 46 -42 68 -32 36 -43 42 -86 45 -30 3 -63 -1 -81 -10z"></path><path id="pef2Q2FdK" d="M9265 8213 c-160 -58 -249 -158 -276 -311 -30 -171 81 -356 260 -434 165 -71 374 10 477 185 68 116 69 240 3 375 -35 71 -94 123 -194 168 -78 36 -196 43 -270 17z"></path><path id="p36QVX8KX" d="M11595 7292 c-55 -19 -110 -68 -131 -118 -19 -45 -19 -196 0 -233 17 -33 83 -94 123 -114 15 -8 52 -17 80 -20 153 -17 284 98 286 251 0 47 -6 70 -32 119 -40 75 -62 96 -125 117 -61 20 -136 19 -201 -2z"></path><path id="p16jUPlAQA" d="M10116 6020 c-42 -13 -90 -49 -117 -88 -20 -30 -24 -47 -24 -114 l0 -79 51 -49 c58 -55 114 -75 182 -65 80 12 162 111 162 195 0 77 -68 166 -149 195 -48 17 -63 17 -105 5z"></path></g></g></svg>