<svg class="img-fluid" id="outputsvg" xmlns="http://www.w3.org/2000/svg" style="transform: matrix(1, 0, 0, 1, 0, 0); transform-origin: 50% 50%; cursor: move; transition: transform 200ms ease-in-out 0s;" width="667" height="667" viewBox="0 0 6670 6670"><g id="luVTDPqqvjDt2dkQlWS1gt" fill="rgb(132,187,61)" style="transform: none; transform-origin: 50% 50%;"><g style="transform: none;"><path id="pF9GpcVD9" d="M3380 5643 c-36 -30 -79 -68 -97 -83 -36 -31 -29 -34 -178 64 -38 25 -77 46 -86 46 -20 0 -78 -62 -142 -152 -55 -76 -33 -76 -191 -4 -43 20 -84 36 -91 36 -14 0 -45 -46 -115 -171 -42 -77 -42 -77 -104 -74 -33 2 -91 7 -129 10 -77 8 -62 25 -127 -152 -51 -139 -49 -137 -177 -143 -108 -5 -108 -5 -111 -131 -2 -117 -4 -128 -26 -148 -24 -23 -134 -65 -196 -76 -19 -3 -39 -10 -44 -15 -5 -5 9 -61 32 -130 40 -121 40 -121 -64 -208 -92 -78 -104 -91 -104 -120 0 -36 19 -79 80 -174 39 -62 39 -62 13 -96 -57 -76 -113 -168 -113 -189 0 -12 35 -62 83 -120 97 -113 96 -106 20 -228 -23 -38 -43 -79 -43 -91 0 -12 14 -31 34 -45 18 -13 64 -52 101 -86 68 -63 68 -63 26 -179 -23 -65 -40 -118 -39 -119 11 -11 231 -154 240 -157 8 -3 0 -45 -25 -132 -21 -70 -37 -132 -37 -137 0 -5 9 -9 19 -9 11 0 77 -21 147 -47 127 -46 127 -46 121 -170 -6 -123 -6 -123 91 -123 53 0 120 -3 147 -6 51 -6 51 -6 64 -63 7 -31 21 -81 31 -111 10 -30 23 -74 29 -97 14 -51 13 -50 142 -23 124 26 135 26 152 -7 27 -52 87 -155 107 -184 21 -28 21 -28 73 -8 29 11 87 40 129 64 77 43 77 43 94 17 23 -35 144 -161 167 -173 21 -12 47 5 154 98 40 35 76 63 81 63 8 0 17 -7 151 -118 41 -34 78 -62 81 -61 3 0 27 27 54 59 28 32 54 58 59 57 5 -1 25 21 44 48 19 28 41 49 48 47 38 -8 105 -45 105 -57 0 -8 9 -15 20 -15 11 0 20 7 20 15 0 19 4 19 45 -1 19 -9 42 -14 51 -12 18 3 62 97 100 211 19 56 12 55 159 22 96 -21 126 -20 132 5 3 11 11 20 18 20 7 0 15 10 19 22 9 36 7 48 -9 48 -12 0 -15 15 -15 74 0 110 4 112 218 146 52 9 75 17 79 29 4 9 11 19 17 23 16 11 13 83 -5 101 -15 15 -34 150 -24 167 3 4 46 17 97 29 129 31 162 48 166 88 2 19 -7 51 -21 80 -14 26 -32 65 -40 85 -16 37 -16 37 26 79 23 23 66 58 95 77 47 32 52 38 52 72 0 26 -17 67 -56 139 -66 120 -67 115 25 214 53 56 61 70 61 104 0 35 -5 43 -47 75 -27 20 -63 52 -82 72 -39 40 -40 36 31 178 27 55 38 90 38 123 0 41 -5 51 -70 125 -39 44 -80 84 -90 90 -38 20 -42 45 -20 119 11 37 20 89 20 114 0 43 -2 47 -42 70 -24 14 -64 45 -90 69 -46 44 -46 44 -37 96 6 29 9 78 7 109 -3 56 -3 56 -43 68 -22 7 -71 29 -110 49 -70 36 -70 36 -70 168 0 150 17 135 -175 159 -48 5 -92 17 -101 25 -15 14 -30 54 -71 194 -9 31 -19 46 -33 49 -11 2 -69 -2 -128 -9 -102 -12 -109 -12 -122 6 -8 11 -17 30 -20 43 -4 14 -15 38 -27 53 -11 16 -32 52 -48 81 -15 29 -35 53 -44 55 -9 2 -67 -23 -130 -56 -114 -59 -114 -59 -202 29 -66 67 -95 89 -114 88 -15 0 -50 -22 -90 -56z"></path><path id="pQTgfOAtk" d="M4940 4655 c0 -40 24 -49 34 -12 10 37 7 47 -14 47 -16 0 -20 -7 -20 -35z"></path></g></g><g id="lsUwoScXz9eHbSYjkrMi8M" fill="rgb(98,146,25)" style="transform: none; transform-origin: 50% 50%;"><g style="transform: none;"><path id="p18b5OgZ4K" d="M3444 5698 c-11 -11 -53 -48 -94 -81 -41 -33 -80 -66 -86 -73 -8 -10 -34 3 -120 57 -60 38 -116 69 -124 69 -21 0 -75 -57 -139 -147 -51 -71 -51 -71 -172 -17 -67 31 -122 54 -123 52 -19 -28 -65 -106 -67 -114 -2 -5 -22 -40 -43 -76 -37 -62 -41 -66 -64 -57 -14 6 -76 13 -137 16 -112 6 -112 6 -119 -33 -4 -21 -21 -81 -38 -132 -23 -68 -38 -96 -52 -102 -12 -4 -68 -13 -126 -20 -58 -6 -106 -13 -108 -14 -1 -2 -7 -62 -14 -135 -12 -133 -12 -133 -67 -160 -31 -15 -86 -40 -123 -56 -38 -15 -68 -31 -68 -34 0 -3 17 -57 37 -119 42 -128 54 -102 -119 -257 -68 -61 -68 -61 -33 -133 19 -40 48 -93 65 -117 31 -45 31 -45 -11 -117 -23 -40 -56 -93 -72 -117 -36 -52 -39 -45 73 -176 78 -90 78 -90 46 -155 -18 -36 -45 -84 -59 -107 -15 -24 -27 -47 -27 -52 0 -5 17 -22 38 -38 21 -15 69 -56 107 -90 68 -63 68 -63 26 -179 -23 -65 -40 -118 -39 -119 11 -11 231 -154 240 -157 10 -4 -12 -90 -63 -257 -3 -8 11 -17 41 -25 25 -7 92 -30 149 -51 104 -38 104 -38 98 -162 -6 -123 -6 -123 91 -123 53 0 120 -3 147 -6 51 -6 51 -6 63 -60 19 -81 43 -156 48 -152 10 10 -40 194 -58 213 -17 18 -32 20 -146 20 -127 0 -127 0 -123 127 4 148 23 126 -164 183 -60 18 -111 38 -113 43 -2 6 13 62 32 124 20 63 36 119 36 125 0 7 -28 28 -62 49 -35 21 -76 47 -93 59 -16 11 -43 27 -59 35 -16 8 -30 19 -32 25 -2 5 16 60 41 120 45 110 45 110 -13 163 -31 29 -78 67 -104 85 -26 17 -48 35 -48 39 0 4 19 38 43 75 24 37 51 87 61 110 19 43 19 43 -19 90 -21 27 -63 74 -92 105 -29 31 -53 62 -53 68 0 6 34 56 75 110 41 54 75 104 75 111 0 7 -22 48 -49 93 -56 94 -81 141 -81 154 0 5 18 21 40 36 62 41 180 146 180 160 0 7 -18 54 -40 105 -22 50 -40 98 -40 106 0 8 37 26 101 46 56 18 114 43 130 56 28 24 28 25 31 151 3 127 3 127 93 129 50 2 100 5 111 8 27 6 55 58 104 190 20 55 41 99 46 98 5 0 57 -4 115 -8 106 -7 106 -7 143 46 21 29 54 84 72 123 19 39 38 71 42 71 4 -1 42 -17 85 -38 43 -20 95 -41 115 -46 33 -10 39 -8 65 17 16 15 56 64 89 109 69 94 54 93 173 12 117 -79 115 -79 177 -28 29 24 75 63 102 87 26 23 53 42 59 42 6 0 52 -40 103 -90 50 -49 96 -90 103 -90 6 0 61 27 123 60 61 33 115 57 119 53 4 -5 32 -53 61 -109 82 -156 68 -145 168 -133 47 6 103 11 125 12 39 2 40 1 53 -43 42 -142 56 -180 71 -194 9 -8 53 -20 101 -25 192 -24 175 -9 172 -158 -3 -130 -3 -130 70 -168 40 -21 91 -43 113 -50 39 -12 40 -14 39 -56 0 -24 -4 -72 -8 -107 -9 -62 -9 -62 40 -108 27 -25 68 -57 92 -71 23 -14 42 -32 42 -41 0 -10 -11 -53 -25 -97 -14 -44 -25 -87 -25 -96 0 -8 45 -62 100 -119 55 -57 103 -113 106 -124 3 -13 -16 -64 -51 -138 -30 -64 -55 -128 -55 -141 0 -18 18 -42 61 -81 34 -32 72 -64 85 -73 13 -8 24 -21 24 -27 0 -7 -20 -32 -45 -56 -25 -25 -62 -68 -81 -96 -36 -51 -36 -51 -6 -110 17 -33 46 -88 66 -122 20 -35 36 -67 36 -72 0 -4 -24 -23 -52 -42 -83 -55 -138 -115 -138 -150 0 -17 18 -68 39 -114 29 -60 36 -85 28 -92 -21 -16 -76 -34 -165 -56 -87 -21 -87 -21 -87 -81 1 -33 3 -103 5 -155 6 -106 26 -92 -188 -130 -95 -17 -102 -27 -103 -150 -1 -52 -4 -108 -8 -125 -6 -29 -9 -30 -51 -27 -25 2 -72 9 -105 17 -126 30 -114 38 -165 -112 -25 -73 -48 -135 -52 -139 -4 -3 -53 14 -110 39 -143 64 -152 65 -174 30 -32 -51 -156 -203 -165 -203 -5 0 -48 31 -97 69 -48 38 -89 67 -91 65 -3 -2 4 -11 15 -18 11 -8 55 -44 99 -80 44 -36 82 -66 85 -65 3 0 27 27 55 59 38 46 51 56 58 45 8 -15 37 -21 37 -7 1 15 73 84 79 74 3 -5 22 -12 41 -15 19 -3 46 -8 59 -13 21 -6 23 -5 19 14 -4 12 -3 20 0 18 38 -21 84 -37 98 -34 18 3 62 97 100 210 19 58 18 58 179 18 65 -17 125 -28 132 -26 7 3 13 20 13 37 0 38 39 271 46 279 3 3 56 7 117 8 62 2 118 8 124 14 9 8 13 52 13 159 0 145 1 149 21 149 27 0 197 57 227 76 28 19 29 56 1 130 -12 32 -27 79 -34 105 -13 48 -13 48 86 121 54 40 101 79 104 87 3 8 -17 51 -44 95 -27 45 -59 103 -71 130 -23 54 -31 38 105 191 19 22 35 47 35 56 0 8 -38 55 -85 102 -86 87 -86 87 -20 213 36 69 65 132 65 140 0 21 -105 153 -167 209 -55 50 -55 50 -24 151 40 130 38 136 -74 208 -47 31 -85 61 -85 68 0 7 7 58 15 112 16 114 11 131 -41 141 -20 3 -44 10 -53 15 -9 5 -46 23 -83 41 -77 36 -72 22 -58 174 4 50 4 96 0 104 -8 14 -165 54 -262 67 -51 7 -43 -9 -98 201 -6 23 -15 45 -20 48 -6 4 -56 -3 -113 -14 -208 -41 -186 -48 -242 74 -26 58 -57 113 -68 120 -19 13 -32 9 -143 -49 -122 -63 -122 -63 -211 26 -108 110 -115 114 -139 86z"></path><path id="pXjEGTOPE" d="M3750 5245 c0 -5 18 -35 40 -66 38 -55 40 -60 31 -101 -15 -64 3 -68 34 -8 27 53 27 53 -39 119 -36 36 -66 62 -66 56z"></path><path id="pdC9V2BcB" d="M3060 5209 c19 -16 59 -46 88 -65 52 -35 52 -35 52 -115 0 -43 4 -79 9 -79 9 0 31 128 31 180 0 33 -14 43 -125 85 -87 32 -98 31 -55 -6z"></path><path id="p1ADqsw2q8" d="M2478 4949 c-54 -76 -78 -121 -78 -146 0 -24 84 -108 99 -99 19 12 12 29 -25 67 -36 37 -36 39 -23 71 7 18 28 59 47 91 48 82 34 93 -20 16z"></path><path id="pLiOvae8C" d="M3896 4638 c4 -7 30 -41 56 -75 48 -62 48 -62 23 -137 -14 -41 -25 -82 -25 -90 0 -44 25 2 87 161 5 13 -123 153 -139 153 -5 0 -6 -6 -2 -12z"></path><path id="pVjSzxQE8" d="M4516 4308 c31 -40 70 -87 87 -105 30 -32 30 -32 3 -133 -26 -103 -26 -120 -1 -120 12 0 29 46 50 135 3 17 14 45 22 63 16 33 16 33 -23 74 -56 58 -173 158 -185 158 -5 0 16 -33 47 -72z"></path><path id="p5Nf7dqHw" d="M3160 4335 c0 -27 106 -183 166 -245 44 -46 44 -46 14 -135 -17 -49 -26 -93 -22 -97 13 -13 25 7 56 92 16 41 33 79 37 85 18 19 7 36 -83 132 -51 54 -107 115 -125 136 -31 35 -43 44 -43 32z"></path><path id="pPBdaasi6" d="M2223 3949 c-53 -85 -83 -144 -83 -166 0 -21 123 -147 133 -137 12 13 8 22 -39 79 -51 63 -51 53 3 184 18 46 32 88 30 94 -2 6 -21 -19 -44 -54z"></path><path id="pqgkGe3SJ" d="M4016 3704 c9 -21 33 -73 53 -114 70 -141 69 -127 12 -215 -47 -71 -54 -95 -31 -95 6 0 21 18 35 39 13 22 45 63 70 91 26 29 43 56 39 63 -32 54 -159 238 -174 252 -20 18 -20 18 -4 -21z"></path><path id="pxgknsK51" d="M3222 3273 c-17 -91 -31 -211 -34 -298 -3 -80 -3 -80 72 -117 88 -43 113 -49 117 -28 3 10 -21 28 -73 53 -77 38 -77 38 -70 215 3 97 9 189 12 205 4 15 2 27 -4 27 -5 0 -14 -26 -20 -57z"></path><path id="p10dRKg9ZJ" d="M2340 3315 c0 -2 -11 -73 -25 -157 -14 -84 -25 -155 -25 -159 0 -4 26 -22 58 -39 31 -18 72 -46 90 -62 37 -32 55 -32 60 -1 2 14 -17 38 -67 83 -71 62 -71 62 -71 201 0 86 -4 139 -10 139 -5 0 -10 -2 -10 -5z"></path><path id="pfBSgOfir" d="M4481 3200 c-1 -19 79 -162 118 -210 15 -19 30 -40 34 -47 4 -7 -12 -40 -38 -78 -25 -37 -45 -73 -45 -81 0 -24 29 -15 44 14 8 16 36 52 62 81 34 38 45 57 38 66 -5 7 -45 58 -89 112 -44 55 -90 113 -102 129 -14 18 -22 23 -22 14z"></path><path id="pPNzpqybh" d="M3971 2373 c70 -146 70 -146 34 -231 -23 -56 -32 -89 -26 -95 7 -7 16 1 28 22 10 18 37 60 60 94 40 59 41 62 28 94 -22 53 -170 263 -186 263 -4 0 23 -66 62 -147z"></path><path id="prOuyLFr4" d="M2674 2381 c-12 -39 -18 -74 -15 -78 12 -17 163 -104 170 -98 6 6 -36 46 -96 92 -28 20 -29 24 -25 87 2 36 0 66 -5 66 -5 0 -18 -31 -29 -69z"></path><path id="pz6ijtihk" d="M2570 1814 c-41 -9 -91 -16 -111 -17 -25 -1 -35 -6 -32 -14 7 -17 30 -16 158 11 110 24 110 24 126 -8 29 -57 86 -153 109 -184 23 -31 23 -31 74 -10 28 11 86 39 128 63 77 43 77 43 94 17 23 -35 144 -161 167 -173 21 -12 47 5 155 99 48 42 78 62 89 58 13 -5 14 -4 3 9 -7 8 -17 15 -22 15 -6 0 -55 -38 -111 -85 -55 -47 -103 -85 -107 -85 -3 0 -47 45 -96 100 -62 69 -96 99 -112 100 -12 0 -69 -27 -125 -60 -120 -71 -106 -77 -190 80 -50 91 -54 95 -87 97 -19 1 -69 -5 -110 -13z"></path></g></g><g id="l3BtYnG0Y7jYQjwmjE53FqP" fill="rgb(184,137,88)" style="transform: none; transform-origin: 50% 50%;"><g style="transform: none;"><path id="pgfSR2e38" d="M3902 1648 c-26 -31 -41 -57 -37 -66 3 -9 26 -97 50 -196 153 -628 191 -771 206 -790 43 -53 221 -1 279 80 14 19 31 41 38 49 17 19 16 24 -17 96 -55 124 -81 188 -80 196 4 23 -3 45 -20 62 -11 11 -35 59 -54 108 -19 48 -69 171 -111 271 -42 101 -76 190 -76 198 0 13 -16 18 -51 15 -9 -1 -19 5 -22 14 -4 8 -18 15 -34 15 -21 0 -38 -13 -71 -52z"></path></g></g><g id="l4loxrFwV3NXxNEpNu1E3Pe" fill="rgb(128,93,58)" style="transform: none; transform-origin: 50% 50%;"><g style="transform: none;"><path id="pr2Cqd2Lf" d="M4044 1655 c-6 -14 92 -260 323 -810 21 -49 31 -89 28 -103 -16 -64 -140 -152 -216 -152 -44 0 -52 9 -72 80 -18 63 -153 627 -192 805 -35 158 -34 154 -46 133 -5 -9 -6 -26 -1 -40 5 -13 27 -99 50 -193 100 -407 173 -703 183 -738 8 -30 18 -42 44 -53 46 -19 64 -18 130 7 56 21 159 104 170 138 7 23 -46 174 -135 386 -23 55 -50 123 -60 150 -10 28 -35 88 -55 135 -20 47 -50 121 -67 165 -17 44 -35 86 -41 93 -13 16 -36 15 -43 -3z"></path></g></g></svg>