<svg class="img-fluid" id="outputsvg" xmlns="http://www.w3.org/2000/svg"
     style="transform: none; transform-origin: 50% 50%; cursor: move;" width="2000" height="2000"
     viewBox="0 0 20000 20000">
    <g id="l6dKe7GoD7lEZrWKrfpnx2v" fill="rgb(132,187,61)" style="transform: none;">
        <g>
            <path id="p9VivEElI"
                  d="M10314 17082 c-13 -14 -22 -28 -19 -32 3 -4 -2 -13 -10 -20 -8 -7 -15 -9 -15 -6 0 4 -13 -2 -30 -14 -16 -12 -30 -26 -30 -32 0 -15 -40 -63 -53 -63 -34 -1 -159 -95 -127 -95 8 0 -6 -17 -30 -37 -64 -56 -116 -93 -122 -88 -7 7 -89 -66 -83 -74 2 -5 -9 -20 -25 -36 -24 -23 -34 -26 -57 -19 l-28 8 35 5 35 6 -29 23 c-37 28 -44 28 -48 -3 l-3 -25 -65 40 c-36 22 -73 40 -82 40 -10 0 -18 6 -18 13 0 13 -97 77 -118 77 -7 0 -12 5 -12 10 0 6 14 10 30 10 39 0 38 10 -5 38 l-35 22 0 -25 c0 -25 -3 -23 -92 37 -51 35 -106 69 -123 77 -28 14 -29 15 -7 18 30 6 28 15 -7 36 -36 21 -41 21 -41 2 0 -10 -10 -15 -34 -15 -30 0 -35 4 -38 25 l-3 26 -35 -30 c-19 -17 -29 -30 -22 -31 10 0 9 -8 -5 -30 -9 -16 -21 -30 -24 -30 -4 0 -10 -10 -12 -22 -4 -20 -4 -19 -6 5 -1 25 -3 26 -22 15 -11 -7 -44 -44 -72 -83 -28 -38 -102 -136 -164 -218 -62 -81 -113 -150 -113 -152 0 -3 12 -5 28 -5 l27 -1 -41 -37 c-23 -20 -47 -47 -53 -59 -11 -22 -41 -32 -41 -14 0 5 -21 14 -47 20 -69 17 -183 62 -303 120 -88 43 -100 51 -72 51 46 0 40 16 -18 45 -60 31 -60 31 -60 2 0 -15 9 -28 23 -35 20 -10 19 -11 -8 -5 -16 3 -38 14 -48 24 -10 11 -26 19 -37 19 -10 0 -23 6 -27 14 -4 8 -17 16 -28 19 -15 4 -14 5 8 6 40 2 33 19 -15 41 -43 19 -43 19 -46 0 -2 -13 -11 -20 -27 -20 -18 0 -25 -7 -30 -30 -4 -16 -11 -30 -16 -30 -5 0 -9 -11 -9 -25 0 -14 -4 -25 -10 -25 -5 0 -10 5 -10 10 0 21 -20 9 -36 -22 -9 -18 -23 -38 -30 -46 -21 -20 -17 -32 10 -32 l25 0 -26 -57 c-14 -32 -29 -60 -33 -63 -5 -3 -18 -26 -29 -50 l-21 -45 0 33 c0 17 -4 32 -9 32 -5 0 -40 -54 -79 -120 -59 -101 -67 -120 -51 -120 25 0 25 0 -13 -61 -22 -35 -34 -47 -36 -36 -5 26 -22 20 -36 -13 -7 -17 -15 -27 -19 -23 -4 3 -7 1 -7 -5 0 -7 9 -12 21 -12 11 0 17 -4 14 -10 -8 -13 -136 -13 -262 0 -125 13 -387 41 -435 47 -33 5 -38 3 -38 -16 0 -31 -23 -111 -32 -111 -4 0 -8 -10 -8 -22 0 -28 -71 -232 -82 -236 -4 -2 -8 -12 -8 -22 0 -20 -20 -71 -31 -80 -3 -3 -9 -23 -12 -45 -4 -22 -11 -41 -17 -43 -5 -2 -10 -11 -10 -19 0 -17 -78 -165 -93 -174 -5 -4 -12 -21 -16 -39 -15 -76 -82 -89 -478 -90 l-223 0 0 -193 c0 -107 -3 -197 -8 -201 -4 -4 -8 -63 -9 -129 -1 -67 -3 -153 -5 -190 l-3 -69 -65 -58 c-54 -49 -83 -66 -175 -101 -60 -23 -128 -50 -150 -60 -23 -10 -54 -20 -70 -24 -17 -3 -99 -27 -183 -53 l-154 -47 7 -59 c3 -33 13 -65 20 -70 17 -13 35 -59 35 -88 0 -11 6 -26 14 -32 17 -14 46 -89 46 -121 0 -14 6 -25 13 -25 13 0 37 -53 37 -83 0 -9 9 -26 20 -37 11 -11 20 -33 20 -50 0 -16 5 -30 11 -30 5 0 16 -15 24 -34 26 -61 -10 -116 -155 -232 -47 -38 -98 -81 -115 -96 -60 -53 -221 -178 -245 -190 -14 -7 -46 -27 -72 -46 l-48 -34 0 31 0 31 -28 -17 c-46 -28 -112 -96 -112 -115 0 -30 32 -20 77 24 l43 42 0 -32 c0 -19 22 -77 55 -142 30 -60 55 -119 55 -130 0 -11 6 -20 14 -20 15 0 26 -21 26 -51 0 -10 7 -19 15 -19 8 0 15 -9 15 -20 0 -11 6 -20 13 -20 15 0 77 -105 77 -130 0 -11 9 -27 19 -37 11 -10 23 -31 27 -48 4 -16 17 -39 29 -50 11 -11 29 -40 38 -64 17 -42 16 -53 -13 -81 -3 -3 -37 -48 -75 -100 -38 -52 -72 -97 -75 -100 -3 -3 -14 -18 -24 -35 -21 -33 -23 -35 -64 -85 -51 -64 -127 -165 -147 -195 -10 -16 -25 -36 -32 -43 -7 -7 -13 -29 -13 -49 0 -29 10 -48 55 -98 30 -35 55 -69 55 -77 0 -8 11 -18 24 -24 30 -11 196 -197 196 -219 0 -8 6 -15 13 -15 18 0 67 -52 67 -72 0 -9 9 -18 20 -21 11 -3 25 -18 30 -34 6 -15 29 -47 52 -70 35 -35 40 -45 33 -70 -3 -15 -10 -30 -13 -33 -10 -7 -72 -134 -72 -146 0 -17 -162 -266 -230 -353 -46 -60 -60 -86 -60 -112 l-1 -34 -34 38 c-40 42 -50 45 -58 16 -4 -14 5 -32 30 -60 36 -39 73 -52 73 -24 0 8 6 15 14 15 25 0 46 -12 46 -26 0 -8 8 -14 19 -14 40 0 251 -166 251 -198 0 -7 7 -12 15 -12 22 0 75 -41 75 -57 0 -7 7 -13 15 -13 22 0 75 -41 75 -57 0 -7 8 -13 18 -13 9 -1 26 -15 37 -32 11 -17 29 -36 40 -42 11 -6 22 -12 24 -13 5 -3 -53 -148 -61 -151 -5 -2 -8 -11 -8 -19 0 -23 -34 -113 -42 -113 -5 0 -8 -11 -8 -25 0 -14 -4 -25 -10 -25 -5 0 -10 -6 -10 -12 0 -16 -52 -151 -61 -158 -3 -3 -16 -25 -27 -50 -19 -42 -20 -43 -21 -17 -1 18 -6 27 -13 25 -14 -5 -58 -112 -58 -140 0 -24 37 -24 43 0 3 9 5 -1 6 -22 1 -38 1 -39 -19 -21 -21 19 -50 14 -50 -8 0 -8 11 -26 25 -41 29 -32 75 -36 75 -7 0 11 -6 22 -12 24 -7 3 -3 6 9 6 30 1 93 -30 93 -46 0 -8 -12 -13 -30 -13 -16 0 -30 -3 -30 -7 0 -5 30 -27 65 -51 l65 -42 0 30 c0 27 -3 30 -30 30 -23 0 -30 4 -30 20 0 13 7 20 20 20 11 0 20 -7 20 -15 0 -9 9 -15 24 -15 35 0 56 -10 56 -26 0 -8 7 -14 15 -14 8 0 15 -4 15 -10 0 -5 7 -10 16 -10 22 0 163 -92 163 -107 1 -7 12 -13 26 -13 16 0 25 -6 25 -15 0 -8 9 -15 19 -15 30 0 51 -11 51 -26 0 -8 10 -14 26 -14 17 0 28 -6 31 -20 3 -11 12 -20 20 -20 14 0 26 -9 84 -63 14 -13 18 -25 13 -45 -4 -15 -10 -29 -14 -32 -4 -3 -10 -26 -14 -52 -4 -27 -11 -48 -17 -48 -5 0 -9 -12 -9 -26 0 -29 -19 -103 -31 -119 -4 -5 -12 -30 -19 -54 -6 -23 -13 -41 -15 -39 -3 2 0 20 5 39 14 49 13 89 -4 89 -9 0 -21 -27 -33 -73 l-20 -72 24 -3 c26 -4 26 -4 8 -52 l-13 -35 -1 33 c-1 52 -26 38 -44 -25 -9 -32 -19 -66 -22 -75 -6 -14 -2 -18 14 -18 16 0 21 -6 21 -25 0 -14 -4 -25 -10 -25 -5 0 -10 -11 -10 -25 0 -14 -4 -25 -10 -25 -16 0 -12 -80 5 -96 8 -8 37 -18 65 -21 27 -3 50 -10 50 -14 0 -5 14 -9 31 -9 16 0 58 -9 92 -20 34 -11 101 -31 150 -45 48 -14 87 -30 87 -35 0 -6 15 -10 34 -10 39 0 96 -18 96 -31 0 -5 12 -9 26 -9 37 0 134 -30 134 -41 0 -5 13 -9 30 -9 25 0 30 -4 34 -32 3 -18 8 -51 12 -73 4 -22 6 -60 6 -85 -1 -25 -4 -115 -7 -200 -4 -139 -21 -300 -24 -227 -1 33 -26 36 -35 5 -10 -38 -7 -48 15 -48 20 0 21 -3 14 -69 -7 -68 -6 -68 19 -75 14 -3 26 -13 26 -21 0 -16 12 -18 48 -8 17 4 22 11 18 26 -5 19 0 19 177 17 100 -1 221 2 270 5 61 5 87 4 87 -4 0 -7 25 -11 68 -10 79 1 144 -21 171 -60 10 -14 22 -51 25 -81 12 -91 49 -260 58 -260 4 0 8 -13 8 -30 0 -20 -5 -30 -15 -30 -16 0 -18 -12 -9 -47 7 -27 34 -31 35 -5 0 18 29 -64 29 -85 0 -7 -6 -13 -14 -13 -11 0 -8 -16 12 -75 15 -41 33 -75 40 -75 9 0 11 -10 7 -32 -7 -38 15 -120 38 -143 17 -17 72 -20 82 -5 3 6 23 10 43 10 20 0 114 16 207 36 94 19 226 44 295 55 69 11 140 23 158 26 20 3 32 1 32 -6 0 -6 7 -11 15 -11 8 0 15 -7 15 -15 0 -8 6 -15 14 -15 17 0 116 -179 116 -209 0 -12 6 -21 14 -21 15 0 126 -206 126 -234 0 -8 11 -26 25 -40 31 -31 34 -76 5 -76 -19 0 -19 -1 1 -35 27 -45 39 -44 40 3 l1 37 10 -47 c7 -31 16 -49 28 -53 10 -3 20 -14 22 -24 3 -20 -5 -22 164 39 75 27 286 141 292 158 2 7 -7 12 -24 12 l-29 0 39 26 c21 14 76 48 123 75 47 27 96 58 109 68 23 18 74 18 74 0 0 -5 9 -9 19 -9 22 0 51 -35 51 -63 0 -9 8 -20 18 -24 28 -10 112 -96 112 -115 0 -10 8 -21 18 -25 28 -10 102 -86 102 -105 0 -11 7 -18 18 -18 40 0 70 -65 35 -72 -14 -3 -1 -21 53 -75 55 -56 76 -71 92 -66 14 3 25 -2 34 -16 7 -12 20 -21 28 -22 11 0 10 -2 -3 -8 -17 -6 -17 -8 2 -25 19 -17 21 -17 50 0 31 19 40 34 20 34 -8 0 -7 5 2 16 12 15 14 15 19 0 4 -14 11 -12 40 13 29 25 31 30 16 31 -17 0 -16 4 10 31 28 29 29 29 34 9 5 -20 6 -20 40 9 34 30 35 30 10 31 -25 1 -25 1 10 32 34 31 34 31 40 9 5 -21 8 -20 58 25 42 38 50 49 37 54 -14 5 -14 8 4 24 19 17 21 17 21 3 0 -25 16 -21 52 13 l33 29 -25 1 c-23 1 -19 6 35 55 42 39 61 51 65 41 4 -11 20 -3 63 30 48 36 62 42 78 34 10 -6 19 -14 19 -18 0 -4 13 -16 30 -25 16 -10 30 -25 30 -33 0 -8 9 -14 20 -14 21 0 29 -20 8 -20 -7 -1 3 -14 22 -31 19 -16 36 -25 38 -19 2 5 8 10 14 10 17 0 78 -52 78 -66 0 -8 8 -14 18 -14 9 0 30 -9 46 -19 l29 -19 -28 -4 c-28 -3 -27 -4 36 -56 56 -46 65 -50 69 -33 5 18 11 15 65 -25 33 -25 61 -51 63 -59 2 -8 12 -15 22 -15 9 0 23 -7 30 -15 7 -8 20 -16 29 -16 9 -1 1 -4 -17 -8 l-33 -6 21 -22 c11 -13 31 -23 43 -22 22 0 79 59 57 59 -7 0 1 15 16 33 16 19 39 47 52 62 l22 29 0 -24 c1 -24 2 -24 31 10 28 33 28 35 10 40 -19 5 -19 5 0 29 19 23 19 23 19 2 0 -30 12 -26 38 14 18 28 19 35 7 35 -24 0 -23 4 34 70 l30 35 1 -29 c0 -21 4 -27 15 -22 8 3 15 1 15 -4 0 -6 9 -10 20 -10 16 0 20 7 20 35 0 33 -2 35 -36 35 l-36 0 24 28 c12 16 32 41 43 56 11 16 25 33 30 40 20 21 105 143 105 150 0 8 17 29 49 60 23 23 24 24 80 8 31 -8 61 -21 67 -28 6 -8 23 -14 38 -14 14 0 35 -9 46 -20 11 -11 28 -20 39 -20 26 0 91 -28 91 -40 0 -6 11 -10 26 -10 31 0 114 -37 114 -50 0 -6 -14 -10 -31 -10 -29 0 -30 -2 -27 -37 2 -31 7 -39 26 -41 15 -2 22 2 22 13 0 10 6 15 13 13 6 -3 37 -13 67 -23 30 -10 68 -26 85 -37 36 -22 65 -23 65 -4 0 11 14 16 47 18 47 3 47 3 69 58 13 30 23 47 24 37 0 -38 26 -9 46 54 17 51 18 65 8 67 -17 4 -17 5 2 50 9 20 20 53 24 72 l8 35 1 -33 c1 -41 20 -38 38 6 13 31 12 32 -13 32 -17 0 -24 4 -20 13 2 6 19 57 36 112 17 55 48 151 68 214 l37 113 95 -7 c57 -4 99 -12 105 -19 6 -7 34 -15 64 -18 29 -3 57 -11 61 -18 5 -9 42 -15 109 -18 56 -2 101 -9 101 -13 0 -5 22 -9 49 -9 27 0 51 -5 53 -10 2 -6 48 -13 104 -17 l100 -6 13 304 c20 483 23 515 52 545 31 34 71 54 106 54 31 1 112 21 130 33 7 4 36 10 65 13 29 3 62 10 73 14 11 5 48 12 83 15 150 13 188 17 197 25 6 4 30 10 54 14 24 4 71 14 104 23 l60 17 -7 96 c-4 52 -15 178 -26 280 -51 480 -52 492 -31 520 22 30 57 43 171 64 179 33 475 125 588 184 63 33 59 58 -37 250 -44 87 -85 178 -91 203 -7 24 -25 69 -41 99 -41 79 -40 132 6 185 19 22 35 44 35 49 0 22 200 192 340 289 177 123 170 116 170 162 0 27 -7 48 -20 63 -11 12 -20 25 -20 29 0 5 -11 25 -25 45 -14 20 -25 41 -25 46 0 5 -25 52 -55 103 -30 52 -95 175 -145 273 -78 152 -91 184 -86 212 4 18 10 34 14 36 4 2 23 23 42 48 47 60 64 80 165 195 33 37 80 89 105 115 141 146 150 157 150 193 0 32 -7 40 -95 106 -52 39 -99 71 -104 71 -5 0 -11 9 -14 20 -3 11 -14 20 -25 20 -11 0 -22 8 -25 20 -3 11 -16 24 -29 29 -28 11 -176 161 -212 216 -14 22 -26 51 -26 65 0 28 89 227 231 517 49 101 89 189 89 198 0 8 5 15 10 15 6 0 10 27 10 60 0 33 -4 60 -10 60 -5 0 -10 6 -10 13 0 7 -13 27 -30 45 -16 18 -30 36 -30 40 0 4 -16 22 -35 39 -19 18 -35 36 -35 40 0 4 -20 28 -44 53 -24 25 -94 99 -156 165 -66 71 -123 124 -141 130 -16 5 -29 15 -29 21 0 7 -10 21 -22 31 -25 20 -81 97 -91 125 -3 9 10 65 29 125 55 168 134 464 134 501 0 25 -5 35 -25 42 -13 5 -70 36 -124 70 -55 33 -107 60 -116 60 -8 0 -15 6 -15 13 0 6 -17 25 -38 41 -20 16 -47 42 -60 58 -13 15 -32 28 -42 28 -10 0 -20 9 -23 20 -3 11 -12 20 -21 20 -9 0 -16 6 -16 14 0 7 -19 32 -42 55 -29 30 -41 50 -40 69 1 29 32 231 57 372 9 47 18 117 21 155 l6 70 -128 40 c-71 21 -151 51 -179 66 -165 87 -246 127 -290 144 -27 10 -64 33 -82 50 -30 30 -31 35 -27 91 5 57 23 718 20 720 0 1 -50 6 -111 12 -60 5 -177 19 -260 31 -82 11 -206 27 -275 35 -146 17 -205 36 -226 77 -32 62 -124 364 -165 541 l-44 188 -45 0 c-25 0 -112 -11 -195 -25 -170 -28 -533 -68 -546 -59 -5 3 -17 22 -28 42 -10 20 -35 69 -55 107 -21 39 -54 102 -73 140 -19 39 -43 79 -53 90 -10 11 -26 44 -35 73 -10 29 -23 59 -30 66 -7 6 -15 22 -19 34 -4 12 -13 28 -19 35 -16 16 -67 119 -67 133 0 15 -35 54 -49 54 -6 0 -11 6 -11 14 0 20 -36 9 -58 -18 -20 -24 -77 -66 -90 -66 -4 0 -41 -20 -82 -45 -83 -49 -90 -52 -90 -30 0 19 -4 19 -40 0 -33 -17 -39 -35 -12 -35 9 0 -5 -11 -33 -24 -38 -17 -51 -20 -53 -9 -4 16 -7 16 -42 -2 -32 -16 -38 -31 -17 -38 6 -2 -25 -23 -70 -46 -46 -22 -83 -36 -83 -30 0 8 -4 8 -14 0 -12 -10 -35 8 -123 96 -107 107 -108 108 -111 77 l-3 -31 -54 56 c-53 55 -54 56 -29 61 l26 5 -26 28 c-29 32 -46 35 -46 8 0 -15 -7 -12 -38 18 -20 20 -61 58 -90 84 -28 26 -52 50 -52 53 0 3 -16 22 -36 43 -46 51 -103 60 -140 23z m-1414 -271 c0 -5 -4 -11 -8 -13 -5 -1 -21 -21 -36 -43 -16 -22 -26 -32 -22 -22 3 10 6 25 6 33 0 8 7 14 15 14 8 0 15 9 15 20 0 11 7 20 15 20 8 0 15 -4 15 -9z m1996 -181 c17 0 24 -6 24 -20 0 -11 -2 -20 -5 -20 -10 0 -105 92 -105 102 0 5 14 -7 31 -27 19 -22 40 -35 55 -35z m-2201 -88 c-18 -26 -43 -56 -54 -67 -21 -18 -21 -18 -21 3 0 14 7 22 23 24 17 2 23 10 25 40 3 31 7 37 30 41 15 2 28 5 29 6 2 0 -13 -21 -32 -47z m-1151 -350 c-6 -4 -14 -14 -17 -22 -4 -10 -6 -8 -6 8 -1 15 5 22 17 22 10 0 13 -3 6 -8z m1783 -555 c4 -7 35 -19 68 -27 77 -17 255 -99 255 -116 0 -8 8 -14 18 -14 35 0 42 -21 42 -122 0 -59 -4 -98 -10 -98 -6 0 -10 -26 -10 -59 0 -32 -5 -71 -10 -87 -6 -16 -14 -63 -18 -104 -6 -57 -8 -21 -8 144 0 162 -3 221 -12 224 -7 2 -12 9 -12 15 0 14 -77 57 -102 57 -10 0 -18 6 -18 13 -1 14 -105 87 -126 87 -8 0 -14 6 -14 13 0 6 -24 29 -52 50 -48 34 -50 37 -26 37 15 0 31 -6 35 -13z m2243 -222 c0 -7 9 -15 20 -18 33 -8 35 -35 6 -58 -14 -11 -26 -27 -26 -35 0 -8 -4 -14 -10 -14 -5 0 -10 -8 -10 -17 0 -20 -49 -153 -57 -153 -2 0 -2 8 1 18 13 40 46 208 46 233 0 24 -29 81 -88 169 -14 20 6 4 47 -38 39 -41 71 -80 71 -87z m-4147 -690 c-9 -19 -20 -35 -23 -35 -4 0 -15 -19 -25 -42 -43 -106 -61 -143 -67 -146 -5 -2 -8 -18 -8 -36 0 -39 21 -66 143 -187 63 -62 86 -91 81 -102 -3 -10 -11 -17 -18 -17 -15 0 -174 159 -189 190 -7 14 -22 29 -34 35 -38 16 -37 50 2 116 19 33 35 68 35 79 0 10 3 20 8 22 4 2 29 38 55 81 52 82 67 99 40 42z m4666 -1174 c15 -10 7 -81 -9 -81 -6 0 -10 -11 -10 -24 0 -13 -3 -26 -7 -28 -5 -1 -19 -36 -33 -75 -13 -40 -27 -73 -31 -73 -3 0 -9 -18 -13 -40 -3 -22 -11 -40 -16 -40 -6 0 -10 -9 -10 -20 0 -11 -4 -20 -10 -20 -5 0 -10 -11 -10 -25 0 -14 -4 -25 -10 -25 -5 0 -10 -11 -10 -25 0 -14 -4 -25 -9 -25 -15 0 41 193 105 363 19 49 34 102 34 118 0 29 13 36 39 20z m1541 -603 c0 -15 -18 0 -41 35 l-22 32 31 -29 c18 -17 32 -34 32 -38z m86 -70 c28 -29 54 -61 57 -70 4 -10 14 -18 24 -18 10 0 68 -51 130 -112 90 -89 113 -118 113 -140 0 -16 -4 -28 -9 -28 -6 0 -18 -26 -28 -57 -9 -32 -21 -60 -24 -63 -4 -3 -15 -38 -25 -78 -9 -39 -21 -72 -26 -72 -4 0 -8 -18 -8 -40 0 -46 -21 -130 -32 -130 -4 0 -8 -16 -8 -35 0 -19 -4 -35 -9 -35 -4 0 -11 -19 -14 -41 -6 -48 -25 -72 -46 -60 -11 7 -8 33 19 152 18 79 52 209 76 289 24 80 44 158 44 173 0 28 -82 147 -101 147 -5 0 -9 6 -9 13 0 7 -17 31 -38 53 -21 21 -69 76 -106 122 -52 63 -63 82 -49 82 10 0 42 -24 69 -52z m-4006 -110 c0 -10 6 -18 13 -18 15 0 77 -72 77 -89 0 -6 5 -11 12 -11 19 0 108 -92 108 -112 0 -10 5 -18 12 -18 19 0 108 -92 108 -112 0 -10 8 -21 18 -25 29 -10 92 -76 92 -96 0 -10 9 -21 20 -24 11 -3 20 -10 20 -15 0 -12 26 -38 38 -38 14 0 2 -43 -15 -53 -7 -4 -13 -15 -13 -22 0 -8 -4 -15 -10 -15 -5 0 -10 -13 -10 -30 0 -16 -20 -75 -44 -132 -24 -57 -63 -156 -86 -221 -24 -64 -45 -116 -47 -114 -3 4 24 94 106 350 23 71 41 148 41 172 0 38 -5 47 -55 94 -30 29 -55 56 -55 62 0 5 -11 15 -25 21 -14 6 -25 16 -25 22 0 6 -16 28 -35 49 -19 21 -35 43 -35 48 0 5 -7 12 -15 15 -8 4 -15 10 -15 15 0 5 -16 31 -35 58 -19 26 -35 52 -35 56 0 9 -72 109 -82 113 -5 2 -8 10 -8 17 0 8 -8 20 -17 27 -10 7 -29 33 -42 58 l-24 45 31 -29 c18 -17 32 -38 32 -48z m-2998 -976 c-7 -2 -12 -11 -12 -20 0 -19 -51 -154 -61 -162 -3 -3 -9 -22 -13 -42 -4 -21 -10 -38 -15 -38 -4 0 -13 -22 -20 -50 -7 -27 -18 -50 -23 -50 -16 0 -2 -99 17 -120 8 -9 15 -24 15 -33 0 -9 6 -17 14 -17 22 0 206 -225 206 -253 0 -6 -39 30 -87 81 -49 51 -96 92 -105 92 -10 0 -18 5 -18 12 0 18 -62 78 -80 78 -23 0 -51 86 -42 125 4 17 35 83 70 147 34 65 62 122 62 127 0 5 4 11 8 13 4 2 25 34 47 73 22 41 40 64 43 55 3 -8 0 -16 -6 -18z m5466 -774 c7 -7 12 -20 12 -30 0 -10 5 -18 10 -18 6 0 10 -6 10 -14 0 -7 9 -16 20 -19 15 -4 20 -14 20 -36 0 -17 5 -31 10 -31 6 0 10 -7 10 -15 0 -8 6 -15 14 -15 16 0 56 -59 56 -84 0 -9 5 -16 10 -16 6 0 10 -7 10 -15 0 -8 5 -15 10 -15 6 0 10 -7 10 -15 0 -8 5 -15 10 -15 6 0 10 -7 10 -15 0 -8 5 -15 10 -15 6 0 10 -7 10 -15 0 -8 5 -15 10 -15 6 0 10 -6 10 -13 0 -7 10 -17 23 -22 13 -6 23 -21 25 -37 2 -16 8 -28 13 -28 5 0 9 -7 9 -15 0 -8 6 -15 13 -15 8 0 22 -15 32 -33 26 -49 15 -100 -28 -120 -18 -9 -51 -37 -74 -64 -22 -26 -50 -57 -60 -68 -10 -11 -30 -36 -43 -55 -26 -37 -29 -42 -60 -79 -11 -13 -22 -33 -26 -44 -4 -11 -10 -25 -15 -31 -20 -24 -45 -56 -63 -80 -20 -28 -36 -34 -36 -14 0 15 159 263 232 361 43 58 58 87 58 111 0 22 -43 125 -121 292 -66 143 -132 283 -145 312 -23 50 -21 65 4 40z m-5026 -1960 c35 -29 85 -74 112 -100 27 -27 54 -48 60 -48 16 0 116 -102 116 -120 0 -8 10 -20 22 -25 28 -12 44 -73 21 -82 -8 -3 -27 4 -43 16 -16 11 -36 21 -45 21 -8 0 -15 5 -15 12 0 30 -215 188 -257 188 -13 0 -23 6 -23 14 0 7 -15 19 -32 26 -71 27 -94 40 -117 64 -22 23 -23 29 -13 63 6 21 23 115 37 208 30 196 93 551 103 580 4 11 8 -156 10 -372 l2 -392 62 -53z m2564 645 c-10 -26 -18 -8 -9 23 5 21 8 24 11 11 2 -10 1 -25 -2 -34z m-14 -113 c-8 -18 -11 -134 -10 -410 0 -128 -4 -222 -12 -249 -7 -27 -9 -67 -5 -103 7 -55 10 -61 41 -76 19 -8 34 -22 34 -29 0 -7 11 -13 25 -13 32 0 164 -66 172 -85 3 -8 13 -15 24 -15 28 0 69 -22 69 -37 0 -7 10 -13 23 -13 25 0 67 -26 67 -41 0 -17 -37 -9 -91 21 -30 16 -68 30 -86 30 -18 0 -40 8 -50 19 -24 24 -57 41 -82 41 -10 0 -21 5 -23 12 -2 6 -37 25 -78 42 -116 49 -116 49 -101 268 11 156 43 475 68 668 7 54 7 55 15 20 4 -19 4 -42 0 -50z m4011 -313 c42 -53 77 -103 77 -112 0 -8 5 -15 12 -15 19 0 48 -31 48 -52 0 -10 6 -18 13 -18 15 0 67 -51 67 -66 0 -6 16 -25 35 -44 19 -19 35 -40 35 -47 0 -7 6 -13 14 -13 18 0 66 -56 66 -76 0 -17 -15 -33 -45 -50 -11 -6 -49 -46 -84 -90 -34 -43 -81 -98 -102 -121 -21 -24 -39 -47 -39 -53 0 -5 -4 -10 -9 -10 -5 0 -12 -11 -15 -25 -4 -14 -10 -25 -15 -25 -5 0 -12 -13 -16 -30 -4 -16 -11 -30 -16 -30 -5 0 -9 -7 -9 -15 0 -8 -5 -15 -11 -15 -6 0 -8 9 -4 23 11 35 43 105 54 119 6 7 32 42 58 78 25 36 70 93 100 128 45 53 53 69 53 103 0 26 -5 42 -15 45 -8 4 -15 10 -15 16 0 14 -126 179 -142 186 -5 2 -8 8 -8 14 0 12 -61 102 -72 106 -4 2 -8 8 -8 13 0 8 -59 109 -69 119 -4 3 -16 25 -29 50 -27 52 -25 50 91 -93z m-1833 -1917 c0 -11 7 -20 15 -20 8 0 15 -9 15 -20 0 -11 7 -20 15 -20 8 0 15 -9 15 -20 0 -11 7 -20 15 -20 8 0 15 -7 15 -15 0 -8 7 -15 15 -15 8 0 15 -9 15 -20 0 -11 5 -20 10 -20 6 0 10 -7 10 -15 0 -8 7 -15 15 -15 8 0 15 -9 15 -20 0 -11 5 -20 10 -20 6 0 10 -7 10 -15 0 -8 5 -15 10 -15 6 0 10 -7 10 -15 0 -8 5 -15 10 -15 6 0 10 -7 10 -15 0 -8 5 -15 10 -15 6 0 10 -7 10 -15 0 -8 5 -15 10 -15 6 0 10 -7 10 -15 0 -8 5 -15 11 -15 17 0 38 -32 39 -57 0 -13 6 -23 14 -23 14 0 29 -32 40 -82 4 -16 13 -28 20 -28 19 0 44 -72 27 -78 -6 -2 -11 -10 -11 -17 0 -7 -7 -15 -15 -19 -8 -3 -15 -10 -15 -16 0 -12 -50 -83 -62 -88 -5 -2 -8 -10 -8 -18 0 -8 -4 -14 -10 -14 -5 0 -10 -5 -10 -11 0 -6 -6 -17 -12 -24 -27 -30 -34 -41 -47 -72 -7 -18 -17 -33 -20 -33 -4 0 -18 -25 -30 -55 -13 -30 -27 -55 -31 -55 -5 0 -14 -16 -20 -35 -6 -19 -15 -35 -20 -35 -4 0 -11 -10 -15 -22 -3 -13 -8 -18 -11 -12 -4 10 58 191 86 249 66 140 110 250 110 275 0 18 -50 136 -125 295 -69 146 -125 270 -125 277 0 7 -12 31 -25 53 -27 44 -30 55 -15 55 6 0 10 -9 10 -20z m-3759 -230 c-8 -4 -13 -37 -14 -83 -2 -66 1 -78 21 -99 12 -13 22 -30 22 -36 0 -7 7 -12 15 -12 23 0 65 -30 65 -46 0 -8 9 -14 20 -14 11 0 20 -4 20 -10 0 -5 9 -10 21 -10 12 0 23 -8 26 -19 3 -11 17 -21 34 -25 21 -4 29 -11 29 -26 0 -11 6 -20 14 -20 8 0 18 -4 21 -10 12 -19 -30 5 -169 98 -77 50 -148 92 -158 92 -11 0 -30 11 -43 24 -27 27 -28 25 36 231 l34 110 9 -69 c6 -50 5 -70 -3 -76z m4274 -2152 c45 -22 58 -38 31 -38 -8 0 -16 5 -18 11 -2 5 -22 13 -45 16 -23 3 -44 12 -47 19 -8 21 27 17 79 -8z m-3625 -138 c0 -5 -10 -10 -22 -10 -19 0 -20 2 -8 10 19 13 30 13 30 0z m2220 -155 c0 -3 -9 -5 -20 -5 -11 0 -20 7 -20 15 0 13 4 14 20 5 11 -6 20 -13 20 -15z"></path>
            <path id="pgxsY9IcA"
                  d="M11790 16870 c0 -23 4 -30 20 -30 15 0 20 -7 20 -25 0 -20 5 -25 26 -25 20 0 25 4 20 16 -9 22 -47 69 -68 83 -16 10 -18 7 -18 -19z"></path>
            <path id="pgtpIs6bD"
                  d="M11890 16705 c0 -19 4 -35 9 -35 5 0 11 -13 15 -30 4 -24 11 -30 31 -30 14 0 25 2 25 5 0 15 -62 125 -70 125 -6 0 -10 -16 -10 -35z"></path>
            <path id="pRLoIXGcJ" d="M9530 16695 c0 -22 4 -25 35 -25 43 0 44 10 6 33 -38 22 -41 22 -41 -8z"></path>
            <path id="p184FaydoF" d="M11980 16516 c0 -32 3 -36 25 -36 24 0 25 1 12 32 -19 46 -37 48 -37 4z"></path>
            <path id="pRQ76DgQV" d="M8290 16415 c0 -22 4 -25 35 -25 43 0 45 14 5 35 -38 20 -40 19 -40 -10z"></path>
            <path id="pWGy898RL" d="M13070 16315 c0 -28 4 -35 20 -35 22 0 26 20 10 51 -16 30 -30 23 -30 -16z"></path>
            <path id="pMZa7BmVo" d="M12080 16305 c0 -31 3 -35 25 -35 29 0 30 2 10 40 -21 40 -35 38 -35 -5z"></path>
            <path id="pxSa49kih" d="M12198 16223 c-36 -9 -20 -33 22 -33 33 0 40 3 40 20 0 20 -20 24 -62 13z"></path>
            <path id="p2IbOtA2l" d="M13160 15965 c0 -28 4 -35 20 -35 21 0 24 10 14 48 -10 36 -34 27 -34 -13z"></path>
            <path id="pIoHFRchx" d="M6503 15983 c-21 -8 -15 -43 7 -43 15 0 20 7 20 25 0 25 -4 28 -27 18z"></path>
            <path id="ptwfpApc9"
                  d="M6900 15950 c0 -17 7 -20 50 -20 36 0 50 4 50 14 0 15 -30 26 -72 26 -21 0 -28 -5 -28 -20z"></path>
            <path id="pm3iAdqzR" d="M6446 15768 c-10 -38 -7 -48 14 -48 16 0 20 7 20 35 0 40 -24 49 -34 13z"></path>
            <path id="pZ6oDSnWF"
                  d="M6393 15585 c-11 -33 -10 -35 13 -35 21 0 24 5 24 35 0 22 -5 35 -13 35 -8 0 -18 -16 -24 -35z"></path>
            <path id="p9AkC5Qin" d="M13430 15590 c0 -16 7 -20 35 -20 40 0 49 24 13 34 -38 10 -48 7 -48 -14z"></path>
            <path id="pQuGGOm1C" d="M13550 15570 c0 -16 7 -20 35 -20 40 0 49 24 13 34 -38 10 -48 7 -48 -14z"></path>
            <path id="pP7mu9W4X" d="M13890 15490 c0 -16 7 -20 35 -20 40 0 49 24 13 34 -38 10 -48 7 -48 -14z"></path>
            <path id="pqu1zrihD"
                  d="M6343 15435 c-11 -33 -10 -35 13 -35 21 0 24 5 24 35 0 22 -5 35 -13 35 -8 0 -18 -16 -24 -35z"></path>
            <path id="pnerEbu8o"
                  d="M14150 15445 c0 -18 5 -25 20 -25 16 0 20 -7 20 -35 0 -28 4 -35 20 -35 32 0 21 54 -19 98 -28 29 -41 28 -41 -3z"></path>
            <path id="p17YJK7QPn"
                  d="M6326 15381 c-3 -4 -10 -20 -15 -35 -10 -24 -8 -26 14 -26 22 0 25 4 25 35 0 33 -12 46 -24 26z"></path>
            <path id="p8Z7QP15M" d="M14190 15305 c0 -40 24 -49 34 -12 10 37 7 47 -14 47 -16 0 -20 -7 -20 -35z"></path>
            <path id="pSUlDhTsM" d="M6008 15133 c-33 -8 -20 -33 17 -33 28 0 35 4 35 20 0 20 -14 23 -52 13z"></path>
            <path id="p6Fkldah1" d="M5928 15123 c-33 -8 -20 -33 17 -33 28 0 35 4 35 20 0 20 -14 23 -52 13z"></path>
            <path id="p4ANiXWn8" d="M5848 15113 c-33 -8 -20 -33 17 -33 28 0 35 4 35 20 0 20 -14 23 -52 13z"></path>
            <path id="ph45eTJ8l" d="M5658 15093 c-36 -9 -20 -33 22 -33 33 0 40 3 40 20 0 20 -20 24 -62 13z"></path>
            <path id="p16fYkCxSi"
                  d="M5480 15015 c0 -28 4 -35 20 -35 16 0 20 7 20 35 0 28 -4 35 -20 35 -16 0 -20 -7 -20 -35z"></path>
            <path id="pfmCHeVnu" d="M5466 14798 c-11 -42 -7 -58 14 -58 17 0 20 7 20 40 0 45 -23 57 -34 18z"></path>
            <path id="p1C7BgR62k"
                  d="M14140 14695 c0 -41 2 -45 25 -45 14 0 25 5 25 10 0 6 -4 10 -8 10 -4 0 -6 16 -4 35 4 30 1 35 -17 35 -18 0 -21 -6 -21 -45z"></path>
            <path id="pDJHylCDq" d="M5456 14678 c-11 -42 -7 -58 14 -58 17 0 20 7 20 40 0 45 -23 57 -34 18z"></path>
            <path id="p8AgQn2r5" d="M5446 14568 c-11 -42 -7 -58 14 -58 17 0 20 7 20 40 0 45 -23 57 -34 18z"></path>
            <path id="p19ZDFB7Pe" d="M14590 14450 c0 -28 3 -30 35 -30 39 0 43 6 18 27 -45 35 -53 35 -53 3z"></path>
            <path id="p19DIADPoA" d="M5426 14358 c-11 -42 -7 -58 14 -58 17 0 20 7 20 40 0 45 -23 57 -34 18z"></path>
            <path id="pQBXkfWmQ" d="M5228 14174 c-38 -20 -35 -34 7 -34 31 0 35 3 35 25 0 29 -5 30 -42 9z"></path>
            <path id="pssHQwUZ7"
                  d="M5053 14089 c-71 -33 -80 -49 -28 -49 24 0 35 5 35 15 0 10 11 15 35 15 31 0 35 3 35 25 0 30 0 30 -77 -6z"></path>
            <path id="prIclGjrE"
                  d="M4903 14025 c-43 -18 -42 -35 2 -35 31 0 35 3 35 25 0 14 -1 25 -2 25 -2 -1 -18 -7 -35 -15z"></path>
            <path id="pIhCeDWFS"
                  d="M4780 13970 c-8 -5 -25 -10 -36 -10 -12 0 -32 -8 -44 -18 -22 -18 -22 -21 -10 -70 15 -65 43 -74 39 -12 -4 44 18 69 59 70 17 0 22 6 22 25 0 27 -7 30 -30 15z"></path>
            <path id="pL4d2Zlb7" d="M14870 13895 c0 -40 24 -49 34 -12 10 37 7 47 -14 47 -16 0 -20 -7 -20 -35z"></path>
            <path id="pduE5o51r"
                  d="M4743 13705 c6 -19 16 -35 24 -35 8 0 13 13 13 35 0 30 -3 35 -24 35 -23 0 -24 -2 -13 -35z"></path>
            <path id="pbt7E9S3S" d="M14910 13550 c0 -28 3 -30 35 -30 44 0 44 9 0 38 l-35 22 0 -30z"></path>
            <path id="pZm1wsYNz" d="M14990 13501 c0 -29 3 -31 36 -31 39 0 38 9 -6 40 l-30 21 0 -30z"></path>
            <path id="pYSRzzTvy" d="M15290 13311 c0 -29 3 -31 36 -31 39 0 38 9 -6 40 l-30 21 0 -30z"></path>
            <path id="p1Fa4Gfq44" d="M4893 13258 c19 -46 37 -48 37 -4 0 32 -3 36 -25 36 -24 0 -25 -1 -12 -32z"></path>
            <path id="pFeBeQyPw" d="M15370 13225 c0 -31 3 -35 26 -35 14 0 24 3 22 8 -35 73 -48 80 -48 27z"></path>
            <path id="p9VQPvTma" d="M15390 13085 c0 -40 24 -49 34 -12 10 37 7 47 -14 47 -16 0 -20 -7 -20 -35z"></path>
            <path id="pKkNbs3me" d="M15370 13005 c0 -40 24 -49 34 -12 10 37 7 47 -14 47 -16 0 -20 -7 -20 -35z"></path>
            <path id="pXhwvvuO1" d="M4615 12947 l-50 -46 36 -1 c44 0 72 27 67 66 l-3 27 -50 -46z"></path>
            <path id="p1CQpKl4A2"
                  d="M15340 12905 c0 -22 5 -35 13 -35 8 0 18 16 24 35 11 33 10 35 -13 35 -21 0 -24 -5 -24 -35z"></path>
            <path id="pdLNHU0o9"
                  d="M4490 12830 l-35 -29 38 -1 c35 0 37 2 37 30 0 17 -1 30 -3 30 -1 0 -18 -13 -37 -30z"></path>
            <path id="pGrgRG1Rx"
                  d="M15270 12690 c0 -16 -4 -30 -8 -30 -11 0 -32 -69 -32 -104 0 -52 25 -21 57 72 l32 92 -24 0 c-21 0 -25 -5 -25 -30z"></path>
            <path id="pizPvXE2J"
                  d="M4300 12455 c0 -14 32 -65 40 -65 6 0 10 16 10 35 0 31 -3 35 -25 35 -14 0 -25 -2 -25 -5z"></path>
            <path id="ppkRfaJVX"
                  d="M4378 12292 c16 -40 66 -122 74 -122 4 0 8 16 8 35 0 28 -4 35 -20 35 -16 0 -20 7 -20 35 0 31 -3 35 -25 35 -19 0 -23 -4 -17 -18z"></path>
            <path id="pR5uYrhZy"
                  d="M15590 12167 c0 -33 3 -37 25 -37 22 0 25 -4 25 -35 0 -32 2 -35 31 -35 l30 0 -20 28 c-11 16 -27 35 -36 42 -8 7 -15 18 -15 25 0 6 -9 20 -20 30 -20 18 -20 17 -20 -18z"></path>
            <path id="pykDOW2z9"
                  d="M4470 12134 c0 -12 65 -114 72 -114 5 0 8 16 8 35 0 24 -5 35 -15 35 -9 0 -15 9 -15 25 0 20 -5 25 -25 25 -14 0 -25 -3 -25 -6z"></path>
            <path id="pnaRvKxf1"
                  d="M4590 11954 c0 -3 7 -19 17 -34 15 -26 15 -29 0 -45 -24 -23 -21 -35 8 -35 24 0 25 3 25 60 0 57 -1 60 -25 60 -14 0 -25 -3 -25 -6z"></path>
            <path id="pv3e2H0Rj"
                  d="M15770 11927 c0 -33 3 -37 25 -37 20 0 25 -5 25 -25 0 -21 5 -25 31 -25 35 0 37 -4 -35 75 l-46 50 0 -38z"></path>
            <path id="p2O5s5LMU" d="M4487 11671 c-22 -38 -22 -41 8 -41 22 0 25 4 25 35 0 43 -10 44 -33 6z"></path>
            <path id="p1osDSvSW"
                  d="M4392 11510 c-6 -11 -12 -26 -12 -34 0 -8 -4 -16 -8 -18 -5 -1 -27 -31 -51 -65 l-42 -63 31 0 c20 0 30 5 30 15 0 8 5 15 10 15 6 0 10 7 10 15 0 8 5 15 10 15 6 0 10 16 10 35 0 28 4 35 20 35 16 0 20 7 20 35 0 39 -9 44 -28 15z"></path>
            <path id="pMXcbkdYr" d="M15690 11325 c0 -43 10 -44 33 -6 22 38 22 41 -8 41 -22 0 -25 -4 -25 -35z"></path>
            <path id="p1E5NJQMy3" d="M15540 11035 c0 -39 6 -43 27 -17 35 44 35 52 3 52 -28 0 -30 -3 -30 -35z"></path>
            <path id="pCSqIDxex" d="M4432 10885 c29 -44 38 -44 38 0 0 32 -2 35 -30 35 l-30 0 22 -35z"></path>
            <path id="p7AhAZX3e" d="M15560 10886 c0 -33 2 -36 31 -36 l30 0 -21 30 c-31 44 -40 45 -40 6z"></path>
            <path id="pMg7PrRPT"
                  d="M15822 10599 c3 -32 6 -34 42 -37 36 -3 38 -2 26 13 -7 9 -26 25 -42 37 l-29 20 3 -33z"></path>
            <path id="pKiQ0KpEb"
                  d="M4690 10590 c0 -5 4 -10 8 -10 5 0 15 -11 22 -25 19 -35 30 -31 30 10 0 32 -2 35 -30 35 -16 0 -30 -4 -30 -10z"></path>
            <path id="pwVumbnQ3"
                  d="M15930 10501 c0 -28 3 -31 30 -31 25 0 30 -4 30 -25 0 -20 5 -25 25 -25 29 0 32 13 9 32 -9 7 -26 22 -38 33 -56 50 -56 50 -56 16z"></path>
            <path id="p19FZBLPRV"
                  d="M4659 10383 c-42 -95 -41 -93 -14 -93 22 0 25 4 25 35 0 24 5 35 15 35 10 0 15 11 15 35 0 49 -17 44 -41 -12z"></path>
            <path id="p16YREbkHi" d="M15990 10303 l1 -38 24 28 c32 36 31 47 0 47 -22 0 -25 -4 -25 -37z"></path>
            <path id="pa62baaii"
                  d="M15890 10193 l0 -38 30 32 c17 18 30 34 30 37 0 4 -13 6 -30 6 -28 0 -30 -2 -30 -37z"></path>
            <path id="pfU3XlzyY" d="M4512 10105 l-22 -35 30 0 c28 0 30 3 30 35 0 44 -9 44 -38 0z"></path>
            <path id="pVLzdFg4"
                  d="M15797 10123 c-4 -3 -7 -22 -7 -41 0 -30 2 -33 15 -22 9 7 25 26 36 42 l20 28 -29 0 c-16 0 -32 -3 -35 -7z"></path>
            <path id="pkf3VcGjm" d="M4432 9985 l-22 -35 30 0 c28 0 30 3 30 35 0 44 -9 44 -38 0z"></path>
            <path id="py0cOu18a" d="M15580 9843 l1 -38 24 28 c32 36 31 47 0 47 -22 0 -25 -4 -25 -37z"></path>
            <path id="prZ242tPj" d="M15540 9756 c0 -32 3 -36 25 -36 24 0 25 1 12 32 -19 46 -37 48 -37 4z"></path>
            <path id="pKRjbKvd8" d="M4575 9704 c38 -34 40 -34 43 -14 6 38 -5 50 -45 50 l-38 -1 40 -35z"></path>
            <path id="p110pk25HG" d="M4675 9614 c38 -34 40 -34 43 -14 6 38 -5 50 -45 50 l-38 -1 40 -35z"></path>
            <path id="p1CSLPb4mp" d="M4775 9519 l40 -40 3 26 c6 43 -4 55 -45 55 l-37 0 39 -41z"></path>
            <path id="p1FMiWOnkh"
                  d="M4910 9402 c0 -5 18 -21 41 -36 l40 -27 -3 33 c-3 30 -6 33 -40 36 -21 2 -38 -1 -38 -6z"></path>
            <path id="pYICY0zDy"
                  d="M4993 9245 c-11 -33 -10 -35 13 -35 21 0 24 5 24 35 0 22 -5 35 -13 35 -8 0 -18 -16 -24 -35z"></path>
            <path id="p07rxPUwz" d="M15810 9235 c0 -32 2 -35 30 -35 l30 0 -22 35 c-29 44 -38 44 -38 0z"></path>
            <path id="p14aDfsUfF"
                  d="M4953 9115 c-11 -33 -10 -35 13 -35 21 0 24 5 24 35 0 22 -5 35 -13 35 -8 0 -18 -16 -24 -35z"></path>
            <path id="p1A8hXMzdN"
                  d="M15910 9075 c0 -19 5 -35 10 -35 6 0 10 -9 10 -20 0 -13 7 -20 20 -20 26 0 26 22 -2 71 -27 48 -38 49 -38 4z"></path>
            <path id="pNB1Zz1DN" d="M15890 8919 l0 -30 30 21 c44 31 45 40 6 40 -33 0 -36 -2 -36 -31z"></path>
            <path id="p11Lo8komc" d="M15620 8720 l0 -30 35 22 c44 29 44 38 0 38 -32 0 -35 -2 -35 -30z"></path>
            <path id="p12LVvL9HY"
                  d="M15380 8540 l0 -29 35 20 c19 12 35 25 35 30 0 5 -16 9 -35 9 -32 0 -35 -2 -35 -30z"></path>
            <path id="pqKGXYPOK"
                  d="M5130 8363 c0 -5 16 -18 35 -31 l35 -22 0 30 c0 28 -3 30 -35 30 -19 0 -35 -3 -35 -7z"></path>
            <path id="pOnf0cPT4"
                  d="M15390 8225 c0 -30 3 -35 24 -35 23 0 24 2 13 35 -6 19 -16 35 -24 35 -8 0 -13 -13 -13 -35z"></path>
            <path id="pB111MiUm"
                  d="M15450 8055 c0 -30 3 -35 24 -35 23 0 24 2 13 35 -6 19 -16 35 -24 35 -8 0 -13 -13 -13 -35z"></path>
            <path id="pesay5lgv"
                  d="M15514 7888 c4 -24 9 -76 12 -115 5 -63 4 -73 -10 -73 -11 0 -16 -9 -16 -30 0 -22 4 -28 15 -24 29 11 54 68 54 120 -1 68 -28 164 -46 164 -12 0 -14 -9 -9 -42z"></path>
            <path id="p1FlgdMBVt" d="M14980 7470 c0 -21 10 -24 48 -14 36 10 27 34 -13 34 -28 0 -35 -4 -35 -20z"></path>
            <path id="p15zr7KRka"
                  d="M5323 7405 c-11 -33 -10 -35 13 -35 21 0 24 5 24 35 0 22 -5 35 -13 35 -8 0 -18 -16 -24 -35z"></path>
            <path id="p1E5OafErE" d="M5290 7331 c0 -19 43 -41 81 -41 37 0 22 36 -20 48 -52 16 -61 15 -61 -7z"></path>
            <path id="ptCNciwK7"
                  d="M5490 7277 c0 -8 16 -18 35 -24 33 -11 35 -10 35 13 0 21 -5 24 -35 24 -22 0 -35 -5 -35 -13z"></path>
            <path id="pZY7Wc4Ak"
                  d="M6130 7045 c0 -8 7 -15 16 -15 9 0 18 -9 21 -20 9 -35 33 -24 33 15 0 33 -2 35 -35 35 -24 0 -35 -5 -35 -15z"></path>
            <path id="pgZzW9h6e"
                  d="M14730 6820 c0 -70 3 -90 14 -90 17 0 26 31 26 90 0 59 -9 90 -26 90 -11 0 -14 -20 -14 -90z"></path>
            <path id="pVoIXXCs2"
                  d="M6170 6660 c0 -63 2 -70 20 -70 18 0 20 7 20 70 0 63 -2 70 -20 70 -18 0 -20 -7 -20 -70z"></path>
            <path id="pF9uwqa1k" d="M14680 6495 c0 -35 18 -32 49 8 12 15 11 17 -18 17 -26 0 -31 -4 -31 -25z"></path>
            <path id="p4IfTWwtD" d="M14410 6470 c0 -21 16 -25 58 -14 39 11 27 34 -18 34 -33 0 -40 -3 -40 -20z"></path>
            <path id="pY9d6ajXd" d="M14150 6460 c0 -21 23 -26 68 -14 41 11 26 34 -23 34 -38 0 -45 -3 -45 -20z"></path>
            <path id="plwm2Xhr2" d="M14030 6450 c0 -21 10 -24 48 -14 36 10 27 34 -13 34 -28 0 -35 -4 -35 -20z"></path>
            <path id="po438goIt"
                  d="M13950 6430 c0 -16 5 -30 10 -30 6 0 10 4 10 10 0 5 11 12 25 16 39 10 31 34 -10 34 -32 0 -35 -2 -35 -30z"></path>
            <path id="pcH1OGyJk"
                  d="M6140 6290 c0 -11 2 -20 4 -20 2 0 11 -3 20 -6 12 -5 16 0 16 20 0 19 -5 26 -20 26 -13 0 -20 -7 -20 -20z"></path>
            <path id="p8JhLoTTy"
                  d="M6460 6286 c0 -14 29 -26 68 -26 15 0 22 6 22 20 0 17 -7 20 -45 20 -32 0 -45 -4 -45 -14z"></path>
            <path id="pIVsKIPsh"
                  d="M6940 6256 c0 -13 28 -26 58 -26 6 0 12 9 12 20 0 16 -7 20 -35 20 -23 0 -35 -5 -35 -14z"></path>
            <path id="pBUedI4pw" d="M13900 6185 c0 -40 24 -49 34 -12 10 37 7 47 -14 47 -16 0 -20 -7 -20 -35z"></path>
            <path id="pl7T1t0R6" d="M13870 6005 c0 -40 24 -49 34 -12 10 37 7 47 -14 47 -16 0 -20 -7 -20 -35z"></path>
            <path id="p3kCNBkaT"
                  d="M13810 5645 c0 -28 4 -35 20 -35 16 0 20 7 20 35 0 28 -4 35 -20 35 -16 0 -20 -7 -20 -35z"></path>
            <path id="pi1w5V4ld"
                  d="M13000 5656 c0 -13 28 -26 58 -26 6 0 12 9 12 20 0 16 -7 20 -35 20 -23 0 -35 -5 -35 -14z"></path>
            <path id="pc3ABrpxh"
                  d="M12880 5615 c0 -37 23 -50 33 -17 2 9 8 25 12 35 6 14 2 17 -19 17 -23 0 -26 -4 -26 -35z"></path>
            <path id="p16CfPCsH8"
                  d="M13360 5576 c0 -8 19 -18 44 -25 60 -15 66 -14 66 8 0 13 -10 20 -31 25 -51 10 -79 7 -79 -8z"></path>
            <path id="pH5wT1L2q"
                  d="M12836 5508 c-3 -13 -6 -33 -6 -45 0 -13 -4 -23 -10 -23 -5 0 -10 -16 -10 -35 0 -61 24 -40 52 45 l26 80 -23 0 c-15 0 -25 -7 -29 -22z"></path>
            <path id="piBpzPuz9" d="M8222 5195 c29 -44 38 -44 38 0 0 32 -2 35 -30 35 l-30 0 22 -35z"></path>
            <path id="p18xbuFGGJ"
                  d="M8300 5064 c0 -12 34 -64 42 -64 4 0 8 16 8 35 0 31 -3 35 -25 35 -14 0 -25 -3 -25 -6z"></path>
            <path id="pOULmLKRg" d="M9430 4910 c31 -44 40 -45 40 -6 0 33 -2 36 -31 36 l-30 0 21 -30z"></path>
            <path id="pEw6owYVs"
                  d="M9521 4811 c7 -10 20 -23 30 -30 17 -10 19 -8 19 19 0 27 -3 30 -30 30 -27 0 -29 -2 -19 -19z"></path>
        </g>
    </g>
    <g id="l7cu1NWGpLaq8IgnY7tIsKh" fill="rgb(98,146,25)" style="transform: none;">
        <g>
            <path id="pDziJZ0Lm"
                  d="M10359 17123 c-34 -40 -238 -224 -274 -249 -55 -37 -199 -160 -269 -230 l-59 -59 -78 50 c-43 27 -122 77 -176 110 -54 32 -114 71 -133 86 -19 15 -55 38 -80 52 -25 13 -83 47 -130 76 -47 28 -97 51 -112 51 -21 0 -47 -20 -114 -89 -48 -49 -105 -116 -127 -148 -22 -32 -61 -84 -86 -116 -25 -32 -56 -72 -69 -90 -13 -18 -32 -41 -43 -53 -10 -11 -19 -25 -19 -32 0 -6 -9 -16 -19 -22 -11 -5 -23 -20 -27 -32 -4 -13 -16 -37 -28 -54 l-21 -31 -118 58 c-65 33 -126 59 -135 59 -8 0 -47 15 -86 34 -198 94 -268 126 -293 132 -15 4 -42 16 -59 26 -41 24 -56 17 -88 -45 -53 -104 -72 -136 -88 -154 -9 -10 -40 -65 -68 -123 -28 -58 -55 -112 -60 -120 -53 -91 -67 -115 -80 -134 -8 -13 -28 -43 -44 -67 -16 -24 -36 -61 -44 -81 -14 -36 -16 -37 -41 -24 -59 31 -198 55 -346 60 -82 4 -212 11 -287 18 -149 12 -168 8 -168 -38 0 -13 -6 -43 -14 -66 -7 -24 -21 -77 -31 -118 -25 -107 -116 -377 -167 -495 l-43 -99 -90 -13 c-181 -26 -314 -42 -465 -59 -85 -9 -165 -22 -176 -30 -17 -10 -22 -23 -22 -59 -1 -56 -16 -231 -43 -520 -13 -143 -25 -221 -32 -224 -7 -2 -79 -39 -162 -81 -82 -42 -197 -95 -255 -119 -58 -24 -133 -56 -166 -72 -34 -16 -68 -29 -75 -29 -8 0 -27 -11 -43 -24 l-30 -23 57 -179 c90 -281 107 -333 143 -428 19 -49 33 -90 32 -91 -2 -1 -14 -9 -26 -17 -13 -9 -90 -81 -170 -160 -81 -78 -192 -182 -247 -229 -55 -48 -129 -113 -164 -146 l-65 -59 14 -35 c63 -162 230 -466 344 -629 24 -34 28 -45 18 -58 -20 -29 -184 -315 -211 -367 -14 -27 -28 -52 -31 -55 -3 -3 -22 -30 -42 -60 -20 -30 -59 -88 -87 -129 -28 -41 -51 -81 -51 -90 0 -9 42 -62 93 -118 50 -56 108 -123 127 -148 19 -25 62 -77 95 -116 33 -39 76 -92 96 -118 20 -26 54 -62 75 -80 22 -19 42 -39 46 -46 9 -15 -98 -265 -154 -360 -51 -88 -168 -264 -179 -271 -22 -13 -8 -61 29 -97 21 -20 42 -37 46 -37 17 0 191 -153 385 -339 41 -39 80 -71 85 -71 6 -1 27 -15 47 -33 l36 -32 -17 -55 c-10 -30 -28 -86 -40 -125 -20 -65 -121 -344 -141 -390 -4 -11 -14 -40 -20 -65 -7 -25 -17 -51 -22 -58 -13 -17 26 -60 73 -79 42 -18 290 -184 346 -233 44 -37 181 -126 249 -161 58 -30 70 -40 69 -60 -1 -27 -76 -337 -92 -384 -6 -16 -16 -50 -23 -75 -6 -25 -15 -54 -20 -65 -5 -11 -20 -56 -35 -100 -14 -44 -32 -90 -40 -103 -9 -13 -13 -29 -11 -36 5 -13 72 -36 105 -36 27 0 156 -43 225 -75 59 -26 516 -185 535 -185 24 0 21 -459 -5 -633 -11 -78 -13 -111 -5 -119 7 -7 116 -12 323 -14 320 -3 578 -24 580 -48 1 -6 0 -21 0 -33 -3 -30 82 -348 125 -468 45 -126 81 -252 97 -335 l12 -65 61 -3 c43 -2 111 9 235 36 96 22 219 47 274 56 55 10 129 22 164 28 62 10 65 10 83 -12 10 -12 21 -34 24 -49 7 -27 61 -129 93 -171 10 -14 45 -72 77 -130 32 -58 79 -138 106 -179 26 -41 48 -77 48 -80 0 -3 17 -26 38 -50 l38 -44 129 47 c72 26 137 53 145 61 8 7 105 58 215 113 110 55 216 111 236 125 l37 25 46 -53 c25 -30 46 -58 46 -64 0 -14 438 -462 474 -484 16 -11 38 -16 51 -13 20 5 282 210 315 246 8 10 38 35 65 56 28 21 86 73 131 115 45 42 93 85 108 94 27 18 27 18 63 -16 72 -69 90 -85 143 -127 129 -99 250 -200 319 -264 41 -38 88 -75 105 -82 17 -7 37 -20 45 -29 13 -17 61 -24 61 -9 0 4 43 51 95 105 52 54 101 110 109 125 8 16 36 48 63 72 38 36 48 41 51 27 2 -9 7 -17 12 -17 14 0 94 89 194 214 49 61 90 112 91 114 1 1 50 -20 108 -48 58 -27 113 -50 121 -50 8 0 17 -4 20 -9 3 -4 20 -11 38 -15 18 -4 50 -18 70 -31 21 -14 42 -25 48 -25 14 0 13 23 -2 40 -11 12 -10 12 2 3 9 -7 47 -22 85 -34 39 -12 77 -28 85 -35 21 -18 137 -47 156 -40 16 6 104 183 104 207 0 8 21 62 46 119 26 58 72 179 103 270 32 91 62 173 68 184 9 17 15 17 84 6 41 -6 94 -18 119 -26 25 -7 101 -25 170 -39 128 -25 143 -29 340 -85 163 -46 155 -45 184 -17 23 23 25 33 24 104 0 43 11 148 26 233 14 85 30 182 36 215 5 33 17 103 26 155 8 52 20 126 25 164 5 39 12 73 16 77 12 11 237 28 482 35 223 7 224 7 253 33 20 18 33 41 39 71 4 25 8 223 9 441 l0 396 63 12 c161 31 550 160 657 218 116 63 116 151 0 443 -38 95 -58 163 -101 334 l-20 79 27 28 c15 16 32 29 36 29 5 0 56 37 115 82 58 46 124 96 147 112 113 79 205 149 245 185 71 66 65 84 -124 381 -54 84 -140 251 -209 404 l-35 79 32 39 c73 90 118 141 227 259 63 68 122 130 131 136 10 7 33 35 53 62 31 42 36 56 36 102 l0 54 -108 95 c-126 111 -302 287 -302 300 0 5 -21 37 -46 71 l-46 60 17 40 c10 21 21 39 25 39 4 0 17 24 30 53 39 89 110 225 192 366 44 76 88 166 99 204 28 96 21 133 -43 202 -27 30 -70 83 -96 118 -110 148 -146 189 -324 364 l-187 184 40 112 c70 198 139 441 139 491 0 85 -73 171 -215 254 -163 95 -261 160 -306 202 l-48 45 14 75 c46 252 81 541 71 592 -12 60 -50 86 -151 103 -66 11 -175 45 -175 55 0 5 -12 13 -27 16 -41 10 -214 84 -243 104 -14 10 -59 34 -100 55 -41 21 -76 38 -77 39 -2 2 4 61 12 132 16 133 38 458 38 552 0 46 -4 57 -30 84 -24 24 -41 31 -84 34 -79 7 -207 31 -339 65 -141 37 -180 45 -344 70 -71 10 -131 20 -132 22 -10 11 -81 261 -119 417 -59 243 -75 291 -108 309 -22 14 -51 10 -313 -42 -159 -31 -338 -64 -399 -73 -60 -8 -128 -19 -151 -23 l-41 -8 -26 51 c-14 28 -58 119 -97 201 -153 322 -182 374 -232 421 -26 24 -52 44 -59 44 -6 0 -32 -10 -58 -23 -25 -13 -145 -72 -266 -132 -228 -113 -372 -193 -394 -219 -11 -13 -18 -9 -51 29 -21 24 -106 109 -189 189 -83 79 -163 159 -178 176 -47 57 -202 190 -221 190 -10 0 -24 -8 -33 -17z m96 -143 c-3 -5 0 -10 9 -10 12 0 71 -58 356 -350 36 -36 84 -80 107 -97 23 -17 39 -33 36 -37 -3 -3 12 -6 35 -6 22 0 42 4 44 9 4 11 205 120 352 192 113 55 197 100 270 147 l50 30 19 -21 c10 -12 16 -29 14 -39 -3 -10 -1 -18 4 -18 12 0 51 -79 44 -90 -3 -6 0 -10 8 -10 16 0 40 -47 32 -61 -4 -5 1 -9 9 -9 9 0 16 -1 16 -3 0 -1 9 -27 20 -56 11 -30 17 -57 15 -59 -3 -3 4 -12 15 -19 25 -17 83 -130 75 -143 -4 -6 -2 -10 4 -10 12 0 63 -84 65 -107 0 -9 11 -28 24 -42 12 -13 20 -31 18 -38 -3 -7 -1 -13 5 -13 6 0 8 -4 5 -8 -3 -5 8 -16 25 -26 25 -15 37 -16 84 -6 31 6 68 10 83 9 15 -2 33 0 40 5 7 4 32 7 55 5 23 -1 49 1 57 4 26 9 202 28 208 22 3 -2 11 0 18 6 7 5 35 12 62 13 28 2 54 6 59 9 4 3 33 8 63 12 l55 6 44 -188 c41 -178 133 -479 165 -542 20 -38 78 -60 194 -74 50 -6 92 -15 92 -18 0 -4 25 -5 55 -2 40 4 55 2 55 -7 0 -8 8 -10 23 -6 26 7 247 -24 247 -35 0 -4 26 -5 59 -2 38 4 61 2 65 -6 5 -7 21 -9 44 -5 l37 6 -3 -209 c-2 -114 -6 -209 -10 -211 -4 -1 -7 -86 -7 -188 l0 -186 31 -28 c18 -15 56 -37 86 -48 30 -11 79 -34 109 -50 30 -16 91 -48 137 -71 45 -24 82 -47 82 -53 0 -5 8 -8 18 -6 9 1 68 -13 130 -32 l112 -35 -6 -45 c-3 -25 -13 -81 -20 -125 -8 -44 -17 -101 -21 -127 -3 -27 -10 -48 -15 -48 -5 0 -6 -4 -3 -10 8 -12 -16 -180 -25 -180 -4 0 -4 -21 1 -46 7 -34 19 -57 49 -86 22 -22 37 -44 34 -49 -3 -5 6 -13 20 -19 14 -5 26 -16 26 -25 0 -8 9 -15 19 -15 11 0 30 -13 43 -28 13 -16 40 -42 60 -58 21 -16 38 -35 38 -41 0 -7 7 -13 15 -13 9 0 61 -27 116 -60 54 -34 111 -65 125 -70 18 -7 24 -15 20 -28 -3 -9 -15 -55 -27 -102 -13 -47 -27 -87 -31 -88 -5 -2 -6 -7 -3 -11 4 -7 -14 -75 -58 -223 -6 -21 -15 -38 -20 -38 -4 0 -6 -4 -3 -9 3 -5 -2 -30 -10 -56 -21 -59 -14 -116 20 -159 14 -19 27 -40 28 -47 2 -7 12 -18 23 -24 11 -6 24 -20 29 -31 5 -11 22 -25 37 -30 32 -10 262 -251 254 -265 -4 -5 0 -9 7 -9 20 0 81 -66 74 -79 -4 -6 -1 -11 6 -11 19 0 71 -58 63 -70 -3 -5 0 -10 8 -10 17 0 60 -57 52 -70 -3 -6 1 -10 9 -10 11 0 16 -9 16 -30 0 -16 -4 -30 -10 -30 -5 0 -10 -9 -10 -20 0 -11 -4 -20 -8 -20 -5 0 -9 -6 -9 -12 0 -7 -43 -102 -96 -210 -54 -109 -97 -202 -97 -208 0 -5 -5 -10 -10 -10 -6 0 -9 -3 -8 -8 4 -10 -34 -95 -45 -103 -5 -3 -8 -9 -7 -13 4 -12 -22 -66 -31 -66 -5 0 -8 -3 -7 -7 1 -5 -2 -29 -6 -55 -7 -39 -4 -55 15 -95 26 -53 191 -230 227 -244 13 -5 26 -18 29 -29 3 -12 14 -20 25 -20 11 0 22 -9 25 -20 3 -11 9 -20 14 -20 10 0 199 -140 199 -147 0 -5 -61 -71 -150 -163 -25 -26 -72 -78 -105 -115 -101 -115 -118 -135 -165 -195 -19 -25 -38 -46 -42 -48 -5 -2 -8 -10 -8 -18 0 -8 -4 -14 -8 -14 -4 0 -9 -17 -10 -38 -2 -32 15 -74 93 -228 52 -104 120 -231 150 -283 30 -51 55 -98 55 -103 0 -4 12 -26 26 -48 14 -21 23 -44 19 -49 -3 -6 0 -11 8 -11 7 0 20 -12 27 -26 16 -30 18 -28 -110 -116 -190 -130 -390 -297 -390 -325 0 -5 -16 -26 -35 -48 -36 -42 -52 -89 -40 -124 4 -12 2 -21 -4 -21 -8 0 -8 -6 -2 -17 40 -76 71 -145 81 -183 6 -24 47 -115 91 -202 43 -87 79 -160 79 -163 0 -4 -83 -49 -87 -47 -2 1 -33 -11 -70 -27 -126 -53 -323 -110 -473 -137 -146 -27 -182 -49 -194 -116 -3 -15 -7 -32 -10 -37 -4 -5 0 -11 6 -13 9 -3 13 -25 13 -61 0 -31 4 -57 8 -57 5 0 8 -21 6 -48 -1 -26 2 -55 6 -64 4 -10 5 -40 3 -68 -1 -27 1 -50 5 -50 5 0 7 -23 5 -50 -1 -28 0 -50 3 -50 9 0 33 -255 26 -274 -4 -9 -2 -16 3 -16 6 0 10 -13 10 -28 0 -26 -5 -30 -59 -45 -32 -9 -78 -19 -102 -23 -24 -4 -49 -11 -55 -15 -6 -5 -13 -7 -15 -4 -3 2 -31 0 -64 -5 -33 -5 -89 -12 -124 -15 -36 -3 -70 -10 -76 -15 -7 -6 -14 -8 -17 -5 -7 7 -110 -15 -124 -26 -6 -5 -13 -7 -16 -4 -3 3 -21 -2 -41 -10 -20 -8 -50 -15 -67 -15 -38 0 -77 -19 -110 -55 -21 -22 -25 -38 -28 -103 -2 -42 -5 -83 -7 -89 -2 -7 -7 -108 -10 -225 -4 -117 -9 -216 -12 -221 -3 -5 -5 -54 -4 -109 l2 -101 -53 7 c-29 4 -61 7 -72 7 -10 0 -25 7 -34 16 -11 11 -26 13 -53 9 -22 -3 -39 -2 -41 4 -2 6 -38 11 -81 13 -42 1 -77 5 -77 10 0 4 -11 5 -25 1 -14 -3 -25 -2 -25 4 0 12 -77 32 -97 25 -8 -3 -20 3 -27 12 -9 13 -27 18 -60 18 -25 0 -46 5 -46 10 0 6 -17 7 -40 3 -25 -4 -40 -2 -40 4 0 5 -6 10 -13 10 -23 0 -67 -25 -67 -37 0 -7 -5 -13 -11 -13 -5 0 -8 -4 -5 -9 3 -4 -7 -46 -23 -92 -16 -46 -34 -108 -42 -136 -7 -29 -17 -53 -21 -53 -5 0 -7 -4 -3 -9 3 -6 -4 -34 -15 -63 -12 -29 -25 -71 -30 -93 -9 -40 -70 -206 -80 -215 -3 -3 -6 -13 -8 -23 -2 -10 -12 -38 -23 -63 -18 -42 -21 -46 -47 -39 -15 3 -28 11 -30 16 -2 5 -15 9 -28 9 -13 0 -24 6 -24 13 0 17 -96 63 -122 59 -10 -2 -18 1 -18 7 0 14 -90 55 -117 53 -13 -1 -23 3 -23 8 0 13 -70 43 -97 41 -13 0 -23 4 -23 9 0 13 -52 38 -68 33 -7 -3 -19 2 -25 10 -7 8 -36 21 -64 28 -31 7 -53 18 -53 26 0 7 -7 13 -16 13 -22 0 -92 -51 -100 -72 -3 -10 -10 -18 -15 -18 -5 0 -9 -5 -9 -11 0 -10 -79 -127 -105 -155 -5 -7 -19 -24 -30 -40 -24 -33 -117 -151 -142 -179 -10 -11 -38 -47 -63 -80 -55 -74 -67 -90 -107 -134 -30 -34 -32 -35 -50 -18 -11 9 -27 17 -36 17 -9 0 -17 6 -17 13 0 8 -19 27 -42 44 -24 17 -79 61 -123 98 -44 36 -92 69 -107 72 -16 3 -28 11 -28 18 0 16 -64 65 -84 65 -9 0 -16 7 -16 15 0 8 -9 15 -20 15 -11 0 -20 7 -20 15 0 8 -9 15 -20 15 -11 0 -20 6 -20 14 0 7 -10 20 -22 28 -13 9 -38 28 -56 44 -23 20 -43 29 -70 29 -40 1 -101 -42 -262 -186 -42 -37 -100 -85 -129 -107 -29 -22 -100 -82 -158 -133 -91 -80 -106 -90 -115 -75 -5 9 -21 21 -34 27 -14 5 -23 13 -20 17 6 11 -64 104 -89 117 -11 6 -21 17 -23 25 -6 24 -34 50 -54 50 -11 0 -16 4 -13 10 8 12 -73 100 -103 111 -13 5 -20 13 -17 19 8 13 -83 110 -113 121 -13 5 -21 13 -18 17 9 15 -33 72 -53 72 -11 0 -21 4 -23 10 -1 5 -25 13 -51 16 -42 6 -52 4 -90 -23 -23 -16 -69 -45 -102 -63 -33 -18 -78 -46 -100 -60 -22 -15 -124 -73 -226 -129 -182 -100 -223 -113 -212 -70 3 11 0 19 -6 19 -7 0 -10 4 -7 9 9 14 -4 41 -20 41 -7 0 -11 6 -9 13 6 15 -31 77 -45 77 -6 0 -8 4 -5 10 9 15 -114 250 -131 250 -9 0 -12 4 -9 10 9 15 -104 220 -121 220 -9 0 -12 5 -9 11 4 6 -2 13 -14 16 -12 3 -21 11 -21 18 0 12 -60 12 -120 -2 -14 -3 -38 -7 -55 -8 -33 -3 -80 -10 -135 -19 -19 -4 -45 -6 -57 -6 -12 0 -25 -5 -28 -10 -4 -6 -11 -8 -16 -5 -5 4 -14 3 -21 -1 -7 -4 -21 -9 -32 -10 -12 -1 -32 -5 -46 -8 -60 -12 -86 -17 -102 -17 -10 0 -20 -5 -23 -10 -4 -5 -11 -7 -16 -3 -6 3 -18 3 -27 -1 -9 -4 -37 -9 -61 -11 -25 -2 -49 -8 -54 -13 -14 -14 -47 26 -47 56 0 12 -3 23 -8 23 -4 0 -6 20 -4 45 4 47 -24 155 -40 155 -5 0 -6 5 -3 11 7 11 -25 149 -34 149 -3 0 -7 21 -8 47 -1 27 -7 49 -12 51 -5 2 -7 12 -4 22 3 11 1 20 -4 20 -6 0 -8 11 -5 25 2 14 0 25 -6 25 -6 0 -8 9 -5 20 3 11 1 20 -4 20 -6 0 -8 11 -5 25 2 14 0 25 -4 25 -5 0 -10 12 -10 28 -3 52 -17 107 -36 134 -25 36 -99 63 -175 63 -35 0 -63 4 -63 8 0 5 -53 6 -117 3 -65 -3 -200 -5 -299 -5 -110 1 -184 -3 -188 -9 -3 -6 -15 -8 -25 -5 -16 4 -18 9 -9 40 5 19 7 41 4 49 -3 8 -1 14 5 14 5 0 10 17 10 38 0 20 2 109 5 197 8 292 6 435 -8 435 -4 0 -8 7 -8 15 0 15 -10 19 -42 16 -10 -1 -18 2 -18 8 0 12 -106 45 -137 43 -13 -1 -23 2 -23 7 0 13 -67 34 -102 33 -15 0 -28 3 -28 8 0 5 -39 21 -87 35 -49 14 -119 35 -157 47 -38 12 -78 21 -89 21 -11 -1 -26 5 -34 13 -9 8 -24 12 -39 8 -14 -4 -24 -2 -24 5 0 6 -7 8 -15 5 -23 -9 -57 32 -37 45 6 3 12 15 14 26 1 11 6 22 10 25 4 3 10 17 12 30 2 14 5 26 5 28 1 1 1 5 2 10 0 4 5 13 11 20 6 6 7 12 3 12 -4 0 -2 7 5 15 7 8 9 15 5 15 -4 0 -2 7 5 15 7 8 9 15 5 15 -4 0 -2 7 5 15 7 8 9 15 5 15 -4 0 -2 7 5 15 6 8 9 19 5 25 -3 5 -1 10 5 10 6 0 9 4 5 9 -3 5 0 13 6 16 5 4 8 13 5 21 -3 8 -1 14 5 14 5 0 9 6 8 13 -1 6 1 19 4 27 16 40 36 123 31 131 -3 5 -1 9 4 9 9 0 27 62 25 88 0 6 3 12 7 12 4 0 12 26 19 57 9 45 8 58 -1 65 -7 4 -8 8 -3 8 6 0 -6 10 -25 21 -19 12 -39 28 -43 35 -4 8 -16 14 -26 14 -10 0 -21 9 -24 20 -3 14 -14 20 -31 20 -16 0 -26 6 -26 14 0 15 -21 26 -51 26 -10 0 -19 7 -19 15 0 9 -9 15 -25 15 -14 0 -25 6 -26 13 0 15 -141 107 -163 107 -9 0 -16 5 -16 10 0 6 -7 10 -15 10 -8 0 -15 6 -15 13 0 18 -35 36 -59 30 -15 -4 -21 -1 -21 11 0 10 -9 16 -25 16 -14 0 -25 6 -25 13 0 17 -77 53 -102 49 -14 -3 -17 3 -16 22 1 14 6 26 11 26 4 0 5 5 2 10 -3 6 -1 10 5 10 7 0 10 7 6 15 -3 8 -1 15 5 15 6 0 7 5 4 10 -3 6 -1 10 5 10 6 0 8 4 5 10 -3 6 -1 10 5 10 7 0 10 7 6 15 -3 8 -1 15 5 15 6 0 8 4 5 9 -4 5 -3 11 2 13 8 3 62 138 61 152 0 5 4 12 9 15 6 3 12 15 14 26 1 11 5 22 8 25 11 10 49 120 42 120 -4 0 -2 4 4 8 16 11 84 197 73 200 -5 2 -7 8 -3 13 3 5 -4 9 -15 9 -19 0 -71 52 -71 71 0 5 -9 9 -20 9 -11 0 -20 6 -20 13 0 16 -53 57 -75 57 -8 0 -15 6 -15 13 0 16 -53 57 -75 57 -8 0 -15 5 -15 12 0 32 -211 198 -251 198 -11 0 -19 6 -19 14 0 16 -27 30 -52 27 -30 -4 -20 19 42 100 68 87 230 336 230 353 0 14 63 139 74 148 5 3 11 32 14 63 4 55 4 58 -36 98 -23 23 -46 55 -52 70 -5 16 -19 31 -30 34 -11 3 -17 9 -15 14 8 11 -54 79 -72 79 -8 0 -11 4 -8 10 7 12 -168 211 -199 225 -11 6 -22 16 -24 24 -2 8 -28 42 -58 76 -36 42 -52 68 -48 79 3 9 9 16 13 16 4 0 15 15 26 33 18 30 83 117 147 197 41 50 43 52 64 85 10 17 21 32 24 35 3 3 37 48 75 100 39 52 78 104 87 114 16 18 20 30 17 52 0 4 5 11 13 15 10 7 10 9 0 9 -7 0 -10 4 -7 10 3 6 2 10 -4 10 -6 0 -8 7 -5 15 4 8 1 15 -6 15 -6 0 -8 4 -5 10 3 6 1 10 -4 10 -6 0 -10 4 -9 8 2 4 -8 19 -22 33 -14 13 -25 29 -26 34 -1 21 -24 65 -34 65 -6 0 -8 5 -5 10 3 6 1 10 -5 10 -6 0 -8 4 -5 10 8 13 -66 140 -82 140 -7 0 -10 7 -6 16 4 10 -1 17 -16 21 -11 3 -19 9 -16 13 8 14 -17 60 -32 60 -8 0 -12 4 -8 10 3 5 -21 63 -54 128 l-60 119 57 39 c31 22 68 45 82 52 24 13 186 138 245 190 17 15 68 58 115 96 129 104 170 159 170 228 0 36 -25 98 -40 98 -6 0 -9 4 -5 10 8 13 -21 80 -35 80 -6 0 -8 5 -5 10 9 15 -27 100 -43 100 -7 0 -10 5 -7 11 8 12 -32 119 -50 134 -6 6 -10 15 -8 21 5 15 -34 104 -46 104 -6 0 -8 6 -5 14 3 8 1 23 -5 34 -9 17 -6 21 32 31 23 7 49 13 57 14 8 2 20 5 25 8 35 21 238 75 249 67 2 -2 12 5 23 14 10 10 28 19 39 21 10 2 28 8 39 14 17 9 91 36 105 38 3 0 15 6 26 13 12 6 23 9 26 7 8 -8 156 124 163 145 3 10 6 41 7 67 4 251 7 305 12 310 3 4 6 94 6 200 l0 194 223 -1 c386 -1 463 13 478 90 4 18 11 35 16 39 16 10 103 177 96 184 -3 4 -1 7 5 7 10 0 29 68 23 79 -2 2 1 7 6 10 13 8 45 91 35 91 -4 0 -2 4 4 8 14 10 95 242 88 253 -3 5 -1 9 3 9 9 0 33 78 33 108 0 15 6 18 30 14 17 -2 30 -7 30 -11 0 -3 41 -7 92 -8 50 -2 94 -6 97 -10 3 -5 53 -9 110 -10 57 -1 107 -6 110 -10 3 -4 63 -6 133 -3 l128 5 75 115 c41 63 75 118 75 122 0 4 5 8 10 8 6 0 10 7 10 15 0 8 5 15 11 15 5 0 7 5 4 10 -3 6 -1 10 4 10 6 0 11 7 11 15 0 8 4 15 10 15 5 0 12 11 16 25 3 14 10 25 16 25 5 0 6 5 3 10 -3 6 -1 10 5 10 6 0 8 5 5 10 -3 6 -1 10 5 10 6 0 8 5 5 10 -3 6 -2 10 4 10 5 0 15 16 22 35 7 19 17 35 22 35 4 0 5 5 2 10 -3 6 -1 10 5 10 6 0 8 5 5 10 -3 6 -1 10 5 10 6 0 8 5 5 10 -3 6 -1 10 4 10 6 0 11 14 11 30 0 17 5 30 11 30 5 0 8 4 5 9 -4 5 -1 11 4 13 6 2 12 13 13 26 0 12 4 22 8 22 4 0 10 13 14 30 6 26 8 28 21 15 9 -8 24 -15 35 -15 11 0 18 -4 14 -10 -3 -5 13 -14 35 -20 22 -6 38 -15 35 -20 -3 -5 18 -15 47 -24 29 -8 98 -37 153 -64 55 -26 128 -59 163 -71 34 -13 62 -27 62 -32 0 -4 12 -7 28 -7 32 1 75 -11 83 -24 3 -5 22 -11 41 -15 32 -5 38 -2 55 23 10 16 49 60 86 99 38 38 89 99 115 135 25 36 51 71 57 77 5 7 19 24 30 38 11 14 28 36 38 48 10 12 26 34 35 50 9 15 20 27 24 27 4 0 8 5 8 11 0 6 7 17 15 25 8 9 15 24 15 35 0 10 4 19 8 19 5 0 17 16 28 35 22 42 48 45 102 12 20 -12 45 -27 54 -32 69 -40 198 -132 198 -142 0 -7 5 -13 12 -13 21 0 118 -64 118 -77 0 -7 8 -13 17 -13 9 0 47 -19 85 -41 111 -67 174 -84 199 -52 20 23 145 131 282 243 64 52 163 139 219 192 l103 97 38 -39 c21 -22 35 -44 32 -50z"></path>
            <path id="piMSLk3Nz"
                  d="M11229 15808 c-6 -20 -3 -48 5 -48 15 0 38 -38 31 -50 -4 -6 1 -10 10 -10 11 0 15 -5 11 -15 -3 -8 -1 -15 5 -15 16 0 59 -54 54 -67 -2 -7 1 -13 8 -13 12 0 68 -75 124 -168 l32 -53 -20 -97 c-12 -53 -24 -100 -28 -105 -4 -4 -5 -26 -2 -50 5 -33 10 -43 28 -45 14 -2 27 5 37 20 21 33 65 155 59 162 -4 3 -1 6 5 6 7 0 12 6 12 13 0 8 14 26 30 40 17 15 30 37 30 50 0 29 -26 67 -46 67 -8 0 -13 4 -10 8 7 12 -131 161 -256 277 -90 83 -115 103 -119 93z"></path>
            <path id="pBumco8JS"
                  d="M9094 15759 c-6 -11 102 -129 119 -129 17 0 126 -85 127 -97 0 -7 6 -13 14 -13 21 0 125 -73 126 -87 0 -7 8 -13 18 -13 25 0 102 -43 102 -57 0 -7 5 -13 11 -13 7 0 10 -23 8 -62 -1 -35 1 -71 6 -81 4 -10 4 -37 0 -60 -7 -45 -6 -327 2 -339 2 -5 12 -4 21 1 19 10 58 172 47 191 -3 5 -1 10 5 10 6 0 10 15 9 33 0 17 4 61 11 96 6 35 9 70 6 77 -3 7 -1 14 4 16 5 2 11 36 12 75 2 40 6 73 11 73 4 0 7 14 7 30 0 17 -4 30 -10 30 -5 0 -7 7 -3 15 7 20 -24 55 -49 55 -10 0 -18 6 -18 14 0 17 -178 99 -255 116 -33 8 -65 21 -71 29 -6 8 -25 14 -42 13 -18 0 -33 5 -36 14 -3 8 -17 14 -32 14 -15 0 -32 7 -39 17 -7 9 -25 16 -43 15 -18 0 -33 5 -36 14 -6 17 -22 18 -32 3z"></path>
            <path id="pxRVnddas"
                  d="M7583 15023 c-38 -49 -83 -106 -99 -128 -32 -44 -32 -44 -75 -99 -16 -22 -46 -67 -66 -100 -21 -34 -41 -62 -45 -64 -4 -2 -8 -12 -8 -22 0 -10 -18 -49 -40 -88 -22 -38 -40 -75 -40 -82 0 -26 24 -80 35 -80 18 0 46 -35 48 -59 1 -11 6 -21 11 -21 5 0 47 -36 92 -80 89 -87 123 -100 157 -60 35 41 16 79 -89 180 -93 89 -138 141 -127 149 11 8 59 113 55 123 -1 4 3 8 9 8 5 0 7 5 4 10 -3 6 -1 10 5 10 6 0 8 5 5 10 -3 6 -1 10 5 10 6 0 8 5 5 10 -3 6 -2 10 3 10 5 0 19 24 33 53 13 28 27 54 32 55 4 2 7 10 7 18 0 8 4 14 9 14 5 0 14 15 22 33 7 17 16 34 19 37 11 8 120 216 120 229 0 25 -22 6 -87 -76z"></path>
            <path id="p1BhXCBepR"
                  d="M11610 14046 c0 -13 40 -68 67 -91 16 -14 203 -254 203 -261 0 -9 121 -153 131 -156 6 -2 -5 -44 -24 -93 -39 -103 -97 -287 -123 -393 -18 -71 -18 -72 2 -92 l20 -20 22 20 c12 12 20 25 17 31 -4 5 -1 9 5 9 6 0 9 4 6 9 -4 5 -2 11 3 13 5 1 11 12 13 23 1 11 6 22 10 25 3 3 8 14 10 25 1 11 9 26 16 33 7 8 10 18 7 23 -4 5 -2 9 4 9 9 0 25 51 21 66 -1 4 2 10 7 13 10 7 54 121 52 135 0 5 4 12 11 16 6 4 12 17 13 28 1 12 4 22 8 22 4 0 11 15 14 33 4 17 12 35 18 38 20 13 -3 60 -36 74 -31 13 -237 212 -227 219 3 2 -10 15 -27 30 -18 15 -33 34 -33 41 0 19 -99 105 -121 105 -10 0 -19 6 -19 13 0 8 -10 23 -22 34 -35 31 -48 36 -48 19z"></path>
            <path id="povNvddAB"
                  d="M13381 13187 c-1 -9 21 -41 49 -70 27 -28 48 -58 45 -64 -2 -7 2 -13 10 -13 8 0 29 -21 46 -47 42 -62 191 -246 241 -298 21 -22 36 -45 34 -52 -3 -7 1 -13 8 -13 7 0 34 -26 59 -58 45 -57 45 -59 34 -100 -6 -23 -15 -42 -20 -42 -4 0 -6 -4 -3 -8 2 -4 -11 -61 -30 -126 -19 -65 -37 -136 -40 -157 -4 -21 -11 -39 -16 -39 -5 0 -7 -4 -4 -9 3 -5 -3 -49 -14 -99 -11 -50 -18 -97 -15 -104 3 -7 18 -20 34 -29 27 -16 30 -16 54 5 25 21 51 81 42 96 -3 5 -1 10 5 12 6 2 11 18 13 36 1 17 5 32 8 32 9 0 42 139 35 155 -3 8 -2 15 2 15 8 0 36 87 35 108 0 6 4 12 9 12 6 0 8 7 4 15 -3 8 -2 15 2 15 5 0 14 22 21 49 7 27 21 60 32 72 10 12 16 25 14 29 -3 5 0 10 6 12 6 2 8 15 3 33 -9 37 -230 265 -256 265 -10 0 -21 8 -25 18 -10 28 -106 122 -125 122 -10 0 -18 6 -18 13 0 19 -63 77 -83 77 -9 0 -17 6 -17 14 0 23 -49 64 -70 59 -13 -4 -20 0 -20 10 0 16 -41 47 -64 47 -8 0 -17 6 -19 13 -3 7 -6 5 -6 -6z"></path>
            <path id="pfsn22ud3"
                  d="M9504 13052 c8 -53 39 -121 103 -226 30 -49 51 -91 48 -94 -2 -3 5 -10 18 -17 12 -6 21 -19 21 -28 -1 -9 3 -17 10 -17 11 -1 86 -101 86 -116 0 -4 16 -29 35 -56 20 -27 33 -53 30 -57 -2 -5 5 -11 16 -14 15 -4 20 -11 16 -21 -4 -9 -1 -16 6 -16 15 0 71 -69 63 -78 -4 -3 8 -12 25 -19 21 -9 29 -18 25 -28 -3 -8 0 -15 7 -15 7 0 34 -22 61 -49 44 -45 47 -51 41 -85 -4 -20 -11 -36 -17 -36 -5 0 -7 -4 -4 -8 3 -5 -22 -91 -54 -192 -33 -101 -60 -189 -60 -197 0 -7 -5 -13 -11 -13 -5 0 -7 -5 -4 -10 4 -6 0 -23 -8 -39 -13 -26 -12 -29 10 -49 45 -40 55 -26 130 183 14 39 45 116 69 173 24 56 45 116 46 132 1 17 6 30 10 30 4 0 8 6 8 13 0 7 9 20 20 30 12 10 18 22 15 27 -3 6 -1 10 4 10 12 0 14 29 5 54 -3 9 -13 16 -21 16 -8 0 -11 5 -8 10 3 6 -1 10 -9 10 -9 0 -16 6 -16 14 0 7 -9 16 -21 19 -12 3 -18 10 -15 16 9 13 -61 90 -92 102 -13 5 -20 14 -16 20 7 13 -94 119 -114 119 -7 0 -10 4 -7 10 8 12 -93 120 -112 120 -8 0 -12 4 -9 9 7 10 -67 91 -83 91 -7 0 -9 5 -5 11 7 13 -54 79 -74 79 -7 0 -10 4 -7 10 3 5 -20 40 -51 77 -31 36 -66 81 -76 100 -27 45 -42 43 -34 -5z"></path>
            <path id="pWbs4Sk5u"
                  d="M6831 12053 c-47 -58 -159 -220 -192 -278 -18 -33 -37 -61 -41 -63 -4 -2 -8 -8 -8 -13 0 -6 -29 -64 -65 -131 -50 -94 -66 -135 -73 -184 -5 -35 -6 -64 -2 -64 4 0 13 -18 20 -40 8 -25 19 -40 30 -40 18 0 80 -60 80 -78 0 -7 8 -12 18 -12 11 0 58 -42 108 -96 101 -108 135 -132 154 -109 7 8 9 15 4 15 -5 0 -2 5 6 10 9 6 11 10 3 10 -7 0 -10 7 -7 15 4 8 1 15 -6 15 -6 0 -8 5 -5 10 13 20 -184 270 -212 270 -8 0 -11 5 -8 11 4 6 -2 20 -13 32 -20 23 -35 67 -23 67 8 0 36 79 33 93 -1 4 2 7 7 7 9 0 25 51 21 66 -1 4 2 10 7 13 8 6 59 131 65 161 2 8 6 17 10 20 3 3 8 14 10 25 1 11 5 22 8 25 8 7 120 254 120 263 0 16 -28 5 -49 -20z"></path>
            <path id="pdWGDeaoH"
                  d="M12000 11267 c0 -21 22 -70 125 -282 50 -104 136 -285 189 -401 l97 -211 -58 -79 c-94 -126 -243 -365 -243 -390 0 -28 25 -54 51 -54 20 0 61 37 89 80 8 12 20 28 26 34 6 7 14 21 18 33 4 11 15 31 26 44 31 37 34 42 60 79 13 19 33 44 43 55 10 11 38 42 60 68 23 27 57 55 74 64 18 8 33 22 33 29 0 8 5 14 11 14 6 0 9 6 6 14 -3 8 -1 17 6 20 9 5 9 7 1 11 -7 3 -10 14 -7 25 6 23 -35 100 -54 100 -7 0 -10 6 -7 15 4 10 0 15 -11 15 -9 0 -13 5 -10 10 9 14 -22 60 -40 60 -9 0 -12 6 -9 15 4 9 0 15 -10 15 -10 0 -13 6 -10 15 4 9 0 15 -10 15 -10 0 -13 6 -10 15 4 9 0 15 -10 15 -10 0 -13 6 -10 15 4 9 0 15 -10 15 -10 0 -13 6 -10 15 4 10 0 15 -11 15 -9 0 -13 4 -10 10 8 13 -44 90 -61 90 -8 0 -11 6 -8 15 4 9 0 15 -10 15 -9 0 -13 6 -10 14 7 19 -13 56 -31 56 -9 0 -12 6 -9 15 4 10 0 15 -11 15 -9 0 -13 5 -10 11 8 13 -23 49 -42 49 -8 0 -11 5 -8 11 8 12 -101 158 -124 167 -9 4 -16 14 -16 22 0 8 -8 16 -17 18 -11 2 -18 -3 -18 -11z"></path>
            <path id="p1B1H9jnEu"
                  d="M9760 10104 c-6 -16 -21 -69 -33 -119 -12 -49 -24 -92 -27 -95 -3 -3 -5 -12 -5 -20 0 -20 -36 -221 -43 -240 -6 -17 -11 -69 -11 -118 0 -18 -3 -37 -6 -43 -4 -5 -8 -46 -11 -91 -3 -45 -8 -85 -12 -88 -4 -3 -9 -52 -10 -110 -2 -58 -6 -108 -8 -112 -3 -4 -7 -81 -10 -170 -7 -195 -5 -200 107 -244 39 -15 73 -34 76 -41 3 -7 14 -13 25 -13 23 0 78 -27 78 -39 0 -12 57 -34 69 -27 12 8 111 -40 111 -53 0 -5 21 -9 47 -9 49 -1 83 20 83 52 0 21 -58 66 -86 66 -13 0 -24 6 -24 13 0 16 -41 37 -71 37 -11 0 -18 4 -15 9 8 12 -146 91 -178 91 -15 0 -26 6 -26 13 0 7 -15 21 -34 29 -28 14 -34 23 -38 55 -3 21 -1 52 4 68 4 17 9 122 10 235 2 282 12 504 23 532 4 10 5 40 3 68 -1 27 1 50 5 50 5 0 7 25 5 55 -1 30 1 55 5 55 4 0 8 21 7 48 0 26 4 74 10 106 12 68 -1 100 -20 50z"></path>
            <path id="pR3ylujK6"
                  d="M7055 9936 c-9 -39 -21 -79 -26 -89 -5 -10 -7 -21 -5 -26 3 -4 -8 -78 -24 -165 -17 -87 -30 -169 -30 -182 0 -13 -3 -24 -7 -24 -5 0 -9 -26 -10 -58 -2 -31 -7 -58 -12 -60 -5 -2 -7 -12 -4 -22 3 -11 2 -28 -2 -37 -5 -10 -7 -28 -6 -40 1 -13 -1 -28 -5 -34 -4 -7 -8 -26 -10 -43 -2 -17 -7 -56 -11 -86 -8 -53 -7 -56 23 -82 18 -16 37 -28 43 -28 6 0 14 -7 18 -15 3 -9 13 -15 22 -14 26 4 61 -11 61 -27 0 -8 10 -14 23 -14 42 0 257 -158 257 -188 0 -7 7 -12 15 -12 8 0 31 -11 51 -25 44 -30 77 -32 104 -5 21 21 28 70 9 70 -5 0 -7 5 -4 10 9 15 -22 60 -41 60 -8 0 -12 5 -8 11 7 12 -103 129 -122 129 -6 0 -33 21 -60 48 -27 26 -78 71 -112 100 l-62 53 0 390 c0 214 -3 389 -8 389 -4 0 -6 17 -4 39 3 32 0 39 -16 43 -18 5 -22 -3 -37 -66z"></path>
            <path id="pVYNGY0it"
                  d="M13432 9666 c2 -20 6 -36 11 -36 8 0 97 -177 97 -194 0 -6 16 -37 36 -68 19 -32 32 -62 29 -68 -3 -5 0 -10 7 -10 14 0 74 -98 72 -117 -1 -7 3 -13 10 -13 15 0 78 -98 71 -110 -4 -6 0 -10 7 -10 7 0 24 -16 38 -34 14 -18 44 -59 68 -90 24 -31 41 -60 38 -65 -3 -5 3 -11 14 -14 30 -8 25 -20 -33 -89 -30 -35 -75 -92 -100 -128 -26 -36 -52 -71 -59 -79 -16 -19 -57 -122 -58 -143 0 -9 -5 -20 -10 -23 -6 -4 -4 -12 5 -21 8 -9 15 -22 15 -30 0 -8 6 -14 14 -14 19 0 67 40 61 51 -4 5 -2 9 4 9 5 0 12 14 16 30 4 17 11 30 16 30 5 0 11 11 15 25 3 14 10 25 15 25 5 0 9 5 9 10 0 6 18 29 39 53 21 23 68 78 102 121 35 44 73 84 84 90 34 19 46 35 51 68 6 38 -27 97 -64 113 -12 5 -22 15 -22 20 0 6 -16 26 -35 45 -19 19 -35 39 -35 45 0 15 -53 65 -69 65 -7 0 -9 5 -6 11 8 13 -33 59 -52 59 -8 0 -12 4 -8 9 3 6 -25 47 -61 93 -106 132 -130 158 -143 158 -7 0 -9 4 -6 10 8 13 -24 60 -42 60 -8 0 -11 4 -8 10 3 5 -2 22 -11 37 -45 73 -68 103 -79 103 -7 0 -12 8 -11 17 0 10 -7 19 -17 21 -14 3 -17 -3 -15 -32z"></path>
            <path id="pqkXVaEkF"
                  d="M11707 7613 c-3 -5 35 -89 84 -188 48 -99 88 -183 89 -188 0 -4 56 -126 125 -272 l125 -265 -51 -112 c-27 -62 -56 -126 -64 -143 -7 -16 -32 -81 -55 -144 -43 -119 -45 -155 -10 -166 24 -8 60 11 60 30 0 8 4 15 10 15 5 0 12 11 16 25 3 14 10 25 16 25 5 0 6 5 3 10 -3 6 -2 10 3 10 6 0 18 20 29 45 10 25 22 45 26 45 5 0 5 5 2 10 -3 6 -2 10 3 10 5 0 16 15 23 33 13 31 20 42 47 72 6 7 12 18 12 24 0 6 5 11 10 11 6 0 10 6 10 14 0 8 3 16 8 18 10 4 57 70 65 91 3 9 11 17 17 17 5 0 10 7 10 15 0 8 5 15 10 15 13 0 13 69 -1 109 -6 17 -18 31 -26 31 -8 0 -11 5 -8 10 3 6 2 10 -3 10 -5 0 -7 11 -4 25 2 14 0 25 -6 25 -6 0 -14 9 -17 20 -3 11 -13 20 -21 20 -8 0 -12 4 -9 10 8 13 -26 70 -42 70 -7 0 -10 7 -7 15 4 9 0 15 -10 15 -10 0 -13 6 -10 15 4 9 0 15 -10 15 -10 0 -13 6 -10 15 4 9 0 15 -10 15 -10 0 -13 6 -10 15 4 9 0 15 -10 15 -10 0 -13 6 -10 15 4 9 0 15 -10 15 -10 0 -13 6 -9 16 4 10 -1 17 -15 21 -13 3 -19 10 -15 19 3 8 -1 14 -11 14 -10 0 -13 6 -9 16 4 10 -1 17 -15 21 -13 3 -19 10 -15 19 3 9 -2 14 -16 14 -14 0 -19 5 -14 16 4 10 -1 17 -15 21 -13 3 -19 10 -15 20 4 9 -2 16 -15 20 -13 3 -19 10 -15 20 4 9 -2 16 -16 20 -11 3 -19 9 -16 13 8 13 -6 40 -21 40 -7 0 -11 6 -8 13 5 14 -22 43 -59 62 -12 6 -21 18 -19 25 6 27 -58 75 -71 53z"></path>
            <path id="prIZaswdc"
                  d="M8096 7336 c-67 -207 -106 -347 -106 -377 0 -34 39 -79 68 -79 10 0 84 -43 162 -95 79 -52 153 -98 163 -101 11 -3 54 -28 95 -55 41 -27 78 -49 83 -49 16 0 -36 84 -58 96 -13 6 -20 14 -16 17 8 9 -46 67 -63 67 -6 0 -11 8 -10 18 1 11 -10 20 -31 26 -17 6 -34 18 -36 28 -3 10 -14 18 -26 18 -12 0 -21 6 -21 14 0 9 -7 12 -20 9 -13 -4 -20 0 -20 10 0 17 -41 47 -65 47 -8 0 -15 6 -15 13 0 8 -9 22 -19 31 -22 20 -34 56 -19 56 6 0 8 15 6 35 -2 19 0 35 4 35 4 0 7 51 6 114 0 62 3 119 6 125 4 6 4 17 -1 23 -4 7 -6 25 -4 40 1 16 -4 34 -11 41 -11 12 -20 -6 -52 -107z"></path>
        </g>
    </g>
    <g id="l4izSSBe1lUjLk1Y0I8hSHi" fill="rgb(184,137,88)" style="transform: none;">
        <g>
            <path id="p1K2fUQDj"
                  d="M11837 5121 c-14 -21 -68 -90 -120 -153 -87 -106 -93 -116 -80 -135 8 -11 18 -63 24 -114 5 -51 14 -96 19 -99 5 -3 16 -39 25 -80 9 -41 34 -149 56 -239 22 -90 38 -171 36 -180 -2 -9 -7 3 -11 27 -6 35 -12 42 -31 42 -22 0 -22 0 33 -220 36 -145 59 -220 68 -220 7 0 14 10 16 23 3 20 4 20 9 -5 5 -23 3 -28 -12 -28 -23 0 -23 -8 -3 -99 17 -73 40 -96 46 -43 3 24 102 -362 247 -958 53 -218 79 -364 34 -192 -22 82 -31 102 -45 102 -10 0 -18 -7 -18 -16 0 -20 48 -213 60 -241 12 -28 30 -30 30 -3 0 11 4 20 9 20 14 0 29 -81 24 -124 -4 -26 -1 -41 8 -47 11 -7 9 -9 -7 -9 -21 0 -21 -1 -6 -55 15 -55 41 -75 43 -32 1 34 29 -62 29 -101 0 -18 8 -41 17 -50 16 -16 15 -17 -9 -22 -26 -5 -26 -6 -13 -37 17 -40 32 -42 38 -5 3 22 4 21 6 -10 1 -35 2 -36 50 -43 40 -5 48 -10 44 -24 -3 -13 3 -20 19 -24 44 -12 68 -8 68 12 0 16 10 20 63 26 117 14 284 79 381 149 64 45 176 155 176 172 0 7 7 19 15 27 28 29 85 160 85 197 0 24 -18 76 -50 144 -27 59 -50 115 -50 125 0 9 -7 26 -15 37 -8 10 -15 24 -15 31 0 6 -16 45 -35 87 -19 41 -64 146 -101 233 -36 87 -77 181 -89 210 -13 28 -55 129 -93 225 -191 475 -238 589 -320 788 -50 118 -108 258 -130 310 -21 52 -45 113 -52 135 -7 22 -37 90 -66 152 -30 62 -54 115 -54 119 0 26 -45 124 -57 124 -21 0 -253 111 -253 121 0 20 -19 7 -43 -30z m7 -1180 c3 -20 3 -27 -1 -16 -3 11 -9 22 -13 25 -4 3 -9 30 -12 60 l-6 55 14 -44 c8 -25 16 -61 18 -80z"></path>
            <path id="p1Hn9Cqlb2" d="M12260 4903 c0 -51 11 -73 35 -73 l23 0 -16 50 c-17 54 -42 68 -42 23z"></path>
            <path id="pt8DKUAnh" d="M12340 4686 c0 -32 3 -36 25 -36 24 0 25 1 12 32 -19 46 -37 48 -37 4z"></path>
            <path id="pzmJ4GTc8"
                  d="M11660 4490 c0 -6 10 -49 21 -95 14 -55 26 -85 35 -85 19 0 18 40 -3 123 -13 51 -22 67 -35 67 -10 0 -18 -5 -18 -10z"></path>
            <path id="p71dgCC80" d="M12520 4246 c0 -32 3 -36 25 -36 24 0 25 1 12 32 -19 46 -37 48 -37 4z"></path>
            <path id="p1E9YRbn6F" d="M12590 4076 c0 -32 3 -36 25 -36 24 0 25 1 12 32 -19 46 -37 48 -37 4z"></path>
            <path id="ptnp2D2Ld" d="M12660 3916 c0 -32 3 -36 25 -36 24 0 25 1 12 32 -19 46 -37 48 -37 4z"></path>
            <path id="pZ0Tj8jaW" d="M12720 3746 c0 -32 3 -36 25 -36 24 0 25 1 12 32 -19 46 -37 48 -37 4z"></path>
            <path id="p8haONdEh" d="M12810 3535 c0 -31 3 -35 26 -35 14 0 24 3 22 8 -35 73 -48 80 -48 27z"></path>
            <path id="pBsmO1ElR"
                  d="M11900 3474 c0 -37 23 -104 36 -104 15 0 18 36 8 89 -5 21 -12 31 -25 31 -11 0 -19 -7 -19 -16z"></path>
            <path id="pzKOpX6P9"
                  d="M11940 3308 c0 -30 13 -58 26 -58 9 0 14 12 14 35 0 28 -4 35 -20 35 -11 0 -20 -6 -20 -12z"></path>
            <path id="p1tg7oeve"
                  d="M11983 3125 c6 -19 16 -35 24 -35 8 0 13 13 13 35 0 30 -3 35 -24 35 -23 0 -24 -2 -13 -35z"></path>
            <path id="pXAx37MuN" d="M12980 3125 c0 -31 3 -35 26 -35 14 0 24 3 22 8 -35 73 -48 80 -48 27z"></path>
            <path id="pwkQX3O7N" d="M13020 3026 c0 -32 3 -36 25 -36 24 0 25 1 12 32 -19 46 -37 48 -37 4z"></path>
            <path id="p4BK6geI7" d="M13140 2705 c0 -31 3 -35 26 -35 14 0 24 3 22 8 -35 73 -48 80 -48 27z"></path>
            <path id="pAB0O2kRG" d="M13280 2330 c0 -52 24 -100 50 -100 25 0 25 10 -2 81 -27 69 -48 77 -48 19z"></path>
            <path id="p11aGx4dOb"
                  d="M12638 1763 c-30 -3 -38 -9 -38 -24 0 -14 7 -19 26 -19 45 0 114 22 114 36 0 14 -20 15 -102 7z"></path>
        </g>
    </g>
    <g id="l37wYSHYYKlqHvAKZyYA0wm" fill="rgb(128,93,58)" style="transform: none;">
        <g>
            <path id="p7JUzJlBC"
                  d="M12111 5008 c-6 -16 -5 -24 3 -26 7 -1 21 -28 31 -60 10 -31 42 -106 71 -167 28 -60 57 -128 64 -150 7 -22 31 -83 52 -135 22 -52 80 -192 130 -310 82 -199 129 -313 320 -788 38 -96 80 -197 93 -225 12 -29 53 -123 89 -210 37 -87 82 -192 102 -234 19 -42 33 -81 31 -86 -2 -6 5 -19 15 -29 10 -10 18 -27 18 -37 0 -11 23 -69 51 -130 l52 -111 -37 -76 c-20 -42 -43 -82 -51 -91 -8 -8 -15 -20 -15 -27 0 -17 -112 -126 -176 -172 -90 -66 -242 -127 -357 -145 -82 -13 -209 5 -200 27 5 14 -26 104 -36 104 -3 0 -6 15 -7 33 0 35 -54 207 -64 207 -3 0 -4 16 -2 35 5 39 -16 135 -29 135 -4 0 -6 6 -3 13 4 11 -46 246 -76 357 -38 140 -300 1214 -300 1230 0 33 -32 150 -40 150 -5 0 -6 8 -4 18 3 9 -17 109 -45 222 -27 113 -55 231 -61 263 -6 31 -15 57 -19 57 -5 0 -6 11 -3 25 2 14 0 25 -7 25 -5 0 -8 7 -4 15 7 21 -16 130 -33 152 -13 17 -16 15 -50 -20 -44 -47 -45 -36 29 -307 31 -113 65 -243 77 -290 12 -47 43 -170 69 -275 72 -286 91 -368 91 -400 0 -16 8 -61 19 -99 10 -39 28 -116 41 -171 12 -55 28 -122 36 -150 7 -27 34 -133 58 -235 24 -102 81 -327 126 -500 45 -173 93 -362 107 -420 14 -58 35 -129 48 -159 19 -49 28 -58 81 -85 56 -29 65 -30 174 -30 102 1 126 4 210 32 52 18 124 48 160 68 36 20 81 45 101 55 67 34 257 243 297 326 15 31 14 35 -6 72 -12 21 -22 48 -22 60 0 12 -4 29 -10 39 -5 9 -28 69 -51 132 -23 63 -59 156 -80 206 -22 50 -39 99 -39 108 0 16 -27 84 -179 452 -78 190 -204 491 -226 542 -8 18 -15 39 -15 47 0 7 -22 64 -48 127 -27 62 -63 147 -80 188 -17 41 -47 113 -67 160 -20 47 -65 159 -101 250 -36 91 -78 197 -95 237 -16 39 -29 83 -29 96 0 32 -49 74 -95 83 -20 3 -38 10 -41 15 -10 17 -35 9 -43 -13z"></path>
        </g>
    </g>
</svg>