<svg class="img-fluid" id="outputsvg" xmlns="http://www.w3.org/2000/svg" style="transform: matrix(1.44804, 0, 0, 1.44804, 0, 0); transform-origin: 50% 50%; cursor: move; transition: transform 200ms ease-in-out 0s;" width="2000" height="2000" viewBox="0 0 20000 20000"><g id="l1YIbm3tai2blW2O7fNIuqxj" fill="rgb(246,253,173)" stroke="rgb(246,253,173)" stroke-width="1" fill-rule="evenodd" style="transform: none;"><g><path id="pZYfcpBiH" d="M9250 15210 L9302 15211C9331 15212 9391 15217 9435 15222 C9479 15228 9726 15233 9985 15233 C10297 15234 10489 15230 10558 15222 C10615 15215 10679 15210 10701 15210 L10740 15210L10740 15210 L10740 15213C10740 15215 10680 15221 10606 15228 C10533 15234 10365 15244 10234 15250 C10061 15258 9923 15258 9735 15249 C9592 15243 9424 15231 9362 15224 L9250 15210"></path><path id="pqfUwYLXE" d="M3575 8045 L3578 8051 L3580 8050 L3587 8048C3591 8047 3650 8043 3718 8039 C3786 8035 3854 8035 3868 8040 C3883 8044 3896 8048 3897 8049 L3900 8050L3900 8050 L3895 8064C3893 8072 3895 8163 3900 8266 C3906 8370 3919 8533 3930 8630 C3941 8726 3954 8845 3959 8895 C3964 8944 3983 9063 4003 9160 C4022 9256 4061 9418 4088 9520 C4115 9621 4165 9786 4199 9885 C4233 9984 4281 10114 4306 10175 C4330 10235 4358 10305 4366 10330 C4375 10354 4400 10417 4422 10470 C4445 10522 4485 10607 4513 10660 C4540 10712 4593 10811 4630 10880 C4668 10948 4719 11036 4744 11074 C4769 11112 4790 11149 4790 11155 C4790 11161 4834 11234 4889 11316 C4944 11397 5023 11510 5065 11565 C5107 11620 5166 11700 5197 11743 C5227 11786 5278 11849 5309 11883 C5341 11917 5404 11986 5450 12037 C5497 12089 5564 12163 5600 12204 C5635 12244 5687 12297 5715 12321 C5742 12344 5796 12393 5835 12429 C5873 12465 5948 12534 6000 12581 C6052 12629 6106 12676 6120 12686 C6134 12696 6152 12709 6161 12715 C6170 12720 6240 12772 6316 12829 C6392 12887 6459 12939 6465 12946 C6470 12952 6530 12994 6597 13039 C6665 13083 6730 13124 6743 13129 C6756 13134 6791 13153 6821 13171 C6850 13189 6877 13206 6880 13210 C6882 13214 6948 13252 7025 13295 C7102 13338 7239 13410 7330 13456 C7420 13502 7501 13539 7510 13539 C7518 13539 7563 13555 7610 13575 C7656 13594 7709 13617 7727 13625 C7745 13633 7790 13652 7827 13666 C7864 13680 7972 13718 8066 13750 C8161 13783 8327 13833 8436 13863 C8545 13892 8686 13926 8750 13938 C8813 13950 8941 13971 9035 13984 C9128 13998 9263 14016 9335 14024 C9406 14032 9548 14044 9650 14051 C9764 14058 9941 14060 10115 14056 C10269 14053 10442 14045 10500 14040 C10557 14034 10659 14023 10725 14014 C10791 14006 10901 13991 10970 13980 C11038 13970 11130 13956 11174 13949 C11217 13943 11323 13920 11409 13898 C11494 13876 11620 13843 11687 13823 C11755 13804 11897 13757 12004 13719 C12110 13681 12254 13625 12324 13595 C12393 13564 12455 13540 12462 13540 C12468 13540 12519 13518 12574 13493 C12629 13467 12724 13419 12785 13386 C12845 13353 12946 13297 13010 13262 C13073 13226 13127 13194 13130 13190 C13132 13187 13154 13172 13177 13157 C13200 13142 13225 13129 13232 13129 C13239 13129 13308 13085 13386 13031 C13464 12978 13594 12884 13674 12822 C13754 12760 13822 12710 13826 12710 C13829 12710 13848 12695 13868 12678 C13888 12661 13952 12604 14009 12551 C14066 12498 14169 12403 14236 12340 C14303 12276 14406 12171 14465 12105 C14524 12039 14605 11949 14645 11905 C14685 11861 14729 11810 14743 11793 C14758 11776 14775 11751 14782 11738 C14789 11725 14854 11636 14925 11540 C14997 11443 15088 11315 15127 11254 C15165 11192 15207 11123 15218 11099 C15230 11074 15259 11023 15283 10985 C15307 10946 15369 10831 15422 10730 C15475 10628 15543 10487 15574 10417 C15604 10346 15630 10282 15630 10274 C15630 10265 15640 10235 15653 10206 C15667 10177 15708 10066 15744 9959 C15781 9852 15827 9711 15846 9645 C15865 9579 15896 9464 15914 9390 C15933 9315 15962 9183 15978 9095 C15994 9007 16013 8903 16019 8865 C16026 8826 16035 8732 16040 8655 C16045 8578 16054 8463 16059 8400 C16065 8336 16069 8236 16069 8177 C16069 8118 16070 8067 16070 8065 L16070 8060L16070 8060 L16088 8056C16099 8054 16143 8056 16186 8060 C16229 8065 16297 8069 16337 8069 L16410 8070L16410 8070 L16410 8077C16410 8081 16408 8091 16405 8099 C16403 8108 16398 8184 16395 8270 C16391 8355 16387 8436 16385 8450 C16383 8463 16378 8511 16375 8555 C16371 8599 16362 8691 16354 8760 C16346 8828 16330 8939 16319 9005 C16308 9071 16290 9172 16278 9230 C16267 9287 16236 9426 16209 9538 C16182 9650 16148 9779 16133 9823 C16119 9868 16093 9950 16075 10005 C16057 10060 16039 10119 16036 10136 C16033 10153 16014 10209 15994 10261 C15974 10312 15937 10406 15913 10470 C15888 10533 15859 10600 15849 10620 C15839 10639 15790 10740 15739 10845 C15689 10949 15644 11036 15639 11038 C15634 11040 15630 11048 15630 11057 C15630 11065 15611 11106 15588 11148 C15565 11190 15531 11252 15512 11285 C15492 11318 15461 11369 15441 11400 C15421 11430 15397 11463 15387 11474 C15378 11485 15370 11498 15370 11503 C15370 11508 15337 11558 15298 11613 C15259 11669 15221 11728 15213 11745 C15206 11761 15185 11793 15167 11817 C15149 11840 15103 11898 15065 11947 C15027 11995 14953 12086 14900 12149 C14848 12213 14789 12282 14770 12304 C14750 12325 14703 12377 14665 12418 C14626 12459 14550 12538 14495 12594 C14440 12649 14365 12722 14329 12755 C14293 12788 14243 12833 14219 12855 C14194 12877 14132 12930 14080 12974 C14027 13017 13967 13070 13945 13091 C13923 13112 13901 13130 13896 13130 C13891 13130 13837 13167 13775 13212 C13713 13257 13625 13322 13578 13356 C13532 13389 13461 13438 13421 13464 C13381 13490 13309 13531 13263 13556 C13216 13580 13158 13614 13133 13630 C13109 13647 12994 13710 12877 13771 C12760 13831 12625 13898 12576 13920 C12527 13942 12482 13960 12475 13960 C12468 13960 12434 13971 12399 13985 C12363 14000 12311 14022 12281 14036 C12252 14049 12122 14095 11991 14139 C11861 14183 11687 14236 11605 14258 C11522 14279 11403 14309 11340 14323 C11276 14337 11186 14355 11140 14363 C11093 14372 11030 14381 11000 14384 C10969 14386 10895 14395 10835 14404 C10774 14412 10698 14421 10665 14425 C10632 14428 10594 14433 10581 14435 C10568 14437 10503 14442 10436 14447 C10369 14451 10173 14455 10000 14455 C9826 14455 9627 14451 9557 14447 C9486 14443 9340 14428 9232 14414 C9123 14400 8999 14384 8955 14379 C8911 14375 8816 14359 8745 14344 C8673 14330 8561 14305 8495 14288 C8429 14272 8327 14245 8270 14228 C8212 14211 8124 14184 8075 14167 C8025 14151 7933 14119 7870 14097 C7806 14075 7737 14049 7715 14039 C7693 14029 7641 14008 7600 13992 C7558 13976 7511 13959 7495 13955 C7478 13951 7384 13909 7285 13860 C7186 13812 7060 13748 7005 13718 C6950 13687 6863 13637 6811 13606 C6760 13575 6704 13543 6686 13536 C6669 13529 6621 13501 6580 13475 C6538 13448 6467 13399 6420 13366 C6374 13332 6283 13265 6219 13217 C6154 13169 6097 13129 6093 13129 C6088 13129 6066 13112 6044 13092 C6022 13071 5980 13034 5949 13010 C5919 12985 5841 12918 5775 12860 C5709 12802 5578 12678 5484 12585 C5391 12491 5285 12381 5248 12340 C5212 12298 5131 12202 5068 12125 C5005 12048 4937 11961 4916 11933 C4896 11904 4875 11880 4871 11878 C4867 11876 4852 11859 4837 11839 C4823 11820 4805 11793 4798 11779 C4790 11766 4739 11688 4684 11606 C4629 11524 4541 11385 4487 11296 C4433 11207 4386 11123 4383 11110 C4379 11096 4366 11067 4352 11046 C4339 11026 4292 10933 4248 10841 C4204 10750 4155 10648 4140 10615 C4125 10582 4105 10539 4097 10520 C4088 10500 4065 10442 4044 10390 C4024 10337 3997 10268 3984 10236 C3970 10204 3960 10170 3960 10161 C3960 10152 3940 10086 3915 10014 C3891 9943 3853 9822 3831 9745 C3809 9668 3777 9546 3760 9475 C3743 9403 3724 9325 3718 9300 C3713 9275 3695 9181 3679 9092 C3663 9003 3641 8861 3630 8777 C3619 8693 3606 8564 3600 8490 C3593 8415 3584 8284 3579 8197 L3570 8040"></path><path id="psjjvMjPF" d="M17180 8070 L17185 8070C17187 8070 17190 8080 17190 8093 C17190 8107 17185 8198 17179 8296 C17174 8394 17162 8540 17154 8620 C17146 8699 17130 8832 17118 8915 C17107 8997 17096 9066 17093 9067 L17090 9070L17090 9070 L17080 9130L17070 9190L17070 9190 L17070 9197C17070 9201 17068 9215 17065 9227 L17060 9250L17060 9250 L17055 9275L17050 9300L17050 9300 L17045 9325L17040 9350L17040 9350 L17035 9370L17030 9390L17030 9390 L17025 9415L17020 9440L17020 9440 L17015 9465L17010 9490L17010 9490 L17000 9535L16990 9580L16990 9580 L16985 9600L16980 9620L16980 9620 L16975 9640L16970 9660L16970 9660 L16960 9700L16950 9740L16950 9740 L16945 9760L16940 9780L16940 9780 L16940 9787C16940 9791 16937 9798 16935 9802 L16930 9810L16930 9810 L16925 9830L16920 9850L16920 9850 L16910 9885L16900 9920L16900 9920 L16890 9955L16880 9990L16880 9990 L16880 9977C16880 9970 16887 9942 16895 9915 C16904 9887 16926 9804 16946 9731 C16965 9657 16984 9578 16989 9556 C16993 9533 17009 9462 17023 9398 C17037 9334 17058 9224 17069 9153 C17081 9082 17097 8984 17105 8935 C17113 8885 17128 8755 17139 8645 C17150 8535 17163 8367 17169 8272 C17175 8178 17180 8093 17180 8085 L17180 8070"></path></g></g><g id="l12PWT3AdUTKnxNiMdrS7cRj" fill="rgb(255,59,33)" stroke="rgb(255,59,33)" stroke-width="1" fill-rule="evenodd" style="transform: none;"><g><path id="pnZsPx7zN" d="M3900 8050 L3902 8048C3903 8047 3986 8043 4085 8039 C4184 8035 5498 8032 7005 8031 C8512 8030 10642 8034 11740 8039 C12837 8044 14260 8051 14902 8054 L16070 8060L16070 8060 L16070 8065C16070 8067 16069 8118 16069 8177 C16069 8236 16065 8336 16059 8400 C16054 8463 16045 8578 16040 8655 C16035 8732 16026 8826 16019 8865 C16013 8903 15994 9007 15978 9095 C15962 9183 15933 9315 15914 9390 C15896 9464 15865 9579 15846 9645 C15827 9711 15781 9852 15744 9959 C15708 10066 15667 10177 15653 10206 C15640 10235 15630 10265 15630 10274 C15630 10282 15604 10346 15574 10417 C15543 10487 15475 10628 15422 10730 C15369 10831 15307 10946 15283 10985 C15259 11023 15230 11074 15218 11099 C15207 11123 15165 11192 15127 11254 C15088 11315 14997 11443 14925 11540 C14854 11636 14789 11725 14782 11738 C14775 11751 14758 11776 14743 11793 C14729 11810 14685 11861 14645 11905 C14605 11949 14524 12039 14465 12105 C14406 12171 14303 12276 14236 12340 C14169 12403 14066 12498 14009 12551 C13952 12604 13888 12661 13868 12678 C13848 12695 13829 12710 13826 12710 C13822 12710 13754 12760 13674 12822 C13594 12884 13464 12978 13386 13031 C13308 13085 13239 13129 13232 13129 C13225 13129 13200 13142 13177 13157 C13154 13172 13132 13187 13130 13190 C13127 13194 13073 13226 13010 13262 C12946 13297 12845 13353 12785 13386 C12724 13419 12629 13467 12574 13493 C12519 13518 12468 13540 12462 13540 C12455 13540 12393 13564 12324 13595 C12254 13625 12110 13681 12004 13719 C11897 13757 11755 13804 11687 13823 C11620 13843 11494 13876 11409 13898 C11323 13920 11217 13943 11174 13949 C11130 13956 11038 13970 10970 13980 C10901 13991 10791 14006 10725 14014 C10659 14023 10557 14034 10500 14040 C10442 14045 10269 14053 10115 14056 C9941 14060 9764 14058 9650 14051 C9548 14044 9406 14032 9335 14024 C9263 14016 9128 13998 9035 13984 C8941 13971 8813 13950 8750 13938 C8686 13926 8545 13892 8436 13863 C8327 13833 8161 13783 8066 13750 C7972 13718 7864 13680 7827 13666 C7790 13652 7745 13633 7727 13625 C7709 13617 7656 13594 7610 13575 C7563 13555 7518 13539 7510 13539 C7501 13539 7420 13502 7330 13456 C7239 13410 7102 13338 7025 13295 C6948 13252 6882 13214 6880 13210 C6877 13206 6850 13189 6821 13171 C6791 13153 6756 13134 6743 13129 C6730 13124 6665 13083 6597 13039 C6530 12994 6470 12952 6465 12946 C6459 12939 6392 12887 6316 12829 C6240 12772 6170 12720 6161 12715 C6152 12709 6134 12696 6120 12686 C6106 12676 6052 12629 6000 12581 C5948 12534 5873 12465 5835 12429 C5796 12393 5742 12344 5715 12321 C5687 12297 5635 12244 5600 12204 C5564 12163 5497 12089 5450 12037 C5404 11986 5341 11917 5309 11883 C5278 11849 5227 11786 5197 11743 C5166 11700 5107 11620 5065 11565 C5023 11510 4944 11397 4889 11316 C4834 11234 4790 11161 4790 11155 C4790 11149 4769 11112 4744 11074 C4719 11036 4668 10948 4630 10880 C4593 10811 4540 10712 4513 10660 C4485 10607 4445 10522 4422 10470 C4400 10417 4375 10354 4366 10330 C4358 10305 4330 10235 4306 10175 C4281 10114 4233 9984 4199 9885 C4165 9786 4115 9621 4088 9520 C4061 9418 4022 9256 4003 9160 C3983 9063 3964 8944 3959 8895 C3954 8845 3941 8726 3930 8630 C3919 8533 3906 8370 3900 8266 C3895 8163 3893 8072 3895 8064 L3900 8050M10864 13195 C10804 13170 10743 13119 10726 13081 C10700 13023 10679 12905 10680 12816 C10680 12751 10687 12713 10713 12630 C10732 12572 10757 12503 10770 12477 C10791 12435 10797 12430 10826 12430 C10853 12430 10868 12441 10931 12510 C10971 12555 11017 12611 11032 12635 C11047 12659 11074 12699 11093 12723 C11138 12782 11170 12878 11169 12954 C11169 13069 11145 13112 11042 13181 C10993 13214 10923 13219 10864 13195 M8960 13164 C8906 13134 8851 13080 8828 13032 C8809 12993 8805 12968 8805 12895 C8805 12813 8808 12799 8836 12742 C8903 12610 9037 12453 9114 12415 C9142 12402 9146 12402 9168 12423 C9229 12480 9329 12767 9329 12886 C9330 12948 9298 13034 9258 13083 C9198 13155 9030 13201 8960 13164 M12532 12471 C12481 12445 12447 12406 12411 12334 C12340 12190 12311 11932 12351 11802 C12361 11771 12363 11769 12398 11775 C12418 11778 12474 11801 12523 11825 C12571 11850 12628 11876 12648 11883 C12701 11901 12822 11993 12851 12037 C12945 12178 12940 12338 12841 12420 C12760 12487 12612 12511 12532 12471 M7186 12445 C7088 12411 7027 12291 7047 12173 C7053 12139 7068 12090 7081 12064 C7109 12007 7233 11880 7259 11880 C7270 11880 7281 11875 7285 11869 C7293 11856 7391 11807 7487 11768 C7601 11723 7615 11719 7636 11735 C7663 11754 7668 11969 7645 12073 C7611 12225 7517 12366 7410 12422 C7346 12457 7249 12466 7186 12445 M9845 11741 C9794 11729 9742 11685 9712 11626 C9688 11580 9685 11564 9685 11470 C9684 11351 9695 11313 9766 11163 C9823 11043 9903 10946 9941 10951 C9970 10956 10035 11050 10115 11204 C10179 11328 10180 11329 10180 11413 C10180 11485 10176 11504 10150 11556 C10084 11688 9953 11767 9845 11741 M13987 11172 C13939 11156 13872 11115 13805 11061 C13737 11005 13680 10930 13627 10824 C13604 10779 13560 10657 13560 10639 C13560 10624 13609 10613 13675 10616 C13910 10624 13940 10629 14028 10671 C14127 10719 14186 10773 14224 10855 C14300 11015 14217 11180 14060 11180 C14032 11180 13999 11176 13987 11172 M5920 11140 C5863 11127 5845 11115 5806 11067 C5743 10989 5712 10894 5724 10814 C5731 10766 5786 10687 5836 10653 C5885 10620 6022 10560 6075 10550 C6141 10536 6399 10525 6434 10534 C6460 10540 6461 10544 6456 10576 C6447 10630 6377 10768 6299 10882 C6226 10990 6200 11020 6135 11071 C6050 11136 5987 11156 5920 11140 M11760 11132 C11707 11109 11627 11030 11601 10977 C11557 10886 11537 10783 11536 10630 C11535 10485 11535 10485 11575 10486 C11610 10487 11709 10529 11949 10648 C11986 10666 12055 10746 12076 10797 C12092 10835 12094 10929 12079 10985 C12065 11035 12009 11095 11947 11126 C11889 11155 11816 11157 11760 11132 M7967 11076 C7853 11040 7826 11017 7783 10924 C7743 10840 7743 10754 7783 10687 C7863 10550 8135 10376 8304 10353 C8374 10343 8377 10355 8354 10590 C8344 10686 8317 10781 8275 10863 C8229 10953 8164 11040 8142 11040 C8135 11040 8130 11043 8130 11048 C8130 11060 8086 11079 8045 11085 C8025 11087 7990 11083 7967 11076 M12962 9549 C12884 9509 12761 9397 12674 9288 C12547 9129 12547 9128 12693 9077 C12810 9036 12991 9000 13076 9000 C13140 9000 13222 9029 13272 9070 C13322 9111 13372 9215 13378 9289 C13381 9337 13377 9356 13355 9401 C13313 9484 13285 9515 13220 9549 C13169 9574 13148 9580 13090 9580 C13031 9580 13010 9575 12962 9549 M14677 9431 C14627 9423 14553 9397 14482 9362 C14446 9345 14337 9255 14237 9160 C14145 9073 14146 9062 14265 9001 C14314 8975 14373 8943 14395 8929 C14490 8869 14559 8846 14662 8841 C14755 8837 14763 8839 14823 8867 C14899 8903 14957 8966 14983 9039 C14998 9079 15001 9110 14998 9182 C14992 9310 14969 9359 14900 9394 C14835 9427 14745 9442 14677 9431 M5171 9390 C5043 9324 4991 9161 5054 9025 C5132 8856 5310 8825 5592 8930 C5763 8994 5815 9025 5805 9057 C5794 9094 5624 9255 5530 9319 C5444 9377 5385 9399 5290 9405 C5223 9409 5203 9406 5171 9390 M6729 9363 C6610 9299 6581 9070 6681 8984 C6694 8972 6738 8948 6780 8929 C6846 8899 6867 8895 6957 8891 C7128 8885 7316 8925 7374 8981 C7394 9000 7394 9000 7371 9044 C7318 9144 7110 9316 6988 9362 C6923 9386 6772 9386 6729 9363 "></path></g></g><g id="lqCrR8Z1FjD9QXqpzYIR6Aj" fill="rgb(93,173,37)" stroke="rgb(93,173,37)" stroke-width="1" fill-rule="evenodd" style="transform: none;"><g><path id="p06Kt1J3F" d="M9250 15210 L9242 15210C9238 15210 9205 15208 9170 15205 C9134 15202 9030 15187 8940 15173 C8849 15160 8708 15135 8626 15119 C8545 15103 8470 15090 8459 15090 C8448 15090 8431 15085 8422 15080 C8412 15074 8357 15059 8300 15045 C8242 15031 8154 15008 8105 14995 C8055 14981 7972 14958 7920 14944 C7867 14929 7764 14896 7690 14869 C7615 14842 7542 14813 7526 14805 C7511 14796 7487 14790 7474 14790 C7461 14790 7416 14776 7375 14760 C7333 14743 7292 14725 7282 14720 C7272 14714 7198 14681 7116 14645 C7035 14609 6883 14534 6778 14479 C6674 14424 6584 14380 6580 14380 C6575 14380 6547 14365 6516 14347 C6486 14329 6410 14283 6348 14245 C6285 14207 6192 14147 6140 14112 C6087 14078 6024 14034 6000 14015 C5975 13996 5940 13973 5922 13964 C5904 13956 5835 13908 5769 13859 C5703 13809 5632 13754 5612 13735 C5591 13717 5531 13665 5477 13620 C5423 13576 5375 13540 5371 13540 C5366 13540 5233 13412 5076 13256 C4918 13099 4790 12968 4790 12965 C4790 12961 4730 12892 4657 12811 C4584 12730 4491 12625 4452 12578 C4412 12530 4380 12484 4380 12476 C4380 12468 4373 12456 4365 12450 C4356 12443 4326 12405 4297 12366 C4268 12327 4238 12288 4231 12280 C4224 12271 4199 12240 4177 12210 C4155 12179 4106 12109 4068 12052 C4030 11996 4000 11946 4000 11941 C4000 11936 3993 11927 3985 11920 C3978 11914 3964 11894 3955 11877 C3946 11859 3929 11828 3917 11808 C3905 11788 3876 11740 3854 11703 C3831 11665 3809 11628 3806 11620 C3802 11611 3788 11587 3774 11565 C3761 11543 3739 11504 3726 11479 C3712 11454 3694 11427 3685 11420 C3677 11413 3670 11403 3670 11398 C3670 11393 3644 11338 3613 11274 C3582 11211 3553 11157 3548 11154 C3543 11151 3540 11136 3540 11120 C3540 11105 3533 11087 3525 11080 C3518 11074 3509 11057 3505 11043 C3501 11029 3487 11001 3474 10981 C3461 10961 3450 10939 3450 10931 C3450 10923 3440 10901 3428 10883 C3417 10864 3410 10846 3413 10843 C3416 10839 3410 10824 3398 10808 C3387 10791 3380 10776 3383 10772 C3387 10769 3382 10758 3373 10748 C3364 10738 3359 10727 3363 10723 C3366 10720 3360 10706 3349 10692 C3338 10678 3330 10661 3330 10654 C3330 10647 3320 10625 3309 10605 C3297 10586 3290 10564 3292 10557 C3294 10550 3285 10525 3272 10501 C3259 10477 3250 10452 3253 10445 C3256 10437 3255 10428 3251 10425 C3248 10421 3244 10415 3244 10411 C3243 10408 3238 10391 3231 10375 C3225 10358 3215 10337 3209 10327 C3204 10318 3200 10304 3200 10296 C3200 10289 3186 10243 3169 10194 C3152 10145 3135 10082 3130 10055 C3126 10027 3108 9953 3090 9890 C3073 9826 3048 9732 3035 9680 C3022 9627 3004 9546 2995 9500 C2986 9453 2976 9408 2972 9400 C2969 9391 2965 9378 2964 9370 C2963 9361 2950 9280 2936 9190 C2921 9099 2902 8984 2893 8935 C2884 8885 2875 8806 2873 8760 C2871 8713 2865 8666 2860 8655 C2855 8644 2846 8566 2840 8482 C2834 8398 2829 8267 2829 8191 C2830 8053 2830 8053 2996 8046 C3088 8042 3254 8040 3366 8040 L3570 8040L3570 8040 L3579 8197C3584 8284 3593 8415 3600 8490 C3606 8564 3619 8693 3630 8777 C3641 8861 3663 9003 3679 9092 C3695 9181 3713 9275 3718 9300 C3724 9325 3743 9403 3760 9475 C3777 9546 3809 9668 3831 9745 C3853 9822 3891 9943 3915 10014 C3940 10086 3960 10152 3960 10161 C3960 10170 3970 10204 3984 10236 C3997 10268 4024 10337 4044 10390 C4065 10442 4088 10500 4097 10520 C4105 10539 4125 10582 4140 10615 C4155 10648 4204 10750 4248 10841 C4292 10933 4339 11026 4352 11046 C4366 11067 4379 11096 4383 11110 C4386 11123 4433 11207 4487 11296 C4541 11385 4629 11524 4684 11606 C4739 11688 4790 11766 4798 11779 C4805 11793 4823 11820 4837 11839 C4852 11859 4867 11876 4871 11878 C4875 11880 4896 11904 4916 11933 C4937 11961 5005 12048 5068 12125 C5131 12202 5212 12298 5248 12340 C5285 12381 5391 12491 5484 12585 C5578 12678 5709 12802 5775 12860 C5841 12918 5919 12985 5949 13010 C5980 13034 6022 13071 6044 13092 C6066 13112 6088 13129 6093 13129 C6097 13129 6154 13169 6219 13217 C6283 13265 6374 13332 6420 13366 C6467 13399 6538 13448 6580 13475 C6621 13501 6669 13529 6686 13536 C6704 13543 6760 13575 6811 13606 C6863 13637 6950 13687 7005 13718 C7060 13748 7186 13812 7285 13860 C7384 13909 7478 13951 7495 13955 C7511 13959 7558 13976 7600 13992 C7641 14008 7693 14029 7715 14039 C7737 14049 7806 14075 7870 14097 C7933 14119 8025 14151 8075 14167 C8124 14184 8212 14211 8270 14228 C8327 14245 8429 14272 8495 14288 C8561 14305 8673 14330 8745 14344 C8816 14359 8911 14375 8955 14379 C8999 14384 9123 14400 9232 14414 C9340 14428 9486 14443 9557 14447 C9627 14451 9826 14455 10000 14455 C10173 14455 10369 14451 10436 14447 C10503 14442 10568 14437 10581 14435 C10594 14433 10632 14428 10665 14425 C10698 14421 10774 14412 10835 14404 C10895 14395 10969 14386 11000 14384 C11030 14381 11093 14372 11140 14363 C11186 14355 11276 14337 11340 14323 C11403 14309 11522 14279 11605 14258 C11687 14236 11861 14183 11991 14139 C12122 14095 12252 14049 12281 14036 C12311 14022 12363 14000 12399 13985 C12434 13971 12468 13960 12475 13960 C12482 13960 12527 13942 12576 13920 C12625 13898 12760 13831 12877 13771 C12994 13710 13109 13647 13133 13630 C13158 13614 13216 13580 13263 13556 C13309 13531 13381 13490 13421 13464 C13461 13438 13532 13389 13578 13356 C13625 13322 13713 13257 13775 13212 C13837 13167 13891 13130 13896 13130 C13901 13130 13923 13112 13945 13091 C13967 13070 14027 13017 14080 12974 C14132 12930 14194 12877 14219 12855 C14243 12833 14293 12788 14329 12755 C14365 12722 14440 12649 14495 12594 C14550 12538 14626 12459 14665 12418 C14703 12377 14750 12325 14770 12304 C14789 12282 14848 12213 14900 12149 C14953 12086 15027 11995 15065 11947 C15103 11898 15149 11840 15167 11817 C15185 11793 15206 11761 15213 11745 C15221 11728 15259 11669 15298 11613 C15337 11558 15370 11508 15370 11503 C15370 11498 15378 11485 15387 11474 C15397 11463 15421 11430 15441 11400 C15461 11369 15492 11318 15512 11285 C15531 11252 15565 11190 15588 11148 C15611 11106 15630 11065 15630 11057 C15630 11048 15634 11040 15639 11038 C15644 11036 15689 10949 15739 10845 C15790 10740 15839 10639 15849 10620 C15859 10600 15888 10533 15913 10470 C15937 10406 15974 10312 15994 10261 C16014 10209 16033 10153 16036 10136 C16039 10119 16057 10060 16075 10005 C16093 9950 16119 9868 16133 9823 C16148 9779 16182 9650 16209 9538 C16236 9426 16267 9287 16278 9230 C16290 9172 16308 9071 16319 9005 C16330 8939 16346 8828 16354 8760 C16362 8691 16371 8599 16375 8555 C16378 8511 16383 8463 16385 8450 C16387 8436 16391 8355 16395 8270 C16398 8184 16403 8108 16405 8099 C16408 8091 16410 8081 16410 8077 L16410 8070L16410 8070 L16512 8067C16568 8065 16741 8064 16895 8064 C17049 8065 17176 8066 17177 8067 L17180 8070L17180 8070 L17180 8085C17180 8093 17175 8178 17169 8272 C17163 8367 17150 8535 17139 8645 C17128 8755 17113 8885 17105 8935 C17097 8984 17081 9082 17069 9153 C17058 9224 17037 9334 17023 9398 C17009 9462 16993 9533 16989 9556 C16984 9578 16965 9657 16946 9731 C16926 9804 16904 9887 16895 9915 C16887 9942 16880 9970 16880 9977 L16880 9990L16880 9990 L16880 9999C16880 10004 16873 10028 16865 10052 C16858 10075 16843 10124 16834 10160 C16824 10195 16813 10229 16809 10235 C16805 10240 16790 10283 16775 10330 C16759 10376 16743 10419 16739 10425 C16735 10430 16726 10455 16720 10479 C16713 10504 16699 10542 16689 10564 C16679 10586 16668 10616 16665 10630 C16661 10643 16643 10686 16625 10725 C16607 10763 16577 10831 16560 10875 C16542 10919 16521 10966 16513 10980 C16505 10993 16494 11017 16488 11032 C16482 11047 16473 11060 16469 11060 C16464 11060 16460 11071 16460 11086 C16460 11100 16442 11144 16421 11183 C16399 11222 16362 11297 16339 11350 C16315 11402 16288 11454 16278 11465 C16268 11476 16253 11500 16244 11520 C16235 11539 16217 11573 16204 11595 C16191 11617 16174 11646 16167 11660 C16160 11673 16142 11704 16127 11727 C16112 11750 16099 11773 16100 11777 C16100 11781 16088 11797 16075 11811 C16061 11826 16048 11849 16044 11862 C16041 11875 16028 11897 16016 11911 C16004 11924 15986 11951 15977 11970 C15967 11989 15915 12066 15862 12142 C15808 12217 15738 12312 15707 12354 C15675 12396 15644 12430 15639 12430 C15634 12430 15630 12439 15630 12450 C15630 12461 15588 12521 15538 12582 C15487 12644 15393 12751 15328 12821 C15263 12891 15210 12952 15210 12957 C15209 12962 15086 13089 14934 13238 C14783 13387 14635 13525 14607 13545 C14578 13564 14507 13621 14450 13670 C14392 13719 14294 13797 14232 13844 C14171 13891 14094 13945 14062 13964 C14031 13983 13979 14018 13947 14042 C13916 14065 13829 14123 13755 14170 C13680 14216 13589 14274 13552 14298 C13515 14322 13451 14357 13410 14376 C13369 14395 13270 14446 13190 14489 C13110 14532 12977 14598 12895 14635 C12812 14671 12727 14710 12705 14720 C12683 14729 12636 14749 12600 14764 C12565 14778 12530 14790 12524 14790 C12517 14790 12431 14818 12332 14854 C12233 14889 12077 14941 11984 14970 C11891 14998 11725 15043 11615 15070 C11505 15097 11354 15130 11280 15143 C11205 15157 11109 15173 11065 15179 C11021 15184 10933 15194 10870 15199 C10806 15205 10751 15210 10747 15210 L10740 15210L10740 15210 L10701 15210C10679 15210 10615 15215 10558 15222 C10489 15230 10297 15234 9985 15233 C9726 15233 9479 15228 9435 15222 C9391 15217 9331 15212 9302 15211 L9250 15210"></path></g></g><g id="l4Ic7eE9wVGeurpOtuBhTgAj" fill="rgb(0,4,7)" stroke="rgb(0,4,7)" stroke-width="1" fill-rule="evenodd" style="transform: none;"><g><path id="pRzII7PYS" d="M10864 13195 C10804 13170 10743 13119 10726 13081 C10700 13023 10679 12905 10680 12816 C10680 12751 10687 12713 10713 12630 C10732 12572 10757 12503 10770 12477 C10791 12435 10797 12430 10826 12430 C10853 12430 10868 12441 10931 12510 C10971 12555 11017 12611 11032 12635 C11047 12659 11074 12699 11093 12723 C11138 12782 11170 12878 11169 12954 C11169 13069 11145 13112 11042 13181 C10993 13214 10923 13219 10864 13195 "></path><path id="puq6lGSVn" d="M8960 13164 C8906 13134 8851 13080 8828 13032 C8809 12993 8805 12968 8805 12895 C8805 12813 8808 12799 8836 12742 C8903 12610 9037 12453 9114 12415 C9142 12402 9146 12402 9168 12423 C9229 12480 9329 12767 9329 12886 C9330 12948 9298 13034 9258 13083 C9198 13155 9030 13201 8960 13164 "></path><path id="pUrIo5Tcc" d="M12532 12471 C12481 12445 12447 12406 12411 12334 C12340 12190 12311 11932 12351 11802 C12361 11771 12363 11769 12398 11775 C12418 11778 12474 11801 12523 11825 C12571 11850 12628 11876 12648 11883 C12701 11901 12822 11993 12851 12037 C12945 12178 12940 12338 12841 12420 C12760 12487 12612 12511 12532 12471 "></path><path id="p11bVtP6YI" d="M7186 12445 C7088 12411 7027 12291 7047 12173 C7053 12139 7068 12090 7081 12064 C7109 12007 7233 11880 7259 11880 C7270 11880 7281 11875 7285 11869 C7293 11856 7391 11807 7487 11768 C7601 11723 7615 11719 7636 11735 C7663 11754 7668 11969 7645 12073 C7611 12225 7517 12366 7410 12422 C7346 12457 7249 12466 7186 12445 "></path><path id="p114h7xqn" d="M9845 11741 C9794 11729 9742 11685 9712 11626 C9688 11580 9685 11564 9685 11470 C9684 11351 9695 11313 9766 11163 C9823 11043 9903 10946 9941 10951 C9970 10956 10035 11050 10115 11204 C10179 11328 10180 11329 10180 11413 C10180 11485 10176 11504 10150 11556 C10084 11688 9953 11767 9845 11741 "></path><path id="pK3m1YhFc" d="M13987 11172 C13939 11156 13872 11115 13805 11061 C13737 11005 13680 10930 13627 10824 C13604 10779 13560 10657 13560 10639 C13560 10624 13609 10613 13675 10616 C13910 10624 13940 10629 14028 10671 C14127 10719 14186 10773 14224 10855 C14300 11015 14217 11180 14060 11180 C14032 11180 13999 11176 13987 11172 "></path><path id="pecUvaBzv" d="M5920 11140 C5863 11127 5845 11115 5806 11067 C5743 10989 5712 10894 5724 10814 C5731 10766 5786 10687 5836 10653 C5885 10620 6022 10560 6075 10550 C6141 10536 6399 10525 6434 10534 C6460 10540 6461 10544 6456 10576 C6447 10630 6377 10768 6299 10882 C6226 10990 6200 11020 6135 11071 C6050 11136 5987 11156 5920 11140 "></path><path id="pyDLS1Eph" d="M11760 11132 C11707 11109 11627 11030 11601 10977 C11557 10886 11537 10783 11536 10630 C11535 10485 11535 10485 11575 10486 C11610 10487 11709 10529 11949 10648 C11986 10666 12055 10746 12076 10797 C12092 10835 12094 10929 12079 10985 C12065 11035 12009 11095 11947 11126 C11889 11155 11816 11157 11760 11132 "></path><path id="p1GgxYfSjt" d="M7967 11076 C7853 11040 7826 11017 7783 10924 C7743 10840 7743 10754 7783 10687 C7863 10550 8135 10376 8304 10353 C8374 10343 8377 10355 8354 10590 C8344 10686 8317 10781 8275 10863 C8229 10953 8164 11040 8142 11040 C8135 11040 8130 11043 8130 11048 C8130 11060 8086 11079 8045 11085 C8025 11087 7990 11083 7967 11076 "></path><path id="p1EscuoyBl" d="M12962 9549 C12884 9509 12761 9397 12674 9288 C12547 9129 12547 9128 12693 9077 C12810 9036 12991 9000 13076 9000 C13140 9000 13222 9029 13272 9070 C13322 9111 13372 9215 13378 9289 C13381 9337 13377 9356 13355 9401 C13313 9484 13285 9515 13220 9549 C13169 9574 13148 9580 13090 9580 C13031 9580 13010 9575 12962 9549 "></path><path id="pGMsSNJqM" d="M14677 9431 C14627 9423 14553 9397 14482 9362 C14446 9345 14337 9255 14237 9160 C14145 9073 14146 9062 14265 9001 C14314 8975 14373 8943 14395 8929 C14490 8869 14559 8846 14662 8841 C14755 8837 14763 8839 14823 8867 C14899 8903 14957 8966 14983 9039 C14998 9079 15001 9110 14998 9182 C14992 9310 14969 9359 14900 9394 C14835 9427 14745 9442 14677 9431 "></path><path id="p29byQ9SL" d="M5171 9390 C5043 9324 4991 9161 5054 9025 C5132 8856 5310 8825 5592 8930 C5763 8994 5815 9025 5805 9057 C5794 9094 5624 9255 5530 9319 C5444 9377 5385 9399 5290 9405 C5223 9409 5203 9406 5171 9390 "></path><path id="pibo96DWZ" d="M6729 9363 C6610 9299 6581 9070 6681 8984 C6694 8972 6738 8948 6780 8929 C6846 8899 6867 8895 6957 8891 C7128 8885 7316 8925 7374 8981 C7394 9000 7394 9000 7371 9044 C7318 9144 7110 9316 6988 9362 C6923 9386 6772 9386 6729 9363 "></path></g></g></svg>