<?xml version="1.0" encoding="UTF-8" standalone="no"?>
<svg
   xmlns:dc="http://purl.org/dc/elements/1.1/"
   xmlns:cc="http://creativecommons.org/ns#"
   xmlns:rdf="http://www.w3.org/1999/02/22-rdf-syntax-ns#"
   xmlns:svg="http://www.w3.org/2000/svg"
   xmlns="http://www.w3.org/2000/svg"
   xmlns:sodipodi="http://sodipodi.sourceforge.net/DTD/sodipodi-0.dtd"
   xmlns:inkscape="http://www.inkscape.org/namespaces/inkscape"
   width="203.23mm"
   height="126.05mm"
   version="1.1"
   viewBox="0 0 203.23 126.05"
   id="svg24"
   sodipodi:docname="tapir-left.svg"
   inkscape:version="1.0.2 (e86c8708, 2021-01-15)">
  <defs
     id="defs28">
    <clipPath
       clipPathUnits="userSpaceOnUse"
       id="clipPath112">
      <path
         d="m 337.62,403.59 c -0.33255,-0.0736 -0.74483,-0.31956 -0.91619,-0.54657 -0.39929,-0.52896 -2.6738,-5.5542 -3.8592,-8.5266 -0.50299,-1.2612 -1.4999,-3.5282 -2.2153,-5.0379 -0.72115,-1.5218 -1.8446,-4.3513 -2.5213,-6.35 -0.67129,-1.9828 -1.973,-5.5895 -2.8926,-8.0149 -2.001,-5.2771 -2.0312,-5.3691 -3.0188,-9.1722 -0.42825,-1.6492 -1.3418,-5.0624 -2.03,-7.5847 -2.6246,-9.6185 -3.9008,-17.815 -3.4742,-22.313 0.1826,-1.9255 0.26287,-1.9937 2.3447,-1.9918 2.0495,0.002 3.2868,0.23118 8.8868,1.6473 9.8274,2.4851 18.322,6.9494 23.154,12.168 1.9965,2.1564 4.1626,5.1217 5.1135,7 0.53255,1.0519 2.1475,6.2825 2.461,7.9707 l 0.20977,1.1298 3.2632,0.85086 c 4.8983,1.2772 13.269,2.6168 19.843,3.1753 2.2728,0.19312 2.5588,0.25314 2.5588,0.53707 0,0.51834 -0.66802,2.3221 -2.0787,5.6127 -0.72781,1.6977 -1.781,4.2774 -2.3403,5.7326 -0.55937,1.4552 -1.5798,4.096 -2.2678,5.8684 -0.6879,1.7724 -1.2507,3.2535 -1.2507,3.2914 0,0.0379 0.57546,0.16459 1.2788,0.28163 3.3236,0.55307 5.27,2.4469 5.5246,5.3753 0.15604,1.7948 0.078,1.8609 -2.4069,2.0396 -4.9086,0.35299 -10.27,0.0922 -11.487,-0.55881 -0.48693,-0.2606 -0.71106,-0.87847 -1.7294,-4.7677 -1.0466,-3.9969 -2.0236,-7.0294 -3.815,-11.841 -0.82959,-2.2281 -1.586,-4.6784 -2.0965,-6.791 -1.915,-7.9248 -2.3058,-8.7025 -3.1683,-6.3037 -0.17441,0.48507 -2.0518,4.2667 -4.1719,8.4036 -2.1201,4.1369 -4.3778,8.7406 -5.017,10.231 -2.2166,5.1664 -4.6616,11.06 -4.6616,11.237 0,0.0978 0.44407,0.27007 0.98682,0.38274 2.8933,0.60066 4.2232,2.0017 4.4379,4.6752 0.10655,1.3274 -0.0207,1.939 -0.44017,2.1162 -0.41749,0.17638 -11.439,0.24268 -12.204,0.0734 z m 80.156,-4.5964 c -2.198,-0.5049 -7.3283,-2.5422 -9.1201,-3.6218 -0.5534,-0.33342 -1.3239,-0.96712 -1.7122,-1.4082 -0.85739,-0.97405 -0.86377,-0.91155 0.46531,-4.5621 0.52981,-1.4552 2.0145,-5.6621 3.2993,-9.3486 1.2848,-3.6865 2.8589,-7.9331 3.498,-9.4368 0.63909,-1.5037 1.1878,-2.8928 1.2193,-3.0868 0.0561,-0.34555 -0.12374,-0.23852 -3.9554,-0.17353 l -3.7733,0.21746 -0.21722,-0.94777 c -0.86388,-3.7692 -1.5724,-6.4548 -2.7385,-12.59 -1.2196,-6.4169 -1.065,-5.3773 -1.7711,-11.906 -1.185,-10.957 -1.4286,-15.085 -1.27,-21.519 0.19561,-7.9319 0.85036,-12.995 2.4865,-19.229 0.87111,-3.319 1.7269,-5.6391 3.187,-8.6402 2.3049,-4.7376 4.3048,-7.4988 8.0309,-11.089 2.1732,-2.0936 2.356,-2.2288 3.0158,-2.2288 0.59259,0 0.60207,-0.6189 1.2525,-0.5683 5.4317,0.42253 18.32,3.0783 25.428,5.2396 2.927,0.89005 8.3806,2.8618 11.216,4.0552 3.8752,1.631 10.577,5.0219 14.625,7.3994 2.0773,1.2202 3.8254,2.2185 3.8847,2.2185 0.36996,0 5.0379,-5.296 8.112,-9.2034 l 0.95693,-1.2163 0.77902,0.75606 c 1.814,1.7606 3.2688,4.3573 3.5473,6.3316 0.16964,1.2029 -0.006,3.6242 -0.32408,4.46 -0.0935,0.24587 -0.10464,0.48741 -0.0248,0.53675 0.36458,0.22532 4.7896,-2.247 7.0664,-3.9481 l 2.3744,-1.774 0.76675,0.74985 c 0.98862,0.96684 1.8253,2.2424 2.343,3.5721 0.35191,0.90385 0.4112,1.3673 0.40606,3.175 -0.005,1.8673 -0.0635,2.2725 -0.4942,3.4396 -0.85027,2.3041 -1.5004,3.3615 -2.9431,4.7867 -0.74999,0.74093 -1.991,1.7548 -2.7579,2.253 l -1.3942,0.90587 3.824,3.8324 c 6.3863,6.4004 10.163,11.485 14.349,19.318 3.4954,6.5406 6.0816,14.957 7.2485,23.591 0.44614,3.3007 0.81522,8.865 0.64754,9.7626 -0.18625,0.99695 -1.2217,2.3954 -2.167,2.9267 -0.88355,0.49658 -2.9851,0.87313 -4.91,0.87977 -2.3035,0.008 -2.696,-0.15698 -4.3215,-1.816 -1.1687,-1.1927 -1.6384,-1.8596 -2.734,-3.8816 -0.72761,-1.3428 -1.5852,-2.7495 -1.9058,-3.1261 -0.64678,-0.75968 -3.2204,-2.5443 -4.8704,-3.3772 -2.924,-1.476 -4.6817,-1.8101 -10.946,-2.0805 -10.019,-0.43238 -12.519,-1.0393 -17.467,-4.2407 -2.6066,-1.6865 -3.0002,-1.7364 -5.5576,-0.70532 -2.1325,0.85976 -3.6928,1.1466 -5.4855,1.0083 l -1.366,-0.10534 -0.56069,0.99348 c -0.71883,1.2737 -2.0852,2.6359 -3.6764,3.6653 l -1.2572,0.81329 0.005,3.8279 c 0.003,2.1054 -0.11482,5.4551 -0.26095,7.4439 -0.30184,4.1081 -0.6339,10.36 -0.62902,11.843 l 0.003,0.99494 1.5577,0.005 c 3.3193,0.0105 6.5177,1.7713 7.8066,4.2976 l 0.38369,0.75211 -0.78945,0.71105 c -1.4994,1.3505 -7.7224,4.4314 -10.363,5.1304 -1.3223,0.35006 -2.7631,0.31731 -3.6443,-0.0828 -0.67309,-0.30566 -1.8999,-1.641 -3.0117,-3.2782 -0.79998,-1.178 -4.0868,-7.2372 -5.4061,-9.966 -0.77391,-1.6007 -1.4322,-2.9416 -1.4629,-2.9798 -0.0307,-0.0382 -0.63311,0.44371 -1.3387,1.0708 -0.70559,0.62709 -2.037,1.7266 -2.9586,2.4432 -0.9216,0.7166 -2.1519,1.7096 -2.734,2.2067 -0.58208,0.49711 -1.614,1.2912 -2.293,1.7647 -2.4167,1.685 -7.4965,5.4015 -7.4965,5.4847 0,0.0465 0.23429,0.37753 0.52065,0.73564 1.291,1.6145 1.9391,4.2805 1.4217,5.8483 -0.17719,0.5369 -0.33258,0.69856 -0.75211,0.78247 -0.72379,0.14476 -2.0165,0.10337 -2.8659,-0.0917 z"
         fill="#414141"
         id="path114"
         style="display:none;stroke-width:1" />
      <path
         id="lpe_path-effect116"
         style="stroke-width:1"
         class="powerclip"
         d="m 311.12472,272.64648 h 115.4964 V 373.63576 H 311.12472 Z M 337.62,403.59 l 3e-5,-8e-5 c 0.765,0.16928 11.78651,0.10298 12.204,-0.0734 0.41947,-0.1772 0.54672,-0.7888 0.44017,-2.1162 -0.2147,-2.6735 -1.5446,-4.07454 -4.4379,-4.6752 -0.54275,-0.11267 -0.98682,-0.28494 -0.98682,-0.38274 0,-0.177 2.445,-6.0706 4.6616,-11.237 0.6392,-1.4904 2.8969,-6.0941 5.017,-10.231 2.1201,-4.1369 3.99749,-7.91853 4.1719,-8.4036 0.8625,-2.3988 1.2533,-1.6211 3.1683,6.3037 0.5105,2.1126 1.26691,4.5629 2.0965,6.791 1.7914,4.8116 2.7684,7.8441 3.815,11.841 1.01834,3.88923 1.24247,4.5071 1.7294,4.7677 1.217,0.65101 6.5784,0.9118 11.487,0.55881 2.4849,-0.1787 2.56294,-0.2448 2.4069,-2.0396 -0.2546,-2.9284 -2.201,-4.82223 -5.5246,-5.3753 -0.70334,-0.11704 -1.2788,-0.24373 -1.2788,-0.28163 0,-0.0379 0.5628,-1.519 1.2507,-3.2914 0.688,-1.7724 1.70843,-4.4132 2.2678,-5.8684 0.5593,-1.4552 1.61249,-4.0349 2.3403,-5.7326 1.41068,-3.2906 2.0787,-5.09436 2.0787,-5.6127 0,-0.28393 -0.286,-0.34395 -2.5588,-0.53707 -6.574,-0.5585 -14.9447,-1.8981 -19.843,-3.1753 l -3.2632,-0.85086 -0.20977,-1.1298 c -0.3135,-1.6882 -1.92845,-6.9188 -2.461,-7.9707 -0.9509,-1.8783 -3.117,-4.8436 -5.1135,-7 -4.832,-5.2186 -13.3266,-9.6829 -23.154,-12.168 -5.6,-1.41612 -6.8373,-1.6453 -8.8868,-1.6473 -2.08183,-0.002 -2.1621,0.0663 -2.3447,1.9918 -0.4266,4.498 0.8496,12.6945 3.4742,22.313 0.6882,2.5223 1.60175,5.9355 2.03,7.5847 0.9876,3.8031 1.0178,3.8951 3.0188,9.1722 0.9196,2.4254 2.22131,6.0321 2.8926,8.0149 0.6767,1.9987 1.80015,4.8282 2.5213,6.35 0.7154,1.5097 1.71231,3.7767 2.2153,5.0379 1.1854,2.9724 3.45991,7.99764 3.8592,8.5266 0.17136,0.22701 0.58364,0.47297 0.91619,0.54657 z m 80.156,-4.5964 1.3e-4,9.8e-4 c 0.8494,0.19507 2.14211,0.23646 2.8659,0.0917 0.41953,-0.0839 0.57492,-0.24557 0.75211,-0.78247 0.5174,-1.5678 -0.1307,-4.2338 -1.4217,-5.8483 -0.28636,-0.35811 -0.52065,-0.68914 -0.52065,-0.73564 0,-0.0832 5.0798,-3.7997 7.4965,-5.4847 0.679,-0.4735 1.71092,-1.26759 2.293,-1.7647 0.5821,-0.4971 1.8124,-1.4901 2.734,-2.2067 0.9216,-0.7166 2.25301,-1.81611 2.9586,-2.4432 0.70559,-0.62709 1.308,-1.109 1.3387,-1.0708 0.0307,0.0382 0.68899,1.3791 1.4629,2.9798 1.3193,2.7288 4.60612,8.788 5.4061,9.966 1.1118,1.6372 2.33861,2.97254 3.0117,3.2782 0.8812,0.40011 2.322,0.43286 3.6443,0.0828 2.6406,-0.699 8.8636,-3.7799 10.363,-5.1304 l 0.78945,-0.71105 -0.38369,-0.75211 c -1.2889,-2.5263 -4.4873,-4.2871 -7.8066,-4.2976 l -1.5577,-0.005 -0.003,-0.99494 c -0.005,-1.483 0.32718,-7.7349 0.62902,-11.843 0.14613,-1.9888 0.26395,-5.3385 0.26095,-7.4439 l -0.005,-3.8279 1.2572,-0.81329 c 1.5912,-1.0294 2.95757,-2.3916 3.6764,-3.6653 l 0.56069,-0.99348 1.366,0.10534 c 1.7927,0.1383 3.353,-0.14854 5.4855,-1.0083 2.5574,-1.03108 2.951,-0.98118 5.5576,0.70532 4.948,3.2014 7.448,3.80832 17.467,4.2407 6.2643,0.2704 8.022,0.6045 10.946,2.0805 1.65,0.8329 4.22362,2.61752 4.8704,3.3772 0.3206,0.3766 1.17819,1.7833 1.9058,3.1261 1.0956,2.022 1.5653,2.6889 2.734,3.8816 1.6255,1.65902 2.018,1.824 4.3215,1.816 1.9249,-0.007 4.02645,-0.38319 4.91,-0.87977 0.9453,-0.5313 1.98075,-1.92975 2.167,-2.9267 0.16768,-0.8976 -0.2014,-6.4619 -0.64754,-9.7626 -1.1669,-8.634 -3.7531,-17.0504 -7.2485,-23.591 -4.186,-7.833 -7.9627,-12.9176 -14.349,-19.318 l -3.824,-3.8324 1.3942,-0.90587 c 0.7669,-0.4982 2.00791,-1.51207 2.7579,-2.253 1.4427,-1.4252 2.09283,-2.4826 2.9431,-4.7867 0.4307,-1.1671 0.4892,-1.5723 0.4942,-3.4396 0.005,-1.8077 -0.0541,-2.27115 -0.40606,-3.175 -0.5177,-1.3297 -1.35438,-2.60526 -2.343,-3.5721 l -0.76675,-0.74985 -2.3744,1.774 c -2.2768,1.7011 -6.70182,4.17342 -7.0664,3.9481 -0.0798,-0.0493 -0.0687,-0.29088 0.0248,-0.53675 0.31808,-0.8358 0.49372,-3.2571 0.32408,-4.46 -0.2785,-1.9743 -1.7333,-4.571 -3.5473,-6.3316 l -0.77902,-0.75606 -0.95693,1.2163 c -3.0741,3.9074 -7.74204,9.2034 -8.112,9.2034 -0.0593,0 -1.8074,-0.9983 -3.8847,-2.2185 -4.048,-2.3775 -10.7498,-5.7684 -14.625,-7.3994 -2.8354,-1.1934 -8.289,-3.16515 -11.216,-4.0552 -7.108,-2.1613 -19.9963,-4.81707 -25.428,-5.2396 -0.65043,-0.0506 -0.65991,0.5683 -1.2525,0.5683 -0.6598,0 -0.8426,0.1352 -3.0158,2.2288 -3.7261,3.5902 -5.726,6.3514 -8.0309,11.089 -1.4601,3.0011 -2.31589,5.3212 -3.187,8.6402 -1.63614,6.234 -2.29089,11.2971 -2.4865,19.229 -0.1586,6.434 0.085,10.562 1.27,21.519 0.7061,6.5287 0.5515,5.4891 1.7711,11.906 1.1661,6.1352 1.87462,8.8208 2.7385,12.59 l 0.21722,0.94777 3.7733,-0.21746 c 3.83166,-0.065 4.0115,-0.17202 3.9554,0.17353 -0.0315,0.194 -0.58021,1.5831 -1.2193,3.0868 -0.6391,1.5037 -2.2132,5.7503 -3.498,9.4368 -1.2848,3.6865 -2.76949,7.8934 -3.2993,9.3486 -1.32908,3.65055 -1.3227,3.58805 -0.46531,4.5621 0.3883,0.44108 1.1588,1.07478 1.7122,1.4082 1.7918,1.0796 6.9221,3.1169 9.1201,3.6218 z" />
    </clipPath>
    <inkscape:path-effect
       effect="powerclip"
       id="path-effect116"
       is_visible="true"
       lpeversion="1"
       inverse="true"
       flatten="false"
       hide_clip="false"
       message="Use fill-rule evenodd on &lt;b&gt;fill and stroke&lt;/b&gt; dialog if no flatten result after convert clip to paths." />
  </defs>
  <sodipodi:namedview
     pagecolor="#ffffff"
     bordercolor="#666666"
     borderopacity="1"
     objecttolerance="10"
     gridtolerance="10"
     guidetolerance="10"
     inkscape:pageopacity="0"
     inkscape:pageshadow="2"
     inkscape:window-width="1440"
     inkscape:window-height="779"
     id="namedview26"
     showgrid="false"
     inkscape:zoom="1.0797001"
     inkscape:cx="480.21257"
     inkscape:cy="255.28327"
     inkscape:window-x="0"
     inkscape:window-y="25"
     inkscape:window-maximized="0"
     inkscape:current-layer="svg24"
     inkscape:document-rotation="0" />
  <metadata
     id="metadata10">
    <rdf:RDF>
      <cc:Work
         rdf:about="">
        <dc:format>image/svg+xml</dc:format>
        <dc:type
           rdf:resource="http://purl.org/dc/dcmitype/StillImage" />
        <dc:title></dc:title>
      </cc:Work>
    </rdf:RDF>
  </metadata>
  <g
     transform="translate(-314.37 -280.51)"
     id="g22">
    <g
       transform="translate(162.52 188.38)"
       id="g20">
      <g
         transform="translate(-164.28 -185.52)"
         stroke-width=".17639"
         id="g16" />
    </g>
  </g>
  <g
     id="g29"
     transform="matrix(-1,0,0,1,203.21508,0)">
    <path
       d="m 337.62,403.59 c -0.33255,-0.0736 -0.74483,-0.31956 -0.91619,-0.54657 -0.39929,-0.52896 -2.6738,-5.5542 -3.8592,-8.5266 -0.50299,-1.2612 -1.4999,-3.5282 -2.2153,-5.0379 -0.72115,-1.5218 -1.8446,-4.3513 -2.5213,-6.35 -0.67129,-1.9828 -1.973,-5.5895 -2.8926,-8.0149 -2.001,-5.2771 -2.0312,-5.3691 -3.0188,-9.1722 -0.42825,-1.6492 -1.3418,-5.0624 -2.03,-7.5847 -2.6246,-9.6185 -3.9008,-17.815 -3.4742,-22.313 0.1826,-1.9255 0.26287,-1.9937 2.3447,-1.9918 2.0495,0.002 3.2868,0.23118 8.8868,1.6473 9.8274,2.4851 18.322,6.9494 23.154,12.168 1.9965,2.1564 4.1626,5.1217 5.1135,7 0.53255,1.0519 2.1475,6.2825 2.461,7.9707 l 0.20977,1.1298 3.2632,0.85086 c 4.8983,1.2772 13.269,2.6168 19.843,3.1753 2.2728,0.19312 2.5588,0.25314 2.5588,0.53707 0,0.51834 -0.66802,2.3221 -2.0787,5.6127 -0.72781,1.6977 -1.781,4.2774 -2.3403,5.7326 -0.55937,1.4552 -1.5798,4.096 -2.2678,5.8684 -0.6879,1.7724 -1.2507,3.2535 -1.2507,3.2914 0,0.0379 0.57546,0.16459 1.2788,0.28163 3.3236,0.55307 5.27,2.4469 5.5246,5.3753 0.15604,1.7948 0.078,1.8609 -2.4069,2.0396 -4.9086,0.35299 -10.27,0.0922 -11.487,-0.55881 -0.48693,-0.2606 -0.71106,-0.87847 -1.7294,-4.7677 -1.0466,-3.9969 -2.0236,-7.0294 -3.815,-11.841 -0.82959,-2.2281 -1.586,-4.6784 -2.0965,-6.791 -1.915,-7.9248 -2.3058,-8.7025 -3.1683,-6.3037 -0.17441,0.48507 -2.0518,4.2667 -4.1719,8.4036 -2.1201,4.1369 -4.3778,8.7406 -5.017,10.231 -2.2166,5.1664 -4.6616,11.06 -4.6616,11.237 0,0.0978 0.44407,0.27007 0.98682,0.38274 2.8933,0.60066 4.2232,2.0017 4.4379,4.6752 0.10655,1.3274 -0.0207,1.939 -0.44017,2.1162 -0.41749,0.17638 -11.439,0.24268 -12.204,0.0734 z m 80.156,-4.5964 c -2.198,-0.5049 -7.3283,-2.5422 -9.1201,-3.6218 -0.5534,-0.33342 -1.3239,-0.96712 -1.7122,-1.4082 -0.85739,-0.97405 -0.86377,-0.91155 0.46531,-4.5621 0.52981,-1.4552 2.0145,-5.6621 3.2993,-9.3486 1.2848,-3.6865 2.8589,-7.9331 3.498,-9.4368 0.63909,-1.5037 1.1878,-2.8928 1.2193,-3.0868 0.0561,-0.34555 -0.12374,-0.23852 -3.9554,-0.17353 l -3.7733,0.21746 -0.21722,-0.94777 c -0.86388,-3.7692 -1.5724,-6.4548 -2.7385,-12.59 -1.2196,-6.4169 -1.065,-5.3773 -1.7711,-11.906 -1.185,-10.957 -1.4286,-15.085 -1.27,-21.519 0.19561,-7.9319 0.85036,-12.995 2.4865,-19.229 0.87111,-3.319 1.7269,-5.6391 3.187,-8.6402 2.3049,-4.7376 4.3048,-7.4988 8.0309,-11.089 2.1732,-2.0936 2.356,-2.2288 3.0158,-2.2288 0.59259,0 0.60207,-0.6189 1.2525,-0.5683 5.4317,0.42253 18.32,3.0783 25.428,5.2396 2.927,0.89005 8.3806,2.8618 11.216,4.0552 3.8752,1.631 10.577,5.0219 14.625,7.3994 2.0773,1.2202 3.8254,2.2185 3.8847,2.2185 0.36996,0 5.0379,-5.296 8.112,-9.2034 l 0.95693,-1.2163 0.77902,0.75606 c 1.814,1.7606 3.2688,4.3573 3.5473,6.3316 0.16964,1.2029 -0.006,3.6242 -0.32408,4.46 -0.0935,0.24587 -0.10464,0.48741 -0.0248,0.53675 0.36458,0.22532 4.7896,-2.247 7.0664,-3.9481 l 2.3744,-1.774 0.76675,0.74985 c 0.98862,0.96684 1.8253,2.2424 2.343,3.5721 0.35191,0.90385 0.4112,1.3673 0.40606,3.175 -0.005,1.8673 -0.0635,2.2725 -0.4942,3.4396 -0.85027,2.3041 -1.5004,3.3615 -2.9431,4.7867 -0.74999,0.74093 -1.991,1.7548 -2.7579,2.253 l -1.3942,0.90587 3.824,3.8324 c 6.3863,6.4004 10.163,11.485 14.349,19.318 3.4954,6.5406 6.0816,14.957 7.2485,23.591 0.44614,3.3007 0.81522,8.865 0.64754,9.7626 -0.18625,0.99695 -1.2217,2.3954 -2.167,2.9267 -0.88355,0.49658 -2.9851,0.87313 -4.91,0.87977 -2.3035,0.008 -2.696,-0.15698 -4.3215,-1.816 -1.1687,-1.1927 -1.6384,-1.8596 -2.734,-3.8816 -0.72761,-1.3428 -1.5852,-2.7495 -1.9058,-3.1261 -0.64678,-0.75968 -3.2204,-2.5443 -4.8704,-3.3772 -2.924,-1.476 -4.6817,-1.8101 -10.946,-2.0805 -10.019,-0.43238 -12.519,-1.0393 -17.467,-4.2407 -2.6066,-1.6865 -3.0002,-1.7364 -5.5576,-0.70532 -2.1325,0.85976 -3.6928,1.1466 -5.4855,1.0083 l -1.366,-0.10534 -0.56069,0.99348 c -0.71883,1.2737 -2.0852,2.6359 -3.6764,3.6653 l -1.2572,0.81329 0.005,3.8279 c 0.003,2.1054 -0.11482,5.4551 -0.26095,7.4439 -0.30184,4.1081 -0.6339,10.36 -0.62902,11.843 l 0.003,0.99494 1.5577,0.005 c 3.3193,0.0105 6.5177,1.7713 7.8066,4.2976 l 0.38369,0.75211 -0.78945,0.71105 c -1.4994,1.3505 -7.7224,4.4314 -10.363,5.1304 -1.3223,0.35006 -2.7631,0.31731 -3.6443,-0.0828 -0.67309,-0.30566 -1.8999,-1.641 -3.0117,-3.2782 -0.79998,-1.178 -4.0868,-7.2372 -5.4061,-9.966 -0.77391,-1.6007 -1.4322,-2.9416 -1.4629,-2.9798 -0.0307,-0.0382 -0.63311,0.44371 -1.3387,1.0708 -0.70559,0.62709 -2.037,1.7266 -2.9586,2.4432 -0.9216,0.7166 -2.1519,1.7096 -2.734,2.2067 -0.58208,0.49711 -1.614,1.2912 -2.293,1.7647 -2.4167,1.685 -7.4965,5.4015 -7.4965,5.4847 0,0.0465 0.23429,0.37753 0.52065,0.73564 1.291,1.6145 1.9391,4.2805 1.4217,5.8483 -0.17719,0.5369 -0.33258,0.69856 -0.75211,0.78247 -0.72379,0.14476 -2.0165,0.10337 -2.8659,-0.0917 z"
       fill="#414141"
       id="path14"
       transform="translate(-316.12999,-277.65)" />
    <ellipse
       cx="317.76999"
       cy="145.13"
       rx="2.3803999"
       ry="2.3376"
       fill="#060606"
       stroke-width="0.26458"
       id="ellipse18"
       transform="translate(-151.85,-92.130001)" />
    <path
       d="m 411.47,367.36 c -2.9332,0.0956 -4.2583,0.2126 -5.2452,0.46292 -2.1789,0.55265 -8.9089,0.91273 -14.731,0.78817 -2.7164,-0.0581 -5.3413,-0.25101 -5.8386,-0.21616 l -1.1906,0.0834 c 0,0 -24.47149,-2.59995 -24.8731,-3.33325 -0.71244,-0.89113 -1.52017,-2.40213 -1.70523,-4.00373 -0.41976,-3.63285 -1.994,-6.60118 -3.82464,-9.21679 -3.1399,-4.48628 -7.09083,-7.42024 -11.01004,-9.92562 -3.93942,-2.51831 -7.82945,-4.0618 -11.60636,-5.10412 -9.73704,-2.68715 -15.87101,-3.55954 -14.36458,0.40721 0.0943,-1.2182 -0.41905,-2.64123 -0.5939,-3.28233 -0.36481,-1.3376 -0.47132,-4.2103 -0.23937,-6.4556 0.52744,-5.1056 1.9695,-9.9536 4.3476,-14.616 6.0857,-11.931 13.91,-19.684 25.567,-25.333 9.5424,-4.6241 17.204,-6.6944 32.191,-8.6988 9.1302,-1.2211 9.5251,-1.2467 19.579,-1.2691 8.8167,-0.0196 15.63294,0.36543 18.13294,0.73157 1.4582,0.21353 3.317,0.44821 5.5562,0.7015 -4.33213,1.86764 -7.60235,4.47762 -9.41532,7.13998 -5.54861,8.14819 -8.23336,17.55395 -9.48568,28.08673 -0.67137,5.64664 -0.88274,11.88177 -0.33213,18.10399 0.88027,9.94757 1.50897,20.80312 5.31072,30.96898 0.59071,1.57955 3.12118,2.39717 3.77129,3.98005 z"
       fill="#9a9a9a"
       id="path12"
       clip-path="url(#clipPath112)"
       inkscape:path-effect="#path-effect116"
       inkscape:original-d="m 411.47,367.36 c -2.9332,0.0956 -4.2583,0.2126 -5.2452,0.46292 -2.1789,0.55265 -8.9089,0.91273 -14.731,0.78817 -2.7164,-0.0581 -5.3413,-0.25101 -5.8386,-0.21616 l -1.1906,0.0834 c 0,0 -24.47149,-2.59995 -24.8731,-3.33325 -0.71244,-0.89113 -1.52017,-2.40213 -1.70523,-4.00373 -0.41976,-3.63285 -1.994,-6.60118 -3.82464,-9.21679 -3.1399,-4.48628 -7.09083,-7.42024 -11.01004,-9.92562 -3.93942,-2.51831 -7.82945,-4.0618 -11.60636,-5.10412 -9.73704,-2.68715 -15.87101,-3.55954 -14.36458,0.40721 0.0943,-1.2182 -0.41905,-2.64123 -0.5939,-3.28233 -0.36481,-1.3376 -0.47132,-4.2103 -0.23937,-6.4556 0.52744,-5.1056 1.9695,-9.9536 4.3476,-14.616 6.0857,-11.931 13.91,-19.684 25.567,-25.333 9.5424,-4.6241 17.204,-6.6944 32.191,-8.6988 9.1302,-1.2211 9.5251,-1.2467 19.579,-1.2691 8.8167,-0.0196 15.63294,0.36543 18.13294,0.73157 1.4582,0.21353 3.317,0.44821 5.5562,0.7015 -4.33213,1.86764 -7.60235,4.47762 -9.41532,7.13998 -5.54861,8.14819 -8.23336,17.55395 -9.48568,28.08673 -0.67137,5.64664 -0.88274,11.88177 -0.33213,18.10399 0.88027,9.94757 1.50897,20.80312 5.31072,30.96898 0.59071,1.57955 3.12118,2.39717 3.77129,3.98005 z"
       transform="translate(-316.13,-277.65)"
       sodipodi:nodetypes="csssccsssscssccscccssssc" />
  </g>
</svg>
