<?xml version="1.0" encoding="UTF-8"?>
<svg width="225.3" height="324.95" version="1.1" xmlns="http://www.w3.org/2000/svg" xmlns:cc="http://creativecommons.org/ns#" xmlns:dc="http://purl.org/dc/elements/1.1/" xmlns:rdf="http://www.w3.org/1999/02/22-rdf-syntax-ns#">
 <metadata>
  <rdf:RDF>
   <cc:Work rdf:about="">
    <dc:format>image/svg+xml</dc:format>
    <dc:type rdf:resource="http://purl.org/dc/dcmitype/StillImage"/>
    <dc:title/>
   </cc:Work>
  </rdf:RDF>
 </metadata>
 <clipPath id="a">
  <path transform="translate(44.932 -.3037)" d="m0 0h114.4v149.42h-114.4z"/>
 </clipPath>
 <g transform="matrix(2.3895 0 0 2.3993 -134.77 -9.0679e-5)" clip-path="url(#a)">
  <path transform="translate(44.932 -.3037)" d="m105.74 130.97s0.198-1.234-1.279-1.166l-0.284-1.446s-0.074-0.738-0.546-0.267c0 0-0.988 1.005-1.895 0.832l-0.198-1.991s-0.095-0.452-0.908-0.264c0 0-1.4455 0.375-1.8078 0.378 0 0-0.4658-1.355-0.2022-2.353 0 0 0.5293-1.545-1.3652-0.713l-1.9824 1.105-0.7461-2.348s-0.0957-0.543-0.7266-0.265l-1.8047 0.83-0.0263-3.17s0.0478-0.772-0.8184-0.355c0 0-2.0351 0.92-2.3564-0.069 0 0-0.3955-2.503-1.3819-2.614l-2.5234 1.381-0.6543-2.168-2.3467 0.835-1.5674-3.156s-0.2783-0.722-0.998-0.082l-2.875 2.652s-1.2188-0.792-1.6494-2.34c0 0-0.2227-0.879-1.1797-0.171l-2.5205 1.743s-0.5401 0.276-0.8174-0.265l-0.2773-0.54-0.5528-1.083s-0.3076-0.564-0.9072-0.173c0 0-2.4287 1.743-3.1494 2.383 0 0-0.5791 0.532-1.1787-0.171 0 0-2.0176-2.928-2.375-2.424l-1.7012 2.189s-0.8047 1.275-0.8188-0.355l-1.0601-50.78s0.7187-3.2671 4.7881 1.1123c0 0-1.4375 1.3716-1.5996 3.5464 0 0-0.1641 1.9038-0.5215 2.4502 0 0-0.5342 1.0918 0.1953 1.6284 0 0 0.2764 0.542 0.0088 0.9966 0 0-0.5264 1.9072 0.8359 2.2568 0 0 1.3604 0.3501 1.8233 1.4327 0 0 0.6445 1.353 1.9131 1.3423 0 0 1.3593 0.0791 1.9052 0.436 0 0 1.9971 0.3452 2.0762-0.9243 0 0 0.332-2.1983 1.4102-4.3599 0 0 3.0224-8.6787-6.6973-9.7231 0 0-0.7344-1.2613-2.9277-3.4151l-2.1026-2.1553s0.7818-13.956 0.6782-15.495c0 0-0.7275-0.3564-1.0908-0.4433l0.3433-2.1768s0.1723-0.998-0.917-1.2603c0 0-0.5415-6.1972 6.6191-5.5361 0 0 4.0196 0.2622 4.0039 8.5225 0 0 1.3623 0.5317 1.793-2.0088 0 0 0.6191-1.7261 1.1738-0.3726 0 0 0.6582 2.7115-0.3281 3.8072 0 0-1.167 1.1879 0.4619 0.9018 0 0 0.2774 0.812 0.6377 0.5371l0.3594-0.2744 1.8017-1.1934s1.753 3.5171-2.7128 10.802c0 0-0.8965 1.2163 0.3671 0.5405l3.6026-2.3877s0.9043-0.1884 1.1865 0.9864c0 0 0.1943 1.538 0.8291 1.623 0 0 0.1709 0.0127 0.083-0.7256 0 0-0.3056-3.8013 1.332-3 0 0 0.0459 1.9038 1.6456 1.7056 0 0 0.4433-1.2715-1.043-5.334 0 0-0.3711-0.9937 0.5332-1.1821 0 0 1.3574-0.2837 1.4443-0.6475 0 0 0.1084-0.1909-0.7295-0.4458 0 0-2.8173-1.062-1.6494-2.1597 0 0 1.2119-0.4013 2.2608-0.4726 0 0 2.3105-0.4942 2.6123-1.6533 0 0 0.2675-0.5459-0.6368-0.3565 0 0-1.2275 0.0708-2.9033-0.4272 0 0-1.0879-0.1719-1.9941-0.2539 0 0 0.3476-1.6338 1.6133-1.917 0 0 2.1689-0.4712 2.0703-1.4673l-4.0772-0.0547s-0.1855-0.542 1.1651-1.459c0 0 2.7041-1.3833 1.3398-2.0957 0 0-1.623 0.9199-4.7959 0.586 0 0-0.2969-2.9864 0.2354-4.169 0 0 0.332-0.7905-0.2744-0.3589 0 0-1.3506 1.0083-2.3497 0.6543 0 0-0.1025-1.4482 0.7959-2.1806 0 0 0.2579-0.6187-0.3662-0.5401 0 0-1.8007 1.2832-2.6191 0.9282 0 0-0.4541-0.0859 0.084-0.7246 0 0 0.8066-1.0034 0.084-0.8164 0 0-1.8077 0.5596-2.7022 1.7446 0 0-0.4482 0.5474-0.8144 0.0074 0 0-0.3692-0.7217-0.6338 0.0058 0 0-0.4239 3.355-7.2227 2.5996 0 0 5.835-5.8486 14.266-5.0166 0 0 3.2657 0.6963 4.9395 5.4815 0 0 1.1641-1.4595 0.9756-2.273 0 0-0.3809-2.08 0.7138-1.0932 0 0 1.5498 0.8916 3.4737 3.501 0 0 0.7256 0.0844 0.4463-0.7286 0 0-0.6592-2.9824-1.5782-4.4238 0 0-0.0986-0.9043 1.6163-1.5537 0 0 1.0859-0.1914 0.1748-0.7266 0 0-2.2598 0.3828-2.3575-0.3413 0 0-0.0976-0.8144 0.7119-1.4555 0 0 1.2598-0.8262 0.9795-1.8204 0 0-0.7197 0.46-2.0781 0.5625l-1.3574 0.1026-1.54 0.0132s0.9853-1.3672 0.7949-2.271l-3.4307 1.2978s-1.1719 0.5547-0.8242-0.9887l0.4248-3.2642s-2.6885 3.1934-4.1396 2.9346c0 0-0.6397-0.5371 0.6982-2.9043 0 0-0.249-0.2691-0.6328 0.0962 0 0-2.6045 2.4682-3.5137 2.2045 0 0-0.0078-0.9057 0.6113-2.541 0 0 0.6827-1.2256 0.0059-0.8642-0.1338 0.0713-0.2842 0.1411-0.2842 0.1411s-3.206 1.3872-5.5596 6.209c0 0-1.7744 4.0913-4.8305 6.7446 0 0-0.3028-3.5293 3.0112-7.7251l4.3926-5.0205s4.1523-3.8003 7.8828 0.2925c0 0-0.0771-2.7969 1.4277-2.4575 0 0 2.6348 0.9726 3.8106 0.7807 0 0-0.7158-3.1528-2.1143-3.5137l-1.1806-0.3515s-1.0909-0.5337-0.2813-1.084c0 0 2.0654-2.0117 0.9795-1.8203 0 0-1.5293 1.0093-2.167 0.7432 0 0-0.9082-0.3541-1.6279 0.2871 0 0-0.9004 0.5507-1.3555 0.2832 0 0-0.2285-1.4761 0.3399-2.4488 0 0 0.3418-0.8423-0.4561-0.5395 0 0-1.4453 0.5566-2.8828 1.8369 0 0-0.9873 0.915-0.9063-0.0825 0 0 0.3418-2.2671-0.1953-1.6289l-2.5976 3.2846s-0.8076 1.0938-0.9063-0.0825l0.1651-1.8139s-3.2413 2.2036-4.295 5.9257c0 0-0.0644 2.899-0.6987 2.9043 0 0-0.5478-0.4472-0.123-3.7124 0 0 1.9116-9.2553-1.8296-12.302 0 0-1.0625-0.332-1.2569 1.2798 0 0-0.7246 5.0786-0.7949 7.4341 0 0-0.4712 3.0839 0.3076 9.2358 0 0 0.794 7.7827-0.2612 11.414 0 0-2.0962-1.5214-1.9609-6.685 0 0 0.4731-7.9746-1.0899-10.587 0 0-0.5483-0.5396-0.5381 0.6387 0 0 0.1123 2.4438-0.5215 2.4497 0 0-0.5507-0.8101-0.4721-2.1695l0.0786-1.3598s0.2402-1.8233-0.5483-0.6285c0 0-0.8975 1.0044-1.0015-0.5351l-0.1128-2.5352s-0.1885-0.813-0.6343 0.0054c0 0-0.8823 2.6353-1.5229 1.916 0 0-1.0225-2.98-3.0318-4.8642 0 0-0.5429 0.0952-0.3554 0.8188 0 0 1.1176 3.4317-0.4288 2.7202 0 0-2.728-1.2431-3.5576-2.8667 0 0-0.8217-0.8081-0.7231 0.1875 0 0 0.9267 1.649 0.1968 1.7198 0 0-1.2593 0.2309-2-0.7979 0 0-1.0035-0.8062-0.813 0.2793 0 0 0.8388 2.6187 0.2954 2.6235 0 0-1.1763 0.1011-2.086-0.3432 0 0-2.0625-0.8369-1.9028-0.0742 0.0943 0.4516 0.3677 0.6303 0.9175 1.3505 0 0 1.0054 0.9873 0.0112 1.2681 0 0-2.438 0.8369-4.5688 5.7461 0 0-0.2993 1.0972 1.0879 0.0811 0 0 7.8105-7.8584 15.679 1.1298l-0.9864 1.0953-3.8369-3.6797s-0.8086 0.8222 0.3853 2.623c0 0 0.9536 1.2525 0.2031 2.4439 0 0-6.0933-6.3833-6.2998-5.7413 0 0-0.7192 0.6412 0.8398 2.8916 0 0 0.3912 1.7178-0.3471 1.7232 0 0-2.7661-0.2153-4.9751-0.4839 0 0-0.9468-0.0757-1.5064-0.3037 0 0-0.4682 0.7959 0.8833 1.4175 0 0 4.0567 2.1015 1.3677 2.4424 0 0-2.1352 0.3364-4.6841-1.3838 0 0-0.6176 1.747 1.9346 3.8623 0 0 0.7173 0.4697 0.0884 1.0293 0 0-1.8091 1.3613-2.2622 3.8198 0 0-0.2212 1.9019-0.7666 2.8574 0 0 1.1899 0.3057 2.4438-1.209l1.021-0.9599s0.6309-0.2427 0.7974 0.7055c0 0 0.0317 3.563 0.8232 3.5562 0 0 0.3364 0.0806 0.6255-0.9556 0 0 2.2827-9.1889 9.1904-8.2363 0 0 5.0708 0.4302 9.7808 4.8223 0 0-0.2334 0.3974-1.8169 0.4116 0 0-2.082-2.6734-7.3984-3.9727 0 0-1.2701-0.3051-0.3907 0.5581 0 0 2.1519 1.6436 1.3643 2.1255 0 0-3.6494-0.8384-5.9419-0.4223 0 0-0.2339 0.3974 0.4019 0.7089 0 0 2.3852 1.087 1.122 1.4947 0 0-3.3276-0.208-5.2925 1.3925 0 0 0.6402 0.7857 2.147 1.0889 0 0-3.1533 1.5322-4.3257 3.2061 0 0-0.2338 0.4765 0.5581 0.4692 0 0 3.9551-0.3516 3.0127 0.4487 0 0-3.4682 1.773-5.2461 6.6973 0 0-0.0712 0.7925 0.7159 0.3101 0 0 2.5185-1.6846 2.5278-0.6558 0 0-0.2598 6.4155 0.4575 6.9634 0 0 0.4834 1.0254 2.2735-2.5537 0 0 0.996-2.5474 2.3686-0.7334l1.8403 2.2011s0.8028 1.2588 1.0288-0.0097c0 0 0.5362-2.0635 0.358-4.3579 0 0 0.1782-0.6704 0.5527-0.1631 0 0 0.0532 1.8183 0.959 1.021l-0.0083-0.9497s2.1323-0.6519 2.145 0.8515l0.0132 1.5044s-0.395 1.4561 0.2593 2.4522l0.0112 1.2661s-0.0698 1.0308 0.4775 0.2344l0.5469-0.7964 0.7813-1.1948s0.4687-0.7173 0.8691-0.1666c0 0 1.8486 3.0713 4.938 3.2813l0.2739-4.8315s1.0293-0.0889 0.376-2.2994c0 0-0.3252-0.9477 0.2265-1.2685 0 0 0.356-0.332-0.0073-0.7915 0 0-0.4868-1.3423 0.459-1.8252 0 0 0.2319-0.4351-0.1685-1.1069 0 0-0.832-4.586 0.5865-5.3892 0 0 0.7885-0.3237 0.7949 0.3887l0.0063 0.7124s-0.9716 21.964-0.5903 34.37l0.5737 44.466s-0.6123 2.362-2.8081-0.065c0 0-1.0097-1.532-1.9057-0.437 0 0-0.4434 1.092-0.9009 0.552l-1.5523-1.345-0.6269 0.73s-0.3472 0.598-1-0.444c0 0-0.4751-0.741-1.0889-0.171l-1.438 1.28s-2.4707-2.876-3.56-3.138l-2.4141 3.554s-0.6225 1.273-1.1738 0.372c0 0-0.6797-1.008-1.1792-0.171-0.1914 0.321-0.2676 0.456-0.2676 0.456s-0.2002 0.473-0.7222 0.277c0 0-0.767-0.835-1.2192 0.134-0.3467 0.741-0.4028 0.878-0.4028 0.878l-0.7969 1.999s-0.5342 1.092-1.2666 0.192c0 0-1.3711-1.436-1.5386 0.104l-0.1709 1.18s-0.1723 0.998-0.9922 0.462c0 0-0.8676-0.82-1.269-0.08l-0.8911 1.638s-0.6279 0.73-1.085 0.281l-0.4565-0.449s-0.7671-1-1.086 0.01c-0.2314 0.731-0.353 1.09-0.353 1.09s-0.1943 1.112-1.1728 0.554l-1.1831-0.623-0.5303 1.453s-0.2407 0.92-1.085 0.191c0 0-0.914-0.898-1.2666 0.192l-0.3525 1.09s-0.3506 1.362-0.9898 0.734c0 0-1.1455-1.484-1.539 0.104l-0.3511 1.272-1.8125-0.166s-1.4507-0.168-0.4429 1.181l1.0078 1.35s0.3252 0.903-0.6215 1.364c6.1803 2.1327 10.073 1.7225 13.252 0.41983 3.1793-1.3026 5.6451-3.4977 11.011-4.5267 5.8814-0.941 13.279-0.73223 13.279-0.73223 4.5768-1.5622 8.8306-1.3106 13.554-0.94181 0 0 3.9431 1.4741 7.0974 0.97013 0 0 2.4406-0.30981 5.3512-0.21081 17.178 0.26796 27.764 6.8978 29.988 1.7496z" fill="#161413"/>
  <path transform="translate(146.69 129.42)" d="m0.3584 0.6445 0.6289-0.458s0.6329-0.1865 0.7295 0.5367c0 0 0.0069 0.7251-0.7197 0.5502 0 0-0.9971-0.1733-0.6387-0.6289z" fill="none" stroke="#161413" stroke-width=".054342"/>
  <path transform="translate(58.48 1.4394)" d="m35.287 125.92c-11.603-1.074-18.443 3.786-18.443 3.786l-3.1709-0.062c-0.0947-0.453 0.0757-1.723 0.0757-1.723 0.0942-0.783 1.1719-0.35 1.1719-0.35l1.2246 0.096c0.5303-1.454 1.1167-1.86 1.1167-1.86l1.5429 0.35c1.1929 0.295 1.1846-0.622 1.1846-0.622s-0.0034-0.411 0.1612-0.84c0.2768-0.722 0.8115-0.46 0.8115-0.46l1.1836 0.714c1.0952 0.987 2.062-2.373 2.062-2.373s-0.0127-7e-3 0.3559-0.728c0.2852-0.558 0.7222-0.278 0.7222-0.278l1.6411 1.254c0.9097 0.445 1.0786-0.915 1.0786-0.915l0.0835-0.816c-0.0083-0.997 0.7227-0.279 0.7227-0.279l1.0942 0.896c0.9121 0.717 1.7075-1.554 1.7075-1.554 0.4512-1.046 1.1753-0.282 1.1753-0.282l1.2788 1.256c0.9126 0.718 1.8062-0.559 1.8062-0.559 1.1211-1.22 1.9941 0.163 1.9941 0.163l0.7329 0.9c0.732 0.899 1.3609 0.26 1.3609 0.26l0.8066-0.913c0.8057-1.094 1.8164 0.527 1.8164 0.527 0.9165 1.166 1.4488-0.103 1.4488-0.103 1.1577-2.184 2.5341-0.203 2.5341-0.203 0.8482 1.09 1.4527 0.348 1.4527 0.348l2.0605-2.463c0.3985-0.329 0.7246 0.175 0.7246 0.175l1.378 1.98 0.8945-1.095c0.3584-0.546 0.9062-8e-3 0.9062-8e-3l0.6407 0.719c0.7314 0.718 1.3613 0.35 1.3613 0.35l1.3486-1.098 0.4287 0.7c0.5782 1.006 1.7491-0.176 1.7491-0.176 0.4492-0.548 0.6338-0.096 0.6338-0.096l1.3701 1.347 0.8105-0.642c0.6289-0.458 0.9043-0.099 0.9043-0.099l0.8281 1.442 1.2608-0.917 0.5508 0.901c0.4609 0.902 1.6298 0.076 1.6298 0.076 1.2647-0.373 1.2715 0.261 1.2715 0.261l0.0977 0.904 1.6289-0.286c0.4932-0.177 0.5459 0.267 0.5459 0.267l0.2783 0.723c0.2793 0.993 1.0908 0.533 1.0908 0.533l0.6319-0.277 0.9179 1.35 1.3545-0.464c1.3623 0.441 0.1016 1.267 0.1016 1.267-2.3506 0.474-5.5322-0.857-5.5322-0.857-5.544-2.216-14.489 0.309-14.489 0.309-0.9941 0.281-1.6328-0.166-1.6328-0.166-8.9019-3.092-16.397-0.58-16.397-0.58-0.8115 0.46-2.081 0.29-2.081 0.29zm51.649 2.532-0.2891-1.99s-0.6377-0.356-1.3574 0.194c0 0-0.9053 8e-3 -1.2705-0.351l-0.1113-2.173s-0.3653-0.45-1.086-0.081l-0.7216 0.368-0.9014 0.461s-0.7393 0.395-0.9131-0.716l-0.1006-1.177s-0.3301-1.329-1.5439-0.439c0 0-1.7969 1.737-1.6397-0.982l0.0801-1.268s0.0977-0.987-1.001-0.535l-1.082 0.462s-1.1719 0.645-1.2764-0.894l-0.1035-1.539s-0.1924-1.085-1.0019-0.535l-0.8106 0.551-0.9902 0.642s-0.7266-0.174-0.8262-1.26c0 0 0.0781-1.359-1.0019-0.716l-1.0811 0.734s-1.0947-0.805-1.1943-1.801c0 0-0.1036-1.538-0.8301-1.713l-2.7852 2.47s-0.8105 0.641-1.3623-0.35l-1.0127-1.893s-0.6396-0.538-1.6279 0.286l-1.2588 1.007s-0.8066 1.004-1.6299 0.014l-1.0088-1.259s-0.4589-0.721-1.2675 0.011l-0.8096 0.732-1.168 1.007s-0.8945 1.185-1.9013-0.074l-1.0069-1.259s-0.7334-0.989-1.1797-0.261-0.4463 0.728-0.4463 0.728l-1.9687 2.826s-0.2896 0.769 0.4653 1.354c0.7158 0.555 0.7295 0.537 0.7295 0.537s0.9126 0.807 1.4497 0.077l1.9727-2.28s0.54-0.814 1.0635-0.163c0.3505 0.44 0.5439 0.753 0.5439 0.753s0.833 1.478 1.3008 0.651l0.5332-1.182s0.2666-0.761 0.9414 0.096c0.5439 0.691 0.6973 0.886 0.6973 0.886s0.6474 1.156 1.455 0.621l0.9883-0.914s0.8086-0.642 0.9981 0.262c0 0 0.1035 1.449 1.0937 0.715l0.7188-0.64s0.3076-0.511 0.6367 0.266c0.3789 0.899 0.3701 0.902 0.3701 0.902s0.1865 0.724 0.9062 0.173l0.7208-0.549s0.8085-0.732 1.0869 0.081c0 0 0.0146 1.63 0.8261 1.08 0 0 0.9854-1.097 1.2666-0.102l0.0079 0.816s0.3701 1.083 1.54 0.166c0 0 1.8906-1.284 2.083 0.073 0 0 0.0127 1.358 0.9131 0.717 0 0 0.9892-0.825 1.1767-0.102l0.3711 0.903s0.1885 0.994 0.9092 0.535c0 0 0.8096-0.641 0.9063-7e-3 0 0-0.166 1.721 1.0957 1.076l0.7207-0.459s0.8105-0.55 1 0.444c0 0 0.1025 1.358 0.7334 0.989 0 0 1.3584-0.725 1.1826 0.443 0 0-0.2002 1.378 2.459 1.609 0 0 3.1738 0.515 3.8994 0.599 0 0 1.1797 0.256 1.7246 0.347zm-85.748 2.75s5.5122-1.407 7.8628-1.88l1.1611-1.912 1.727 0.709s0.3628 0.087 0.628-0.64c0.2656-0.727 0.2656-0.727 0.2656-0.727l0.3545-0.909s0.4429-1.091 1.1743-0.282c0.7324 0.809 0.7324 0.809 0.7324 0.809s0.273 0.178 0.5391-0.457l0.6196-1.636s0.3545-0.909 1.2656-0.283l0.9112 0.626s0.3491 0.303 0.5405-0.277c0.2437-0.734 0.2656-0.727 0.2656-0.727l0.5308-1.453s0.2646-0.818 0.9048-0.099c0.6406 0.719 0.6406 0.719 0.6406 0.719l0.7519 0.831 1.7608-3.48s0.4419-1.182 1.1738-0.373c0.7324 0.809 0.7324 0.809 0.7324 0.809s1.3716 1.527 1.3575-0.103c0 0 0.0722-2.084 0.9795-1.91l1.5498 1.164s0.8203 0.627 1.3559-0.285l0.5357-0.91 0.4458-0.819 2.0981 1.703s0.7329 0.898 1.6318 0.167l0.8995-0.733 0.6289-0.549 1.7392 2.067s0.501 0.601 1.085-0.19c0.6889-0.933 0.7168-0.912 0.7168-0.912s0.5371-0.73 1.1748-0.283l0.6382 0.448s0.915 1.078 1.3608 0.259l0.4453-0.818s0.3067-0.381-0.4624-1.083c-0.522-0.477-0.5473-0.449-0.5473-0.449s-1.6387-1.609-2.2549-0.994l-0.5547 0.747s-0.1758 0.636-1.3609-0.26l-1.186-0.894s-0.7187-0.807-0.9966-0.082c0 0-0.6181 1.817-1.351 0.828l-0.7334-0.991s-0.8252-1.08-1.3565 0.284c0 0-0.1733 0.907-0.8125 0.278 0 0-0.6445-1.171-1.2725-0.531 0 0-1.1616 1.821-2.351 0.473l-1.19-1.348s-1.1382-1.611-1.727-0.709l-2.4146 3.463-0.5473-0.448s-0.5816-0.615-0.815 7e-3c-0.2427 0.646-0.2661 0.636-0.2661 0.636s-0.2817 0.893-0.8999 0.642l-0.6377-0.357s-0.6372-0.447-0.9888 0.825l-0.2597 1.361s-0.2603 1.36-1.169 1.006l-0.9082-0.354s-0.9404-0.517-1.1728 0.554l-0.3511 1.271s-0.0303 0.705-0.7217 0.369c-0.8012-0.39-0.8178-0.355-0.8178-0.355s-0.8184-0.356-1.2632 0.554c-0.4449 0.91-0.4449 0.91-0.4449 0.91s-0.2646 0.817-0.811 0.46l-0.5469-0.358s-0.768-0.637-0.9555-0.154c-0.2027 0.52-0.3076 0.709-0.3076 0.709l-0.3526 1.09s-0.0561 0.479-0.8135 0.188c-0.9111-0.35-0.9087-0.354-0.9087-0.354s-0.9038-0.484-0.9941 0.281c0 0-0.166 1.722-0.6221 1.363l-0.456-0.358s-0.8228-0.898-1.1773 0.01l-0.4419 1.272s-0.4389 1.545-1.5317 0.83l-0.9097-0.446s-0.0864 0.454 0.0992 0.996c0 0 0.1865 0.633-0.7198 0.55 0 0-1.0884-0.172-0.6303 0.458zm52.864-118.87s3.5215-1.1865 5.7744 0.0161c0 0 0.8194 0.5366 0.6768-0.209l-0.1426-0.7465-0.1426-0.7461s1.085-0.3492 1.9053 0.2548c0 0 0.9571 0.8077 2.3799 0.3868 0 0 0.0498-2.0376-4.292-1.5245l-0.2725 3e-3 1.0733-1.4365s0.6055-0.752-0.4785-0.4707c0 0-2.6446 0.6342-4.4571 2.9594 0 0-0.8115 0.4829-0.4794-0.3344l1.8701-3.6851s0.2617-1.0894-0.4131-0.54c0 0-1.8291 0.4917-3.4102 6.144zm-2.4336 1.4473c2.6993-2.1294 1.9121-6.605 1.9121-6.605-3.3115 1.8633-1.9121 6.605-1.9121 6.605zm-2.2177 2.6015s1.1425-1.3007 1.1923-3.2714l0.0508-1.9708s0.167-4.145-0.6406-3.3222c0 0-1.5869 1.3486-1.3301 3.0683 0 0 0.5733 3.4595 0.7276 5.4961zm-2.4151 3.418 0.9405-1.231s-0.0235-2.6494 0.3095-3.3999c0 0 0.3145-2.8554-0.2344-3.4619 0 0-0.3417-0.2685-0.6035 0.8887 0 0-0.2539 2.0396-0.5215 2.5171 0 0-0.4013 0.6831-0.3242 1.77l0.0782 1.086s0.0878 2.3085 0.3554 1.831zm-3.3901 0.709 0.1816 5.1611c0.8853 0.2642 0.9116-4.4233 0.9116-4.4233 0.1177-1.2461-0.1528-1.9009-0.1528-1.9009-0.5522-1.0142-1.1181-3.5903-1.1181-3.5903-0.5865 2.8584 0.1777 4.7534 0.1777 4.7534zm-0.6211-8.7573 1.1865 3.5893 0.3506 1.2202c0.3506 1.2188 0.478 0.2671 0.478 0.2671l0.1148-2.3779 0.0561-1.3594c0.0562-1.3594-1.1201-3.7265-1.1201-3.7265l-0.3467-0.8121c-0.3466-0.812-0.75-0.2651-0.75-0.2651zm0.331-8.6983c-0.0156 2.9234 1.4048 5.2183 1.4048 5.2183l0.4165 1.0835c0.4175 1.0825 0.4556-2.3145 0.4556-2.3145l0.0483-2.1733c0.0494-2.1743-1.187-3.6577-1.187-3.6577-0.9614-1.2144-1.1382 1.8437-1.1382 1.8437zm-1.0219 33.881s-0.0855 0.4951-0.0962 1.0449c-0.0195 1.0185 0.6128 0.1982 0.6128 0.1982 1.2407-5.7168 6.7324-6.9199 6.7324-6.9199-4.0879-1.3906-7.2251 4.9541-7.2251 4.9541zm10.037-5.1582c2.8662 1.4008 4.1318 6.3486 4.1318 6.3486 1.0733-1.5713 0.3076-3.6709 0.3076-3.6709-0.1435-0.8818 0.9473-0.416 0.9473-0.416 1.3037 1.5513 2.0147 5.0776 2.0147 5.0776 1.4746-2.3227 0.3066-3.8076 0.3066-3.8076-2.0635-2.8345-7.7109-3.8716-7.7109-3.8716-0.3389 3e-3 0.0029 0.3399 0.0029 0.3399zm-7.5029 27.171-0.1226 1.4272s1.4912-0.353 2.314 0.5903c0 0 1.0234 0.4673-0.0039-0.5429 0 0-1.1661-1.2119-2.1875-1.4746zm-2.8643-1.334c0.8213 0.6723 1.6323 0.2573 1.6323 0.2573 1.3447-0.9707 1.3267-3.6113 1.3267-3.6113l-0.0591-6.6572zm0.6538-10.535c-0.5327 1.2271-0.915 4.0161-0.915 4.0161l0.0966 3.3277c0.064-0.4766 1.5181-5.0406 1.5181-5.0406l0.5303-1.499c0.5303-1.4995 0.102-3.8052 0.102-3.8052-0.2597 1.3609-1.332 3.001-1.332 3.001zm-0.772-2.8462 0.0103 1.2227c0.0112 1.2221 0.2119 0.8808 0.2119 0.8808 0.6782-0.0737 1.4541-4.5644 1.4541-4.5644l-0.0273-3.0567c-1.9649 0.5611-1.649 5.5176-1.649 5.5176zm19.329-3.2964c2.2842-2.9409 0.2364-4.1455 0.2364-4.1455-0.8828 0.1441-0.2364 4.1455-0.2364 4.1455zm1.5664 0.3262c0.6202 1.0137 0.501 2.9844 0.501 2.9844 0.4444-3.604-0.3086-4.2774-0.3086-4.2774-0.3408 0.0035-0.1924 1.293-0.1924 1.293zm-2.0878 9.8008c2.2402-0.1553 2.3222-6.2705 2.3222-6.2705-0.6474 3.5381-2.3222 6.2705-2.3222 6.2705zm3.54-6.8247s-0.1133 2.5825-0.6494 3.3345c0 0-0.5371 0.8198 0.0263 3.0566 0 0 0.4795 0.4038 0.4717-0.479-0.0078-0.8833-0.0078-0.8833-0.0078-0.8833l-0.0098-1.0874s0.0606-0.8833 0.6758-0.4131l0.6153 0.4697s1.164 0.9405 1.0185-0.0766c0 0-0.1474-1.2212-1.7832-2.022 0 0-0.6191-0.7422 0.1279-0.8169l0.7471-0.0742s1.2901-0.0112 0.333-0.75c0 0-0.4814-0.607-1.5654-0.2583zm-0.2275-2.7832 0.0781 1.2226s0.4092 0.2676 1.083-0.3491c0 0 1.4844-1.3042 1.8232-1.3071 0 0 1.044-0.6753-0.4834-0.8789 0 0-1.3593-0.124-2.5009 1.3125zm-0.087-2.105 1.2725-1.981s0.1426-0.1435 0.0664-0.2724c-0.1436-0.2407-1.6269 0.354-1.6269 0.354-0.8125 0.3472 0.288 1.8994 0.288 1.8994zm-1.042-2.5044 1.876-3.0049c-1.8388-0.5957-3.1816 1.1826-3.1816 1.1826zm-2.4677-2.5591c0.6836 0.5376 1.2158-0.8261 1.2158-0.8261 0.5312-1.4312-0.0313-3.4644-0.0313-3.4644-1.3554 0.352-2.4863 3.0112-2.4863 3.0112-0.1318 0.5449 1.3018 1.2793 1.3018 1.2793zm-7.5049-3.6699 0.9521 0.1279s-0.2119-1.0175 0.2627-1.0219c0 0-1.0224-0.4664-1.2148 0.894zm2.165-0.9707c-0.3271 0.8682 0.1514 1.6294 0.1514 1.6294l0.4766 0.1992c1.2939 0.3291 0.5849-2.9941 0.5849-2.9941-0.2099-0.6768-1.2129 1.1655-1.2129 1.1655zm3.9981-1.2578c-0.6807 0.0063-1.6153 1.7129-1.6153 1.7129-0.5341 1.0913-0.0507 2.0385-0.0507 2.0385l0.5478 0.4024c1.2949 0.5322 1.2725-2.0488 1.2725-2.0488 0.0605-0.8838 0.3252-1.5655 0.3252-1.5655 0.2646-0.7495-0.4795-0.5395-0.4795-0.5395zm-14.78 3.1875s1.5356-3.0025 2.8232-3.353c0 0 2.1622-1.3106 2.7657-2.1983 0 0-4.2027 0.9883-5.7964 5.1455 0 0-0.1992 0.4776 0.2075 0.4058zm-0.9023-2.166c-0.2652 0.75 0.4775 0.268 0.4775 0.268 0.7363-1.2295 0.3906-1.9057 0.3906-1.9057zm22.672-1.8301 0.0547-1.4951c-0.2793-0.8809-2.3222-1.3379-2.3222-1.3379 0.0048 0.543 2.2675 2.833 2.2675 2.833zm-5.3388-4.5718 1.9013-0.0166s2.4297-1.7881 2.4883-2.8081c0 0-0.4795-0.4707-1.9658 0.4253 0 0-3.2461 1.7271-2.4238 2.3994zm3.4697 0.648s2.2471 0.5239 4.0605-1.6661c0 0 0.7393-1.0258-1.6318-0.3251 0 0-2.6416 0.9741-2.4287 1.9912zm2.0469 0.9331 3.2109 2.146s0.8877 0.5351 0.2002-0.4781l-1.2363-1.4834s-0.2764-0.4731 0.3359-0.4101c0 0 1.1543-0.1465 0.54-0.3443 0 0-4.2822-0.3701-3.0507 0.5699zm-16.027 0.4809s4.5762-4.8633 4.416-7.5796l-0.2119-0.9482s-0.872 1.3657-1.3437 1.7778c0 0-3.959 5.4014-4.1504 6.8296 0 0 0.1406 0.4741 1.29-0.0796zm3.5205-1.2534s3.7803-2.751 4.0264-5.6059c0 0-0.208-0.542-0.8818 0.0756 0 0-3.4385 3.0869-4.5723 5.4746 0 0-0.1992 0.5459 0.7519 0.4014 0 0 0.3389-0.0713 0.6758-0.3457zm4.5889-3.5049-1.4141 1.439c-1.415 1.4394-0.8007 1.6367-0.8007 1.6367 1.2246 0.1934 2.9834-0.7051 2.9834-0.7051 3.038-2.0644 2.539-4.7094 2.539-4.7094-1.6943 0.4902-3.3076 2.3388-3.3076 2.3388zm-18.7 13.14s-10.765 4.0351-3.1206 15.855c0 0 0.6811 0.1978 0.1997-0.4775-0.4814-0.6743-0.4814-0.6743-0.4814-0.6743l-0.9668-1.7578s-0.3496-1.1519 0.4721-0.4116l0.8218 0.7392 1.1641 1.0767s0.873-1.1626-2.0117-4.7373c0 0-0.6197-0.9458 0.2641-0.8853 0 0 0.3408 0.1328 0.7534 0.6729 0.4121 0.5395 0.4121 0.5395 0.4121 0.5395s0.7994 0.9336 0.75 0.333c0 0 0.2593-1.4292-2.2036-3.3769 0 0-0.7602-1.42 0.1958-0.8853 0 0 1.0943 0.874 1.5088 1.6172 0 0 1.231 0.8721 0.6748-0.5488l-1.3808-2.5015s-0.4151-0.8799-0.0098-1.1553c0 0 0.606-0.5488 0.9546 0.4673 0 0 0.4878 1.3545 0.6919 1.353 0 0 0.3428 0.4043 0.2637-0.8178 0 0 0.1083-3.126 1.0507-4.0855 0 0 0.6768-0.3462-0.0029-0.3393zm-1.9468-5.0772 2.1885 1.6109s-0.0112-1.2227-1.9307-3.1753c0 0-0.4101-0.3369-0.2671 0.4775 0 0 0.2774 0.6763 0.0093 1.0869zm-1.0254-0.7383s0.5708-4.6245-2.5044-6.6357c0 0-0.1337 0.2051 0.2105 0.7456 0 0 1.376 1.958 1.2573 3.8608 0 0-0.4678 0.8877-0.8115 0.4151 0 0 0.1084-3.0576-1.3926-3.7915 0 0-0.8144 0.0068-0.3818 2.9238 0 0 0.0947 0.3599 0.5493 0.6065 0.8291 0.4506 0.8188 0.4682 0.8188 0.4682zm-18.184 2.4024s3.747-6.4873 6.873-6.3106c0 0 2.2388-0.292 6.5327 1.3013 0 0 0.3413 0.2002 0.2617-1.1577 0 0 0.4405-3.9434-2.2231-5.6187 0 0 0.5737 3.459-1.791 4.9747 0 0-1.0811 0.621-1.0249-0.6705l0.1235-1.4272s0.2085-1.27-2.3384-3.3081c0 0-0.435-0.3438-0.4746 0.1396 0 0-0.2549 1.9048 0.4346 3.0533 0 0 1.0727 1.7212 0.0161 1.8349 0 0-0.4727 0.3433-1.2344-1.3476 0 0-0.9077-2.7779-4.1626-2.0699 0 0-0.4829 0.2061 0.2783 0.6768 0 0 0.8658 0.4824 1.1001 1.4854 0 0 0.4185 1.3603 1.9151 1.5454 0 0 0.7519 0.5366 0.0039 0.4077 0 0-3.1338-0.9917-6.1865-0.5572 0 0-0.6109 0.0738 0.0024 0.2715l0.6128 0.1988 1.5005 0.666s-4.2554 2.7549-3.6895 5.2627c0 0 0.544 0.0634 1.2173-0.6211l0.6729-0.6861 2.8305-2.538 0.2071 0.3378s-2.2183 2.6685-1.7285 4.2271zm18.773 2.8232s-0.4761-0.1318-0.9448 0.687l-0.2012 0.2735s1.0137-0.5523 1.146-0.9605zm-5.3125 6.0923c0.6025-1.0244 0.2534-2.0405 0.2534-2.0405-0.8711 1.3672-0.2534 2.0405-0.2534 2.0405zm0.2812 8.7612c0.6661-1.5009 1.48-1.6435 1.48-1.6435 0.1099-2.9224-0.8413-2.9819-0.8413-2.9819-1.2729 2.0488-0.6387 4.6254-0.6387 4.6254zm-2.8999-5.2734 0.086 1.9692s1.2778-1.4375-0.086-1.9692zm2.709-0.9072c1.7617-0.5586 1.1387-1.9121 1.1387-1.9121-1.3569 0.2163-1.1387 1.9121-1.1387 1.9121zm1.9732-7.4224 1.8125-2.3926s0.6738-0.6176-1.0225-0.3989c0 0-2.1963-2.5625-3.6919-2.6846 0 0-0.1328 0.3409 0.1441 0.9493 0 0 0.768 2.3711 0.3623 2.5786l-0.4058 0.207s-2.5347-2.4907-4.3687-2.4067c0 0 0.419 1.2871 1.9239 2.4287 0 0 1.3008 1.143 0.6264 1.6924 0 0-0.3369 0.3432-1.2265-0.3965 0 0-1.9864-1.8843-4.9737-1.6543 0 0 3.4107 1.6001 4.169 2.8843 0 0 0.2798 0.8803-0.6055 0.6171 0 0-4.6382-2.1333-6.3882-0.2841 0 0 3.9493 0.9843 4.6436 2.7446 0 0 0.0058 0.6792-1.2861 0.5552 0 0-4.6275-0.979-6.2173 3.5869 0 0-0.1812 0.6709 0.5454 0.269l0.6772-0.2798s1.1343-0.1899 1.9634-0.7651c0 0 1.353-0.6226 1.4941-0.0127 0 0 0.084 0.3887-0.3344 0.5464 0 0-2.1582 0.8921-2.145 3.3472l0.021 2.31s0.2114 0.8809 0.6811 0.1973c0 0 2.2148-3.0083 2.2671-4.7744l-0.0068-0.7476s0.8134-0.2109 0.7514 0.4693l-0.0561 1.2905s-0.0537 1.5112 2.0659 3.1748c0 0 0.686 0.7412 0.6094-0.2095-0.0762-0.9507-0.0762-0.9507-0.0762-0.9507s-0.2588-2.0439-0.9775-2.9795c0 0-0.7032-2.7109 0.517-2.9936 0 0 1.1748 2.2988 2.3321 2.561 0 0 0.8857 0.2627-0.3155-4.957 0 0-0.1474-1.3565 0.2588-1.4282 0 0 0.7432-0.4825 0.9595 0.9419 0 0-0.0522 1.7671 1.1763 2.3676 0 0 1.081-0.6211 1.0605-2.9301 0 0 0.1758-3.1949 1.6621-4.0909 0 0 0.6763-0.414 0.7486 0.1289 0 0 0.0879 2.2417 0.625 1.4888zm3.2744-13.818s-3.8042-7.643-11.215-8.4604c0 0-0.5429 0.0728 0.6143 0.334 0 0 5.9902 1.4419 10.124 7.9946 0 0 0.3467 0.812 0.4766 0.1318zm-3.4746-1.1245 0.8906 0.875c0.8906 0.8755 0.8862 0.3326 0.8862 0.3326l-2.1255-2.2237c-0.4043 0.4112 0.3487 1.0161 0.3487 1.0161zm-13.989-7.145c-1.2168 0.69-0.2627 1.021-0.2627 1.021l2.2305-1.31c-0.4776-0.1998-1.9678 0.289-1.9678 0.289zm19.513 9.5415s0.5845-3.0615-0.1787-4.8218c0 0-0.2769-0.6084-0.606 0.6172 0 0-0.7968 1.9771 0.3101 4.2764 0 0 0.2808 1.0166 0.4746-0.0718zm-3.4536-6.4902c-0.6001 1.3633 0.084 1.9009 0.084 1.9009 0.4126 0.4721 1.1679 1.416 1.1679 1.416 0.8853 0.2641 0.2491-2.583 0.2491-2.583-0.3491-1.0161-0.4283-2.3062-0.4283-2.3062-0.2104-0.7451-1.0727 1.5723-1.0727 1.5723zm-2.25-0.9317 1.0288 1.1456s0.4824 0.7431 0.6689-1.1607c0 0 0.7198-3.1313-0.1748-4.4131 0 0-1.2119 1.2329-1.267 2.6597 0 0 0.0102 1.1548-0.2559 1.7685zm-1.231-0.9399s1.8204-1.5791 0.5049-4.3525l-0.6943-1.6914s-0.5508-0.8111-0.7442 0.3461c0 0-0.2265 1.3829-0.25 2.5152 0 0 0.0191 2.8559 1.1836 3.1826zm-1.9814-1.2056s0.5815-3.4013-1.8731-4.4663c0 0-0.6831-0.4023-0.4052 0.2071 0 0 0.4829 0.8789 0.4214 1.5586 0 0 0.6362 2.8476 1.8569 2.7006zm-2.1807-0.8637s0.104-3.6016-3.2251-3.6397c0 0-0.2695 0.2056 0.0074 0.815 0 0 0.9765 2.8447 2.7446 3.101 0 0 0.4184 0.1114 0.4731-0.2763zm-3.8105-0.7139s-0.7588-1.2832-2.4536-0.9287c0 0-0.2701 0.206 0.0039 0.4756 0 0 0.6108 0.5771 1.8403 0.6621 0 0 0.7852 0.0556 0.6094-0.209z" fill="#008f33"/>
  <path transform="translate(99.485 60.112)" d="m2.4888 50.424-0.7476 0.0068c-0.747 0.0064-0.6748 0.4815-0.6748 0.4815l0.0074 0.8823c0.3471 0.8125 0.0117 1.2905 0.0117 1.2905l0.0122 1.4268c0.0127 1.4268 0.2851 1.4917 0.2851 1.4917l0.6177 0.6743s0.0122-0.0127 0.7539 0.7407c0.5747 0.5835 0.7495 0.2647 0.7495 0.2647 0.5371-0.6836 0.251-2.3115 0.251-2.3115-0.1421-0.7461-0.0288-3.2603-0.0288-3.2603l-0.0073-0.8149c-0.0069-0.8155-0.7539-0.8086-0.7539-0.8086zm0.5366-0.7519s0.7788-0.211 0.6016-1.0923l-0.0733-0.6109s-0.0927-2.852 0.0386-3.3286c0 0 0.1597-1.1904-0.6899-1.2168l-1.0191 0.0093s-0.8183-0.3325-0.8081 0.7539c0 0-0.0283 0.6792-0.0586 1.1558 0 0-0.1967 0.749-0.0449 2.5132 0 0-0.1206 1.7675 0.5591 1.7617 0 0 1.0864 0.0244 1.4946 0.0547zm-1.9795-11.145c-0.1303 0.4951-0.0674 2.4673-0.0674 2.4673l-0.0615 0.7476c-0.061 0.7485 0.4126 0.5405 0.4126 0.5405 0.4063-0.1401 0.6123 0.1304 0.6123 0.1304 1.1577 0.2612 1.2891-0.2159 1.2891-0.2159 0.6006-1.228 0.043-2.853 0.043-2.853-0.1431-0.8139-0.0835-1.7656-0.0835-1.7656s-0.0318 0.1655 0.0302-0.374c0.0313-0.272-0.3423-0.3365-0.3423-0.3365-0.1738 0.1285-0.4414-0.0307-0.4414-0.0307-0.2729-0.0654-0.6118 0.0058-0.6118 0.0058-1.1225-0.1596-0.7793 1.6841-0.7793 1.6841zm-0.2983-8.3315 0.0781 1.1543c-0.06 0.917-0.1118 2.7182-0.1118 2.7182-0.0513 1.9024 1.1035 1.8921 1.1035 1.8921l0.9507-0.0088c0.6792-0.0058 0.5234-2.2461 0.5234-2.2461-0.1435-0.8818-0.1635-3.1909-0.1635-3.1909-0.4102-0.3364-2.3804-0.3188-2.3804-0.3188zm0.2158-6.3194c-0.8164-0.1289-0.4707 0.5469-0.4707 0.5469s0.0127 0.1201 0.0396 0.6797c0.042 0.8491 0.0542 2.2412 0.0542 2.2412-0.2242 2.4756 1.4462 2.229 1.4462 2.229 1.2906-0.0112 1.1436-1.2334 1.1436-1.2334-0.2148-1.2881-0.0288-3.2602-0.0288-3.2602 0.0644-0.4082 0.1289-0.8155 0.1289-0.8155-0.3438-0.9809-1.4307-0.4633-1.4307-0.4633zm0.4683-8.4956c-0.2032 0.0699-0.7481-0.1289-0.7481-0.1289-0.3061-0.0317-0.2636 0.9532-0.2636 0.9532l0.0371 4.2109 0.082 1.5615c0.0815 1.562 1.6387 0.937 1.6387 0.937 0.4746-0.0722 0.7378-1.0254 0.7378-1.0254l-0.1192-5.8408c0.0596-0.9521-1.3647-0.6675-1.3647-0.6675zm0.2768-7.1352c-0.4751 0.0381-0.7466 0.0742-0.7466 0.0742-0.8525-0.3315-0.6655 1.5005-0.6655 1.5005 0.1392 0.4746-0.0473 2.3784-0.0473 2.3784-0.1866 1.9717 0.6977 2.0996 0.6977 2.0996 0.5767-0.039 0.8164 0.1284 0.8164 0.1284 1.0889 0.2622 0.9439-0.7553 0.9439-0.7553l-0.0367-4.2119c0.1211-1.6304-0.9619-1.2139-0.9619-1.2139zm0.4732-7.9517c-0.4746 0.106-0.8155-0.0268-0.8155-0.0268-0.5795-0.2671-0.7461 0.1084-0.7461 0.1084 0.0967 0.9175-0.0512 1.9018-0.0512 1.9018 0.1494 1.5615-0.1782 2.9229-0.1782 2.9229-0.3907 1.9057 0.6943 1.6919 0.6943 1.6919l0.2378-0.0352 0.4424 0.1319c1.02 0.1264 0.7382-0.9922 0.7382-0.9922-0.2158-1.4239 0.0933-4.8911 0.0933-4.8911 0.2217-0.9312-0.415-0.8116-0.415-0.8116zm12.152 7.0254-0.6123-0.1982c-0.8154 0.0073-0.1269 1.0874-0.1269 1.0874l0.8281 1.4194 1.1474-0.8252c-0.3408-0.0649-1.2363-1.4834-1.2363-1.4834zm-1.1748 5.377c-0.6748 0.6167 0.0127 1.562 0.0127 1.562l0.4131 0.4717c0.4111 0.4716 1.2236 0.1928 1.2236 0.1928 0.8106-0.5507-0.2138-1.1528-0.2138-1.1528-0.2032 2e-3 -0.8907-0.875-0.8907-0.875zm0.8623-2.3174c-0.542 0.0723-0.0547 1.4267-0.0547 1.4267l0.5489 0.6744 0.5468 0.4028c0.5469 0.4023 0.6807 0.0625 0.6807 0.0625-0.0713-0.2715 0.333-0.6148 0.333-0.6148 0.4053-0.4111-0.0762-0.8823-0.0762-0.8823l-0.958-0.9428c-0.6826-0.3331-1.0205-0.1265-1.0205-0.1265zm-2.5176-0.522s1.2266 0.397 1.5625-0.0132c0 0-0.0029-2.3442-1.5781-1.6841-0.3974 0.1661-0.668 1.2281 0.0156 1.6973zm0.3301 6.5864 0.2754 0.4053c0.2744 0.4058 0.4834 0.9473 0.4834 0.9473l0.4795 0.4712c0.6143 0.334 1.0156-0.4165 1.0156-0.4165 0.8008-1.5694-1.6523-2.4986-1.6523-2.4986-1.2256-0.1933-0.6016 1.0913-0.6016 1.0913zm-2.1084-0.3208c-0.1328 0.4776 0.2764 0.6768 0.2764 0.6768-0.2656 0.6138 0.6221 1.1504 0.6221 1.1504 0.8847 0.1953 0.8769-0.6875 0.8769-0.6875-0.2891-1.9678-1.2402-2.0269-1.2402-2.0269-0.3399-0.0654-0.5352 0.8872-0.5352 0.8872zm-2.5576-5.0039c-0.3584 1.0132 0.2852 1.4239 0.2852 1.4239l1.0107-0.8921c0.877-0.5508 0.5996-1.3638 0.5996-1.3638-0.21-0.6094-0.7519-0.4009-0.7519-0.4009-1.0821 0.4854-1.1436 1.2329-1.1436 1.2329zm3.6094 1.1231c-0.7373 1.0932 0.3564 1.9663 0.3564 1.9663 0.6113-0.0049 0.6709-1.0244 0.6709-1.0244 0.0176-0.3101 0.0625-0.6128 0.0625-0.6128 0.3311-0.8848-0.416-0.9468-0.416-0.9468-0.4766-0.1313-0.6738 0.6177-0.6738 0.6177zm-3.2403 2.2021c0.2823 1.1519 1.3643 0.5992 1.3643 0.5992 0.5586-0.1949 0.3994-0.8189 0.3994-0.8189 0.9463-0.4839 0.2598-1.293 0.2598-1.293-0.3252-0.686-1.2217 0.0786-1.2217 0.0786-0.6064 0.4131-0.8018 1.4341-0.8018 1.4341zm5.0254-7.8564c0.6075-0.2769-0.0058-0.6113-0.0058-0.6113-0.543 0.1406-0.8174-0.3326-0.8174-0.3326-0.5498-0.5385-0.7471 0.0747-0.7471 0.0747-0.1933 1.292 1.5703 0.8692 1.5703 0.8692zm-4.5361 1.6709c0.0059 0.6787 0.9473-0.3482 0.9473-0.3482-0.0039-0.4077 0.4677-0.8193 0.4677-0.8193-0.207-0.3379-0.4091-0.2686-0.4091-0.2686-1.0791-0.0463-1.0059 1.4361-1.0059 1.4361zm2.1182 1.6108c0.8252-0.0576 0.3759-1.833-0.084-1.833-0.461 0-1.1446 1.919 0.084 1.833zm-0.7344 1.9224c0.1396 0.4175 1.6074-0.4736 1.3896-1.0117-0.2177-0.5381-1.5283 0.5942-1.3896 1.0117z" fill="#ac5341"/>
 </g>
</svg>
