<svg class="img-fluid" id="outputsvg" xmlns="http://www.w3.org/2000/svg" style="transform: matrix(1.01591, 0, 0, 1.01591, 0, 0); transform-origin: 50% 50%; cursor: move; transition: transform 200ms ease-in-out 0s;" width="2048" height="2048" viewBox="0 0 20480 20480"><g id="l4Ff1wcck3I77FmrKtQZt94" fill="rgb(202,202,198)" style="transform: none;"><g><path id="pToytxMjd" d="M7858 18422 c-10 -2 -18 -10 -18 -18 0 -11 15 -14 63 -14 34 0 86 -3 115 -6 51 -7 52 -6 52 20 l0 27 -97 -3 c-54 -1 -106 -4 -115 -6z"></path><path id="pnwLaCylC" d="M8880 18404 l0 -27 77 7 c42 3 114 6 160 6 64 0 83 3 83 14 0 20 -25 24 -180 25 l-140 2 0 -27z"></path><path id="p1AwEHsARd" d="M10470 18395 l0 -28 68 6 c37 4 100 7 140 7 57 0 72 3 72 15 0 8 -1 15 -2 16 -2 0 -65 3 -140 6 l-138 5 0 -27z"></path><path id="pRzd29n57" d="M11730 18384 l0 -27 68 6 c37 4 82 7 100 7 20 0 32 5 32 14 0 18 -20 23 -118 25 l-82 2 0 -27z"></path><path id="pYsPGS4nm" d="M6593 18385 c-43 -18 -42 -35 2 -35 31 0 35 3 35 25 0 14 -1 25 -2 25 -2 -1 -18 -7 -35 -15z"></path><path id="pKX4YM2ug" d="M12770 18374 l0 -27 68 6 c37 4 88 7 115 7 33 0 47 4 47 14 0 19 -22 23 -133 25 l-97 2 0 -27z"></path><path id="p7NL18yCN" d="M13108 18392 c-34 -7 -20 -32 17 -32 23 0 35 5 35 14 0 15 -25 24 -52 18z"></path><path id="ptIDgGirQ" d="M13208 18393 c-10 -2 -18 -11 -18 -19 0 -10 14 -14 55 -14 40 0 55 4 55 14 0 21 -48 31 -92 19z"></path><path id="ptqLZ0EJB" d="M13480 18360 c0 -17 7 -20 40 -20 45 0 57 23 18 34 -42 11 -58 7 -58 -14z"></path><path id="pnoWpDJk3" d="M13710 18291 c0 -21 14 -42 59 -84 32 -31 61 -63 64 -72 4 -8 18 -15 31 -15 21 0 24 3 18 19 -14 37 -100 138 -136 159 l-36 21 0 -28z"></path><path id="pI2MOmg0J" d="M6396 18284 l-29 -29 28 -3 c34 -4 37 -1 33 33 l-3 28 -29 -29z"></path><path id="plvch2TPs" d="M6256 18148 c-29 -31 -94 -178 -110 -247 -17 -75 -11 -131 14 -131 15 0 18 11 22 69 3 58 11 83 56 170 62 122 72 198 18 139z"></path><path id="pBOjUrGZj" d="M7469 17833 c-8 -2 -72 -7 -144 -12 -105 -7 -143 -14 -197 -36 -38 -15 -68 -31 -68 -36 0 -5 -9 -9 -20 -9 -11 0 -23 -6 -26 -14 -3 -8 -16 -17 -30 -20 -13 -4 -24 -13 -24 -21 0 -8 -6 -15 -13 -15 -18 0 -87 -59 -87 -75 0 -7 -9 -15 -20 -18 -11 -3 -25 -17 -32 -32 -7 -15 -27 -42 -44 -59 -69 -69 -64 142 -65 -2750 -1 -1436 -4 -3275 -8 -4086 -3 -811 -3 -1485 1 -1497 4 -12 3 -23 -2 -25 -6 -2 -12 -800 -17 -2110 l-6 -2108 21 0 c14 0 22 6 23 18 0 13 2 12 9 -5 l9 -23 3316 0 c2203 0 3315 -3 3315 -10 0 -5 5 -10 10 -10 7 0 10 191 10 553 0 305 3 557 6 560 4 4 6 418 5 922 -1 503 1 920 5 926 4 7 6 378 5 825 -1 448 1 819 5 825 4 7 6 338 5 735 -1 398 1 729 5 735 4 7 6 351 5 765 -1 415 1 759 5 765 4 7 6 369 5 805 -1 437 1 798 4 804 4 6 6 717 5 1580 -1 1717 2 1618 -60 1745 -47 96 -91 156 -150 204 -30 24 -56 50 -58 58 -2 7 -11 13 -21 13 -9 0 -32 11 -51 25 -19 14 -41 25 -49 25 -9 0 -32 10 -51 23 l-35 22 -1517 3 c-835 1 -1518 6 -1518 10 0 4 -238 6 -530 4 -291 -2 -530 0 -530 5 0 4 -193 7 -430 5 -236 -2 -430 0 -430 5 0 7 -501 12 -541 6z m527 -912 c57 -25 132 -96 163 -156 l21 -40 0 -3916 c0 -3636 -1 -3919 -17 -3965 -12 -36 -35 -67 -90 -121 -61 -60 -83 -75 -130 -89 -32 -9 -74 -17 -94 -17 -106 0 -223 83 -280 199 l-32 65 7 2187 c4 1203 7 2960 6 3905 0 1128 4 1717 10 1717 6 0 10 13 10 30 0 19 7 33 20 40 11 6 20 20 20 31 0 36 57 96 123 129 57 29 68 31 137 27 47 -2 94 -12 126 -26z m3840 -5742 c77 -76 76 -135 -5 -210 -63 -59 -93 -65 -148 -33 -91 53 -127 147 -81 214 39 57 85 83 141 77 41 -3 55 -11 93 -48z m-1659 -790 c54 -26 129 -109 143 -157 23 -84 7 -162 -46 -225 -103 -123 -243 -137 -359 -35 -131 116 -122 285 21 394 71 55 157 63 241 23z m1528 -770 c34 -30 52 -68 46 -99 -5 -29 -74 -90 -101 -90 -46 1 -98 45 -114 97 -15 46 51 123 105 123 17 0 42 -12 64 -31z m-1955 -1263 c139 -70 231 -219 217 -354 -14 -134 -135 -282 -263 -322 -36 -11 -81 -20 -99 -20 -95 0 -234 86 -302 188 -105 158 -67 342 100 474 93 74 238 88 347 34z m2303 -921 c71 -29 131 -99 147 -172 24 -106 -82 -239 -208 -259 -71 -11 -171 58 -221 153 -27 53 -7 150 44 210 64 75 158 102 238 68z m-1605 -1315 c18 0 101 -79 118 -111 20 -39 18 -66 -10 -113 -41 -69 -100 -103 -161 -92 -38 8 -113 65 -134 104 -19 36 -9 105 22 146 30 39 103 79 132 71 11 -2 26 -5 33 -5z"></path><path id="pvY6cq2go" d="M13960 17645 c0 -50 3 -65 15 -65 18 0 29 57 20 99 -4 17 -13 31 -21 31 -11 0 -14 -16 -14 -65z"></path><path id="p15BbE623r" d="M6140 17475 c0 -148 1 -155 20 -155 19 0 20 7 20 155 0 148 -1 155 -20 155 -19 0 -20 -7 -20 -155z"></path><path id="p18HVSyWeY" d="M13950 17425 c0 -58 2 -65 20 -65 18 0 20 7 20 65 0 58 -2 65 -20 65 -18 0 -20 -7 -20 -65z"></path><path id="p188I653Ey" d="M6136 15168 c-3 -13 -6 -44 -6 -70 0 -41 3 -48 20 -48 18 0 20 7 20 70 0 53 -3 70 -14 70 -7 0 -16 -10 -20 -22z"></path><path id="pljwCBZb1" d="M6126 13488 c-3 -13 -6 -44 -6 -70 0 -41 3 -48 20 -48 18 0 20 7 20 70 0 53 -3 70 -14 70 -7 0 -16 -10 -20 -22z"></path><path id="pg6ZoxTWH" d="M13950 12925 c0 -193 2 -235 14 -235 22 0 24 28 26 256 1 209 0 214 -20 214 -20 0 -20 -5 -20 -235z"></path><path id="pwbkoCog7" d="M6116 11858 c-3 -13 -6 -42 -6 -65 0 -36 3 -43 20 -43 18 0 20 7 20 65 0 49 -3 65 -14 65 -7 0 -16 -10 -20 -22z"></path><path id="p16mJVDkJa" d="M13940 10025 c0 -202 2 -245 14 -245 22 0 25 28 26 266 1 219 0 224 -20 224 -20 0 -20 -5 -20 -245z"></path><path id="pZp8UgZs7" d="M6106 10208 c-3 -13 -6 -40 -6 -60 0 -31 4 -38 20 -38 18 0 20 7 20 60 0 44 -4 60 -14 60 -7 0 -16 -10 -20 -22z"></path><path id="pNZnfGx7w" d="M13930 7850 c0 -121 3 -150 14 -150 21 0 26 33 26 173 0 120 -1 127 -20 127 -19 0 -20 -7 -20 -150z"></path><path id="pbpluMbGb" d="M6096 7748 c-3 -13 -6 -51 -6 -85 0 -56 2 -63 20 -63 18 0 20 7 20 85 0 66 -3 85 -14 85 -7 0 -16 -10 -20 -22z"></path><path id="pJoS3z21J" d="M13920 6125 c0 -100 3 -125 14 -125 20 0 26 32 26 148 0 95 -1 102 -20 102 -19 0 -20 -7 -20 -125z"></path><path id="p53YuYPYX" d="M13910 4770 c0 -70 3 -90 14 -90 18 0 26 32 26 113 0 60 -2 67 -20 67 -19 0 -20 -7 -20 -90z"></path><path id="ppq7yZXP3" d="M6090 3373 c0 -170 5 -203 26 -203 11 0 14 33 14 180 0 173 -1 180 -20 180 -19 0 -20 -7 -20 -157z"></path></g></g><g id="l4lxKVtDQIDeyIVHDBiQDFd" fill="rgb(218,224,224)" style="transform: none;"><g><path id="p1Gc3Kn7D8" d="M8040 18423 c0 -5 -289 -7 -642 -5 -436 2 -662 -1 -703 -8 -33 -6 -101 -27 -152 -46 -79 -30 -105 -46 -180 -113 -82 -73 -92 -86 -147 -194 -53 -105 -60 -125 -66 -199 -4 -46 -8 -517 -9 -1048 -1 -922 -10 -2483 -31 -5785 -15 -2386 -24 -6469 -15 -7518 l7 -957 305 0 305 0 -7 2525 c-6 1883 -5 2525 4 2525 11 0 16 52 6 62 -3 3 -5 326 -5 719 0 520 3 715 12 720 7 4 9 23 5 50 -11 76 -8 2314 3 2317 12 4 14 42 3 42 -5 0 -7 1306 -5 2902 3 3211 -2 2976 66 3044 17 17 37 44 44 59 7 15 21 29 32 32 11 3 20 11 20 18 0 16 69 75 87 75 7 0 13 7 13 15 0 8 11 17 24 21 14 3 27 12 30 20 3 8 15 14 26 14 11 0 20 4 20 9 0 5 30 21 68 36 53 22 93 29 195 36 166 12 627 16 627 6 0 -4 194 -6 430 -5 237 2 430 -1 430 -5 0 -4 239 -6 530 -5 292 2 530 0 530 -4 0 -4 683 -9 1518 -10 l1517 -3 35 -22 c19 -13 42 -23 51 -23 8 0 34 -14 57 -31 23 -17 46 -28 51 -25 5 4 11 0 13 -7 2 -8 28 -34 58 -58 59 -48 103 -108 150 -204 63 -128 59 -30 60 -1717 1 -847 -2 -1543 -5 -1546 -3 -4 -5 -366 -5 -805 1 -439 -1 -801 -5 -805 -3 -3 -5 -348 -4 -765 0 -417 -2 -761 -5 -765 -4 -3 -6 -334 -6 -735 1 -401 -1 -731 -5 -735 -3 -3 -5 -375 -5 -825 1 -450 -1 -821 -5 -825 -3 -3 -5 -419 -5 -924 1 -504 -1 -921 -4 -926 -3 -5 -3 -791 1 -1746 l6 -1736 287 0 287 0 6 1603 c4 881 11 2232 17 3002 15 2245 32 7921 28 9395 l-3 1355 -31 80 c-17 44 -44 105 -59 135 -30 60 -152 193 -199 217 -94 49 -265 66 -624 61 -149 -2 -272 1 -272 5 0 4 -234 6 -520 5 -286 -2 -520 1 -520 5 0 4 -284 6 -630 5 -347 -2 -630 1 -630 5 0 4 -358 6 -795 5 -437 -2 -795 0 -795 5 0 4 -196 7 -435 7 -239 0 -435 -3 -435 -7z"></path><path id="plULB8pRW" d="M7703 16950 c-65 -32 -158 -130 -132 -139 8 -2 4 -10 -11 -21 -13 -10 -22 -28 -22 -43 0 -15 -4 -27 -9 -27 -5 0 -9 -771 -9 -1772 0 -975 -3 -2746 -6 -3935 l-7 -2162 32 -65 c40 -82 120 -157 193 -182 67 -23 166 -23 240 -1 77 23 196 137 221 211 16 46 17 333 17 3995 l0 3945 -21 40 c-30 60 -105 132 -163 157 -39 18 -75 24 -156 27 -101 3 -107 2 -167 -28z"></path><path id="p5ZOJRukH" d="M11667 11255 c-79 -27 -117 -84 -117 -172 0 -72 22 -116 79 -161 52 -39 78 -46 136 -38 60 9 140 80 156 139 18 68 4 123 -47 177 -61 66 -129 84 -207 55z"></path><path id="p11iqxCbb" d="M9988 10436 c-79 -21 -155 -93 -184 -173 -22 -63 -18 -170 10 -228 50 -108 165 -173 291 -163 76 7 123 28 176 82 57 56 80 112 82 194 1 102 -16 146 -82 213 -83 83 -176 107 -293 75z"></path><path id="pZk9eu9lq" d="M11552 9655 c-39 -33 -56 -76 -50 -129 10 -84 87 -146 165 -131 49 9 111 67 119 113 9 49 -11 106 -51 141 -31 27 -43 31 -95 31 -48 0 -64 -5 -88 -25z"></path><path id="p17cdASFUA" d="M9531 8419 c-77 -13 -128 -39 -191 -96 -72 -66 -107 -131 -122 -226 -25 -161 29 -291 160 -387 78 -57 142 -80 227 -80 105 0 185 31 260 101 89 84 127 162 133 273 9 169 -70 308 -214 380 -41 20 -168 50 -194 45 -3 -1 -29 -5 -59 -10z"></path><path id="pu2sDKJ0q" d="M11920 7479 c-56 -11 -116 -52 -154 -106 -25 -36 -30 -54 -34 -122 -6 -102 -1 -118 53 -184 62 -76 116 -101 203 -95 119 9 206 76 238 184 56 192 -105 362 -306 323z"></path><path id="pRW9i0DQt" d="M10322 6139 c-69 -34 -96 -79 -100 -164 -5 -85 5 -108 66 -159 130 -107 322 -22 322 143 0 61 -15 93 -67 144 -63 60 -145 74 -221 36z"></path></g></g></svg>