<svg class="img-fluid" id="outputsvg" xmlns="http://www.w3.org/2000/svg" style="transform: matrix(1, 0, 0, 1, 0, 0); transform-origin: 50% 50%; cursor: move; transition: transform 200ms ease-in-out 0s; max-height: 494px;" width="577" height="770" viewBox="0 0 5770 7700"><g id="l3qjkA7ioHl7KGbmjrFEQrt" fill="rgb(128,82,40)" style="transform: none;"><g><path id="pMCFIgXZt" d="M2345 6569 c-115 -10 -296 -43 -364 -66 -178 -60 -292 -150 -457 -363 -82 -105 -132 -184 -188 -298 -174 -349 -235 -838 -146 -1170 24 -87 90 -235 123 -277 53 -66 208 -118 347 -117 47 1 371 4 720 7 665 7 745 4 902 -36 42 -10 105 -19 141 -19 86 0 166 40 265 134 64 61 81 85 127 181 52 108 90 234 115 381 19 107 7 424 -19 542 -73 328 -283 654 -574 890 -169 138 -282 190 -457 212 -98 12 -389 11 -535 -1z"></path></g></g><g id="l4qU55mEpIdHBjCVI3Vpayx" fill="rgb(225,219,201)" style="transform: none;"><g><path id="pGQDGveRU" d="M2300 7160 c-243 -23 -514 -98 -670 -185 -123 -69 -273 -187 -393 -310 -317 -324 -571 -822 -637 -1249 -25 -164 -16 -404 26 -690 19 -125 64 -279 173 -586 44 -122 54 -164 67 -280 8 -74 19 -164 24 -199 15 -106 42 -109 61 -6 17 89 -5 259 -58 465 -65 251 -72 287 -113 605 -23 174 -27 415 -10 548 15 118 56 312 87 407 69 216 257 514 438 695 173 173 440 348 650 425 109 41 350 99 492 120 106 15 403 12 498 -5 238 -42 379 -111 551 -267 188 -170 300 -315 392 -508 156 -325 211 -564 247 -1055 12 -180 12 -207 -11 -495 -24 -304 -35 -383 -75 -515 -11 -38 -25 -86 -31 -105 -18 -64 -117 -255 -152 -297 -52 -60 -96 -69 -336 -66 -107 1 -211 5 -230 7 -19 3 -159 8 -310 11 -151 3 -347 12 -435 20 -235 22 -260 24 -485 36 -219 11 -305 25 -550 88 -280 71 -362 74 -409 14 -27 -34 -26 -45 6 -78 42 -41 71 -53 194 -76 63 -12 157 -32 209 -46 70 -18 141 -27 265 -34 94 -5 280 -17 415 -26 135 -9 333 -20 440 -24 220 -8 353 -26 610 -82 80 -18 451 -16 515 2 167 47 280 156 354 343 52 132 105 327 147 547 5 24 5 24 27 3 32 -30 139 -76 227 -98 99 -24 279 -24 370 0 113 31 187 74 275 161 217 215 298 368 299 565 1 188 -50 326 -164 440 -79 80 -177 133 -340 183 -183 57 -214 61 -462 59 -227 -1 -227 -1 -233 56 -32 272 -172 615 -350 857 -216 294 -612 545 -960 607 -124 22 -495 33 -645 18z m2391 -1750 c57 -6 129 -18 159 -26 30 -9 70 -19 89 -24 62 -16 177 -79 223 -122 64 -60 88 -130 89 -256 1 -120 -11 -171 -68 -290 -49 -105 -134 -200 -253 -285 -104 -76 -153 -91 -300 -91 -105 0 -132 3 -170 21 -73 33 -160 92 -171 117 -8 16 -6 52 6 127 10 61 19 190 22 314 3 174 1 234 -16 350 -11 77 -18 141 -16 143 4 5 219 29 266 31 20 0 83 -4 140 -9z"></path></g></g><g id="l1Ir1jRpZZMRY8q6l0zn3Eu" fill="rgb(0,0,0)" style="transform: none;"><g></g></g><g id="l3Z4NGzOD7rmHuDr6GZOWMt" fill="rgb(157,144,112)" style="transform: none;"><g><path id="phj2g0MQ9" d="M1764 3271 c-99 -24 -207 -121 -245 -219 -28 -75 -30 -203 -4 -232 27 -30 34 -16 28 63 -9 131 42 217 161 273 88 41 158 32 297 -35 161 -79 229 -188 229 -369 0 -177 -50 -267 -188 -333 -63 -30 -63 -30 -226 -27 -162 3 -162 3 -199 -25 -41 -31 -94 -127 -123 -223 -15 -47 -19 -94 -19 -229 0 -154 2 -174 22 -218 27 -58 106 -138 193 -197 36 -24 103 -75 148 -113 164 -137 164 -166 -4 -449 -66 -111 -149 -279 -160 -323 -11 -44 18 -28 61 33 22 31 76 99 120 150 134 157 235 342 235 433 0 109 -80 200 -342 388 -119 84 -138 118 -138 237 1 118 22 234 57 303 28 56 28 56 179 62 132 6 159 10 220 34 204 82 314 241 314 457 0 104 -15 168 -60 263 -59 123 -146 201 -292 259 -107 42 -191 54 -264 37z"></path></g></g></svg>