<svg class="img-fluid" id="outputsvg" xmlns="http://www.w3.org/2000/svg" style="transform: matrix(1, 0, 0, 1, 0, 0); transform-origin: 50% 50%; cursor: move; transition: transform 200ms ease-in-out 0s;" width="2000" height="2000" viewBox="0 0 20000 20000"><g id="l5ikRoj6snvRejeTJK4irmZ" fill="rgb(246,253,173)" style="transform: none; transform-origin: 50% 50%;"><g style="transform: none;"><path id="p09PRhQEA" d="M9699 15250 c-765 -33 -1365 -151 -2099 -412 -69 -25 -150 -53 -180 -63 -30 -9 -77 -28 -105 -40 -27 -13 -117 -53 -198 -89 -82 -37 -234 -111 -338 -166 -105 -55 -194 -100 -199 -100 -24 0 -471 -281 -580 -365 -25 -19 -60 -42 -78 -50 -37 -18 -255 -179 -310 -229 -72 -66 -232 -196 -241 -196 -5 0 -83 -71 -173 -157 -90 -87 -186 -178 -213 -203 -61 -56 -177 -176 -207 -216 -31 -40 -185 -214 -212 -239 -30 -28 -186 -220 -186 -229 0 -8 -62 -91 -145 -196 -61 -75 -231 -324 -267 -390 -14 -25 -41 -70 -60 -100 -111 -173 -368 -642 -368 -670 0 -6 -24 -61 -54 -123 -30 -62 -77 -168 -106 -237 -28 -69 -58 -141 -67 -160 -26 -55 -183 -512 -183 -531 0 -10 -18 -82 -40 -161 -81 -286 -154 -637 -199 -953 -43 -303 -83 -897 -61 -919 7 -7 137 -12 398 -13 213 -1 441 -3 507 -4 66 0 178 -1 249 0 71 0 133 -2 138 -5 15 -9 5232 -5 7558 6 4144 19 4466 21 4625 27 89 3 223 0 303 -6 144 -11 549 -5 572 9 9 6 9 58 1 211 -29 523 -120 1075 -256 1567 -25 90 -45 172 -45 182 0 31 -162 499 -208 601 -11 24 -41 95 -66 158 -26 63 -69 161 -96 218 -28 57 -50 109 -50 116 -1 19 -147 297 -246 467 -203 348 -355 582 -479 735 -31 39 -76 99 -100 135 -57 85 -143 189 -290 350 -66 72 -125 142 -132 154 -7 12 -49 57 -95 101 -46 44 -168 162 -273 264 -104 101 -206 194 -225 206 -36 23 -158 122 -221 180 -58 52 -271 211 -335 249 -33 19 -85 54 -116 78 -32 24 -118 82 -193 128 -74 47 -165 105 -202 129 -38 23 -101 59 -142 78 -41 19 -140 70 -220 113 -80 43 -213 108 -296 145 -82 37 -168 75 -190 85 -76 34 -169 70 -181 70 -7 0 -93 29 -191 64 -574 206 -1115 326 -1673 371 -396 32 -645 38 -961 25z"></path></g></g><g id="lYWGLucCLJTRVHBKXB8Asb" fill="rgb(255,59,33)" style="transform: none; transform-origin: 50% 50%;"><g style="transform: none;"><path id="pkS1SEuWG" d="M9600 14049 c-244 -17 -584 -62 -850 -111 -252 -46 -830 -223 -1023 -312 -79 -37 -203 -86 -217 -86 -28 0 -611 -305 -630 -330 -8 -10 -110 -71 -136 -80 -27 -11 -264 -167 -279 -184 -10 -12 -275 -214 -304 -231 -46 -29 -113 -87 -326 -285 -38 -36 -92 -85 -120 -109 -27 -24 -79 -76 -115 -117 -81 -91 -215 -240 -290 -321 -32 -34 -82 -97 -113 -140 -30 -43 -89 -123 -131 -178 -92 -120 -276 -393 -276 -409 0 -7 -21 -43 -46 -81 -44 -68 -127 -217 -231 -415 -51 -97 -118 -250 -146 -330 -9 -25 -36 -94 -61 -155 -151 -366 -319 -986 -346 -1280 -5 -49 -18 -169 -29 -265 -25 -216 -43 -547 -31 -570 8 -15 39 -18 242 -23 570 -16 6658 -6 10761 19 1167 7 1167 7 1167 118 0 61 -5 163 -10 226 -6 63 -14 178 -19 255 -10 150 -16 192 -62 440 -33 172 -77 358 -133 550 -42 148 -160 490 -192 561 -13 29 -24 60 -24 68 0 45 -243 544 -347 711 -23 39 -52 90 -64 114 -39 80 -160 263 -293 441 -72 96 -136 186 -143 198 -15 29 -43 62 -138 167 -40 44 -120 134 -179 200 -101 113 -211 220 -456 446 -129 119 -176 159 -184 159 -3 0 -72 51 -152 113 -164 126 -422 306 -442 306 -12 1 -91 49 -102 62 -6 7 -187 110 -345 196 -123 67 -305 153 -323 153 -6 0 -68 25 -138 55 -323 141 -894 317 -1150 355 -43 6 -135 20 -204 31 -141 22 -314 44 -470 59 -141 15 -744 21 -900 9z"></path></g></g><g id="l5ZXBSvQSQpHQrElqSeOiJU" fill="rgb(93,173,37)" style="transform: none; transform-origin: 50% 50%;"><g style="transform: none;"><path id="pvatvg1yk" d="M9540 15230 c-58 -5 -177 -13 -265 -18 -169 -11 -404 -44 -648 -93 -81 -16 -157 -29 -168 -29 -10 0 -27 -4 -37 -10 -9 -5 -64 -21 -122 -35 -58 -14 -145 -36 -195 -50 -49 -14 -133 -36 -185 -51 -103 -28 -348 -115 -393 -139 -16 -8 -39 -15 -53 -15 -22 0 -151 -47 -191 -70 -10 -5 -85 -39 -166 -75 -82 -36 -234 -110 -338 -165 -105 -55 -194 -100 -199 -100 -24 0 -471 -281 -580 -365 -25 -19 -60 -42 -78 -50 -37 -18 -255 -179 -310 -229 -71 -65 -232 -196 -241 -196 -10 0 -581 -565 -581 -575 0 -4 -60 -73 -133 -153 -173 -192 -277 -317 -277 -335 0 -8 -7 -20 -15 -27 -8 -7 -38 -44 -67 -83 -29 -40 -59 -78 -66 -87 -44 -49 -232 -324 -232 -338 0 -5 -6 -15 -14 -21 -8 -7 -21 -26 -30 -44 -9 -18 -26 -49 -39 -69 -55 -91 -104 -174 -111 -188 -4 -8 -18 -33 -31 -55 -13 -22 -35 -61 -49 -86 -13 -25 -32 -51 -40 -58 -9 -8 -16 -17 -16 -22 0 -14 -111 -239 -121 -245 -5 -3 -9 -18 -9 -33 0 -16 -6 -34 -14 -40 -8 -7 -17 -23 -21 -38 -3 -14 -17 -42 -31 -62 -13 -19 -24 -42 -24 -50 0 -7 -10 -29 -21 -48 -12 -19 -19 -37 -15 -40 3 -3 -4 -19 -15 -35 -12 -16 -18 -32 -15 -35 3 -4 -1 -15 -11 -25 -9 -10 -13 -21 -10 -24 4 -4 -3 -18 -13 -32 -11 -13 -20 -31 -20 -38 0 -7 -9 -29 -21 -48 -11 -20 -19 -41 -17 -48 3 -7 -6 -32 -19 -56 -14 -24 -22 -50 -19 -57 2 -7 2 -16 -2 -20 -4 -4 -7 -10 -8 -13 -1 -11 -23 -66 -34 -84 -6 -10 -10 -24 -10 -31 0 -8 -14 -54 -31 -103 -16 -49 -34 -111 -38 -139 -5 -27 -23 -102 -40 -165 -44 -158 -76 -289 -96 -390 -9 -47 -19 -92 -22 -100 -4 -8 -7 -22 -9 -30 -5 -39 -56 -355 -70 -435 -9 -49 -18 -128 -21 -175 -2 -47 -8 -94 -13 -105 -13 -28 -30 -296 -30 -464 0 -139 0 -139 223 -146 122 -3 290 -5 372 -3 150 3 150 3 157 158 16 371 70 804 137 1100 59 262 127 508 197 715 24 71 44 137 44 147 0 9 11 43 24 75 13 32 41 101 61 153 20 52 44 111 52 130 69 155 227 481 256 527 13 21 27 49 30 63 9 33 178 312 302 496 55 82 106 160 113 174 17 31 64 94 74 98 4 2 24 27 45 55 48 67 247 310 332 407 155 177 503 509 701 670 30 25 73 62 95 82 22 21 44 38 48 38 5 0 61 39 126 88 269 200 404 292 468 318 18 8 74 39 125 70 197 120 613 333 683 350 32 7 153 54 220 84 37 17 148 56 360 128 266 90 679 189 880 212 44 5 169 20 277 34 108 14 255 29 325 33 252 15 904 8 1024 -12 13 -2 51 -6 84 -10 33 -3 110 -13 170 -21 61 -8 135 -17 165 -20 121 -11 347 -58 605 -126 162 -42 591 -183 677 -222 84 -38 180 -76 193 -76 35 0 567 -266 659 -329 24 -17 82 -50 129 -75 132 -68 191 -108 512 -343 62 -46 117 -83 122 -83 5 0 27 -17 49 -38 21 -21 82 -74 134 -118 52 -43 115 -97 139 -119 148 -134 186 -170 276 -261 247 -249 393 -418 673 -777 18 -23 38 -55 46 -72 7 -16 45 -75 85 -131 39 -56 71 -105 71 -111 0 -5 8 -18 18 -29 51 -55 242 -384 242 -417 0 -8 4 -17 9 -19 5 -1 50 -88 101 -193 50 -104 100 -206 110 -225 17 -32 51 -117 145 -359 20 -51 39 -107 42 -125 3 -17 20 -76 38 -131 75 -230 87 -272 134 -466 89 -370 143 -687 166 -984 4 -44 8 -91 10 -105 2 -14 6 -92 10 -175 9 -226 -11 -201 167 -208 234 -11 606 -8 613 3 14 23 -37 664 -70 865 -8 50 -24 148 -35 219 -11 70 -32 181 -47 245 -14 64 -29 134 -33 156 -8 40 -49 200 -89 347 -11 40 -24 93 -29 118 -15 67 -51 191 -66 225 -8 17 -24 62 -36 100 -13 39 -26 75 -30 80 -5 6 -13 30 -20 55 -7 24 -20 62 -30 85 -10 22 -21 51 -25 65 -3 14 -21 57 -39 95 -19 39 -48 106 -66 150 -17 44 -38 91 -46 105 -8 14 -20 37 -25 53 -6 15 -15 27 -20 27 -5 0 -9 12 -9 26 0 15 -17 59 -39 98 -21 39 -58 114 -82 166 -23 52 -51 104 -60 115 -10 11 -25 36 -34 55 -9 19 -27 53 -41 75 -13 22 -30 51 -37 65 -7 14 -25 44 -40 67 -15 24 -27 46 -27 50 0 5 -11 20 -25 35 -13 14 -27 37 -30 50 -4 14 -16 36 -28 49 -12 14 -30 40 -40 59 -41 79 -320 460 -337 460 -6 0 -10 9 -10 20 0 26 -146 205 -302 371 -65 70 -118 131 -118 137 0 16 -547 549 -603 587 -29 20 -99 76 -157 125 -138 117 -315 252 -387 295 -32 18 -84 53 -115 77 -32 24 -118 82 -193 128 -74 47 -165 105 -202 129 -38 23 -101 59 -142 78 -41 19 -140 70 -220 113 -80 43 -213 108 -296 145 -82 37 -168 75 -190 85 -76 34 -169 70 -181 70 -7 0 -93 29 -191 64 -527 189 -1067 316 -1478 346 -82 6 -204 15 -270 21 -150 14 -904 20 -1045 9z"></path></g></g><g id="l3XgVk0V7qW8hDInLgxbIHw" fill="rgb(0,4,7)" style="transform: none; transform-origin: 50% 50%;"><g style="transform: none;"><path id="p1FDhcst0L" d="M10867 13195 c-59 -22 -123 -73 -141 -113 -26 -59 -46 -177 -46 -265 0 -65 7 -104 34 -187 18 -58 44 -126 57 -152 20 -42 27 -48 55 -48 27 0 43 12 106 81 40 44 85 101 100 125 15 24 43 63 62 88 44 59 76 154 76 230 0 116 -26 161 -129 228 -51 32 -110 36 -174 13z"></path><path id="pFRrAsETt" d="M8963 13165 c-55 -29 -110 -83 -134 -133 -20 -38 -24 -63 -24 -137 0 -81 3 -96 32 -153 67 -131 200 -289 277 -326 29 -14 32 -13 54 7 62 57 162 345 162 464 0 62 -31 148 -71 196 -61 74 -224 119 -296 82z"></path><path id="piUpqRNjI" d="M12535 12471 c-52 -24 -87 -62 -123 -136 -72 -144 -101 -403 -60 -533 9 -31 12 -32 46 -27 21 3 77 26 125 51 49 25 105 50 125 57 54 19 175 110 204 154 93 142 89 301 -10 383 -81 67 -222 90 -307 51z"></path><path id="p15PF3kQwh" d="M7189 12445 c-100 -32 -162 -151 -142 -272 6 -34 22 -83 35 -109 28 -57 151 -184 178 -184 10 0 22 -5 25 -10 9 -14 106 -63 202 -101 114 -46 129 -49 150 -34 26 19 32 234 9 338 -34 153 -128 292 -236 351 -64 35 -152 43 -221 21z"></path><path id="p13GvbUjeh" d="M9848 11741 c-52 -11 -104 -54 -135 -114 -25 -47 -27 -63 -28 -157 0 -118 10 -156 81 -306 57 -120 138 -218 176 -212 29 4 93 98 174 253 64 124 64 125 64 208 0 73 -4 92 -30 143 -66 133 -187 207 -302 185z"></path><path id="p0E04uduo" d="M13990 11171 c-44 -11 -113 -52 -184 -110 -69 -55 -125 -130 -179 -236 -22 -45 -67 -168 -67 -185 0 -16 50 -26 115 -24 235 8 266 13 354 55 99 48 157 103 196 184 89 190 -41 366 -235 316z"></path><path id="pLd8RAEX" d="M5923 11139 c-58 -11 -76 -22 -116 -71 -63 -79 -94 -174 -82 -253 7 -49 62 -128 112 -162 48 -33 186 -92 238 -103 66 -13 324 -25 360 -16 25 6 27 10 22 42 -9 54 -80 193 -157 307 -73 107 -100 138 -165 188 -82 63 -140 82 -212 68z"></path><path id="pwVeiEEMR" d="M11763 11132 c-54 -22 -135 -99 -162 -155 -44 -91 -63 -193 -65 -347 -1 -145 -1 -145 39 -144 36 1 134 44 374 162 38 19 106 99 127 149 17 39 18 133 3 188 -22 83 -138 165 -229 164 -25 0 -64 -8 -87 -17z"></path><path id="pTwAUwcq0" d="M7970 11076 c-113 -33 -143 -58 -187 -151 -39 -85 -39 -171 0 -238 80 -136 352 -310 521 -333 71 -10 73 1 50 236 -9 96 -37 192 -79 274 -45 90 -110 176 -132 176 -7 0 -13 4 -13 8 0 12 -41 30 -82 36 -18 3 -53 -1 -78 -8z"></path><path id="pQ9vaaf1h" d="M12964 9550 c-78 -40 -200 -150 -290 -262 -126 -158 -126 -159 19 -210 118 -41 299 -78 383 -78 65 0 146 29 196 70 50 42 101 146 106 220 4 48 0 67 -23 111 -42 85 -70 115 -136 148 -87 43 -171 44 -255 1z"></path><path id="pjULZq4Eb" d="M14680 9429 c-51 -6 -121 -29 -197 -66 -37 -18 -145 -107 -246 -203 -92 -87 -90 -97 28 -159 50 -25 108 -58 130 -72 95 -60 165 -83 268 -87 92 -4 101 -3 160 26 76 36 135 98 161 171 25 70 19 215 -11 283 -18 38 -31 52 -75 74 -60 30 -137 42 -218 33z"></path><path id="p1E8genRDn" d="M5174 9390 c-130 -62 -184 -227 -120 -365 78 -168 257 -199 539 -94 171 63 223 94 213 127 -12 36 -182 198 -276 262 -84 57 -149 80 -240 85 -60 4 -83 1 -116 -15z"></path><path id="pv6hsmOju" d="M6732 9363 c-121 -59 -152 -291 -51 -379 13 -11 58 -36 99 -54 66 -30 87 -35 178 -38 170 -7 359 34 417 89 20 19 20 19 -4 63 -54 103 -265 276 -385 318 -68 23 -208 24 -254 1z"></path></g></g></svg>