<svg class="img-fluid" id="outputsvg" xmlns="http://www.w3.org/2000/svg" style="transform: none; transform-origin: 50% 50%; cursor: move;" width="2000" height="2000" viewBox="0 0 20000 20000"><g id="l6lq95EYPaWT8pV9xgh6fRU" fill="rgb(244,35,67)" style="transform: none;"><g><path id="pEMI4sjsA" d="M7135 17411 c-146 -12 -252 -58 -371 -163 -86 -77 -151 -153 -184 -215 l-25 -47 -7 -3671 c-3 -2018 -11 -4273 -17 -5010 -6 -737 -11 -1836 -11 -2442 0 -974 2 -1103 15 -1103 8 0 15 7 15 15 0 13 368 15 3250 15 2882 0 3250 -2 3250 -15 0 -8 6 -15 14 -15 11 0 14 187 20 1143 13 2110 26 4121 37 5697 7 861 12 2402 13 3425 l1 1860 -28 75 c-29 77 -85 177 -121 219 -41 47 -170 134 -250 170 l-81 36 -1250 2 c-687 0 -1695 6 -2240 12 -1673 18 -1926 20 -2030 12z m683 -876 c68 -31 153 -112 177 -170 13 -30 15 -535 15 -3846 0 -3810 -1 -3889 -32 -3889 -4 0 -8 -9 -8 -19 0 -26 -124 -139 -178 -163 -112 -51 -223 -26 -323 71 -34 33 -68 78 -83 111 l-26 55 6 3800 5 3800 21 60 c31 90 83 145 193 201 65 33 144 29 233 -11z m3695 -5559 c53 -22 90 -70 102 -131 6 -30 8 -55 3 -55 -4 0 -8 -9 -8 -19 0 -25 -83 -98 -121 -106 -67 -15 -174 87 -174 165 0 48 43 113 92 139 46 24 64 25 106 7z m-1540 -825 c113 -70 166 -206 118 -305 -33 -66 -120 -142 -187 -162 -50 -14 -58 -14 -103 1 -139 46 -232 180 -202 290 28 104 120 195 197 195 24 0 45 4 48 8 9 14 90 -3 129 -27z m1469 -751 c37 -37 40 -44 35 -80 -6 -45 -42 -97 -74 -106 -48 -13 -133 60 -133 114 0 46 67 112 114 112 10 0 36 -18 58 -40z m-2022 -1199 c0 -5 23 -11 51 -13 85 -9 229 -119 229 -177 0 -12 6 -21 14 -21 21 0 49 -114 41 -169 -6 -42 -31 -109 -44 -121 -4 -3 -13 -18 -21 -33 -25 -50 -125 -134 -187 -158 -70 -27 -151 -28 -208 -4 -123 53 -236 176 -261 282 -37 161 78 342 259 404 55 19 127 25 127 10z m2363 -928 c60 -22 127 -97 127 -144 0 -16 4 -29 9 -29 13 0 1 -90 -17 -125 -8 -16 -30 -44 -48 -61 -78 -73 -167 -85 -249 -33 -86 54 -114 101 -115 190 0 55 4 72 28 110 35 55 45 62 107 88 62 25 94 26 158 4z m-1495 -1338 c30 -31 42 -52 42 -74 0 -16 6 -32 13 -34 8 -4 9 -8 1 -14 -6 -4 -14 -20 -17 -34 -8 -33 -62 -87 -103 -105 -24 -10 -41 -11 -69 -3 -47 13 -132 91 -140 129 -15 69 37 153 120 191 35 16 43 16 75 3 19 -8 54 -34 78 -59z"></path></g></g><g id="l36HGvfkMSpwRCAMwxSIBmx" fill="rgb(216,224,226)" style="transform: none;"><g><path id="p19vsOUGFG" d="M7200 17991 c-623 -6 -679 -7 -725 -24 -80 -30 -168 -74 -192 -96 -12 -12 -26 -21 -31 -21 -5 0 -41 -31 -79 -68 -76 -74 -111 -136 -144 -257 -22 -78 -22 -119 -34 -2615 -3 -657 -12 -2194 -20 -3415 -20 -3071 -29 -6880 -20 -8037 l7 -968 294 0 294 0 0 2223 c0 1222 5 2825 11 3562 6 737 14 2992 17 5010 l7 3671 25 47 c33 62 98 138 184 215 77 68 145 108 246 143 64 23 74 23 470 23 223 0 932 -6 1575 -13 644 -8 1703 -14 2355 -15 l1185 -1 81 -36 c80 -36 209 -123 250 -170 36 -42 92 -142 121 -219 l28 -75 -1 -1800 c0 -990 -6 -2538 -13 -3440 -6 -902 -16 -2238 -21 -2970 -6 -731 -13 -2418 -17 -3747 l-6 -2418 280 0 280 0 6 1528 c4 840 11 2234 16 3097 18 2922 21 3704 27 6975 l6 3265 -22 114 c-55 279 -204 452 -413 481 -110 15 -276 19 -1252 29 -2148 22 -3847 30 -4775 22z"></path></g></g><g id="l6di35R73MicIR43yf767eY" fill="rgb(248,122,141)" style="transform: none;"><g style="transform: none;"><path id="pN4cy81Mm" d="M7555 16576 c-110 -56 -162 -111 -193 -201 l-21 -60 -5 -3830 -6 -3830 26 -55 c35 -76 125 -161 198 -189 31 -11 65 -21 76 -21 10 0 20 -5 22 -12 4 -12 60 1 165 38 50 18 200 155 189 173 -4 6 -3 11 2 11 31 0 32 66 32 3919 0 3337 -2 3846 -15 3876 -24 58 -109 139 -178 171 -50 22 -80 29 -152 31 -81 4 -95 1 -140 -21z"></path><path id="pKVauGjxh" d="M11416 11015 c-57 -20 -87 -45 -113 -95 -48 -90 -19 -197 71 -257 55 -38 116 -44 172 -17 38 18 107 90 99 104 -3 4 -1 10 4 12 13 5 25 68 13 68 -6 0 -8 9 -5 20 3 11 1 20 -5 20 -6 0 -8 9 -5 19 8 32 -70 108 -130 126 -60 18 -52 18 -101 0z"></path><path id="pbNiTeTcK" d="M9817 10213 c-4 -5 -20 -8 -36 -5 -21 3 -45 -4 -75 -22 -113 -66 -168 -202 -136 -336 25 -103 166 -210 279 -210 103 0 224 78 271 175 23 48 28 144 11 203 -20 68 -82 141 -149 176 -34 17 -157 32 -165 19z"></path><path id="pQVUM10no" d="M11305 9451 c-59 -35 -86 -103 -66 -163 25 -75 112 -128 179 -109 31 9 90 67 85 83 -2 4 2 8 8 8 6 0 9 7 5 15 -3 8 -1 15 4 15 6 0 10 7 10 15 0 8 -4 15 -9 15 -4 0 -6 11 -4 24 4 18 -6 35 -39 70 -41 42 -48 46 -94 46 -30 0 -61 -7 -79 -19z"></path><path id="p8AzFJGPp" d="M9335 8238 c-27 -4 -68 -14 -91 -23 -54 -20 -142 -86 -176 -132 -61 -80 -89 -209 -68 -309 7 -33 13 -65 13 -71 0 -7 3 -13 7 -13 4 0 24 -25 45 -56 41 -60 132 -131 205 -161 66 -26 187 -24 263 6 62 24 162 108 187 158 8 15 17 30 21 33 18 17 41 91 46 150 7 82 -19 200 -44 200 -8 0 -11 5 -8 10 12 19 -37 80 -100 125 -70 50 -133 76 -164 68 -12 -3 -21 -1 -21 5 0 14 -55 19 -115 10z"></path><path id="pU0BdE12H" d="M11595 7299 c-62 -26 -72 -33 -107 -88 -26 -41 -28 -53 -28 -140 0 -76 4 -102 19 -126 90 -147 281 -176 406 -61 38 36 79 118 72 147 -3 10 0 20 6 22 12 4 0 77 -13 77 -5 0 -7 6 -4 14 7 18 -9 49 -51 101 -59 72 -194 97 -300 54z"></path><path id="pst9RRN7Q" d="M10105 6021 c-91 -42 -131 -115 -123 -220 5 -49 9 -58 55 -102 90 -86 195 -92 275 -15 32 31 60 81 51 90 -4 3 -1 6 5 6 7 0 12 16 12 40 0 22 -4 40 -10 40 -5 0 -7 6 -4 14 13 34 -63 123 -128 150 -49 21 -84 20 -133 -3z"></path></g></g></svg>