<svg class="img-fluid" id="outputsvg" xmlns="http://www.w3.org/2000/svg" style="transform: none; transform-origin: 50% 50%; cursor: move;" width="2000" height="2000" viewBox="0 0 20000 20000"><g id="lfycQGXasM3QMTX59fDA6L" fill="rgb(255,113,1)" style="transform: none;"><g style="transform: none;"><path id="p1E0QFTPz4" d="M7135 17411 c-101 -8 -150 -23 -257 -77 -71 -37 -266 -231 -299 -299 l-24 -50 -7 -3645 c-3 -2005 -11 -4257 -17 -5005 -6 -748 -11 -1858 -11 -2467 0 -978 2 -1108 15 -1108 8 0 15 7 15 15 0 13 368 15 3250 15 2882 0 3250 -2 3250 -15 0 -8 6 -15 14 -15 11 0 14 187 20 1143 13 2110 26 4121 37 5692 7 858 12 2399 13 3425 l1 1865 -28 75 c-29 77 -85 177 -121 219 -41 47 -170 134 -250 170 l-81 36 -1215 2 c-668 1 -1674 6 -2235 12 -1732 18 -1967 20 -2070 12z m683 -876 c68 -31 153 -112 177 -170 13 -30 15 -535 15 -3846 0 -3810 -1 -3889 -32 -3889 -4 0 -8 -9 -8 -19 0 -26 -124 -139 -178 -163 -74 -33 -138 -34 -213 -4 -36 14 -71 26 -77 26 -7 0 -12 6 -12 13 0 6 -18 31 -40 54 -23 23 -52 67 -66 98 l-26 56 8 2859 c4 1573 11 2860 15 2860 5 0 9 16 9 35 0 19 -4 35 -10 35 -7 0 -10 310 -10 910 0 753 2 910 14 917 7 4 16 27 19 51 8 67 70 130 182 188 65 33 144 29 233 -11z m3689 -5556 c45 -17 103 -79 103 -111 0 -15 5 -28 10 -28 16 0 11 -43 -9 -76 -27 -44 -104 -104 -133 -104 -42 0 -119 59 -147 113 -22 43 -23 51 -12 88 15 49 45 85 91 110 41 21 58 23 97 8z m-1534 -828 c40 -25 90 -78 111 -120 8 -15 16 -60 17 -98 2 -57 -1 -75 -19 -104 -50 -78 -118 -131 -190 -149 -72 -17 -149 14 -223 90 -90 92 -100 174 -36 281 44 74 106 119 162 119 24 0 46 4 49 8 9 14 90 -3 129 -27z m1473 -756 c38 -40 43 -49 37 -77 -7 -40 -50 -95 -80 -103 -48 -14 -133 59 -133 113 0 46 67 112 114 112 11 0 39 -20 62 -45z m-1986 -1205 c0 -5 15 -10 33 -10 24 0 54 -14 104 -49 73 -51 103 -87 103 -121 0 -11 6 -20 14 -20 21 0 49 -114 41 -169 -6 -42 -31 -109 -44 -121 -4 -3 -13 -18 -21 -33 -41 -80 -171 -166 -278 -183 -130 -21 -353 162 -381 311 -14 77 9 174 62 253 26 39 112 106 170 133 46 20 197 28 197 9z m2320 -917 c55 -20 80 -40 80 -65 0 -10 7 -18 15 -18 27 0 54 -77 48 -134 -10 -87 -51 -147 -129 -186 -61 -30 -123 -29 -180 5 -90 53 -124 106 -124 196 0 54 5 72 28 110 35 55 45 62 107 88 62 25 96 26 155 4z m-1502 -1326 c49 -46 77 -104 64 -131 -6 -12 -14 -31 -17 -43 -9 -31 -62 -83 -103 -100 -27 -11 -41 -12 -70 -2 -47 15 -129 93 -137 129 -15 70 37 154 119 191 36 16 43 16 76 3 19 -8 50 -29 68 -47z"></path></g></g><g id="l1cL36KnzpnmGJtQieX0hdT" fill="rgb(216,224,226)" style="transform: none;"><g><path id="pzPDJT0UK" d="M7200 17991 c-623 -6 -679 -7 -725 -24 -80 -30 -168 -74 -192 -96 -12 -12 -26 -21 -31 -21 -5 0 -41 -31 -79 -68 -76 -74 -111 -136 -144 -257 -22 -78 -22 -119 -34 -2615 -3 -657 -12 -2194 -20 -3415 -20 -3071 -29 -6880 -20 -8037 l7 -968 294 0 294 0 0 2228 c0 1225 5 2839 11 3587 6 748 14 3000 17 5005 l7 3645 24 50 c16 32 66 91 135 161 97 98 122 117 196 152 47 22 105 46 130 53 60 17 501 17 2055 0 671 -7 1733 -14 2360 -15 l1140 -1 81 -36 c80 -36 209 -123 250 -170 36 -42 92 -142 121 -219 l28 -75 -1 -1800 c0 -990 -6 -2538 -13 -3440 -6 -902 -16 -2238 -21 -2970 -6 -731 -13 -2418 -17 -3747 l-6 -2418 280 0 280 0 6 1528 c4 840 11 2234 16 3097 18 2922 21 3704 27 6975 l6 3265 -22 114 c-55 279 -204 452 -413 481 -110 15 -276 19 -1252 29 -2148 22 -3847 30 -4775 22z"></path></g></g><g id="l4ZxKCiLyGzzQFbwsKt1xhU" fill="rgb(254,165,99)" style="transform: none;"><g style="transform: none;"><path id="pLOsFCTIT" d="M7555 16576 c-110 -56 -162 -111 -193 -201 l-21 -60 -5 -3830 -6 -3830 25 -53 c13 -29 43 -72 65 -95 22 -23 40 -48 40 -54 0 -7 6 -13 13 -13 6 0 39 -11 72 -25 33 -13 70 -25 82 -25 12 0 23 -5 25 -12 4 -12 60 1 165 38 50 18 200 155 189 173 -4 6 -3 11 2 11 31 0 32 66 32 3919 0 3337 -2 3846 -15 3876 -24 58 -109 139 -178 171 -50 22 -80 29 -152 31 -81 4 -95 1 -140 -21z"></path><path id="pdj0x3iw" d="M11430 11021 c-69 -21 -124 -68 -136 -116 -3 -14 -9 -25 -13 -25 -15 0 8 -120 29 -156 36 -58 102 -94 171 -94 55 0 59 2 112 53 41 38 58 64 67 96 12 44 7 91 -9 91 -5 0 -7 9 -4 19 8 32 -70 108 -130 126 -56 17 -52 16 -87 6z"></path><path id="pHZpwSBaD" d="M9817 10213 c-4 -5 -20 -8 -36 -5 -21 3 -45 -4 -75 -22 -83 -49 -136 -134 -144 -233 -7 -95 11 -145 77 -213 146 -149 350 -127 468 51 22 33 48 139 34 139 -3 0 -6 21 -7 48 -1 76 -57 160 -138 207 -44 25 -169 45 -179 28z"></path><path id="pC3DZZbzT" d="M11300 9448 c-17 -13 -39 -36 -49 -53 -9 -16 -19 -31 -22 -33 -12 -5 12 -86 34 -119 39 -58 138 -88 183 -55 25 19 67 74 69 89 0 10 4 24 9 31 14 24 -6 74 -48 118 -39 41 -46 44 -93 44 -36 0 -59 -6 -83 -22z"></path><path id="pEXoNYeWF" d="M9263 8221 c-141 -48 -237 -158 -264 -305 -11 -61 -9 -167 4 -177 4 -3 9 -16 10 -27 1 -12 4 -22 7 -22 4 0 24 -25 45 -56 46 -66 141 -137 222 -166 71 -25 161 -21 246 12 62 23 162 107 187 157 8 15 17 30 21 33 18 17 41 91 46 150 7 82 -19 200 -44 200 -8 0 -11 5 -8 11 22 34 -151 182 -212 181 -15 0 -31 5 -35 11 -12 19 -167 18 -225 -2z"></path><path id="p8jJKd91T" d="M11595 7299 c-62 -26 -72 -33 -107 -88 -26 -41 -28 -53 -28 -140 0 -76 4 -102 19 -126 28 -46 68 -82 122 -108 92 -46 227 -21 295 56 33 37 67 114 60 134 -4 9 -1 22 5 29 21 26 -26 164 -56 164 -8 0 -12 6 -9 13 2 7 -6 22 -18 33 -61 54 -193 69 -283 33z"></path><path id="p17Rnnllre" d="M10105 6021 c-52 -23 -104 -76 -112 -112 -3 -16 -9 -29 -12 -29 -4 0 -4 -30 0 -66 6 -60 10 -70 50 -110 78 -80 178 -95 257 -40 35 24 93 106 76 106 -5 0 -3 5 4 12 34 34 2 136 -60 195 -64 62 -132 76 -203 44z"></path></g></g></svg>