<svg class="img-fluid" id="outputsvg" xmlns="http://www.w3.org/2000/svg" style="transform: none; transform-origin: 50% 50%; cursor: move;" width="2000" height="2000" viewBox="0 0 20000 20000"><g id="l305GvxJMvOVFD1hUbbTetB" fill="rgb(255,113,1)" style="transform: none;"><g><path id="pWppfyAGj" d="M10260 17474 c-251 -14 -421 -28 -590 -50 -206 -26 -532 -82 -664 -114 -43 -11 -91 -20 -105 -20 -32 0 -291 -70 -496 -135 -154 -48 -543 -195 -651 -246 -34 -16 -66 -29 -73 -29 -16 0 -326 -146 -391 -184 -30 -19 -143 -82 -250 -141 -177 -98 -560 -340 -585 -369 -14 -17 -191 -146 -199 -146 -11 0 -141 -103 -221 -174 -143 -128 -241 -212 -270 -233 -27 -19 -87 -79 -438 -437 -64 -65 -117 -123 -117 -128 0 -4 -55 -74 -122 -154 -128 -151 -259 -322 -341 -446 -27 -40 -71 -104 -99 -143 -49 -69 -216 -335 -250 -398 -165 -302 -438 -869 -438 -907 0 -6 -33 -102 -74 -213 -164 -444 -315 -1015 -346 -1307 -5 -47 -18 -155 -29 -240 -88 -687 -75 -1341 45 -2150 18 -118 94 -470 124 -570 10 -36 35 -121 54 -190 31 -107 93 -289 228 -670 63 -178 293 -656 384 -797 19 -30 34 -59 34 -66 0 -18 201 -336 309 -489 51 -73 96 -140 99 -148 5 -15 90 -131 103 -140 3 -3 44 -52 89 -110 220 -277 473 -555 689 -758 173 -163 398 -364 420 -377 44 -25 109 -82 136 -119 17 -23 71 -71 120 -109 50 -37 99 -75 110 -84 29 -25 142 -103 149 -103 6 0 123 -74 276 -175 179 -119 432 -252 850 -448 123 -58 524 -217 546 -217 10 0 92 -24 183 -54 354 -116 849 -231 1191 -276 198 -26 457 -50 532 -50 32 0 58 -4 58 -10 0 -5 9 -10 20 -10 20 0 20 7 20 308 0 243 4 344 20 482 11 96 25 216 30 265 6 50 17 135 25 190 8 55 22 168 30 250 19 198 39 342 70 499 19 96 25 161 25 258 l0 130 -132 -7 c-115 -6 -157 -3 -305 19 -206 30 -257 54 -200 90 53 34 141 47 397 56 140 5 266 12 280 14 14 3 86 15 160 27 74 13 137 27 139 32 28 68 234 202 371 241 237 68 648 100 910 72 95 -11 331 -57 420 -83 145 -42 478 -175 560 -224 120 -70 281 -159 289 -159 9 0 134 -79 141 -90 3 -4 50 -41 105 -82 108 -81 304 -251 320 -279 6 -9 43 -54 83 -100 40 -46 103 -129 140 -184 36 -55 70 -102 74 -105 11 -8 73 -146 96 -215 11 -33 31 -106 44 -162 13 -58 28 -103 35 -103 6 0 44 23 84 50 40 28 77 50 82 50 10 0 161 107 227 161 117 97 312 249 319 249 4 0 32 24 63 53 31 28 131 122 224 207 198 182 192 175 359 360 72 79 159 176 195 215 36 39 86 100 112 136 26 35 88 116 137 179 105 134 245 328 253 351 8 20 98 162 108 169 7 5 136 221 211 353 24 43 56 99 71 125 15 26 28 52 28 59 0 6 44 103 99 215 54 111 122 262 151 333 28 72 60 148 70 170 18 38 33 85 134 405 188 595 289 1140 327 1765 13 212 7 752 -10 955 -47 543 -153 1079 -315 1592 -25 80 -46 154 -46 163 0 9 -11 44 -24 78 -141 358 -179 451 -205 505 -17 34 -31 64 -31 67 0 7 -147 315 -197 410 -67 130 -160 288 -269 460 -53 83 -100 159 -104 170 -4 11 -34 56 -67 100 -225 303 -295 394 -322 419 -17 17 -31 34 -31 39 0 14 -182 228 -275 323 -44 45 -115 120 -157 167 -43 47 -133 135 -200 196 -68 60 -143 129 -168 152 -172 161 -444 373 -725 564 -71 49 -132 92 -135 95 -11 13 -149 96 -226 136 -45 23 -123 68 -175 99 -107 66 -580 305 -601 305 -14 0 -185 68 -265 106 -44 20 -310 116 -454 164 -149 49 -464 134 -549 148 -36 6 -141 27 -235 46 -217 45 -537 91 -780 111 -182 15 -698 27 -835 19z m5255 -7845 c24 -11 60 -38 79 -60 87 -95 104 -191 51 -288 -53 -97 -136 -151 -232 -151 -46 0 -161 53 -171 79 -3 9 -14 25 -24 35 -20 22 -58 117 -58 145 0 30 29 102 60 151 62 97 193 137 295 89z m-1083 -1029 c84 -31 170 -108 204 -183 58 -127 29 -244 -86 -350 -138 -128 -292 -128 -430 0 -115 106 -144 223 -86 350 22 48 43 74 90 113 106 87 204 109 308 70z m1510 -648 c63 -28 153 -119 186 -189 55 -119 26 -248 -80 -354 -77 -77 -116 -94 -223 -94 -109 0 -145 16 -223 99 -68 72 -105 151 -106 225 -1 127 108 274 237 322 63 24 144 20 209 -9z m-3178 -273 c112 -42 209 -166 222 -284 10 -90 -51 -217 -135 -284 -65 -51 -147 -84 -211 -84 -117 0 -254 94 -308 211 -35 75 -37 192 -5 264 25 54 94 133 137 155 107 56 194 62 300 22z m-5947 -466 c60 -28 138 -114 162 -178 28 -76 26 -116 -9 -191 -51 -105 -161 -184 -257 -184 -76 0 -223 86 -223 131 0 10 -4 19 -9 19 -19 0 -53 113 -47 157 9 66 59 167 97 195 103 77 196 94 286 51z m7293 -194 c25 -11 60 -35 79 -52 40 -38 81 -120 81 -162 0 -74 -85 -187 -166 -221 -105 -44 -237 24 -289 149 -44 105 23 238 147 292 46 20 95 18 148 -6z m-5752 -974 c90 -45 126 -83 152 -158 25 -77 25 -142 0 -210 -39 -105 -172 -197 -284 -197 -90 0 -224 96 -270 195 -65 136 4 294 164 373 88 44 144 44 238 -3z"></path><path id="pvqwN3Zxv" d="M10900 4063 c0 -21 6 -76 14 -123 8 -47 17 -137 20 -200 4 -63 13 -167 21 -230 8 -63 20 -175 26 -247 11 -130 12 -133 35 -133 15 0 24 6 24 15 0 8 4 15 8 15 5 0 82 7 173 15 212 20 470 57 682 97 160 31 167 33 167 55 0 20 -11 29 -57 49 -32 14 -71 34 -88 45 -52 34 -259 149 -267 149 -9 0 -158 97 -168 109 -3 4 -57 44 -120 90 -161 118 -273 206 -344 273 -48 45 -68 57 -93 58 -31 0 -33 -2 -33 -37z"></path></g></g><g id="l6NGZug2STQOG7xMOs6rrKw" fill="rgb(150,207,66)" style="transform: none;"><g><path id="pm8KgsCbe" d="M11590 6099 c-109 -8 -335 -48 -430 -75 -67 -19 -174 -73 -250 -124 -56 -38 -120 -102 -120 -120 0 -6 -7 -10 -15 -10 -20 0 -19 -26 1 -34 9 -3 54 -6 100 -6 47 0 84 -4 84 -10 0 -14 -80 -57 -120 -64 -19 -3 -48 -12 -65 -20 -16 -7 -50 -20 -75 -27 l-45 -14 1 -55 c0 -30 4 -88 9 -127 l8 -73 36 0 c20 0 47 -7 61 -15 14 -8 32 -17 40 -20 8 -3 38 -17 65 -30 28 -12 69 -31 93 -41 23 -9 42 -20 42 -24 0 -11 48 -30 75 -30 14 0 25 -4 25 -10 0 -5 5 -10 12 -10 6 0 44 -16 82 -35 39 -19 139 -67 221 -108 83 -41 217 -105 300 -142 82 -38 167 -79 190 -92 22 -12 49 -23 59 -23 11 0 54 -17 95 -37 42 -20 101 -48 131 -63 30 -14 57 -28 58 -32 2 -5 9 -8 15 -8 6 0 43 -16 81 -35 70 -34 189 -90 276 -129 25 -12 47 -24 48 -28 2 -5 9 -8 16 -8 7 0 37 -13 67 -30 30 -16 73 -32 97 -36 23 -3 42 -10 42 -14 0 -4 15 -13 33 -20 17 -7 86 -38 152 -71 66 -32 206 -99 310 -150 105 -51 224 -110 267 -131 42 -21 88 -38 102 -38 14 0 26 -4 26 -10 0 -5 6 -10 12 -10 12 0 118 -50 128 -60 3 -3 89 -47 193 -98 146 -73 187 -97 187 -113 0 -12 -7 -19 -20 -19 -16 0 -20 -7 -20 -30 0 -26 -4 -30 -28 -30 -21 0 -42 -15 -87 -61 -64 -66 -209 -177 -290 -224 -27 -15 -52 -31 -55 -35 -3 -4 -20 -11 -38 -15 -18 -4 -36 -13 -39 -21 -3 -8 -16 -14 -29 -14 -19 0 -24 -5 -24 -25 l0 -25 50 20 c177 70 316 165 475 324 154 154 166 177 211 386 19 90 25 144 25 253 0 75 -3 142 -6 148 -4 5 1 20 12 31 18 20 18 21 -2 15 -18 -6 -22 3 -43 96 -13 56 -33 129 -44 162 -23 69 -85 207 -96 215 -4 3 -38 50 -74 105 -37 55 -100 138 -140 184 -40 46 -77 91 -83 100 -16 28 -212 198 -320 279 -55 41 -102 78 -105 82 -7 11 -132 90 -141 90 -8 0 -169 89 -289 159 -82 49 -415 182 -560 224 -78 23 -303 68 -410 82 -76 10 -439 13 -550 4z"></path><path id="pM7CtEISk" d="M12050 3318 c0 -24 383 -170 482 -183 24 -4 83 -15 132 -26 112 -26 283 -49 359 -49 50 0 57 2 57 20 0 18 -7 20 -56 20 -66 0 -245 25 -325 46 -31 8 -69 14 -84 14 -45 0 -221 55 -369 114 -135 55 -196 68 -196 44z"></path></g></g><g id="l7jEoqyN3BKz42124ZubzoW" fill="rgb(46,191,63)" style="transform: none;"><g><path id="pbI2mXvE1" d="M10665 5393 c16 -185 90 -657 150 -958 19 -93 39 -210 45 -260 13 -102 21 -123 55 -148 l25 -18 -6 33 -7 33 49 -46 c27 -26 58 -54 69 -63 130 -103 217 -171 305 -234 58 -42 107 -79 110 -82 10 -12 159 -110 168 -110 8 0 215 -115 267 -149 17 -11 57 -32 90 -47 48 -22 55 -28 38 -31 -39 -7 -25 -21 15 -16 29 4 66 -7 176 -52 149 -60 326 -115 371 -115 15 0 53 -7 84 -14 128 -33 286 -49 486 -50 173 0 213 3 295 22 52 12 126 29 164 37 37 9 97 29 132 45 35 17 65 30 68 30 11 0 138 79 209 131 110 80 290 256 316 309 25 51 24 50 10 50 -11 0 -379 180 -389 190 -10 10 -116 60 -128 60 -6 0 -12 5 -12 10 0 6 -12 10 -26 10 -14 0 -60 17 -102 38 -43 21 -162 80 -267 131 -104 51 -244 118 -310 150 -66 33 -135 64 -152 71 -18 7 -33 16 -33 20 0 4 -19 11 -42 14 -24 4 -67 20 -97 36 -30 17 -60 30 -67 30 -7 0 -14 3 -16 8 -1 4 -23 16 -48 28 -94 43 -203 94 -273 128 -40 20 -78 36 -84 36 -6 0 -13 3 -15 8 -1 4 -28 18 -58 32 -30 15 -89 43 -131 63 -41 20 -84 37 -95 37 -10 0 -37 11 -59 23 -23 13 -108 54 -190 92 -83 37 -217 101 -300 142 -82 41 -182 89 -221 108 -38 19 -76 35 -82 35 -7 0 -12 5 -12 10 0 6 -11 10 -25 10 -27 0 -75 19 -75 30 0 4 -19 15 -42 24 -24 10 -65 29 -93 41 -27 13 -57 27 -65 30 -62 24 -117 64 -133 98 -10 20 -26 37 -34 37 -13 0 -14 -11 -8 -77z"></path></g></g><g id="l6wt1aqgVsPmCgwfTMN5Rl8" fill="rgb(255,160,94)" style="transform: none;"><g><path id="px6h0tcLx" d="M10260 17474 c-251 -14 -421 -28 -590 -50 -259 -32 -729 -118 -717 -130 2 -3 27 1 56 7 28 6 58 8 66 5 8 -3 15 0 15 5 0 7 11 9 25 7 14 -3 25 -1 25 5 0 5 11 7 25 5 13 -3 26 -1 27 4 2 5 26 10 53 11 28 1 52 5 55 9 15 19 576 93 657 86 24 -2 43 1 43 5 0 5 34 7 75 5 41 -2 75 1 75 6 0 5 97 6 235 2 129 -4 235 -4 235 1 0 25 795 -33 811 -58 3 -6 17 -7 31 -4 14 4 110 -7 213 -25 103 -17 192 -29 198 -27 33 11 -515 90 -778 112 -181 15 -698 27 -835 19z"></path><path id="pic3AhK5j" d="M11905 17332 c12 -10 161 -42 190 -41 11 0 -14 9 -55 18 -118 27 -145 32 -135 23z"></path><path id="pEJVIHYur" d="M8745 17256 c-151 -41 -160 -45 -108 -43 24 1 43 5 43 8 0 10 201 61 221 56 11 -3 19 -1 19 4 0 16 -52 8 -175 -25z"></path><path id="pAl09PR8F" d="M12205 17270 c38 -11 71 -17 74 -15 4 5 -7 9 -64 24 -22 6 -49 11 -60 10 -11 0 11 -9 50 -19z"></path><path id="pfKC84wgN" d="M12295 17250 c3 -4 37 -16 76 -25 39 -10 73 -24 76 -32 4 -9 14 -12 29 -9 12 3 51 -3 86 -14 35 -11 70 -20 78 -19 18 0 -125 46 -257 82 -51 14 -91 21 -88 17z"></path><path id="pwBudLgT" d="M8559 17205 c-3 -2 -72 -25 -154 -51 -138 -42 -506 -180 -639 -239 -35 -15 -54 -29 -50 -36 4 -8 9 -7 15 2 5 8 9 10 9 6 0 -5 7 -1 16 8 9 9 23 14 30 11 8 -3 14 -1 14 5 0 6 5 7 10 4 6 -3 10 -1 10 5 0 7 7 10 15 6 8 -3 15 -1 15 5 0 6 5 7 10 4 6 -3 10 -1 10 5 0 7 7 10 15 6 8 -3 15 -1 15 5 0 6 5 7 10 4 6 -3 10 -1 10 5 0 7 7 10 15 6 8 -3 15 -1 15 5 0 6 5 7 10 4 6 -3 10 -1 10 5 0 7 7 10 15 6 8 -3 15 -1 15 5 0 6 5 7 10 4 6 -3 10 -1 10 5 0 7 7 10 15 6 8 -3 15 -1 15 5 0 6 7 9 15 5 8 -3 15 -1 15 5 0 6 5 7 10 4 6 -3 17 1 26 9 9 9 20 14 25 11 5 -4 9 -1 9 5 0 7 7 10 15 6 8 -3 15 -1 15 5 0 6 7 9 15 5 8 -3 15 -1 15 5 0 6 7 9 15 5 8 -3 15 -1 15 5 0 6 7 9 15 5 8 -3 15 -1 15 5 0 6 7 9 15 5 8 -3 15 -1 15 5 0 6 7 9 15 5 8 -3 15 -1 15 5 0 6 7 9 15 5 8 -3 15 -1 15 4 0 12 67 33 80 25 5 -3 10 -2 10 4 0 12 69 33 82 25 4 -3 8 -1 8 3 0 5 12 14 28 20 15 6 20 11 11 12 -9 1 -18 -1 -20 -4z"></path><path id="p49cOU4p1" d="M12700 17120 c8 -15 17 -19 35 -14 18 4 25 2 25 -9 0 -18 36 -28 69 -20 20 5 11 11 -55 34 -43 16 -80 29 -82 29 -1 0 2 -9 8 -20z"></path><path id="p12ujXmoIS" d="M12867 17062 c3 -13 20 -24 51 -33 26 -7 58 -19 72 -26 14 -7 32 -13 41 -13 8 0 20 -5 25 -10 6 -6 25 -12 42 -13 18 -1 32 -7 32 -14 0 -6 10 -14 23 -18 26 -7 64 -23 92 -38 18 -10 112 -21 104 -12 -2 2 -44 20 -94 40 -49 21 -110 46 -134 57 -25 11 -86 35 -135 53 -50 18 -99 36 -108 40 -13 5 -15 2 -11 -13z"></path><path id="p1AId8BHhm" d="M7505 16804 c-88 -42 -184 -90 -215 -108 -30 -19 -143 -82 -250 -141 -170 -95 -566 -344 -580 -365 -3 -4 -45 -37 -93 -73 -49 -36 -84 -68 -79 -71 6 -3 13 1 16 10 3 8 10 13 15 9 6 -3 15 4 21 15 6 11 15 18 20 15 5 -3 14 4 20 15 6 11 15 18 19 15 5 -3 12 2 15 11 4 9 9 14 12 11 3 -3 17 6 31 21 14 15 29 26 34 24 5 -1 12 5 15 13 3 8 10 12 15 9 5 -3 12 2 15 10 3 9 10 13 15 10 5 -3 12 2 15 10 3 9 10 13 15 10 5 -3 12 2 15 10 3 9 10 13 15 10 5 -3 12 2 15 10 3 9 10 13 15 10 5 -3 12 2 15 10 3 9 10 13 15 10 5 -3 12 2 15 10 3 9 10 13 15 10 5 -3 12 2 15 10 3 9 10 14 14 11 4 -3 11 2 14 11 3 8 10 12 16 9 5 -3 10 -1 10 5 0 6 5 8 10 5 6 -3 13 1 16 9 3 9 10 14 14 11 4 -3 11 2 14 11 3 8 10 12 16 9 5 -3 10 -2 10 4 0 13 55 42 64 34 3 -4 6 -1 6 6 0 7 5 9 10 6 6 -3 10 -1 10 5 0 6 4 9 9 6 5 -3 12 1 15 10 3 8 10 12 16 9 5 -3 10 -1 10 5 0 6 5 8 10 5 6 -3 10 -1 10 5 0 6 4 9 9 6 5 -3 12 1 15 10 3 8 10 12 16 9 5 -3 10 -1 10 5 0 6 5 8 10 5 6 -3 10 -1 10 5 0 6 5 8 10 5 6 -3 10 -1 10 5 0 6 5 8 10 5 6 -3 13 1 16 9 3 9 10 13 15 10 5 -3 9 0 9 6 0 6 5 8 10 5 6 -3 10 -1 10 5 0 6 5 8 10 5 6 -3 10 -1 10 5 0 6 5 8 10 5 6 -3 10 -1 10 5 0 6 5 8 10 5 6 -3 10 -1 10 6 0 7 3 10 6 7 3 -3 17 5 31 18 14 13 29 21 34 18 5 -3 9 0 9 6 0 6 5 8 10 5 6 -3 10 -1 10 5 0 6 5 8 10 5 6 -3 10 -1 10 5 0 6 5 8 10 5 6 -3 10 -1 10 5 0 6 5 8 10 5 6 -3 10 -1 10 5 0 6 5 8 10 5 6 -3 10 -1 10 5 0 6 5 8 10 5 6 -3 10 -1 10 5 0 6 5 8 10 5 6 -3 10 -2 10 3 0 12 49 34 61 27 5 -4 9 -1 9 5 0 6 5 8 10 5 6 -3 10 -1 10 5 0 6 5 8 10 5 6 -3 10 -1 10 5 0 6 5 8 10 5 6 -3 10 -1 10 6 0 7 3 10 6 6 4 -3 13 1 21 9 9 8 22 13 29 10 8 -3 14 -1 14 5 0 6 3 8 8 6 4 -3 13 1 20 9 25 27 -11 14 -173 -62z"></path><path id="p6GqUvL03" d="M13370 16870 c0 -18 64 -51 88 -45 12 3 22 1 22 -4 0 -17 41 -34 52 -23 7 7 -15 22 -67 46 -83 39 -95 42 -95 26z"></path><path id="py6VOspgg" d="M13554 16779 c0 -10 3 -20 6 -20 10 -3 80 -6 78 -4 -2 1 -21 12 -43 23 -40 20 -41 20 -41 1z"></path><path id="p12aLVHC0W" d="M13724 16705 c11 -8 24 -15 29 -15 5 0 7 -6 4 -14 -6 -16 148 -90 166 -79 7 4 8 0 4 -12 -6 -14 -3 -16 13 -12 12 3 20 0 20 -8 0 -16 28 -28 43 -18 6 4 8 0 4 -10 -4 -11 3 -19 25 -26 17 -6 35 -8 41 -4 6 4 8 0 4 -9 -4 -11 1 -18 16 -22 50 -13 34 14 -30 50 -37 20 -90 52 -118 69 -59 38 -249 133 -221 110z"></path><path id="pM18ZCNin" d="M14177 16446 c-7 -17 26 -31 45 -20 8 5 9 2 5 -9 -6 -16 4 -21 41 -20 8 1 11 -5 8 -14 -5 -12 -1 -14 15 -10 15 4 19 2 15 -9 -5 -13 7 -18 42 -17 6 1 12 -5 12 -12 0 -8 10 -15 23 -17 14 -2 21 -9 21 -21 -1 -9 4 -17 12 -17 8 0 14 -4 14 -10 0 -5 7 -10 15 -10 8 0 15 -5 15 -11 0 -7 9 -9 21 -6 16 4 19 2 15 -10 -5 -12 -1 -14 15 -10 16 4 19 2 15 -10 -5 -12 -1 -14 14 -10 13 3 20 0 20 -10 0 -9 6 -13 15 -9 10 4 15 -1 15 -15 0 -17 5 -20 21 -16 16 4 19 2 15 -10 -5 -12 -1 -14 14 -10 15 4 20 0 20 -15 0 -15 5 -19 20 -15 15 4 20 0 20 -15 0 -13 6 -18 18 -16 9 1 23 -1 30 -6 7 -4 15 -6 18 -4 4 4 -194 146 -331 238 -27 19 -52 36 -55 40 -7 8 -186 120 -193 120 -2 0 -7 -7 -10 -14z"></path><path id="pTtmwv8NR" d="M6150 15962 c-52 -42 -109 -90 -125 -106 -17 -15 -63 -56 -102 -89 -40 -34 -73 -68 -73 -76 0 -8 7 -4 19 11 11 13 52 51 92 83 39 33 85 75 102 93 17 17 32 30 35 27 3 -2 13 7 24 20 11 14 24 23 28 20 5 -3 14 4 20 15 6 11 15 18 19 15 5 -2 16 7 25 20 9 14 21 23 25 20 5 -3 11 2 15 10 10 26 -7 16 -104 -63z"></path><path id="p10jP59c9j" d="M14829 16012 c21 -18 31 -34 26 -41 -5 -9 -1 -12 12 -9 11 2 27 -3 37 -11 9 -8 19 -12 21 -9 2 2 -19 22 -47 44 -66 49 -94 65 -49 26z"></path><path id="pBWpYFOJg" d="M14984 15893 c16 -18 25 -36 21 -43 -5 -8 0 -11 13 -8 14 2 50 -22 111 -74 50 -42 88 -72 85 -65 -3 7 -33 35 -67 63 -151 125 -190 156 -163 127z"></path><path id="p4ClBtjXz" d="M5775 15640 c-27 -21 -113 -102 -191 -181 -77 -79 -193 -198 -257 -263 -64 -65 -117 -123 -117 -127 0 -5 93 87 207 204 275 281 320 325 373 369 59 48 49 47 -15 -2z"></path><path id="pBSR4tGQx" d="M15362 15561 c48 -45 141 -139 207 -208 67 -69 121 -120 121 -113 0 15 -360 374 -392 391 -13 6 16 -25 64 -70z"></path><path id="pkQu0HkZ2" d="M15736 15190 c10 -14 39 -47 65 -75 25 -27 90 -101 143 -162 53 -62 96 -110 96 -107 0 10 -179 220 -255 299 -37 39 -59 59 -49 45z"></path><path id="psi8g5X2F" d="M5084 14910 c-128 -152 -269 -333 -286 -365 -17 -33 5 -7 84 100 69 93 114 147 271 328 33 37 57 70 54 73 -2 3 -58 -59 -123 -136z"></path><path id="p1F7TFreeH" d="M16093 14768 c30 -36 88 -110 127 -162 40 -53 75 -96 77 -96 3 0 1 6 -4 13 -5 6 -51 66 -100 132 -50 66 -106 134 -124 150 -18 17 -7 0 24 -37z"></path><path id="p94GLmsTw" d="M4778 14509 c-3 -7 -37 -56 -76 -108 -38 -51 -104 -150 -147 -220 -44 -69 -98 -156 -122 -192 -23 -36 -45 -74 -49 -85 -3 -10 5 -2 18 18 180 289 267 424 289 451 59 69 100 129 96 140 -2 7 -6 5 -9 -4z"></path><path id="pCphoRLpZ" d="M16499 14205 c5 -11 17 -29 26 -40 l16 -20 -10 20 c-5 11 -17 29 -26 40 l-16 20 10 -20z"></path><path id="pwBD9HIeE" d="M16617 14013 c15 -27 36 -57 47 -68 20 -22 17 -16 -32 63 -42 65 -52 69 -15 5z"></path><path id="pD5LEm8Dv" d="M16695 13890 c9 -16 18 -30 21 -30 2 0 -2 14 -11 30 -9 17 -18 30 -21 30 -2 0 2 -13 11 -30z"></path><path id="px8u84UVo" d="M4307 13750 c-38 -71 -66 -130 -63 -130 3 0 24 37 47 82 23 45 52 99 66 121 13 21 23 43 21 48 -2 5 -34 -49 -71 -121z"></path><path id="psKbFB7rk" d="M16735 13820 c9 -16 18 -30 21 -30 2 0 -2 14 -11 30 -9 17 -18 30 -21 30 -2 0 2 -13 11 -30z"></path><path id="pkOpT9mxX" d="M16790 13720 c17 -33 33 -60 35 -60 3 0 -8 27 -25 60 -17 33 -33 60 -35 60 -3 0 8 -27 25 -60z"></path><path id="p9G2VL0kc" d="M16855 13600 c9 -16 18 -30 21 -30 2 0 -2 14 -11 30 -9 17 -18 30 -21 30 -2 0 2 -13 11 -30z"></path><path id="pMeulMXIB" d="M4210 13570 c-11 -22 -18 -40 -15 -40 2 0 14 18 25 40 11 22 18 40 15 40 -2 0 -14 -18 -25 -40z"></path><path id="pUMugoicd" d="M16915 13470 c19 -38 38 -70 40 -70 3 0 -11 32 -30 70 -19 39 -38 70 -40 70 -3 0 11 -31 30 -70z"></path><path id="p1DSspHVnV" d="M4132 13415 c-17 -36 -30 -65 -27 -65 7 0 67 121 63 126 -2 2 -18 -26 -36 -61z"></path><path id="pEcFPB421" d="M16961 13379 c-1 -3 22 -54 49 -113 28 -59 50 -113 50 -121 0 -7 4 -15 9 -17 9 -3 70 -149 156 -378 26 -69 52 -129 57 -135 5 -5 0 15 -12 45 -12 30 -34 89 -50 130 -54 143 -112 285 -148 365 -56 121 -110 231 -111 224z"></path><path id="pV6BhpPXc" d="M4072 13285 c-12 -25 -20 -45 -17 -45 7 0 47 81 43 86 -3 2 -14 -17 -26 -41z"></path><path id="pwDcixsVQ" d="M4032 13195 c-17 -37 -14 -45 4 -12 9 16 14 31 11 33 -2 2 -9 -7 -15 -21z"></path><path id="p1GCvSesYd" d="M3990 13108 c0 -3 -7 -22 -15 -42 -8 -20 -13 -36 -10 -36 8 0 36 73 30 78 -3 3 -5 3 -5 0z"></path><path id="pUgXIQR06" d="M3942 12960 c-12 -32 -11 -34 4 -19 9 9 14 25 12 35 -3 14 -7 10 -16 -16z"></path><path id="pr7QVlr8D" d="M3882 12801 c-6 -17 -9 -31 -6 -31 7 0 25 52 20 57 -2 2 -8 -10 -14 -26z"></path><path id="pu2aIIM1V" d="M3807 12593 c-2 -10 -30 -101 -62 -203 -89 -292 -207 -805 -204 -892 1 -27 3 -24 10 17 62 340 130 633 209 890 65 210 63 205 57 205 -2 0 -7 -8 -10 -17z"></path><path id="poQZ9U1um" d="M17294 12540 c2 -14 21 -77 41 -140 98 -301 206 -782 255 -1130 100 -717 91 -1459 -26 -2155 -53 -317 -156 -743 -240 -989 -41 -122 -44 -152 -4 -41 66 180 160 538 218 830 175 872 177 1816 7 2695 -44 223 -121 537 -176 715 -50 161 -80 248 -75 215z"></path><path id="p66sirEdR" d="M3530 11425 c0 -8 -9 -83 -19 -167 -50 -388 -67 -790 -52 -1160 12 -263 40 -583 65 -733 19 -109 20 -43 1 81 -32 218 -47 449 -52 791 -6 379 5 631 38 913 27 225 33 290 25 290 -3 0 -6 -7 -6 -15z"></path><path id="p7uRObV8j" d="M15342 9675 c-29 -8 -69 -26 -88 -39 -68 -46 -124 -157 -124 -246 0 -54 30 -146 58 -176 10 -10 21 -26 24 -36 4 -9 36 -31 72 -48 152 -75 310 -26 391 121 27 48 30 63 30 139 0 95 -17 139 -81 209 -66 74 -179 104 -282 76z"></path><path id="pk4I5YU3E" d="M3541 9214 c-2 -58 94 -525 139 -674 10 -36 37 -130 60 -209 22 -79 47 -157 56 -175 8 -17 12 -22 8 -11 -112 380 -192 702 -240 970 -12 72 -23 116 -23 99z"></path><path id="p17T6W3Kvw" d="M14273 8650 c-115 -24 -225 -106 -269 -203 -25 -54 -29 -74 -29 -152 0 -78 4 -97 28 -147 37 -76 128 -159 204 -188 79 -30 178 -30 256 0 76 29 167 113 204 188 24 50 28 69 28 147 0 78 -4 98 -29 152 -63 138 -247 233 -393 203z"></path><path id="p4pOUIgQW" d="M3811 8118 c-1 -10 114 -338 133 -378 27 -58 11 -4 -54 175 -62 175 -78 215 -79 203z"></path><path id="pPblTvMzU" d="M15703 7991 c-91 -34 -166 -108 -215 -216 -18 -40 -23 -67 -23 -135 1 -106 29 -174 107 -256 83 -88 111 -99 253 -99 105 0 125 3 162 22 61 33 137 113 170 180 25 51 28 69 28 153 0 83 -4 103 -27 153 -33 70 -123 161 -187 190 -67 30 -199 34 -268 8z"></path><path id="pGQx3ElBq" d="M17236 7834 c-9 -26 -14 -49 -12 -51 2 -2 11 17 20 43 9 26 14 49 12 51 -2 2 -11 -17 -20 -43z"></path><path id="p1GTcqFX6D" d="M17191 7719 c-12 -28 -20 -53 -18 -55 2 -2 13 19 26 47 12 28 20 53 18 55 -2 2 -13 -19 -26 -47z"></path><path id="pnmDmh94J" d="M12520 7722 c-82 -28 -112 -46 -159 -97 -69 -75 -85 -121 -86 -250 0 -99 3 -116 27 -167 35 -76 104 -142 186 -181 59 -28 77 -32 152 -32 72 0 94 5 144 28 113 53 184 131 221 246 55 170 -44 377 -211 441 -81 31 -200 36 -274 12z"></path><path id="p19v9Sacas" d="M3965 7670 c26 -84 254 -575 262 -566 2 2 -32 77 -76 167 -43 90 -103 220 -131 289 -51 122 -70 161 -55 110z"></path><path id="p2vN1RXLp" d="M17092 7475 c-17 -37 -14 -45 4 -12 9 16 14 31 11 33 -2 2 -9 -7 -15 -21z"></path><path id="pQvJkGnuq" d="M17057 7395 c-24 -50 -20 -58 4 -12 11 22 19 41 17 43 -3 2 -12 -12 -21 -31z"></path><path id="pgP2rnCFq" d="M17012 7300 c-31 -54 -28 -65 4 -12 14 24 24 45 22 47 -2 2 -13 -14 -26 -35z"></path><path id="palqxcFdr" d="M6630 7261 c-97 -31 -157 -81 -193 -160 -41 -91 -47 -184 -17 -263 12 -32 26 -58 31 -58 6 0 7 -5 4 -11 -12 -18 83 -97 141 -119 66 -24 162 -26 225 -5 25 9 68 36 97 61 104 91 139 230 91 359 -24 65 -102 150 -165 180 -43 20 -172 30 -214 16z"></path><path id="pUCwUeMGG" d="M16927 7124 c-26 -52 -47 -98 -46 -102 0 -4 23 37 50 92 28 54 49 100 47 102 -2 2 -25 -39 -51 -92z"></path><path id="p1DcxWt2qS" d="M4290 6983 c52 -100 89 -157 90 -137 0 6 -9 21 -19 33 -11 13 -41 63 -66 112 -25 49 -48 89 -51 89 -3 0 18 -44 46 -97z"></path><path id="pkZReLxTS" d="M13932 7055 c-145 -63 -207 -228 -138 -368 47 -97 131 -150 236 -150 78 0 123 18 180 70 146 130 109 361 -70 442 -54 25 -158 27 -208 6z"></path><path id="ppZVuDemC" d="M16852 6955 c-30 -62 -27 -71 4 -12 14 27 24 51 22 53 -3 2 -14 -17 -26 -41z"></path><path id="pnL42iaY6" d="M16787 6845 c-24 -50 -20 -58 4 -12 11 22 19 41 17 43 -3 2 -12 -12 -21 -31z"></path><path id="p6lRbrp8N" d="M4380 6815 c1 -5 12 -28 25 -50 14 -22 25 -35 25 -30 -1 6 -12 28 -25 50 -14 22 -25 36 -25 30z"></path><path id="pGARZMaFC" d="M4479 6645 c17 -33 31 -51 31 -40 0 6 -10 21 -21 35 -13 17 -17 18 -10 5z"></path><path id="pTxw4VYZw" d="M4580 6484 c90 -131 110 -158 110 -151 0 12 -72 118 -100 146 -16 18 -19 19 -10 5z"></path><path id="pShQDub1z" d="M16486 6350 c-14 -22 -26 -43 -26 -47 0 -4 6 1 13 12 33 48 49 75 44 75 -2 0 -16 -18 -31 -40z"></path><path id="p1uKGwpdP" d="M4790 6176 c0 -4 23 -37 50 -73 28 -36 50 -63 50 -59 0 4 -22 37 -50 73 -27 36 -50 63 -50 59z"></path><path id="pGzmzhvty" d="M8172 6109 c-107 -21 -215 -109 -252 -205 -27 -72 -25 -195 5 -257 29 -62 101 -133 167 -166 163 -82 385 1 449 168 27 69 29 185 5 250 -9 24 -14 46 -12 48 5 5 -25 43 -59 75 -34 33 -157 86 -210 91 -27 3 -69 1 -93 -4z"></path><path id="ppO3owYJv" d="M16298 6067 c-20 -23 -62 -76 -94 -117 -31 -41 -81 -106 -112 -143 -30 -37 -53 -70 -50 -72 2 -3 51 57 109 132 57 75 118 152 134 172 42 49 58 71 54 71 -2 0 -21 -19 -41 -43z"></path><path id="pJcPpJ8C6" d="M4900 6037 c0 -4 55 -75 123 -158 155 -192 166 -206 167 -196 0 5 -24 37 -53 70 -30 34 -91 109 -137 167 -100 126 -100 126 -100 117z"></path><path id="p1C3N8nQXO" d="M15954 5632 c-44 -48 -132 -143 -194 -212 -128 -140 -200 -212 -375 -373 -234 -216 -277 -257 -268 -257 5 0 34 24 65 53 31 28 131 122 224 207 199 182 192 176 359 361 72 79 157 173 190 209 63 67 90 100 84 100 -2 0 -40 -39 -85 -88z"></path><path id="pmLgTJVpP" d="M5300 5549 c156 -171 403 -415 592 -582 97 -86 180 -162 183 -167 3 -6 11 -10 18 -10 14 0 -40 51 -244 231 -148 131 -405 386 -540 534 -35 39 -72 77 -84 84 -11 8 23 -32 75 -90z"></path><path id="p1B04NprHl" d="M6130 4769 c48 -40 75 -67 104 -104 15 -20 72 -69 125 -108 53 -39 102 -77 110 -84 22 -22 132 -95 137 -91 2 2 -27 26 -65 54 -171 122 -302 228 -315 253 -15 27 -97 101 -113 101 -4 -1 3 -10 17 -21z"></path><path id="p7PGxo0od" d="M15070 4775 c-7 -9 -72 -62 -144 -118 -72 -56 -138 -109 -147 -118 -9 -9 -59 -46 -113 -84 -53 -37 -95 -69 -92 -72 6 -6 157 104 328 239 151 119 206 167 192 168 -6 0 -17 -7 -24 -15z"></path><path id="pOnQ8nYwJ" d="M6620 4376 c0 -2 24 -19 53 -37 28 -18 109 -70 178 -116 126 -82 449 -267 455 -260 5 4 -35 28 -226 136 -85 49 -220 132 -299 185 -130 87 -161 104 -161 92z"></path><path id="p1HEdK4HL8" d="M14485 4343 c-27 -19 -52 -39 -54 -45 -2 -6 25 9 60 32 78 53 75 50 58 49 -8 -1 -36 -17 -64 -36z"></path><path id="pw3wz5Rnf" d="M7450 3892 c308 -153 780 -353 827 -351 11 0 6 5 -12 11 -141 50 -531 216 -709 302 -120 58 -224 106 -230 105 -6 0 50 -30 124 -67z"></path><path id="p4HelWCAS" d="M8465 3485 c337 -113 842 -230 1185 -275 198 -26 457 -50 532 -50 l58 0 0 -49 c0 -92 20 -256 40 -323 36 -120 71 -160 220 -250 111 -68 147 -81 220 -81 77 -1 145 29 216 95 75 69 135 228 86 228 -13 0 -22 -13 -31 -50 -7 -27 -17 -52 -22 -56 -5 -3 -9 -14 -9 -25 0 -10 -4 -19 -10 -19 -5 0 -10 -11 -10 -25 0 -19 -5 -25 -22 -25 -12 0 -29 -6 -37 -14 -9 -8 -43 -28 -75 -46 -62 -33 -91 -35 -161 -7 -53 20 -179 98 -232 143 -28 24 -56 44 -62 44 -6 0 -11 9 -11 21 0 11 -9 51 -20 87 -21 74 -40 225 -40 327 0 51 -3 65 -15 65 -8 0 -15 -7 -15 -15 0 -10 -10 -15 -33 -15 -112 0 -522 43 -722 76 -304 50 -725 152 -1008 244 -84 27 -160 50 -168 49 -8 0 58 -25 146 -54z"></path><path id="pBJraMlSH" d="M11890 3284 c-157 -33 -494 -80 -670 -94 -80 -6 -157 -15 -172 -20 -24 -7 -28 -5 -28 11 0 10 -4 19 -10 19 -5 0 -10 -22 -10 -50 0 -43 3 -50 20 -50 16 0 20 7 20 30 0 17 4 30 8 30 49 0 382 37 543 60 200 29 447 75 457 85 10 10 -46 2 -158 -21z"></path></g></g><g id="l2zDOuJZniQ2gNpAJY7Ez8V" fill="rgb(90,69,48)" style="transform: none;"><g><path id="pE4CNsWbY" d="M10665 5754 c-131 -27 -210 -35 -460 -44 -263 -9 -361 -25 -405 -65 -33 -30 -25 -69 21 -103 9 -7 94 -24 190 -38 145 -22 196 -25 307 -21 l132 5 0 -98 c0 -63 -9 -143 -25 -226 -31 -157 -51 -301 -70 -499 -8 -82 -22 -195 -30 -250 -8 -55 -19 -140 -25 -190 -5 -49 -19 -169 -30 -265 -17 -145 -20 -239 -20 -547 0 -405 9 -537 46 -655 22 -67 31 -83 77 -123 50 -45 151 -109 230 -148 21 -10 69 -21 105 -24 62 -5 72 -3 127 27 119 64 166 122 195 240 15 61 7 368 -14 545 -41 343 -46 396 -52 500 -7 131 -30 279 -49 315 -7 14 -19 66 -25 115 -6 50 -26 167 -45 260 -51 256 -130 747 -140 865 -2 30 -7 84 -11 120 -13 118 -14 113 36 129 25 7 59 20 75 27 17 7 49 18 72 23 50 10 143 67 143 86 0 30 -31 45 -93 45 -34 1 -91 3 -127 5 -36 2 -96 -3 -135 -11z"></path></g></g></svg>